<?xml version="1.0" encoding="UTF-8"?>
<!DOCTYPE svg PUBLIC "-//W3C//DTD SVG 1.1//EN" "http://www.w3.org/Graphics/SVG/1.1/DTD/svg11.dtd">
<!-- Creator: CorelDRAW X6 -->
<svg xmlns="http://www.w3.org/2000/svg" xml:space="preserve" width="34mm" height="30mm" version="1.1" style="shape-rendering:geometricPrecision; text-rendering:geometricPrecision; image-rendering:optimizeQuality; fill-rule:evenodd; clip-rule:evenodd"
viewBox="0 0 3400 3000"
 xmlns:xlink="http://www.w3.org/1999/xlink">
 <defs>
  <style type="text/css">
   <![CDATA[
    .str0 {stroke:#2B2A29;stroke-width:50;stroke-linejoin:round}
    .fil1 {fill:none}
    .fil2 {fill:#2B2A29}
    .fil4 {fill:#57A7B3}
    .fil5 {fill:#66C3D0}
    .fil6 {fill:#D9DADA}
    .fil3 {fill:#FEFEFE}
    .fil0 {fill:#EC9C12}
    .fil7 {fill:#2B2A29;fill-rule:nonzero}
   ]]>
  </style>
 </defs>
 <g id="Слой_x0020_1">
  <metadata id="CorelCorpID_0Corel-Layer"/>
  <g id="_248501664">
   <g>
    <path class="fil0 str0" d="M1677 82c-36,387 343,405 382,19 374,229 419,907 -240,887 -580,-17 -586,-754 -142,-906z"/>
    <path class="fil1 str0" d="M1650 751c-4,112 171,147 198,8 11,106 163,128 200,-8"/>
    <path class="fil2 str0" d="M1776 695c0,0 -56,-45 -27,-51 13,-2 256,-33 191,31 -16,16 -92,84 -92,84l-72 -64z"/>
    <line class="fil1 str0" x1="1557" y1="663" x2="1196" y2= "663" />
    <line class="fil1 str0" x1="1554" y1="781" x2="1210" y2= "783" />
    <line class="fil1 str0" x1="2147" y1="663" x2="2316" y2= "664" />
    <line class="fil1 str0" x1="2150" y1="773" x2="2271" y2= "780" />
    <circle class="fil3 str0" cx="1698" cy="516" r="67"/>
    <circle class="fil3 str0" cx="2024" cy="519" r="67"/>
    <circle class="fil2 str0" cx="1732" cy="516" r="23"/>
    <circle class="fil2 str0" cx="2058" cy="519" r="22"/>
    <path class="fil0 str0" d="M1618 946c-91,169 -146,153 -275,297 -148,164 -179,324 -13,484 50,48 98,74 98,74l-16 26c-409,-189 -254,-471 -132,-621 12,-15 24,-28 34,-41 4,-6 8,-11 12,-17 75,-109 -70,-202 -202,-106 -617,452 129,1302 554,1004 68,-47 81,-173 81,-225l-2 -335c0,0 -8,406 16,494 33,121 152,131 190,3 41,-140 28,-349 29,-496l23 446c10,193 201,172 202,-29l2 -424c0,0 87,-111 65,-218 -21,-107 -107,-105 -126,-169 -19,-64 -17,-179 -17,-179 0,0 -147,80 -269,74 -122,-5 -186,-23 -254,-42z"/>
    <rect class="fil4 str0" x="653" y="2130" width="2146.01" height="89.6314"/>
    <path class="fil5 str0" d="M731 2219l1990 0 0 151c0,83 -68,150 -150,150l-1690 0c-83,0 -150,-67 -150,-150l0 -151z"/>
    <path class="fil6 str0" d="M2555 2130l-1687 0c-5,-38 26,-39 49,-36 41,6 16,50 60,-9 46,-62 79,49 132,-35 36,-59 139,6 143,-52 4,-53 73,-14 89,-47 34,-69 134,-34 175,-74 52,-52 185,-34 168,26 -19,66 132,-85 167,9 26,72 33,-58 60,0 14,33 177,-116 189,-28 7,47 57,-26 110,1 93,49 195,-47 278,104 6,11 99,82 67,141z"/>
   </g>
   <path class="fil7" d="M457 2819c-8,5 -16,7 -26,7 -12,0 -17,-7 -17,-22l0 -32c0,-6 -2,-11 -6,-15 -4,-4 -9,-6 -16,-6 -6,0 -12,2 -15,6 -4,4 -6,9 -6,15l0 33c0,22 4,37 14,45 9,9 22,13 39,13 13,0 24,-3 33,-8l0 38c0,7 2,12 5,16 4,4 9,6 16,6 7,0 12,-2 16,-6 4,-4 6,-9 6,-16l0 -121c0,-6 -2,-11 -6,-15 -4,-4 -9,-6 -16,-6 -6,0 -12,2 -16,6 -3,4 -5,9 -5,15l0 47z"/>
   <path id="1" class="fil7" d="M575 2772c0,-6 -2,-11 -5,-15 -4,-4 -9,-6 -16,-6 -7,0 -13,2 -16,6 -4,4 -6,9 -6,15l0 121c0,7 2,13 6,16 3,4 8,6 15,6 7,0 13,-4 20,-12l57 -80 0 70c0,6 2,12 6,16 3,4 9,6 16,6 7,0 12,-2 16,-6 3,-4 5,-9 5,-16l0 -121c0,-6 -2,-11 -5,-15 -3,-4 -8,-6 -16,-6 -7,0 -14,4 -19,11l-15 21 -28 40 -15 20 0 -71z"/>
   <path id="2" class="fil7" d="M777 2786c7,0 16,2 26,5 12,4 20,2 24,-7 2,-3 3,-6 2,-11 -1,-5 -4,-9 -8,-13 -11,-8 -26,-12 -45,-12 -24,0 -42,8 -56,23 -14,16 -21,36 -21,62 0,27 6,47 19,62 13,15 31,22 56,22 20,0 36,-4 48,-14 6,-4 10,-10 11,-16 1,-6 0,-11 -3,-14 -5,-7 -14,-8 -25,-3 -4,3 -7,4 -9,5 -2,1 -4,2 -8,3 -3,1 -7,1 -10,1 -10,0 -18,-4 -24,-12 -7,-7 -10,-19 -10,-34 0,-15 3,-26 9,-34 6,-9 14,-13 24,-13z"/>
   <path id="3" class="fil7" d="M861 2751c-6,0 -11,1 -15,5 -4,3 -6,7 -6,13 0,6 2,11 6,14 4,4 9,6 15,6l32 0 0 104c0,7 2,12 6,16 3,4 9,6 16,6 6,0 12,-2 15,-6 4,-4 6,-9 6,-16l0 -104 32 0c6,0 11,-2 15,-6 4,-3 6,-8 6,-14 0,-6 -2,-10 -6,-13 -4,-4 -9,-5 -15,-5l-107 0z"/>
   <path id="4" class="fil7" d="M997 2833c0,25 7,45 21,61 14,15 34,23 59,23 26,0 46,-8 60,-23 14,-16 21,-36 21,-61 0,-25 -7,-45 -21,-61 -14,-16 -34,-24 -60,-24 -25,0 -45,8 -59,24 -14,16 -21,36 -21,61zm45 0c0,-14 3,-25 9,-34 6,-8 14,-13 26,-13 12,0 21,5 27,13 5,9 8,20 8,34 0,14 -3,25 -8,33 -6,9 -15,13 -27,13 -12,0 -20,-4 -26,-13 -6,-8 -9,-19 -9,-33z"/>
   <path id="5" class="fil7" d="M1281 2772c0,-6 -2,-11 -6,-15 -3,-4 -9,-6 -16,-6 -7,0 -12,2 -16,6 -3,4 -5,9 -5,15l0 121c0,7 2,13 5,16 4,4 9,6 16,6 6,0 13,-4 19,-12l58 -80 0 70c0,6 2,12 5,16 4,4 9,6 16,6 7,0 13,-2 16,-6 4,-4 6,-9 6,-16l0 -121c0,-6 -2,-11 -5,-15 -4,-4 -9,-6 -16,-6 -8,0 -14,4 -20,11l-14 21 -29 40 -14 20 0 -71z"/>
   <path id="6" class="fil7" d="M1486 2751c-7,0 -12,2 -15,6 -4,4 -6,9 -6,15l0 118c0,13 7,21 20,23 11,2 25,3 40,3 20,0 36,-4 48,-13 12,-9 18,-23 18,-42 0,-33 -21,-50 -62,-50 -8,0 -15,0 -21,1l0 -23 53 0c6,0 11,-2 15,-5 3,-4 5,-8 5,-14 0,-6 -2,-11 -5,-14 -4,-4 -9,-5 -15,-5l-75 0zm39 94c7,0 12,2 16,5 3,4 5,8 5,13 0,6 -2,10 -6,14 -4,3 -10,5 -17,5 -5,0 -10,-1 -15,-1l0 -35c4,0 10,-1 17,-1z"/>
   <path id="7" class="fil7" d="M1617 2893c0,7 2,12 6,16 3,4 9,6 15,6l78 0c7,0 12,-2 16,-5 3,-4 5,-8 5,-14 0,-6 -2,-11 -5,-14 -4,-4 -9,-5 -16,-5l-56 0 0 -26 42 0c6,0 12,-2 15,-6 4,-3 6,-8 6,-13 0,-6 -2,-11 -6,-14 -3,-4 -9,-5 -15,-5l-42 0 0 -24 54 0c7,0 12,-2 15,-6 4,-3 6,-8 6,-13 0,-6 -2,-11 -6,-14 -3,-4 -8,-5 -15,-5l-76 0c-6,0 -12,2 -15,6 -4,4 -6,9 -6,15l0 121z"/>
   <path id="8" class="fil7" d="M1811 2879c-8,0 -17,-2 -27,-5 -15,-6 -24,-4 -29,6 -2,6 -2,11 0,16 2,5 6,9 12,12 12,6 26,9 44,9 10,0 19,-1 27,-2 8,-2 15,-5 22,-9 7,-4 12,-10 16,-17 4,-7 6,-16 6,-27 0,-17 -9,-29 -25,-36 6,-3 11,-7 15,-13 3,-6 5,-13 5,-20 0,-15 -6,-26 -17,-33 -11,-8 -26,-12 -45,-12 -8,0 -17,1 -25,3 -9,2 -16,5 -21,8 -6,3 -9,7 -10,12 -2,5 -2,10 0,14 2,3 3,5 6,6 2,2 4,3 7,3 2,0 4,0 6,-1 2,0 5,-1 7,-2 10,-3 19,-5 25,-5 15,0 22,5 22,15 0,10 -7,14 -21,14l-19 0c-5,0 -9,2 -12,5 -3,3 -4,7 -4,12 0,5 1,8 4,11 3,3 7,5 12,5l23 0c14,0 21,5 21,14 0,12 -8,17 -25,17z"/>
   <path id="9" class="fil7" d="M2012 2879c-8,0 -17,-2 -27,-5 -15,-6 -24,-4 -29,6 -2,6 -2,11 0,16 2,5 6,9 12,12 12,6 26,9 44,9 10,0 19,-1 27,-2 8,-2 15,-5 22,-9 7,-4 12,-10 16,-17 4,-7 6,-16 6,-27 0,-17 -9,-29 -25,-36 6,-3 11,-7 15,-13 3,-6 5,-13 5,-20 0,-15 -6,-26 -17,-33 -11,-8 -26,-12 -45,-12 -8,0 -17,1 -25,3 -9,2 -16,5 -21,8 -6,3 -9,7 -10,12 -2,5 -2,10 0,14 2,3 3,5 5,6 3,2 5,3 8,3 2,0 4,0 6,-1 2,0 5,-1 7,-2 10,-3 19,-5 25,-5 15,0 22,5 22,15 0,10 -7,14 -21,14l-19 0c-5,0 -9,2 -12,5 -3,3 -4,7 -4,12 0,5 1,8 4,11 3,3 7,5 12,5l23 0c14,0 21,5 21,14 0,12 -8,17 -25,17z"/>
   <path id="10" class="fil7" d="M2199 2898c2,7 6,12 11,15 5,2 11,3 17,0 6,-2 10,-7 11,-12 2,-6 1,-12 -1,-17l-52 -122c-4,-9 -10,-14 -20,-14 -10,0 -17,5 -21,16l-50 121c-3,6 -4,11 -3,17 1,6 5,9 10,11 7,3 13,2 18,-1 5,-4 8,-9 11,-16l7 -22 53 0 9 24zm-36 -95l16 40 -31 0 15 -40z"/>
   <path id="11" class="fil7" d="M2255 2893c0,7 2,12 6,16 3,4 9,6 15,6 7,0 13,-2 16,-6 4,-4 6,-9 6,-16l0 -104 49 0 0 104c0,7 2,12 6,16 3,4 9,6 16,6 7,0 12,-2 16,-6 3,-4 5,-9 5,-16l0 -121c0,-6 -2,-11 -5,-15 -4,-4 -9,-6 -16,-6l-93 0c-6,0 -12,2 -15,6 -4,4 -6,9 -6,15l0 121z"/>
   <path id="12" class="fil7" d="M2516 2898c3,7 7,12 12,15 5,2 10,3 17,0 6,-2 9,-7 11,-12 1,-6 1,-12 -2,-17l-51 -122c-4,-9 -11,-14 -20,-14 -10,0 -17,5 -21,16l-50 121c-3,6 -4,11 -3,17 1,6 4,9 10,11 7,3 13,2 18,-1 4,-4 8,-9 10,-16l8 -22 52 0 9 24zm-35 -95l15 40 -31 0 16 -40z"/>
   <path id="13" class="fil7" d="M2603 2762c-4,-5 -9,-9 -14,-11 -5,-1 -11,0 -18,4 -5,4 -7,9 -8,16 0,6 2,11 6,15l36 45 -40 52c-3,4 -5,9 -5,15 1,5 3,10 8,14 11,6 21,3 29,-9l31 -42 33 43c4,6 9,9 14,11 5,1 11,0 16,-4 5,-4 8,-9 9,-15 0,-6 -2,-11 -5,-16l-40 -51 35 -46c4,-5 6,-10 6,-15 0,-4 -3,-9 -8,-13 -10,-8 -20,-5 -29,8l-28 37 -28 -38z"/>
   <path id="14" class="fil7" d="M2711 2833c0,25 7,45 21,61 14,15 34,23 59,23 26,0 46,-8 60,-23 14,-16 21,-36 21,-61 0,-25 -7,-45 -21,-61 -14,-16 -34,-24 -60,-24 -25,0 -45,8 -59,24 -14,16 -21,36 -21,61zm45 0c0,-14 3,-25 9,-34 6,-8 15,-13 26,-13 12,0 21,5 27,13 6,9 9,20 9,34 0,14 -3,25 -9,33 -6,9 -15,13 -27,13 -11,0 -20,-4 -26,-13 -6,-8 -9,-19 -9,-33z"/>
   <path id="15" class="fil7" d="M2899 2891c0,13 6,20 19,22 12,2 26,3 42,3 46,0 69,-17 69,-52 0,-8 -2,-16 -6,-23 -4,-7 -11,-12 -19,-15 5,-3 10,-8 13,-13 4,-6 5,-12 5,-19 0,-15 -5,-26 -17,-34 -12,-7 -27,-11 -46,-11 -14,0 -27,1 -40,3 -14,2 -20,10 -20,23l0 116zm63 -44c15,0 23,6 23,17 0,12 -8,18 -24,18 -10,0 -17,-1 -22,-1l0 -34 23 0zm-5 -63c14,0 21,5 21,16 0,5 -1,9 -5,12 -3,3 -8,4 -14,4l-20 0 0 -31c7,-1 13,-1 18,-1z"/>
  </g>
 </g>
</svg>
