<?xml version="1.0" encoding="UTF-8"?>
<!DOCTYPE svg PUBLIC "-//W3C//DTD SVG 1.1//EN" "http://www.w3.org/Graphics/SVG/1.1/DTD/svg11.dtd">
<!-- Creator: CorelDRAW X6 -->
<svg xmlns="http://www.w3.org/2000/svg" xml:space="preserve" width="34mm" height="30mm" version="1.1" style="shape-rendering:geometricPrecision; text-rendering:geometricPrecision; image-rendering:optimizeQuality; fill-rule:evenodd; clip-rule:evenodd"
viewBox="0 0 3400 3000"
 xmlns:xlink="http://www.w3.org/1999/xlink">
 <defs>
  <style type="text/css">
   <![CDATA[
    .str0 {stroke:#2B2A29;stroke-width:50;stroke-linejoin:round}
    .fil2 {fill:none}
    .fil1 {fill:#2B2A29}
    .fil5 {fill:#D9DADA}
    .fil4 {fill:#FCD5A6}
    .fil3 {fill:#FEFEFE}
    .fil0 {fill:#A36B36}
    .fil6 {fill:#2B2A29;fill-rule:nonzero}
   ]]>
  </style>
 </defs>
 <g id="Слой_x0020_1">
  <metadata id="CorelCorpID_0Corel-Layer"/>
  <g id="_248506240">
   <g>
    <path class="fil0 str0" d="M1214 1440c109,74 331,119 515,106 365,-25 459,-283 251,-565 -32,-43 -87,-215 -30,-377 35,-102 223,-346 291,-146 14,41 30,94 64,141 62,86 137,88 190,30 131,-140 48,-307 -47,-443 -164,-230 -509,-41 -607,162 -146,-73 -318,-110 -464,-19 0,0 -134,-218 -270,-240 -506,-81 -531,451 -327,550 59,29 147,4 188,-45 51,-60 82,-178 79,-208 -6,-46 58,9 116,72 59,63 147,171 161,316 26,252 -40,267 -105,304 -124,67 -79,311 -5,362z"/>
    <path class="fil1 str0" d="M1563 1074c-21,3 -37,12 -59,-4 -22,-17 -31,-56 0,-66 33,-10 187,-24 214,6 19,21 23,59 2,61 -33,4 -52,-7 -65,6 -9,9 -11,18 -14,25 -7,21 -45,22 -56,8 -11,-14 -6,-38 -22,-36z"/>
    <path class="fil2 str0" d="M1615 1119c11,345 -282,327 -287,80"/>
    <path class="fil2 str0" d="M1615 1132c-13,311 212,310 275,85"/>
    <circle class="fil3 str0" cx="1478" cy="800" r="67"/>
    <circle class="fil3 str0" cx="1736" cy="795" r="67"/>
    <circle class="fil1 str0" cx="1447" cy="806" r="20"/>
    <circle class="fil1 str0" cx="1707" cy="799" r="22"/>
    <path class="fil0 str0" d="M2050 1396c0,0 9,92 91,138 82,47 314,28 339,205 32,233 -85,346 -279,358 0,0 181,122 303,-127 45,-90 102,-94 142,-80 100,36 128,244 -22,353 -174,125 -734,279 -734,-62 0,-147 -10,-383 -10,-383l12 445c3,80 -76,132 -157,133 -74,1 -147,-35 -155,-161 -8,-135 2,-340 -7,-423 -14,-9 -31,0 -31,0l-15 439c-8,213 -294,175 -303,-6 -5,-97 -4,-308 11,-432 15,-128 99,-250 -21,-353 74,39 604,245 836,-44z"/>
    <path class="fil4 str0" d="M873 2029c0,0 143,-79 195,-117 52,-38 92,-98 286,-90 194,8 318,-87 419,-133 101,-47 181,-41 199,56 23,123 -214,202 -401,263 341,190 561,68 813,26 59,-10 176,31 90,160 191,-112 286,-17 196,87 -102,118 -384,186 -594,212 -271,35 -878,-115 -1067,21 0,0 -76,-395 -136,-485z"/>
    <path class="fil2 str0" d="M858 2038c0,0 139,-84 191,-122 52,-39 93,-99 286,-90 194,8 318,-87 419,-133 101,-47 181,-41 199,55 23,124 -214,203 -401,263 341,191 561,69 813,27 59,-10 175,1 125,110 -36,76 -186,184 -684,148"/>
    <path class="fil2 str0" d="M2441 2205c197,-118 304,-29 212,78 -102,119 -384,186 -594,213 -272,34 -878,-116 -1068,20 0,0 -73,-387 -133,-478"/>
    <path class="fil5 str0" d="M540 2003l259 -46c91,70 210,475 188,663l-258 63c4,-264 -38,-411 -189,-680z"/>
   </g>
   <path class="fil6" d="M248 2893c0,13 7,20 20,22 12,2 26,3 42,3 46,0 69,-17 69,-51 0,-9 -2,-17 -6,-24 -5,-7 -11,-12 -20,-15 6,-3 11,-7 14,-13 4,-6 5,-12 5,-19 0,-15 -6,-26 -17,-34 -12,-7 -27,-10 -47,-10 -13,0 -27,1 -40,3 -13,2 -20,9 -20,22l0 116zm64 -44c15,0 23,6 23,17 0,12 -8,18 -24,18 -10,0 -17,-1 -22,-1l0 -34 23 0zm-5 -63c14,0 21,6 21,16 0,5 -1,9 -5,12 -3,3 -8,4 -14,4l-20 0 0 -31c7,-1 13,-1 18,-1z"/>
   <path id="1" class="fil6" d="M476 2789c7,0 16,1 26,5 12,4 20,1 24,-8 2,-2 3,-6 2,-11 -1,-5 -4,-9 -8,-12 -11,-8 -26,-13 -45,-13 -24,0 -42,8 -56,23 -14,16 -21,36 -21,62 0,27 6,48 19,62 13,15 31,23 56,23 20,0 36,-5 48,-15 6,-4 10,-9 11,-15 1,-7 0,-11 -3,-15 -6,-7 -14,-8 -25,-2 -4,2 -7,3 -9,4 -2,1 -4,2 -8,3 -3,1 -7,1 -10,1 -10,0 -18,-4 -24,-11 -7,-8 -10,-20 -10,-35 0,-14 3,-26 9,-34 5,-8 13,-12 24,-12z"/>
   <path id="2" class="fil6" d="M555 2895c0,7 2,12 6,16 3,4 9,6 16,6l77 0c7,0 12,-2 16,-5 4,-4 5,-8 5,-14 0,-6 -1,-11 -5,-14 -4,-3 -9,-5 -16,-5l-56 0 0 -26 42 0c7,0 12,-2 15,-5 4,-4 6,-8 6,-14 0,-6 -2,-11 -6,-14 -3,-4 -8,-5 -15,-5l-42 0 0 -24 54 0c7,0 12,-2 16,-5 3,-4 5,-8 5,-14 0,-6 -2,-11 -5,-14 -4,-3 -9,-5 -16,-5l-75 0c-7,0 -13,2 -16,6 -4,4 -6,9 -6,16l0 120z"/>
   <path id="3" class="fil6" d="M823 2844l0 51c0,15 7,22 20,22 13,0 20,-7 20,-22l0 -51 46 64c4,5 10,8 16,9 7,0 12,-1 17,-6 4,-4 6,-8 6,-14 1,-6 -1,-12 -6,-18l-39 -47 34 -44c4,-6 6,-11 6,-17 0,-5 -3,-10 -7,-13 -5,-4 -11,-6 -17,-4 -6,1 -11,5 -15,11l-41 59 0 -49c0,-7 -2,-12 -5,-16 -3,-4 -8,-6 -15,-6 -7,0 -12,2 -15,6 -3,4 -5,9 -5,16l0 48 -40 -58c-5,-6 -10,-10 -17,-12 -6,-1 -12,0 -18,5 -4,4 -6,9 -6,15 0,6 2,12 6,17l36 43 -40 45c-5,6 -8,11 -8,18 0,6 2,11 7,15 7,5 13,7 20,5 6,-1 12,-5 16,-12l44 -60z"/>
   <path id="4" class="fil6" d="M1009 2775c0,-7 -2,-12 -6,-16 -3,-4 -8,-6 -15,-6 -8,0 -13,2 -17,6 -3,4 -5,9 -5,16l0 120c0,7 2,13 5,17 4,3 9,5 16,5 6,0 13,-4 19,-12l58 -79 0 69c0,7 2,12 5,16 4,4 9,6 17,6 7,0 12,-2 15,-6 4,-4 6,-9 6,-16l0 -120c0,-7 -2,-12 -5,-16 -4,-4 -9,-6 -16,-6 -8,0 -14,4 -20,12l-14 20 -29 40 -14 20 0 -70z"/>
   <path id="5" class="fil6" d="M1140 2893c0,13 6,20 19,22 12,2 26,3 42,3 46,0 69,-17 69,-51 0,-9 -2,-17 -6,-24 -4,-7 -11,-12 -19,-15 5,-3 10,-7 13,-13 4,-6 5,-12 5,-19 0,-15 -5,-26 -17,-34 -12,-7 -27,-10 -46,-10 -14,0 -27,1 -40,3 -14,2 -20,9 -20,22l0 116zm63 -44c15,0 23,6 23,17 0,12 -8,18 -24,18 -9,0 -17,-1 -22,-1l0 -34 23 0zm-5 -63c14,0 21,6 21,16 0,5 -1,9 -5,12 -3,3 -8,4 -14,4l-20 0 0 -31c7,-1 13,-1 18,-1z"/>
   <path id="6" class="fil6" d="M1288 2835c0,25 7,45 21,61 14,16 34,24 59,24 26,0 46,-8 60,-24 14,-16 21,-36 21,-61 0,-25 -7,-45 -21,-61 -14,-16 -34,-24 -60,-24 -25,0 -45,8 -59,24 -14,16 -21,36 -21,61zm45 0c0,-14 3,-25 9,-34 6,-8 15,-12 26,-12 12,0 21,4 27,12 6,9 9,20 9,34 0,14 -3,25 -9,34 -6,8 -15,12 -27,12 -11,0 -20,-4 -26,-12 -6,-9 -9,-20 -9,-34z"/>
   <path id="7" class="fil6" d="M1480 2753c-7,0 -12,1 -16,5 -3,3 -5,8 -5,14 0,5 2,10 6,14 3,3 8,5 15,5l32 0 0 104c0,7 1,12 5,16 4,4 9,6 16,6 7,0 12,-2 16,-6 4,-4 5,-9 5,-16l0 -104 32 0c7,0 12,-2 15,-5 4,-4 6,-9 6,-14 0,-6 -2,-11 -5,-14 -4,-4 -9,-5 -16,-5l-106 0z"/>
   <path id="8" class="fil6" d="M1721 2814l-55 0 0 -39c0,-7 -2,-12 -6,-16 -3,-4 -9,-6 -15,-6 -7,0 -12,2 -16,6 -4,4 -6,9 -6,16l0 120c0,7 2,12 6,16 4,4 9,6 16,6 6,0 12,-2 15,-6 4,-4 6,-9 6,-16l0 -43 55 0 0 43c0,7 2,12 5,16 4,4 10,6 17,6 6,0 12,-2 15,-6 4,-4 6,-9 6,-16l0 -120c0,-7 -2,-12 -6,-16 -3,-4 -9,-6 -15,-6 -7,0 -13,2 -16,6 -4,4 -6,9 -6,16l0 39z"/>
   <path id="9" class="fil6" d="M1934 2895c0,7 2,12 6,16 3,4 9,6 15,6 7,0 12,-2 16,-6 4,-4 6,-9 6,-16l0 -120c0,-7 -2,-12 -6,-16 -4,-4 -9,-6 -16,-6 -6,0 -12,2 -15,6 -4,4 -6,9 -6,16l0 120zm-137 -3c0,13 6,21 20,23 12,2 25,3 38,3 19,0 34,-5 45,-15 12,-10 18,-24 18,-42 0,-18 -6,-31 -16,-40 -11,-9 -26,-14 -44,-14 -7,0 -13,1 -19,2l0 -34c0,-7 -1,-12 -5,-16 -4,-4 -9,-6 -16,-6 -7,0 -12,2 -16,6 -4,4 -5,9 -5,16l0 117zm56 -12c-6,0 -11,0 -14,0l0 -34c4,0 9,-1 14,-1 7,0 13,2 16,5 4,2 6,7 6,13 0,11 -7,17 -22,17z"/>
   <path id="10" class="fil6" d="M2009 2895c0,7 2,12 5,16 4,4 9,6 16,6l78 0c6,0 12,-2 15,-5 4,-4 6,-8 6,-14 0,-6 -2,-11 -6,-14 -3,-3 -9,-5 -15,-5l-56 0 0 -26 42 0c6,0 11,-2 15,-5 4,-4 6,-8 6,-14 0,-6 -2,-11 -6,-14 -4,-4 -9,-5 -15,-5l-42 0 0 -24 54 0c6,0 11,-2 15,-5 4,-4 6,-8 6,-14 0,-6 -2,-11 -6,-14 -4,-3 -9,-5 -15,-5l-76 0c-7,0 -12,2 -16,6 -3,4 -5,9 -5,16l0 120z"/>
   <path id="11" class="fil6" d="M2205 2895c0,7 2,12 5,16 4,4 9,6 16,6 7,0 12,-2 16,-6 4,-4 6,-9 6,-16l0 -30c5,1 10,2 15,2 19,0 35,-5 48,-15 12,-10 18,-24 18,-44 0,-19 -6,-33 -18,-42 -12,-10 -28,-14 -48,-14 -16,0 -29,1 -39,3 -13,3 -19,11 -19,24l0 116zm56 -65c-6,0 -10,0 -13,-1l0 -40c3,0 8,0 14,0 7,0 12,1 16,5 4,3 6,8 6,14 0,7 -2,13 -6,16 -5,4 -10,6 -17,6z"/>
   <path id="12" class="fil6" d="M2394 2870c-3,7 -7,11 -11,11 -2,0 -7,-1 -15,-3 -5,-2 -9,-1 -12,0 -4,2 -7,5 -8,10 -2,6 -2,10 1,15 2,5 5,8 11,11 7,4 15,6 26,6 11,0 20,-5 28,-13 8,-8 16,-21 23,-38l37 -85c3,-6 4,-11 3,-17 -2,-6 -5,-10 -11,-12 -13,-5 -22,0 -28,15l-25 60 -33 -61c-9,-16 -19,-20 -32,-13 -6,3 -9,8 -10,14 -1,7 1,13 5,20l51 80z"/>
   <path id="13" class="fil6" d="M2570 2821c-7,5 -16,7 -25,7 -12,0 -18,-7 -18,-22l0 -31c0,-7 -2,-12 -6,-16 -3,-4 -8,-6 -15,-6 -7,0 -12,2 -16,6 -4,4 -6,9 -6,16l0 32c0,22 5,37 14,45 9,9 23,13 40,13 13,0 23,-2 32,-7l0 37c0,7 2,12 6,16 3,4 9,6 16,6 7,0 12,-2 15,-6 4,-4 6,-9 6,-16l0 -120c0,-7 -2,-12 -6,-16 -3,-4 -8,-6 -15,-6 -7,0 -12,2 -16,6 -4,4 -6,9 -6,16l0 46z"/>
   <path id="14" class="fil6" d="M2743 2814l-54 0 0 -39c0,-7 -2,-12 -6,-16 -4,-4 -9,-6 -16,-6 -7,0 -12,2 -16,6 -3,4 -5,9 -5,16l0 120c0,7 2,12 5,16 4,4 9,6 16,6 7,0 12,-2 16,-6 4,-4 6,-9 6,-16l0 -43 54 0 0 43c0,7 2,12 6,16 4,4 9,6 16,6 7,0 12,-2 16,-6 3,-4 5,-9 5,-16l0 -120c0,-7 -2,-12 -5,-16 -4,-4 -9,-6 -16,-6 -7,0 -12,2 -16,6 -4,4 -6,9 -6,16l0 39z"/>
   <path id="15" class="fil6" d="M2957 2895c0,7 1,12 5,16 4,4 9,6 16,6 7,0 12,-2 16,-6 4,-4 5,-9 5,-16l0 -120c0,-7 -1,-12 -5,-16 -4,-4 -9,-6 -16,-6 -7,0 -12,2 -16,6 -4,4 -5,9 -5,16l0 120zm-138 -3c0,13 7,21 21,23 12,2 24,3 37,3 19,0 34,-5 46,-15 11,-10 17,-24 17,-42 0,-18 -5,-31 -16,-40 -10,-9 -25,-14 -44,-14 -6,0 -12,1 -18,2l0 -34c0,-7 -2,-12 -6,-16 -3,-4 -9,-6 -15,-6 -7,0 -13,2 -16,6 -4,4 -6,9 -6,16l0 117zm57 -12c-7,0 -11,0 -14,0l0 -34c4,0 8,-1 14,-1 7,0 12,2 16,5 3,2 5,7 5,13 0,11 -7,17 -21,17z"/>
   <path id="16" class="fil6" d="M3031 2895c0,7 2,12 6,16 4,4 9,6 16,6l78 0c6,0 11,-2 15,-5 4,-4 6,-8 6,-14 0,-6 -2,-11 -6,-14 -4,-3 -9,-5 -15,-5l-57 0 0 -26 42 0c7,0 12,-2 16,-5 3,-4 5,-8 5,-14 0,-6 -2,-11 -5,-14 -4,-4 -9,-5 -16,-5l-42 0 0 -24 54 0c7,0 12,-2 16,-5 4,-4 5,-8 5,-14 0,-6 -1,-11 -5,-14 -4,-3 -9,-5 -16,-5l-75 0c-7,0 -12,2 -16,6 -4,4 -6,9 -6,16l0 120z"/>
  </g>
 </g>
</svg>
