<?xml version="1.0" encoding="UTF-8"?>
<!DOCTYPE svg PUBLIC "-//W3C//DTD SVG 1.1//EN" "http://www.w3.org/Graphics/SVG/1.1/DTD/svg11.dtd">
<!-- Creator: CorelDRAW X6 -->
<svg xmlns="http://www.w3.org/2000/svg" xml:space="preserve" width="34mm" height="30mm" version="1.1" style="shape-rendering:geometricPrecision; text-rendering:geometricPrecision; image-rendering:optimizeQuality; fill-rule:evenodd; clip-rule:evenodd"
viewBox="0 0 3400 3000"
 xmlns:xlink="http://www.w3.org/1999/xlink">
 <defs>
  <style type="text/css">
   <![CDATA[
    .str0 {stroke:#2B2A29;stroke-width:50;stroke-linejoin:round}
    .fil5 {fill:none}
    .fil3 {fill:#2B2A29}
    .fil4 {fill:#74C1B9}
    .fil1 {fill:#F9C441}
    .fil0 {fill:#FFDC7B}
    .fil2 {fill:#2B2A29;fill-rule:nonzero}
   ]]>
  </style>
 </defs>
 <g id="Слой_x0020_1">
  <metadata id="CorelCorpID_0Corel-Layer"/>
  <polygon class="fil0 str0" points="2233,640 1731,92 166,522 1151,1534 "/>
  <rect class="fil1" transform="matrix(0.218954 0.249008 -0.249008 0.218954 2200.34 592.852)" width="2286" height="4382" rx="275" ry="275"/>
  <path class="fil2" d="M2279 645l380 432c21,24 31,55 29,84 -2,30 -15,59 -39,80l-954 839c-24,21 -55,30 -84,29 -30,-2 -59,-16 -80,-40l-379 -431c-1,-1 -2,-1 -2,-2 -21,-24 -30,-54 -28,-83 2,-29 15,-58 38,-79 1,-1 2,-1 2,-2l953 -838c24,-21 55,-30 84,-28 30,2 59,15 80,39zm343 465l-380 -432c-12,-14 -29,-21 -46,-22 -17,-2 -34,4 -48,16l-954 839 0 0c-13,12 -21,28 -22,45 -1,17 4,35 16,48l0 0 380 432c12,14 29,22 46,23 17,1 34,-5 48,-17l954 -838c14,-12 21,-29 22,-46 1,-17 -4,-34 -16,-48zm-1428 401l0 0"/>
  <path class="fil3" d="M2387 806l127 143 20 -17c10,-10 11,-26 2,-37l-92 -104c-9,-11 -26,-12 -37,-3l-20 18z"/>
  <path class="fil2" d="M2423 808l93 106 0 0 1 -1c0,0 0,-1 0,-1 1,0 0,0 0,0l-1 -2 -90 -103c-1,0 -1,0 -1,0 -1,0 -1,0 -1,0l-1 1zm72 158l-126 -144 0 0 0 0c-9,-10 -8,-26 2,-35l19 -16 1 -1c10,-10 24,-14 37,-13 13,1 26,7 35,17l92 104 0 0 0 0c9,11 13,24 12,37 -1,13 -6,26 -16,35l-1 1 -20 17c-10,9 -26,8 -35,-2z"/>
  <path class="fil2" d="M2476 826l72 -63 0 0 0 0c21,-18 43,-18 65,-9 16,7 31,20 43,34l1 1 0 0 232 271c39,46 19,89 2,125l-5 10c-45,98 -358,546 -373,568 -4,7 -36,62 -19,83 28,34 66,78 67,78l-46 39c-1,0 -33,-37 -68,-79 -42,-52 9,-141 15,-152 0,-1 1,-2 2,-3 0,-1 324,-464 368,-559 2,-6 3,-8 5,-11 9,-20 20,-43 6,-60l-232 -271 0 -1c-7,-8 -15,-15 -21,-18 -2,0 -3,-1 -3,0l0 0 -72 62 -39 -45z"/>
  <rect class="fil4" transform="matrix(0.218954 0.249008 -0.249008 0.218954 2683.72 1874.61)" width="1916" height="1000" rx="500" ry="500"/>
  <path class="fil2" d="M2725 2462l-199 -227c0,0 -1,-1 -1,-1 -34,-40 -50,-89 -46,-138 3,-48 24,-95 63,-130 0,0 1,-1 2,-2 39,-34 89,-49 137,-46 49,4 96,25 131,65l200 228c35,39 50,89 47,138 -3,48 -24,95 -63,130 -1,1 -1,1 -2,2 -39,34 -89,49 -137,46 -48,-3 -96,-25 -130,-63 -1,-1 -1,-2 -2,-2zm-162 -260l200 228 0 0c26,29 61,45 97,47 36,2 73,-9 102,-35l0 0c29,-25 45,-60 48,-96 2,-36 -10,-73 -35,-102l-201 -228c-25,-29 -60,-45 -96,-48 -36,-2 -73,9 -102,35l0 0c-29,25 -45,61 -48,97 -2,36 9,73 35,102l0 0zm200 228l0 0"/>
  <circle class="fil3" transform="matrix(0.218954 0.249008 -0.249008 0.218954 2861.61 2328.01)" r="95"/>
  <path class="fil2" d="M2904 2291c10,11 15,26 14,41 -1,14 -7,28 -19,38 -12,11 -27,15 -41,14 -14,0 -29,-7 -39,-19 -10,-11 -15,-26 -14,-41 1,-14 8,-28 19,-38 12,-11 27,-15 41,-14 15,1 29,7 39,19zm-36 37c0,-1 0,-3 -1,-4 -2,-2 -3,-3 -5,-3 -2,0 -3,1 -5,2 -1,1 -2,3 -2,5 0,1 0,3 2,4 1,2 3,3 4,3 2,0 4,-1 5,-2 1,-1 2,-3 2,-5z"/>
  <rect class="fil3" transform="matrix(0.178337 0.202816 -0.243134 0.213789 2668.97 1828.59)" width="164" height="1122" rx="82" ry="82"/>
  <path class="fil2" d="M2702 1829c9,9 13,22 12,34 -1,12 -6,24 -16,32l-239 211c-1,0 -2,1 -2,1 -10,8 -21,11 -33,10 -12,0 -23,-6 -32,-15 -8,-10 -12,-23 -12,-35 1,-12 7,-23 16,-32l0 0 240 -211c10,-8 22,-12 34,-11 12,1 24,6 32,16l0 0z"/>
  <path class="fil3" d="M1421 1910l-126 -144 -20 18c-11,9 -12,26 -2,37l92 104c9,11 26,12 37,2l19 -17z"/>
  <path class="fil2" d="M1386 1908l-93 -107 -1 1c0,1 -1,1 -1,1 0,1 0,1 1,1l0 0 91 103 0 1c1,1 1,1 1,1 0,0 1,0 1,0l1 -1 0 0zm-72 -158l126 143c9,11 8,26 -2,36l-20 17 0 0 0 0c-11,9 -24,13 -37,13 -13,-1 -25,-7 -35,-17l0 -1 -92 -104 0 0 0 0c-9,-11 -13,-24 -12,-37 0,-13 6,-26 17,-35l20 -18c10,-9 26,-8 35,3z"/>
  <line class="fil5 str0" x1="2046" y1="729" x2="1949" y2= "623" />
  <line class="fil5 str0" x1="1855" y1="523" x2="1915" y2= "580" />
  <line class="fil5 str0" x1="1796" y1="949" x2="1687" y2= "814" />
  <path class="fil5 str0" d="M1710 1008c8,9 -55,-52 -55,-52"/>
  <line class="fil5 str0" x1="1390" y1="1305" x2="1333" y2= "1243" />
  <line class="fil5 str0" x1="1307" y1="1220" x2="1240" y2= "1147" />
  <line class="fil5 str0" x1="1031" y1="1093" x2="1137" y2= "1208" />
  <line class="fil5 str0" x1="1178" y1="1251" x2="1298" y2= "1387" />
  <path class="fil5 str0" d="M1709 274c-39,138 -154,65 -140,7 11,-46 -24,-93 -71,-81 -74,19 -54,197 -74,302 -11,60 -102,59 -105,4"/>
  <path class="fil5 str0" d="M1331 398c0,0 20,-104 -3,-125 -24,-21 -67,-18 -67,-18"/>
  <path class="fil5 str0" d="M1320 787c0,0 -59,-28 -75,15 -10,28 -19,81 -33,128 -30,99 -116,84 -96,-53 12,-88 29,-216 9,-252 -19,-36 -95,-67 -109,-2 -14,66 -23,123 -23,123"/>
  <path class="fil2" d="M450 2745c8,0 17,1 27,5 12,4 20,1 24,-8 2,-2 2,-6 2,-11 -1,-5 -4,-9 -8,-12 -11,-9 -26,-13 -46,-13 -23,0 -42,8 -56,23 -14,16 -21,36 -21,62 0,27 7,48 20,62 12,15 31,22 56,22 20,0 36,-4 48,-14 6,-4 9,-9 11,-16 1,-6 0,-10 -3,-14 -6,-7 -14,-8 -25,-2 -4,2 -8,3 -9,4 -2,1 -5,2 -8,3 -4,1 -7,1 -11,1 -9,0 -17,-4 -24,-11 -6,-8 -9,-20 -9,-35 0,-14 3,-26 8,-34 6,-8 14,-12 24,-12z"/>
  <path id="1" class="fil2" d="M523 2791c0,25 7,45 21,61 14,16 34,23 59,23 26,0 45,-7 60,-23 14,-16 21,-36 21,-61 0,-25 -7,-45 -21,-61 -15,-16 -34,-24 -60,-24 -25,0 -45,8 -59,24 -14,16 -21,36 -21,61zm45 0c0,-14 3,-25 9,-34 6,-8 14,-12 26,-12 12,0 21,4 27,12 5,9 8,20 8,34 0,14 -3,25 -8,34 -6,8 -15,12 -27,12 -12,0 -20,-4 -26,-12 -6,-9 -9,-20 -9,-34z"/>
  <path id="2" class="fil2" d="M710 2849c0,13 7,20 20,22 11,2 25,3 42,3 46,0 69,-17 69,-51 0,-9 -2,-17 -6,-24 -5,-7 -11,-12 -20,-15 6,-3 11,-7 14,-13 3,-6 5,-12 5,-19 0,-15 -6,-26 -17,-34 -12,-7 -28,-10 -47,-10 -13,0 -27,1 -40,2 -13,3 -20,10 -20,23l0 116zm63 -44c16,0 24,6 24,17 0,12 -8,18 -24,18 -10,0 -17,-1 -22,-1l0 -34 22 0zm-4 -63c14,0 21,6 21,16 0,5 -2,9 -5,12 -3,3 -8,4 -15,4l-19 0 0 -31c7,-1 13,-1 18,-1z"/>
  <path id="3" class="fil2" d="M867 2851c0,7 2,12 5,16 4,4 9,6 16,6 7,0 12,-2 16,-6 4,-4 6,-9 6,-16l0 -30c5,1 10,2 15,2 19,0 35,-5 48,-15 12,-10 18,-24 18,-44 0,-19 -6,-33 -18,-42 -12,-10 -28,-14 -48,-14 -16,0 -29,1 -39,3 -13,3 -19,11 -19,24l0 116zm56 -65c-6,0 -10,-1 -13,-1l0 -40c3,0 8,0 14,0 7,0 12,1 16,5 4,3 6,8 6,14 0,7 -2,13 -6,16 -5,4 -10,6 -17,6z"/>
  <path id="4" class="fil2" d="M1012 2851c0,7 2,12 6,16 4,4 9,6 16,6l78 0c6,0 11,-2 15,-5 4,-4 6,-8 6,-14 0,-6 -2,-11 -6,-14 -4,-3 -9,-5 -15,-5l-57 0 0 -26 42 0c7,0 12,-2 16,-5 3,-4 5,-9 5,-14 0,-6 -2,-11 -5,-14 -4,-4 -9,-5 -16,-5l-42 0 0 -24 55 0c6,0 11,-2 15,-5 4,-4 5,-8 5,-14 0,-6 -1,-11 -5,-14 -4,-4 -9,-5 -15,-5l-76 0c-7,0 -12,2 -16,6 -4,4 -6,9 -6,15l0 121z"/>
  <path id="5" class="fil2" d="M1234 2783l-39 -62c-5,-8 -12,-12 -21,-12 -7,0 -12,2 -15,6 -4,4 -5,9 -5,15l0 121c0,7 1,12 4,16 4,4 9,6 16,6 13,0 20,-7 20,-22l0 -64 19 29c5,8 11,12 19,12 8,0 15,-4 20,-12l18 -31 0 66c0,7 2,12 5,16 4,4 9,6 16,6 7,0 13,-2 16,-6 4,-4 6,-9 6,-16l0 -121c0,-6 -2,-11 -5,-15 -4,-4 -9,-6 -15,-6 -9,0 -16,4 -21,12l-38 62z"/>
  <path id="6" class="fil2" d="M1345 2851c0,7 1,12 5,16 4,4 9,6 16,6l78 0c6,0 11,-2 15,-5 4,-4 6,-8 6,-14 0,-6 -2,-11 -6,-14 -4,-3 -9,-5 -15,-5l-57 0 0 -26 43 0c6,0 11,-2 15,-5 4,-4 5,-9 5,-14 0,-6 -1,-11 -5,-14 -4,-4 -9,-5 -15,-5l-43 0 0 -24 55 0c6,0 11,-2 15,-5 4,-4 6,-8 6,-14 0,-6 -2,-11 -6,-14 -4,-4 -9,-5 -15,-5l-76 0c-7,0 -12,2 -16,6 -4,4 -5,9 -5,15l0 121z"/>
  <path id="7" class="fil2" d="M1583 2770l-54 0 0 -40c0,-6 -2,-11 -6,-15 -4,-4 -9,-6 -16,-6 -7,0 -12,2 -16,6 -3,4 -5,9 -5,15l0 121c0,7 2,12 5,16 4,4 9,6 16,6 7,0 12,-2 16,-6 4,-4 6,-9 6,-16l0 -43 54 0 0 43c0,7 2,12 6,16 4,4 9,6 16,6 7,0 12,-2 16,-6 3,-4 5,-9 5,-16l0 -121c0,-6 -2,-11 -5,-15 -4,-4 -9,-6 -16,-6 -7,0 -12,2 -16,6 -4,4 -6,9 -6,15l0 40z"/>
  <path id="8" class="fil2" d="M1757 2770l-55 0 0 -40c0,-6 -2,-11 -6,-15 -3,-4 -9,-6 -16,-6 -6,0 -12,2 -15,6 -4,4 -6,9 -6,15l0 121c0,7 2,12 6,16 3,4 9,6 15,6 7,0 13,-2 16,-6 4,-4 6,-9 6,-16l0 -43 55 0 0 43c0,7 2,12 5,16 4,4 9,6 16,6 7,0 12,-2 16,-6 4,-4 6,-9 6,-16l0 -121c0,-6 -2,-11 -6,-15 -4,-4 -9,-6 -16,-6 -6,0 -12,2 -16,6 -3,4 -5,9 -5,15l0 40z"/>
  <path id="9" class="fil2" d="M1970 2851c0,7 2,12 5,16 4,4 9,6 16,6 7,0 12,-2 16,-6 4,-4 6,-9 6,-16l0 -121c0,-6 -2,-11 -6,-15 -4,-4 -9,-6 -16,-6 -7,0 -12,2 -16,6 -3,4 -5,9 -5,15l0 121zm-138 -3c0,13 7,21 21,23 12,2 24,3 38,3 18,0 34,-5 45,-15 12,-10 17,-24 17,-42 0,-18 -5,-31 -16,-40 -10,-9 -25,-14 -44,-14 -6,0 -12,1 -18,2l0 -35c0,-6 -2,-11 -5,-15 -4,-4 -9,-6 -16,-6 -7,0 -12,2 -16,6 -4,4 -6,9 -6,15l0 118zm57 -12c-6,0 -11,0 -14,0l0 -34c4,0 9,-1 14,-1 7,0 13,2 16,4 4,3 5,8 5,14 0,11 -7,17 -21,17z"/>
  <path id="10" class="fil2" d="M2088 2730c0,-6 -1,-11 -5,-15 -4,-4 -9,-6 -16,-6 -7,0 -13,2 -16,6 -4,4 -6,9 -6,15l0 121c0,7 2,13 6,17 3,3 9,5 15,5 7,0 13,-4 20,-12l57 -79 0 69c0,7 2,12 6,16 3,4 9,6 16,6 7,0 12,-2 16,-6 3,-4 5,-9 5,-16l0 -121c0,-6 -1,-11 -5,-15 -3,-4 -8,-6 -16,-6 -7,0 -14,4 -19,11l-15 21 -28 40 -15 20 0 -71zm31 -28c18,0 31,-4 39,-14 3,-3 4,-6 4,-10 0,-4 -1,-7 -4,-9 -2,-2 -5,-4 -7,-4 -3,0 -5,1 -7,2 -2,1 -4,2 -7,4 -6,5 -12,7 -18,7 -6,0 -12,-2 -18,-7 -9,-7 -16,-8 -21,-2 -3,2 -4,6 -4,9 0,4 1,7 4,10 4,4 9,8 16,10 7,3 15,4 23,4z"/>
  <path id="11" class="fil2" d="M2300 2873l86 0 0 13c0,7 2,12 5,16 4,4 9,6 16,6 6,0 11,-2 15,-6 3,-4 5,-9 5,-16l0 -31c0,-6 -1,-11 -5,-15 -3,-4 -8,-6 -14,-6l-1 0 0 -104c0,-6 -2,-11 -6,-15 -4,-4 -9,-6 -16,-6l-69 0c-13,0 -20,8 -21,23 -1,51 -6,85 -14,102l-1 0c-7,0 -12,2 -15,6 -4,4 -5,9 -5,15l0 31c0,7 1,12 5,16 3,4 8,6 15,6 7,0 12,-2 15,-6 4,-4 5,-9 5,-16l0 -13zm23 -39c7,-27 10,-56 11,-86l30 0 0 86 -41 0z"/>
  <path id="12" class="fil2" d="M2493 2730c0,-6 -2,-11 -5,-15 -4,-4 -9,-6 -16,-6 -7,0 -13,2 -16,6 -4,4 -6,9 -6,15l0 121c0,7 2,13 6,17 3,3 9,5 15,5 7,0 13,-4 20,-12l57 -79 0 69c0,7 2,12 6,16 3,4 9,6 16,6 7,0 12,-2 16,-6 3,-4 5,-9 5,-16l0 -121c0,-6 -1,-11 -5,-15 -3,-4 -8,-6 -16,-6 -7,0 -14,4 -19,11l-15 21 -28 40 -15 20 0 -71z"/>
  <path id="13" class="fil2" d="M2677 2837c-8,0 -17,-1 -27,-5 -15,-6 -24,-3 -29,7 -2,5 -2,10 0,15 2,5 6,9 12,13 12,6 26,8 44,8 10,0 19,0 27,-2 8,-2 15,-5 22,-9 7,-4 12,-9 16,-17 4,-7 6,-16 6,-27 0,-17 -9,-29 -25,-35 6,-4 11,-8 15,-14 3,-6 5,-13 5,-20 0,-15 -6,-26 -17,-33 -11,-8 -26,-12 -45,-12 -8,0 -17,1 -25,3 -9,2 -16,5 -21,8 -6,4 -9,8 -10,13 -2,4 -2,9 0,13 2,3 3,5 5,7 3,1 5,2 7,2 3,0 5,0 7,0 2,-1 5,-2 7,-2 10,-4 19,-5 25,-5 15,0 22,4 22,14 0,10 -7,15 -21,15l-19 0c-5,0 -9,1 -12,4 -3,3 -4,7 -4,12 0,5 1,9 4,11 3,3 7,5 12,5l23 0c14,0 21,5 21,14 0,12 -8,17 -25,17z"/>
  <path id="14" class="fil2" d="M2864 2857c2,7 6,11 11,14 5,3 11,3 17,0 6,-2 10,-6 11,-12 2,-6 1,-12 -1,-17l-52 -122c-4,-9 -10,-14 -20,-14 -10,0 -17,6 -21,16l-50 121c-3,6 -4,12 -3,17 1,6 5,10 10,11 7,3 13,3 18,-1 5,-4 8,-9 11,-16l7 -21 53 0 9 24zm-36 -96l16 40 -31 0 15 -40z"/>
  <path id="15" class="fil2" d="M2963 2730c0,-6 -2,-11 -6,-15 -3,-4 -9,-6 -16,-6 -7,0 -12,2 -16,6 -3,4 -5,9 -5,15l0 121c0,7 2,13 5,17 4,3 9,5 16,5 6,0 13,-4 19,-12l58 -79 0 69c0,7 2,12 5,16 4,4 9,6 17,6 6,0 12,-2 15,-6 4,-4 6,-9 6,-16l0 -121c0,-6 -2,-11 -5,-15 -4,-4 -9,-6 -16,-6 -8,0 -14,4 -20,11l-14 21 -29 40 -14 20 0 -71zm31 -28c17,0 31,-4 39,-14 2,-3 4,-6 4,-10 0,-4 -1,-7 -4,-9 -3,-2 -5,-4 -8,-4 -2,0 -5,1 -7,2 -2,1 -4,2 -7,4 -5,5 -11,7 -17,7 -7,0 -13,-2 -18,-7 -9,-7 -16,-8 -22,-2 -2,2 -4,6 -4,9 0,4 2,7 4,10 4,4 10,8 17,10 7,3 14,4 23,4z"/>
  <path id="16" class="fil2" d="M3191 2770l-55 0 0 -40c0,-6 -1,-11 -5,-15 -4,-4 -9,-6 -16,-6 -7,0 -12,2 -16,6 -4,4 -5,9 -5,15l0 121c0,7 1,12 5,16 4,4 9,6 16,6 7,0 12,-2 16,-6 4,-4 5,-9 5,-16l0 -43 55 0 0 43c0,7 2,12 6,16 3,4 9,6 16,6 7,0 12,-2 16,-6 3,-4 5,-9 5,-16l0 -121c0,-6 -2,-11 -5,-15 -4,-4 -9,-6 -16,-6 -7,0 -12,2 -16,6 -4,4 -6,9 -6,15l0 40z"/>
 </g>
</svg>
