<?xml version="1.0" encoding="UTF-8"?>
<!DOCTYPE svg PUBLIC "-//W3C//DTD SVG 1.1//EN" "http://www.w3.org/Graphics/SVG/1.1/DTD/svg11.dtd">
<!-- Creator: CorelDRAW X6 -->
<svg xmlns="http://www.w3.org/2000/svg" xml:space="preserve" width="34mm" height="30mm" version="1.1" style="shape-rendering:geometricPrecision; text-rendering:geometricPrecision; image-rendering:optimizeQuality; fill-rule:evenodd; clip-rule:evenodd"
viewBox="0 0 3400 3000"
 xmlns:xlink="http://www.w3.org/1999/xlink">
 <defs>
  <style type="text/css">
   <![CDATA[
    .str0 {stroke:#2B2A29;stroke-width:50;stroke-linejoin:round}
    .fil3 {fill:none}
    .fil4 {fill:#2B2A29}
    .fil1 {fill:#A2D9F7}
    .fil2 {fill:#FCD5A6}
    .fil5 {fill:#A36B36}
    .fil6 {fill:#EC9C12}
    .fil0 {fill:#F9C441}
    .fil7 {fill:#2B2A29;fill-rule:nonzero}
   ]]>
  </style>
 </defs>
 <g id="Слой_x0020_1">
  <metadata id="CorelCorpID_0Corel-Layer"/>
  <g id="_250012192">
   <g>
    <path class="fil0 str0" d="M1968 184c-23,-19 -75,-109 -205,-109 -345,0 -575,421 -507,744 39,184 62,306 62,306l193 -86 36 -152 293 -157 268 222 54 87 165 59c0,0 98,-184 75,-347 -86,-592 -351,-588 -434,-567z"/>
    <path class="fil1 str0" d="M2162 1039c0,0 275,100 364,258 89,157 27,338 27,338l-713 383 -75 82c50,-239 35,-473 80,-670l198 -239 119 -152z"/>
    <path class="fil1 str0" d="M1021 1793c-44,323 279,701 591,715 104,4 188,-5 188,-5l-278 -190 -501 -520z"/>
    <polygon class="fil1 str0" points="1511,1039 1197,1218 1514,1695 1799,2005 1845,1430 1645,1198 "/>
    <polygon class="fil2 str0" points="1741,1059 1684,1119 1845,1430 2007,1069 "/>
    <path class="fil2 str0" d="M1463 626c13,192 80,464 300,502 281,49 400,-237 454,-460 -117,-20 -277,-173 -306,-288 -13,-53 -89,-74 -131,-30 -76,83 -93,323 -317,276z"/>
    <path class="fil3 str0" d="M1638 584c0,0 104,-1 118,-7"/>
    <line class="fil3 str0" x1="1910" y1="586" x2="2052" y2= "579" />
    <path class="fil4 str0" d="M1749 694c8,11 10,7 9,11 -26,71 -90,125 -189,60l17 -29c73,55 123,22 163,-42z"/>
    <path class="fil4 str0" d="M1920 694c-8,11 -10,7 -8,11 25,71 90,125 188,60l-17 -29c-73,55 -123,22 -163,-42z"/>
    <path class="fil3 str0" d="M1780 877c0,0 54,86 115,2"/>
    <path class="fil3 str0" d="M1740 958c0,0 102,112 185,0"/>
    <path class="fil1 str0" d="M1552 967l-107 187 140 25 -45 96 305 155 -159 -327c-55,-37 -102,-83 -134,-136z"/>
    <path class="fil1 str0" d="M2108 952l133 213 -131 11 15 107 -280 147 148 -350c0,0 82,-63 115,-128z"/>
    <path class="fil4 str0" d="M1133 1234c-106,-143 -258,-63 -308,20 -41,69 11,173 88,105 36,-31 78,-79 141,-56 26,-34 79,-69 79,-69z"/>
    <path class="fil5 str0" d="M1117 1247c-103,72 -264,301 -199,427 41,80 129,176 310,181 181,4 270,-79 286,-163 43,-221 -57,-446 -231,-470 -47,-7 -111,-12 -166,25z"/>
    <path class="fil4 str0" d="M1410 1285c0,0 140,-85 207,-23 203,189 26,297 -21,233 -47,-64 -1,-157 -125,-130 -17,-28 -32,-56 -61,-80z"/>
    <circle class="fil4 str0" cx="1165" cy="1418" r="31"/>
    <circle class="fil4 str0" cx="1330" cy="1433" r="31"/>
    <path class="fil4 str0" d="M1122 1636c0,0 -22,-54 0,-70 68,-50 199,-21 211,16 6,20 6,40 -15,66 -21,25 -55,55 -88,55 -32,0 -80,-26 -108,-67z"/>
    <path class="fil3 str0" d="M1028 1798c98,10 163,11 183,-94 0,0 14,-5 14,5 4,56 18,78 59,103 57,36 91,23 91,23"/>
    <path class="fil1 str0" d="M1021 1793c-6,281 316,487 566,536 164,33 197,27 197,27 0,0 46,-181 -19,-256 -64,-75 -300,-167 -300,-167l-166 -95 -278 -45z"/>
    <path class="fil5 str0" d="M1388 2262c0,0 -34,71 -197,51 -69,-8 34,87 152,86 102,-2 179,-86 179,-86 0,0 -82,-17 -134,-51z"/>
    <path class="fil5 str0" d="M1524 1604c107,15 168,70 215,161 50,96 93,240 26,335 0,0 -111,0 -188,-48 -77,-47 -122,-79 -122,-79 -48,41 -48,129 -108,126 -44,-2 -82,-14 -88,-70 -4,-42 23,-95 51,-119 34,-28 73,-78 73,-78 108,-50 138,-102 141,-228z"/>
    <path class="fil1 str0" d="M1902 2508c217,31 573,-124 657,-338 65,-167 103,-416 103,-416l-262 89 -525 404 -100 109c37,63 80,113 127,152z"/>
    <path class="fil6 str0" d="M2107 1658c-179,46 -238,195 -267,360l308 108 101 -103c0,0 40,85 81,113 62,42 123,30 136,-46 16,-86 -58,-153 -118,-208l-241 -224z"/>
    <path class="fil3 str0" d="M2518 1403c0,0 36,10 52,26 15,16 -11,-67 -11,-67 0,0 -11,-14 -18,5 -6,19 -23,36 -23,36z"/>
    <path class="fil3 str0" d="M2200 1486c0,0 -46,34 -45,48 1,14 -13,-74 -13,-74 0,0 -9,-17 12,-5 21,13 46,31 46,31z"/>
    <path class="fil6 str0" d="M2229 1436c103,-76 132,-52 242,-59l58 -112c0,0 33,-43 65,24 33,67 45,153 45,153 0,0 81,76 71,178 -10,103 -76,195 -153,229 -224,99 -510,-15 -441,-291 0,0 -69,-160 -22,-184 48,-24 135,62 135,62z"/>
    <line class="fil3 str0" x1="2601" y1="1559" x2="2703" y2= "1537" />
    <line class="fil3 str0" x1="2613" y1="1635" x2="2710" y2= "1620" />
    <line class="fil3 str0" x1="2205" y1="1659" x2="2110" y2= "1687" />
    <circle class="fil4 str0" cx="2304" cy="1625" r="27"/>
    <circle class="fil4 str0" cx="2490" cy="1579" r="27"/>
    <path class="fil4 str0" d="M2434 1709c10,-1 5,-16 6,-20 3,-5 9,-9 16,-8 11,2 11,-12 -1,-15 -13,-2 -66,5 -70,9 -4,5 -10,22 9,20 5,0 14,-2 17,0 11,5 7,16 23,14z"/>
    <line class="fil3 str0" x1="2219" y1="1739" x2="2141" y2= "1765" />
    <path class="fil3 str0" d="M2431 1710c0,-3 5,14 2,36 -5,41 -52,53 -79,3"/>
    <path class="fil3 str0" d="M2434 1735c37,66 82,19 73,-18"/>
    <path class="fil2 str0" d="M1761 2111c30,-42 190,-207 230,-126 26,55 -24,59 -27,76 -3,17 27,10 92,5 65,-4 117,2 136,46 18,43 9,110 -65,162 -74,52 -114,39 -214,40 -99,2 -137,41 -137,41 0,0 20,-112 16,-158 -5,-46 -31,-86 -31,-86z"/>
    <path class="fil2 str0" d="M1514 2312c4,120 138,201 251,203 96,1 137,-7 137,-7 0,0 -56,-24 -118,-152 -89,-8 -270,-44 -270,-44z"/>
    <path class="fil3 str0" d="M1974 1727c55,1 118,34 137,101"/>
    <path class="fil3 str0" d="M1917 1794c0,0 111,19 133,95"/>
    <path class="fil3 str0" d="M1879 1869c0,0 82,-1 122,84"/>
   </g>
   <path class="fil7" d="M123 2891l86 0 0 13c0,6 1,11 5,15 3,4 8,6 15,6 7,0 12,-2 15,-6 4,-4 6,-9 6,-15l0 -31c0,-6 -2,-12 -5,-16 -4,-4 -8,-6 -14,-6l-2 0 0 -103c0,-6 -2,-12 -6,-16 -3,-4 -9,-6 -15,-6l-70 0c-13,1 -20,8 -20,23 -2,52 -6,86 -14,102l-2 0c-6,0 -12,2 -15,6 -3,4 -5,9 -5,16l0 31c0,6 2,11 5,15 4,4 9,6 15,6 7,0 12,-2 16,-6 3,-4 5,-9 5,-15l0 -13zm22 -40c7,-27 11,-56 11,-85l31 0 0 85 -42 0z"/>
   <path id="1" class="fil7" d="M273 2869c0,6 2,11 5,15 4,4 9,7 16,7 7,0 12,-3 16,-7 4,-4 6,-9 6,-15l0 -30c5,1 10,1 15,1 20,0 35,-5 48,-15 12,-10 18,-24 18,-43 0,-19 -6,-33 -18,-43 -12,-9 -28,-14 -48,-14 -15,0 -28,1 -39,3 -13,3 -19,11 -19,24l0 117zm56 -66c-5,0 -10,0 -13,-1l0 -39c3,-1 8,-1 14,-1 7,0 12,2 16,5 4,3 6,8 6,15 0,7 -2,12 -6,16 -4,3 -10,5 -17,5z"/>
   <path id="2" class="fil7" d="M462 2843c-3,7 -6,11 -11,11 -2,0 -7,-1 -15,-3 -4,-1 -8,-1 -12,1 -4,1 -6,5 -8,10 -2,5 -1,10 1,14 2,5 6,9 11,12 7,3 16,5 26,5 11,0 21,-4 29,-13 7,-8 15,-21 22,-37l37 -86c3,-5 4,-11 3,-17 -1,-6 -5,-10 -11,-12 -12,-5 -22,1 -28,16l-24 60 -34 -62c-8,-15 -19,-20 -32,-13 -6,3 -9,8 -10,15 0,6 1,13 6,20l50 79z"/>
   <path id="3" class="fil7" d="M634 2817l0 52c0,14 7,22 20,22 13,0 19,-8 19,-22l0 -52 47 64c4,6 9,9 16,9 6,1 12,-1 16,-5 5,-4 7,-9 7,-15 1,-5 -2,-12 -6,-18l-39 -47 34 -44c4,-6 6,-11 6,-17 0,-5 -3,-10 -7,-13 -5,-4 -11,-5 -17,-4 -6,1 -11,5 -15,12l-42 58 0 -49c0,-7 -1,-12 -4,-16 -4,-4 -8,-6 -15,-6 -7,0 -12,2 -15,6 -3,4 -5,9 -5,16l0 48 -41 -57c-4,-7 -10,-11 -16,-12 -7,-2 -12,0 -18,4 -4,4 -6,9 -6,15 0,6 2,12 6,18l36 42 -40 46c-5,5 -8,11 -8,17 0,6 2,11 7,16 7,5 13,6 20,5 6,-2 12,-6 16,-12l44 -61z"/>
   <path id="4" class="fil7" d="M776 2869c0,6 2,11 6,15 3,4 9,7 15,7l78 0c7,0 12,-2 16,-6 3,-3 5,-8 5,-14 0,-6 -2,-10 -5,-14 -4,-3 -9,-5 -16,-5l-56 0 0 -26 42 0c6,0 12,-2 15,-5 4,-3 6,-8 6,-14 0,-6 -2,-11 -6,-14 -3,-3 -9,-5 -15,-5l-42 0 0 -24 54 0c7,0 12,-1 15,-5 4,-3 6,-8 6,-14 0,-6 -2,-10 -6,-14 -3,-3 -8,-5 -15,-5l-76 0c-6,0 -12,2 -15,6 -4,4 -6,10 -6,16l0 121z"/>
   <path id="5" class="fil7" d="M955 2726c-7,0 -12,2 -15,6 -4,4 -6,10 -6,17 -1,39 -3,67 -7,83 -2,12 -7,18 -14,18 -11,-1 -17,5 -18,16 -1,9 1,15 6,19 5,5 11,7 20,7 17,0 30,-10 37,-28 8,-20 13,-53 14,-98l29 0 0 103c0,6 2,11 5,15 4,4 9,7 16,7 7,0 12,-2 16,-6 4,-4 6,-10 6,-16l0 -121c0,-6 -2,-12 -6,-16 -4,-4 -9,-6 -16,-6l-67 0z"/>
   <path id="6" class="fil7" d="M1075 2869c0,6 2,11 6,15 3,4 9,7 15,7 7,0 13,-3 16,-7 4,-4 6,-9 6,-15l0 -43 18 0c3,20 11,36 24,49 13,12 30,18 53,18 25,0 44,-8 57,-24 13,-15 20,-36 20,-61 0,-25 -7,-45 -20,-61 -13,-15 -32,-23 -57,-23 -22,0 -39,6 -52,17 -13,12 -21,27 -24,46l-19 0 0 -39c0,-6 -2,-12 -6,-16 -3,-4 -9,-6 -16,-6 -6,0 -12,2 -15,6 -4,4 -6,10 -6,16l0 121zm106 -61c0,-13 2,-25 8,-33 5,-9 13,-13 24,-13 10,0 18,4 24,13 5,8 8,20 8,33 0,14 -3,25 -8,34 -6,9 -14,13 -24,13 -11,0 -19,-4 -24,-13 -6,-9 -8,-20 -8,-34z"/>
   <path id="7" class="fil7" d="M1336 2726c-6,0 -11,2 -15,6 -4,5 -6,10 -6,16l0 118c0,13 7,21 21,23 11,2 24,3 39,3 21,0 37,-5 49,-14 11,-8 17,-22 17,-41 0,-34 -20,-51 -62,-51 -7,0 -14,1 -21,2l0 -24 53 0c7,0 12,-1 15,-5 4,-3 5,-8 5,-14 0,-6 -1,-10 -5,-14 -3,-3 -8,-5 -15,-5l-75 0zm40 95c7,0 12,2 15,5 3,3 5,7 5,13 0,5 -2,10 -6,13 -4,4 -9,5 -16,5 -6,0 -11,0 -16,-1l0 -34c5,-1 11,-1 18,-1z"/>
   <path id="8" class="fil7" d="M1566 2787l-55 0 0 -39c0,-6 -2,-12 -5,-16 -4,-4 -9,-6 -16,-6 -7,0 -12,2 -16,6 -4,4 -6,10 -6,16l0 121c0,6 2,11 6,15 4,4 9,7 16,7 7,0 12,-3 16,-7 3,-4 5,-9 5,-15l0 -43 55 0 0 43c0,6 2,11 6,15 3,4 9,7 16,7 6,0 12,-2 15,-6 4,-4 6,-10 6,-16l0 -121c0,-6 -2,-12 -6,-16 -3,-4 -9,-6 -15,-6 -7,0 -13,2 -16,6 -4,4 -6,10 -6,16l0 39z"/>
   <path id="9" class="fil7" d="M1779 2869c0,6 2,11 6,15 3,4 9,7 15,7 7,0 13,-3 16,-7 4,-4 6,-9 6,-15l0 -121c0,-6 -2,-12 -6,-16 -3,-4 -9,-6 -16,-6 -6,0 -12,2 -15,6 -4,4 -6,10 -6,16l0 121zm-137 -4c0,14 7,21 20,24 12,2 25,3 38,3 19,0 34,-5 45,-15 12,-10 18,-25 18,-43 0,-18 -6,-31 -16,-40 -11,-9 -26,-13 -44,-13 -6,0 -12,0 -18,1l0 -34c0,-6 -2,-12 -6,-16 -4,-4 -9,-6 -16,-6 -7,0 -12,2 -16,6 -3,4 -5,10 -5,16l0 117zm56 -11c-6,0 -11,-1 -13,-1l0 -33c3,-1 8,-1 13,-1 7,0 13,1 16,4 4,3 6,7 6,13 0,12 -7,18 -22,18z"/>
   <path id="10" class="fil7" d="M1898 2748c0,-6 -2,-11 -6,-16 -4,-4 -9,-6 -16,-6 -7,0 -12,2 -16,6 -3,5 -5,10 -5,16l0 121c0,7 2,12 5,16 4,4 9,6 15,6 7,0 14,-5 20,-13l58 -79 0 70c0,6 1,11 5,15 4,4 9,7 16,7 7,0 13,-3 16,-7 4,-4 5,-9 5,-15l0 -121c0,-7 -1,-12 -5,-16 -3,-4 -8,-6 -15,-6 -8,0 -15,4 -20,12l-15 20 -28 41 -14 20 0 -71zm30 -28c18,0 31,-5 40,-14 2,-3 3,-7 4,-10 0,-4 -2,-7 -4,-10 -3,-2 -5,-3 -8,-3 -3,0 -5,0 -7,1 -2,1 -4,3 -7,5 -5,4 -11,7 -18,7 -6,0 -12,-3 -18,-7 -8,-7 -15,-8 -21,-3 -2,3 -4,6 -4,10 0,3 2,7 4,10 4,4 9,7 16,10 7,2 15,4 23,4z"/>
   <path id="11" class="fil7" d="M2083 2869c0,6 2,11 6,15 3,4 9,7 16,7 6,0 12,-3 15,-7 4,-4 6,-9 6,-15l0 -105 49 0 0 105c0,6 2,11 6,15 4,4 9,7 16,7 7,0 12,-2 16,-6 3,-4 5,-10 5,-16l0 -121c0,-6 -2,-12 -5,-16 -4,-4 -9,-6 -16,-6l-92 0c-7,0 -13,2 -16,6 -4,4 -6,10 -6,16l0 121z"/>
   <path id="12" class="fil7" d="M2250 2869c0,6 2,11 6,15 3,4 9,7 15,7l78 0c7,0 12,-2 16,-6 3,-3 5,-8 5,-14 0,-6 -2,-10 -5,-14 -4,-3 -9,-5 -16,-5l-56 0 0 -26 42 0c6,0 12,-2 15,-5 4,-3 6,-8 6,-14 0,-6 -2,-11 -6,-14 -3,-3 -9,-5 -15,-5l-42 0 0 -24 54 0c7,0 12,-1 15,-5 4,-3 6,-8 6,-14 0,-6 -2,-10 -6,-14 -3,-3 -8,-5 -15,-5l-76 0c-6,0 -12,2 -15,6 -4,4 -6,10 -6,16l0 121z"/>
   <path id="13" class="fil7" d="M2391 2869c0,6 2,11 6,15 4,4 9,7 16,7 6,0 12,-3 15,-7 4,-4 6,-9 6,-15l0 -30c5,1 10,1 16,1 19,0 35,-5 47,-15 13,-10 19,-24 19,-43 0,-19 -6,-33 -19,-43 -12,-9 -28,-14 -48,-14 -15,0 -28,1 -39,3 -12,3 -19,11 -19,24l0 117zm56 -66c-5,0 -9,0 -13,-1l0 -39c4,-1 8,-1 14,-1 7,0 13,2 17,5 4,3 5,8 5,15 0,7 -2,12 -6,16 -4,3 -10,5 -17,5z"/>
   <path id="14" class="fil7" d="M2609 2762c7,0 16,2 26,5 12,4 20,2 24,-7 2,-3 3,-7 2,-12 -1,-4 -4,-9 -8,-12 -11,-8 -26,-12 -45,-12 -24,0 -42,8 -56,23 -14,15 -21,36 -21,62 0,26 6,47 19,62 13,15 31,22 56,22 20,0 36,-5 48,-14 6,-5 10,-10 11,-16 1,-6 0,-11 -3,-15 -6,-7 -14,-8 -25,-2 -4,2 -7,4 -9,5 -2,1 -5,1 -8,2 -4,1 -7,2 -10,2 -10,0 -18,-4 -24,-12 -7,-8 -10,-19 -10,-34 0,-15 3,-26 9,-35 5,-8 13,-12 24,-12z"/>
   <path id="15" class="fil7" d="M2681 2808c0,25 7,45 21,61 14,16 34,24 59,24 26,0 46,-8 60,-24 14,-16 21,-36 21,-61 0,-24 -7,-45 -21,-60 -14,-16 -34,-24 -60,-24 -25,0 -45,8 -59,24 -14,15 -21,36 -21,60zm45 0c0,-13 3,-25 9,-33 6,-9 15,-13 26,-13 12,0 21,4 27,13 6,8 9,20 9,33 0,14 -3,25 -9,34 -6,9 -15,13 -27,13 -11,0 -20,-4 -26,-13 -6,-9 -9,-20 -9,-34z"/>
   <path id="16" class="fil7" d="M2966 2787l-55 0 0 -39c0,-6 -1,-12 -5,-16 -4,-4 -9,-6 -16,-6 -7,0 -12,2 -16,6 -4,4 -5,10 -5,16l0 121c0,6 1,11 5,15 4,4 9,7 16,7 7,0 12,-3 16,-7 4,-4 5,-9 5,-15l0 -43 55 0 0 43c0,6 2,11 6,15 3,4 9,7 16,7 7,0 12,-2 16,-6 3,-4 5,-10 5,-16l0 -121c0,-6 -2,-12 -5,-16 -4,-4 -9,-6 -16,-6 -7,0 -12,2 -16,6 -4,4 -6,10 -6,16l0 39z"/>
   <path id="17" class="fil7" d="M3135 2874c3,7 7,12 12,14 5,3 11,3 17,1 6,-3 9,-7 11,-13 1,-6 1,-11 -2,-16l-51 -122c-4,-10 -11,-14 -20,-14 -10,0 -17,5 -21,15l-50 121c-3,6 -4,12 -3,18 1,5 4,9 10,11 7,3 13,2 18,-2 4,-3 8,-9 10,-16l8 -21 52 0 9 24zm-35 -95l15 39 -30 0 15 -39z"/>
   <path id="18" class="fil7" d="M3229 2726c-6,0 -11,2 -15,6 -3,4 -5,10 -6,17 -1,39 -3,67 -6,83 -3,12 -7,18 -14,18 -11,-1 -17,5 -18,16 -1,9 0,15 5,19 5,5 12,7 20,7 18,0 30,-10 38,-28 8,-20 12,-53 14,-98l28 0 0 103c0,6 2,11 6,15 4,4 9,7 16,7 7,0 12,-2 16,-6 3,-4 5,-10 5,-16l0 -121c0,-6 -2,-12 -5,-16 -4,-4 -9,-6 -16,-6l-68 0z"/>
  </g>
 </g>
</svg>
