<?xml version="1.0" standalone="no"?>
<!DOCTYPE svg PUBLIC "-//W3C//DTD SVG 20010904//EN"
 "http://www.w3.org/TR/2001/REC-SVG-20010904/DTD/svg10.dtd">
<svg version="1.0" xmlns="http://www.w3.org/2000/svg"
 width="16.000000pt" height="16.000000pt" viewBox="0 0 16.000000 16.000000"
 preserveAspectRatio="xMidYMid meet">
<metadata>
Created by potrace 1.11, written by Peter Selinger 2001-2013
</metadata>
<g transform="translate(0.000000,16.000000) scale(0.002286,-0.002286)"
fill="#000000" stroke="none">
<path d="M2660 6185 c-255 -44 -455 -186 -561 -400 -22 -44 -47 -109 -57 -144
-16 -59 -20 -65 -57 -80 -405 -164 -684 -589 -689 -1051 0 -69 3 -155 7 -192
l8 -68 -171 0 -170 0 0 -55 0 -55 185 0 c168 0 186 -2 191 -17 3 -10 16 -45
29 -78 l23 -60 -199 -9 -199 -8 0 -54 0 -54 234 0 234 0 35 -47 c71 -97 192
-204 300 -267 26 -15 47 -34 47 -41 0 -16 -99 -156 -143 -204 -18 -18 -86 -79
-152 -134 -384 -322 -575 -605 -592 -877 -10 -165 54 -342 178 -489 71 -85 39
-69 -52 26 -72 75 -113 136 -147 220 -24 62 -26 80 -26 198 0 114 3 140 27
210 52 155 130 287 288 485 112 140 133 182 133 270 0 225 -277 331 -524 199
-79 -42 -212 -151 -304 -250 -300 -323 -402 -726 -291 -1159 150 -588 694
-1113 1234 -1191 311 -44 641 78 743 275 l20 39 29 -59 c38 -80 77 -124 138
-158 148 -80 324 20 378 216 l17 60 21 -66 c26 -82 67 -141 123 -180 35 -25
55 -31 113 -34 60 -4 77 -1 124 23 55 27 107 80 139 143 l17 33 22 -32 c33
-50 118 -114 184 -140 76 -30 201 -37 275 -15 150 43 234 155 256 338 l8 73 8
-50 c21 -140 60 -221 138 -289 146 -127 427 -112 576 31 21 21 44 47 49 58 10
18 15 15 66 -36 68 -68 149 -112 259 -141 110 -29 382 -31 528 -4 295 54 602
167 794 290 178 115 283 289 294 491 13 251 -126 445 -320 445 -88 0 -176 -51
-240 -139 -23 -31 -38 -48 -35 -38 33 93 41 150 41 292 0 225 -37 334 -147
430 -94 82 -193 121 -470 185 -192 44 -268 95 -325 218 -32 70 -31 92 2 171
99 229 39 531 -169 848 -113 174 -151 323 -142 573 5 168 19 234 67 338 99
213 321 429 419 407 55 -12 82 -56 146 -234 67 -185 170 -322 284 -379 76 -37
174 -38 245 -3 95 47 196 173 242 303 74 208 8 468 -194 773 -152 230 -291
319 -517 332 -249 14 -536 -108 -767 -325 -60 -57 -160 -179 -194 -238 -10
-17 -15 -16 -105 19 -323 127 -617 141 -843 38 -38 -17 -70 -30 -72 -29 -1 2
-30 41 -64 88 -135 183 -345 365 -473 410 -113 40 -353 51 -507 25z m375 -115
c172 -24 359 -176 551 -447 36 -51 74 -95 84 -98 12 -4 51 10 102 34 116 57
218 81 342 81 176 0 317 -34 528 -125 58 -25 94 -36 110 -32 17 5 41 33 78 94
65 107 211 257 324 333 265 177 549 220 740 110 107 -61 221 -208 321 -414
132 -271 122 -467 -30 -644 -78 -90 -170 -106 -257 -43 -84 60 -143 157 -213
348 -47 129 -83 186 -142 223 -148 94 -357 -25 -547 -315 -108 -165 -146 -286
-154 -501 -9 -271 41 -471 166 -657 122 -180 181 -337 189 -502 11 -225 -67
-363 -275 -488 -171 -103 -375 -143 -677 -134 -418 13 -845 135 -987 284 -41
43 -55 89 -62 203 -4 58 -9 123 -12 145 -6 40 -5 40 75 103 196 155 313 358
342 596 14 111 6 330 -16 444 -40 207 -133 388 -304 593 -145 175 -284 289
-348 289 -48 0 -83 -37 -83 -88 0 -38 -30 -168 -52 -227 -23 -62 -80 -170
-109 -207 -46 -57 -145 -102 -236 -107 -63 -3 -81 0 -126 22 -66 33 -105 74
-151 158 -56 102 -79 212 -73 339 17 333 203 554 527 626 68 15 280 17 375 4z
m-1006 -852 c17 -75 59 -178 92 -229 42 -67 120 -136 187 -167 51 -24 69 -27
163 -27 102 0 108 1 182 38 159 79 266 232 330 472 l23 86 52 -41 c66 -53 189
-193 255 -289 101 -150 175 -344 197 -513 11 -91 14 -257 4 -282 -5 -14 -31
-16 -180 -16 l-174 0 0 -53 0 -54 113 -6 c61 -4 136 -7 165 -7 51 0 53 -1 47
-22 -17 -58 -55 -128 -67 -124 -7 2 -66 7 -130 10 l-118 6 0 -60 0 -60 58 -1
c31 0 75 -3 96 -7 l40 -7 -65 -65 c-93 -94 -120 -112 -264 -174 -291 -123
-450 -144 -760 -100 -219 32 -359 78 -472 155 -53 36 -183 157 -183 171 0 4
38 8 85 8 l85 0 0 60 0 59 -132 3 -133 3 -32 75 -32 75 169 3 170 2 0 55 0 55
-184 0 c-182 0 -184 0 -190 23 -4 12 -10 85 -13 162 -6 153 9 272 48 387 93
273 251 465 494 600 l50 27 6 -92 c4 -51 12 -113 18 -139z m1066 -1790 c8
-122 22 -199 46 -264 16 -43 36 -67 102 -126 103 -92 112 -102 144 -163 32
-61 42 -174 23 -257 -15 -63 -64 -173 -108 -242 l-32 -50 -1 -390 c0 -215 -4
-470 -8 -566 -7 -160 -10 -180 -34 -230 -32 -68 -43 -82 -87 -109 -102 -62
-196 23 -220 199 -5 41 -19 262 -30 490 -28 579 -29 588 -52 610 -25 23 -68
13 -84 -19 -8 -15 -10 -98 -6 -269 8 -401 -23 -758 -79 -906 -52 -140 -155
-184 -239 -103 -88 86 -99 167 -107 786 -5 464 -7 495 -24 512 -23 23 -48 24
-75 5 -18 -14 -19 -34 -25 -508 -4 -423 -8 -501 -22 -551 -27 -92 -66 -165
-110 -207 -48 -47 -176 -112 -267 -136 -96 -26 -280 -23 -389 4 -598 154
-1095 787 -1092 1393 1 289 98 529 305 756 76 83 221 197 293 230 82 39 185
44 249 13 77 -38 103 -106 69 -186 -8 -20 -48 -77 -89 -128 -193 -238 -290
-415 -337 -616 -16 -69 -16 -250 0 -310 65 -244 232 -426 543 -593 47 -26 97
-47 111 -47 43 0 105 89 92 132 -4 10 -41 42 -83 70 -103 69 -257 225 -309
313 -62 105 -83 177 -83 289 0 203 93 379 326 619 53 53 148 141 212 196 143
120 221 202 289 306 29 43 54 82 55 87 2 5 41 0 88 -12 107 -25 245 -47 380
-59 189 -18 369 12 565 93 44 19 83 34 86 35 4 0 10 -41 14 -91z m2121 -454
c45 -78 114 -143 187 -178 29 -14 138 -46 242 -72 235 -57 330 -99 396 -171
62 -69 80 -128 86 -283 11 -278 -76 -450 -279 -549 -82 -40 -202 -71 -273 -71
-41 0 -85 -36 -85 -69 0 -27 49 -65 117 -92 49 -20 76 -24 178 -24 115 0 123
1 186 32 121 59 215 156 297 305 85 153 132 198 210 198 111 0 191 -105 200
-264 9 -149 -37 -268 -147 -376 -76 -75 -135 -112 -292 -182 -266 -119 -558
-187 -800 -188 -269 0 -439 80 -499 236 -22 55 -24 80 -32 394 -4 184 -12 411
-16 504 -7 150 -10 170 -27 183 -28 20 -65 12 -86 -17 -16 -24 -16 -51 -2
-544 12 -405 13 -527 4 -558 -30 -98 -154 -170 -293 -170 -147 0 -223 60 -264
209 -13 47 -17 149 -23 558 -5 275 -11 507 -15 516 -19 43 -119 53 -161 17
l-26 -23 -19 -530 c-21 -563 -24 -594 -74 -660 -117 -152 -394 -101 -477 89
-19 44 -23 77 -30 236 -4 102 -8 336 -8 521 l-1 337 40 65 c57 94 89 179 106
284 15 82 15 99 1 165 -8 40 -18 80 -22 90 -5 14 8 12 86 -13 113 -35 278 -73
424 -96 156 -25 497 -24 615 0 223 47 358 111 536 256 1 1 19 -29 40 -65z
m864 -1243 c-26 -49 -146 -131 -215 -146 -16 -4 3 9 43 30 40 20 96 58 125 85
59 56 62 57 47 31z"/>
<path d="M4395 4711 c-27 -16 -61 -46 -75 -67 -21 -32 -25 -49 -25 -115 0 -70
3 -81 30 -120 45 -64 104 -91 186 -87 85 5 137 38 174 111 94 189 -109 383
-290 278z m169 -117 c35 -36 36 -95 1 -129 -13 -14 -31 -25 -40 -25 -14 0 -14
3 0 30 8 16 15 38 15 50 0 28 -26 77 -47 89 -15 9 -13 10 13 11 21 0 40 -9 58
-26z"/>
<path d="M3823 4705 c-137 -63 -161 -244 -47 -344 88 -77 200 -74 284 8 73 71
88 147 46 237 -51 111 -170 152 -283 99z m158 -124 c45 -46 32 -123 -26 -149
-41 -19 -46 -14 -24 23 28 46 19 95 -22 129 l-31 26 37 0 c27 0 44 -8 66 -29z"/>
<path d="M4170 4143 c-93 -6 -205 -25 -231 -39 -51 -26 -71 -63 -67 -121 8
-92 74 -153 166 -153 45 0 49 -2 65 -34 9 -19 26 -37 38 -41 21 -7 22 -11 16
-94 -17 -236 -124 -391 -271 -391 -121 0 -212 105 -238 277 l-12 73 -58 0 -58
0 0 -46 c0 -110 60 -252 139 -330 143 -141 340 -133 476 19 26 28 54 66 64 85
l18 34 22 -43 c39 -75 88 -126 149 -156 189 -93 408 48 502 323 l18 53 -58 20
-59 19 -12 -36 c-37 -114 -118 -226 -191 -263 -48 -25 -114 -24 -155 1 -81 49
-131 170 -140 343 -6 101 -5 109 14 122 11 8 26 28 33 45 12 29 15 30 74 30
79 0 121 24 135 77 19 68 -24 164 -88 198 -28 14 -174 36 -221 33 -14 -1 -45
-3 -70 -5z"/>
<path d="M2071 4738 c-66 -15 -135 -88 -150 -159 -20 -96 25 -190 113 -237 19
-10 55 -16 91 -17 186 -1 280 213 154 350 -55 60 -127 81 -208 63z m50 -134
c-14 -18 -21 -41 -21 -69 0 -28 7 -51 21 -69 l20 -26 -26 0 c-40 0 -85 50 -85
95 0 45 45 95 85 95 l26 0 -20 -26z"/>
<path d="M2806 4725 c-87 -31 -142 -121 -134 -219 12 -149 171 -234 305 -164
130 66 152 247 42 341 -63 55 -137 69 -213 42z m86 -112 c-19 -7 -42 -58 -42
-92 0 -17 11 -42 26 -60 25 -30 25 -31 4 -31 -58 0 -109 61 -96 116 11 41 50
74 88 73 18 0 27 -3 20 -6z"/>
<path d="M2350 4309 c-146 -13 -174 -27 -178 -89 l-3 -45 116 -112 c129 -123
130 -124 74 -188 -53 -60 -142 -70 -215 -24 -32 19 -74 89 -74 122 0 14 -10
17 -55 17 l-55 0 0 -37 c0 -21 11 -61 24 -88 64 -138 240 -199 379 -132 31 16
67 41 80 57 l25 29 23 -25 c12 -13 48 -37 78 -51 107 -53 235 -29 324 60 40
40 102 157 89 168 -4 3 -28 13 -54 22 l-48 16 -20 -47 c-62 -139 -207 -175
-293 -73 -15 18 -27 40 -27 50 0 9 42 55 93 101 108 98 127 123 127 171 0 42
-29 74 -81 89 -53 15 -203 19 -329 9z"/>
</g>
</svg>
