<?xml version="1.0" encoding="UTF-8"?>
<!DOCTYPE svg PUBLIC "-//W3C//DTD SVG 1.1//EN" "http://www.w3.org/Graphics/SVG/1.1/DTD/svg11.dtd">
<!-- Creator: CorelDRAW X6 -->
<svg xmlns="http://www.w3.org/2000/svg" xml:space="preserve" width="30mm" height="33mm" version="1.1" style="shape-rendering:geometricPrecision; text-rendering:geometricPrecision; image-rendering:optimizeQuality; fill-rule:evenodd; clip-rule:evenodd"
viewBox="0 0 3000 3300"
 xmlns:xlink="http://www.w3.org/1999/xlink">
 <defs>
  <style type="text/css">
   <![CDATA[
    .str0 {stroke:#2B2A29;stroke-width:55.81;stroke-linejoin:round}
    .fil2 {fill:none}
    .fil1 {fill:#2B2A29}
    .fil3 {fill:#FEFEFE}
    .fil0 {fill:#A36B36}
   ]]>
  </style>
 </defs>
 <g id="Слой_x0020_1">
  <metadata id="CorelCorpID_0Corel-Layer"/>
  <g id="_1011037632">
   <path class="fil0 str0" d="M851 1928c146,101 447,161 696,143 493,-34 620,-383 339,-764 -43,-58 -117,-290 -41,-510 48,-138 302,-467 395,-198 19,56 40,128 86,192 84,116 185,118 257,40 176,-189 65,-416 -64,-599 -221,-312 -688,-56 -821,219 -197,-99 -430,-150 -627,-26 0,0 -181,-295 -366,-325 -685,-109 -718,611 -442,745 79,39 199,5 254,-61 69,-82 111,-242 107,-281 -7,-63 78,12 157,97 80,85 199,231 218,427 35,341 -54,362 -142,411 -167,92 -107,421 -6,490z"/>
   <path class="fil1 str0" d="M1323 1433c-30,3 -51,16 -81,-6 -29,-22 -42,-75 0,-88 45,-14 254,-34 290,7 25,29 31,79 2,83 -44,6 -70,-9 -87,7 -13,13 -16,26 -19,35 -10,29 -61,30 -76,10 -15,-19 -8,-51 -29,-48z"/>
   <path class="fil2 str0" d="M1393 1494c14,466 -382,442 -389,108"/>
   <path class="fil2 str0" d="M1393 1511c-18,421 287,420 372,115"/>
   <circle class="fil3 str0" cx="1207" cy="1063" r="90"/>
   <circle class="fil3 str0" cx="1556" cy="1055" r="90"/>
   <circle class="fil1 str0" cx="1165" cy="1070" r="28"/>
   <circle class="fil1 str0" cx="1517" cy="1061" r="29"/>
   <path class="fil0 str0" d="M1981 1869c0,0 13,124 123,187 111,63 425,37 458,277 44,314 -114,468 -376,483 0,0 243,165 409,-171 61,-122 139,-128 192,-108 135,49 174,330 -29,477 -235,170 -993,378 -993,-83 0,-200 -14,-519 -14,-519l17 602c3,108 -104,179 -213,180 -100,2 -200,-47 -210,-218 -11,-182 2,-459 -9,-572 -19,-12 -43,1 -43,1l-20 593c-10,289 -397,237 -409,-8 -7,-131 -5,-417 14,-585 20,-173 135,-338 -27,-477 99,53 816,331 1130,-59z"/>
  </g>
 </g>
</svg>
