<?xml version="1.0" encoding="UTF-8"?>
<!DOCTYPE svg PUBLIC "-//W3C//DTD SVG 1.1//EN" "http://www.w3.org/Graphics/SVG/1.1/DTD/svg11.dtd">
<!-- Creator: CorelDRAW X6 -->
<svg xmlns="http://www.w3.org/2000/svg" xml:space="preserve" width="40mm" height="41mm" version="1.1" style="shape-rendering:geometricPrecision; text-rendering:geometricPrecision; image-rendering:optimizeQuality; fill-rule:evenodd; clip-rule:evenodd"
viewBox="0 0 4000 4100"
 xmlns:xlink="http://www.w3.org/1999/xlink">
 <defs>
  <style type="text/css">
   <![CDATA[
    .str0 {stroke:#2B2A29;stroke-width:89.99;stroke-linejoin:round}
    .str1 {stroke:#2B2A29;stroke-width:90;stroke-linejoin:round}
    .fil2 {fill:none}
    .fil1 {fill:#2B2A29}
    .fil3 {fill:#FEFEFE}
    .fil0 {fill:#A36B36}
   ]]>
  </style>
 </defs>
 <g id="Слой_x0020_1">
  <metadata id="CorelCorpID_0Corel-Layer"/>
  <g id="_1056353344">
   <path class="fil0 str0" d="M1166 2407c188,130 574,207 894,185 634,-44 798,-493 436,-982 -55,-75 -150,-374 -53,-657 62,-177 389,-600 507,-253 25,72 52,164 111,246 109,149 238,152 331,51 226,-243 83,-534 -83,-769 -283,-400 -884,-72 -1054,281 -254,-126 -553,-192 -807,-33 0,0 -232,-379 -469,-417 -880,-141 -923,784 -569,957 102,49 256,6 327,-79 89,-105 143,-310 137,-361 -9,-81 101,16 203,125 101,109 254,297 280,548 44,439 -70,465 -184,528 -214,118 -136,542 -7,630z"/>
   <path class="fil1 str0" d="M1772 1771c-38,5 -65,21 -103,-7 -38,-29 -55,-97 0,-114 57,-18 325,-43 372,10 32,37 40,101 3,106 -57,7 -91,-12 -112,10 -16,16 -20,32 -25,44 -13,37 -77,38 -97,13 -19,-24 -11,-65 -38,-62z"/>
   <path class="fil2 str0" d="M1862 1850c19,599 -490,568 -499,138"/>
   <path class="fil2 str0" d="M1862 1872c-22,541 369,539 478,147"/>
   <circle class="fil3 str0" cx="1624" cy="1295" r="116"/>
   <circle class="fil3 str0" cx="2072" cy="1286" r="116"/>
   <circle class="fil1 str1" cx="1569" cy="1305" r="36"/>
   <circle class="fil1 str1" cx="2022" cy="1293" r="38"/>
   <path class="fil0 str0" d="M2618 2331c0,0 16,160 159,240 142,81 545,48 588,356 56,404 -147,602 -484,621 0,0 313,213 527,-219 77,-157 177,-164 245,-140 174,64 224,425 -37,613 -302,218 -1276,486 -1276,-107 0,-256 -18,-666 -18,-666l22 774c4,138 -133,229 -273,231 -129,2 -257,-60 -270,-281 -14,-233 3,-590 -12,-735 -24,-15 -55,2 -55,2l-26 762c-12,371 -510,304 -526,-10 -8,-169 -6,-535 19,-751 26,-223 173,-435 -35,-614 127,69 1049,425 1452,-76z"/>
  </g>
 </g>
</svg>
