<?xml version="1.0" standalone="no"?>
<!DOCTYPE svg PUBLIC "-//W3C//DTD SVG 1.1//EN" "http://www.w3.org/Graphics/SVG/1.1/DTD/svg11.dtd" >
<svg>
<metadata>
Created by FontForge 20090914 at Fri Mar  3 07:01:29 2017
 By www-data
a_FuturaRoundTitulCameoDecorFrame *Arsenal Company &#194;&#169; 1997* FAX: (095)924-3775; e-Mail: arsenal@itco.msk.su; Phone: (095)924-5811 (Design and Featuring W.Chufarofsky)
</metadata>
<defs>
<font id="aMavickFont" horiz-adv-x="573" >
  <font-face 
    font-family="aMavickFont"
    font-weight="400"
    font-stretch="normal"
    units-per-em="1000"
    panose-1="2 15 8 2 2 2 4 2 2 4"
    ascent="800"
    descent="-200"
    x-height="591"
    cap-height="599"
    bbox="9 -178 954 978"
    underline-thickness="0"
    underline-position="0"
    unicode-range="U+0020-U+203A"
  />
<missing-glyph horiz-adv-x="823" 
d="M40 0v978h743v-978h-743zM80 40h663v898h-663v-898z" />
    <glyph glyph-name=".notdef" horiz-adv-x="823" 
d="M40 0v978h743v-978h-743zM80 40h663v898h-663v-898z" />
    <glyph glyph-name="space" unicode=" " horiz-adv-x="369" 
 />
    <glyph glyph-name="exclam" unicode="!" horiz-adv-x="293" 
d="M75 56c0 -20.667 7 -38.167 21 -52.5s31 -21.5 51 -21.5s37 7.33301 51 22s21 32 21 52s-7 37 -21 51s-31 21 -51 21s-37 -7 -51 -21s-21 -31 -21 -51zM212 269v244c0 63.333 -21.667 95 -65 95s-65 -31.667 -65 -95v-244c0 -64 21.667 -96 65 -96s65 32 65 96z" />
    <glyph glyph-name="quotedbl" unicode="&#x22;" horiz-adv-x="447" 
d="M232 548v-155c0 -11.333 3.83301 -20.333 11.5 -27s17.167 -10 28.5 -10c10.667 0 19.834 3.33301 27.501 10s11.5 15.667 11.5 27v155c0 10.667 -3.83301 19.334 -11.5 26.001s-16.834 10 -27.501 10c-11.333 0 -20.833 -3.33301 -28.5 -10s-11.5 -15.334 -11.5 -26.001
zM100 548v-155c0 -11.333 3.83301 -20.333 11.5 -27s16.834 -10 27.501 -10s20 3.33301 28 10s12 15.667 12 27v155c0 10.667 -4 19.334 -12 26.001s-17.333 10 -28 10s-19.834 -3.33301 -27.501 -10s-11.5 -15.334 -11.5 -26.001z" />
    <glyph glyph-name="numbersign" unicode="#" horiz-adv-x="726" 
d="M532 242l18.002 79h56c20.667 0 36.167 3.5 46.5 10.5s15.5 19.5 15.5 37.5c0 16.667 -5.33301 28.5 -16 35.5s-25.667 10.5 -45 10.5h-35l19 92c0.666992 4 1.66699 11.167 3 21.5s2 18.166 2 23.499c0 13.333 -5.66699 23.833 -17 31.5s-25.666 11.5 -42.999 11.5
c-14 0 -25.833 -4.83301 -35.5 -14.5s-16.834 -26.167 -21.501 -49.5l-26 -116h-105l20 92l3.5 21.5c1.66699 10.333 2.5 18.166 2.5 23.499c0 13.333 -5.83301 23.833 -17.5 31.5s-26.5 11.5 -44.5 11.5c-13.333 0 -25 -4.83301 -35 -14.5s-17.667 -26.167 -23 -49.5
l-25 -116h-70c-20.667 0 -36.334 -3.5 -47.001 -10.5s-16 -18.833 -16 -35.5c0 -17.333 5.33301 -29.666 16 -36.999s26 -11 46 -11h50l-18 -79h-54c-20.667 0 -36.334 -3.66699 -47.001 -11s-16 -19.666 -16 -36.999s5.33301 -29.5 16 -36.5s26 -10.5 46 -10.5h34l-13 -55
c-2 -6.66699 -3.33301 -14 -4 -22s-1 -14.667 -1 -20c0 -22 6 -37.167 18 -45.5s25 -12.5 39 -12.5c16.667 0 29.667 6 39 18s16.333 28 21 48l20 89h104l-13 -55c-3.33301 -14.667 -5 -28.667 -5 -42c0 -22 6 -37.167 18 -45.5s25.333 -12.5 40 -12.5
c16.667 0 29.5 6 38.5 18s15.833 28 20.5 48l20 89h55c42 0 63 15.667 63 47c0 32 -20.667 48 -62 48h-35zM327.002 321h105l-18 -79h-104z" />
    <glyph glyph-name="dollar" unicode="$" horiz-adv-x="558" 
d="M249 -16l-0.00195312 -52.0049c0 -16 2.33301 -27.667 7 -35s13.334 -11 26.001 -11c22 0 33 15.333 33 46v55c27.333 3.33301 52.333 10.5 75 21.5s42 25.333 58 43s28.5 37.667 37.5 60s13.5 46.166 13.5 71.499c0 44.667 -13.333 81.167 -40 109.5
s-67.667 51.833 -123 70.5l-45 14c-13.333 4 -24.666 8.33301 -33.999 13s-16.333 10.334 -21 17.001s-7 15.334 -7 26.001c0 14.667 5.66699 26.834 17 36.501s27.333 14.5 48 14.5c18 0 36.167 -3.5 54.5 -10.5s35.5 -10.5 51.5 -10.5c19.333 0 34.333 5.16699 45 15.5
s16 24.166 16 41.499c0 22.667 -12.667 41.834 -38 57.501s-61.333 25.5 -108 29.5v39c0 14.667 -2.16699 25.667 -6.5 33s-13.166 11 -26.499 11c-22 0 -33 -14.667 -33 -44v-43c-52 -10 -92.5 -31.667 -121.5 -65s-43.5 -72.666 -43.5 -117.999
c0 -46 13.833 -81.167 41.5 -105.5s69.834 -45.166 126.501 -62.499c32 -10 57.167 -20.167 75.5 -30.5s27.5 -27.5 27.5 -51.5c0 -17.333 -6.33301 -31.666 -19 -42.999s-28.667 -17 -48 -17c-29.333 0 -56 4.83301 -80 14.5s-45.333 14.5 -64 14.5
c-20.667 0 -36.834 -5.5 -48.501 -16.5s-17.5 -25.5 -17.5 -43.5c0 -22 14.667 -42 44 -60s71.666 -29.667 126.999 -35z" />
    <glyph glyph-name="percent" unicode="%" horiz-adv-x="684" 
d="M51 467c0 -18.667 3.33301 -36 10 -52s15.834 -30 27.501 -42s25.167 -21.333 40.5 -28s31.666 -10 48.999 -10c18 0 34.667 3.33301 50 10s28.666 16 39.999 28s20.333 26 27 42s10 33.333 10 52c0 18 -3.33301 35 -10 51s-15.667 30 -27 42s-24.666 21.5 -39.999 28.5
s-32 10.5 -50 10.5c-17.333 0 -33.666 -3.33301 -48.999 -10s-28.833 -16 -40.5 -28s-20.834 -26 -27.501 -42s-10 -33.333 -10 -52zM136 467c0 12.667 4.33301 23 13 31s18.334 12 29.001 12c12 0 22.333 -4 31 -12s13 -18.333 13 -31s-4.33301 -23.167 -13 -31.5
s-19 -12.5 -31 -12.5c-10.667 0 -20.334 4.16699 -29.001 12.5s-13 18.833 -13 31.5zM361 125c0 -37.333 12.502 -68.668 37.502 -94.001s55.167 -38 90.5 -38c17.333 0 33.833 3.33301 49.5 10s29.167 16 40.5 28s20.333 26 27 42s10 33.333 10 52
c0 36.667 -12.333 67.834 -37 93.501s-54.667 38.5 -90 38.5c-17.333 0 -33.833 -3.33301 -49.5 -10s-29.334 -16 -41.001 -28s-20.834 -26 -27.501 -42s-10 -33.333 -10 -52zM446.002 124.998c0 12.667 4.33301 23 13 31s18.667 12 30 12s21.166 -4 29.499 -12
s12.5 -18.333 12.5 -31s-4.16699 -23.167 -12.5 -31.5s-18.166 -12.5 -29.499 -12.5s-21.333 4.16699 -30 12.5s-13 18.833 -13 31.5zM337.002 199.998l30 53.998l148 258c6.66699 10.667 11 20.334 13 29.001s3 15.334 3 20.001c0 14 -4.83301 24.5 -14.5 31.5
s-21.167 10.5 -34.5 10.5c-12.667 0 -23.167 -4.16699 -31.5 -12.5s-17.166 -19.833 -26.499 -34.5l-268 -467c-8.66699 -15.333 -14.167 -26.833 -16.5 -34.5s-3.5 -14.5 -3.5 -20.5c0 -14 4.66699 -25.5 14 -34.5s20.666 -13.5 33.999 -13.5c20.667 0 39.667 15.667 57 47
z" />
    <glyph glyph-name="ampersand" unicode="&#x26;" horiz-adv-x="700" 
d="M458 49c17.333 -20 32.334 -35.167 45.001 -45.5s26 -15.5 40 -15.5c15.333 0 28.5 5.16699 39.5 15.5s16.5 23.833 16.5 40.5c0 14 -4.66699 27.667 -14 41s-21.666 29 -36.999 47c24 22.667 42.333 42.5 55 59.5s19 33.5 19 49.5c0 15.333 -5 28.333 -15 39
s-21.667 16 -35 16c-14.667 0 -29.334 -7 -44.001 -21s-32.334 -33.667 -53.001 -59l-80 96c66.667 40 100 90.333 100 151c0 40 -15.333 74.167 -46 102.5s-72.334 42.5 -125.001 42.5c-52 0 -93.667 -13.333 -125 -40s-47 -59.667 -47 -99c0 -40 19 -80.667 57 -122
c-90.667 -44 -136 -104.667 -136 -182c0 -26 4.83301 -50 14.5 -72s23.334 -41.333 41.001 -58s38.667 -29.667 63 -39s50.833 -14 79.5 -14c37.333 0 71.833 5.83301 103.5 17.5s59.5 28.167 83.5 49.5zM280.001 260l108.999 -125
c-33.333 -29.333 -67.666 -44 -102.999 -44c-24.667 0 -44 7.33301 -58 22s-21 33 -21 55c0 39.333 24.333 70 73 92zM322 392c-30.667 28.667 -45.999 53.335 -45.999 74.002c0 13.333 5.16699 24.666 15.5 33.999s23.166 14 38.499 14c16 0 29.667 -5.33301 41 -16
s17 -22.334 17 -35.001c0 -29.333 -22 -53 -66 -71z" />
    <glyph glyph-name="quotesingle" unicode="'" horiz-adv-x="233" 
d="M71 548v-155c0 -11.333 3.83301 -20.333 11.5 -27s16.834 -10 27.501 -10s20 3.33301 28 10s12 15.667 12 27v155c0 10.667 -4 19.334 -12 26.001s-17.333 10 -28 10s-19.834 -3.33301 -27.501 -10s-11.5 -15.334 -11.5 -26.001z" />
    <glyph glyph-name="parenleft" unicode="(" horiz-adv-x="307" 
d="M185 299c0 43.333 2.99902 82.332 8.99902 116.999s12.833 65.167 20.5 91.5s14.5 48.5 20.5 66.5s9 32 9 42c0 34.667 -17 52 -51 52c-16 0 -29.167 -6.33301 -39.5 -19s-20.166 -31.667 -29.499 -57c-16.667 -43.333 -29.667 -89.833 -39 -139.5
s-14 -100.834 -14 -153.501c0 -59.333 5.5 -115.666 16.5 -168.999s25.167 -100.333 42.5 -141c16 -39.333 37 -59 63 -59c34 0 51 17 51 51c0 10.667 -3 24.834 -9 42.501s-12.833 39.5 -20.5 65.5s-14.5 56.5 -20.5 91.5s-9 74.5 -9 118.5z" />
    <glyph glyph-name="parenright" unicode=")" horiz-adv-x="289" 
d="M120 299c0 -43.333 -3.16602 -82.3369 -9.49902 -117.004s-13.166 -65.167 -20.499 -91.5s-14.166 -48.5 -20.499 -66.5s-9.5 -32.333 -9.5 -43c0 -34 17.333 -51 52 -51c15.333 0 28.166 6.33301 38.499 19s20.5 31.334 30.5 56.001c16.667 44 29.5 90.833 38.5 140.5
s13.5 100.834 13.5 153.501c0 58.667 -5.33301 114.834 -16 168.501s-24.667 100.834 -42 141.501c-16.667 39.333 -37.667 59 -63 59c-16 0 -28.667 -4.33301 -38 -13s-14 -21.667 -14 -39c0 -10 3.16699 -24 9.5 -42s13.166 -40 20.499 -66s14.166 -56.333 20.499 -91
s9.5 -74 9.5 -118z" />
    <glyph glyph-name="asterisk" unicode="*" horiz-adv-x="405" 
d="M178 394c-1.33301 -12 -3 -22.8359 -5 -32.5029s-3 -18.5 -3 -26.5c0 -13.333 3.5 -24.166 10.5 -32.499s16.833 -12.5 29.5 -12.5c13.333 0 23.666 4.16699 30.999 12.5s11 19.166 11 32.499c0 8.66699 -1.33301 17.834 -4 27.501s-4.33398 20.167 -5.00098 31.5
l38.5 -31.5c10.333 -8.33301 21.5 -12.5 33.5 -12.5c10.667 0 19.834 4.33301 27.501 13s11.5 18.334 11.5 29.001c0 9.33301 -5 19 -15 29s-31.667 19.333 -65 28c33.333 9.33301 55 18.833 65 28.5s15 19.167 15 28.5c0 10.667 -3.83301 20.334 -11.5 29.001
s-16.834 13 -27.501 13c-12 0 -23.167 -4 -33.5 -12l-38.5 -31c0.666992 11.333 2.33398 21.833 5.00098 31.5s4 18.834 4 27.501c0 13.333 -3.66699 24 -11 32s-17.666 12 -30.999 12c-12.667 0 -22.5 -4.16699 -29.5 -12.5s-10.5 -19.166 -10.5 -32.499
c0 -7.33301 1 -15.833 3 -25.5s3.66699 -20.5 5 -32.5c-14.667 11.333 -27 21.333 -37 30s-21.667 13 -35 13c-10.667 0 -19.834 -4.33301 -27.501 -13s-11.5 -18.334 -11.5 -29.001c0 -9.33301 4.83301 -18.833 14.5 -28.5s31.167 -19.167 64.5 -28.5
c-34 -8.66699 -55.667 -18 -65 -28s-14 -19.667 -14 -29c0 -10.667 3.83301 -20.334 11.5 -29.001s16.834 -13 27.501 -13c13.333 0 25 4.5 35 13.5s22.333 19.167 37 30.5z" />
    <glyph glyph-name="plus" unicode="+" horiz-adv-x="578" 
d="M253 511l0.000976562 -172h-166c-12 0 -21 -3.83301 -27 -11.5s-9 -17.167 -9 -28.5s3.16699 -20.833 9.5 -28.5s15.166 -11.5 26.499 -11.5h166v-172c0 -12.667 4 -21.834 12 -27.501s17.667 -8.5 29 -8.5s21 2.83301 29 8.5s12 14.834 12 27.501v172h167
c12 0 21 3.83301 27 11.5s9 17.167 9 28.5s-3 20.833 -9 28.5s-15 11.5 -27 11.5h-167v172c0 12 -4 21 -12 27s-17.667 9 -29 9s-21 -3 -29 -9s-12 -15 -12 -27z" />
    <glyph glyph-name="comma" unicode="," horiz-adv-x="338" 
d="M162 -79l65.999 119c4 8.66699 7.16699 16.334 9.5 23.001s3.5 13.334 3.5 20.001c0 15.333 -5.5 27.666 -16.5 36.999s-23.833 14 -38.5 14c-23.333 0 -42.666 -15 -57.999 -45l-66 -120c-8.66699 -14.667 -13 -28.334 -13 -41.001c0 -14.667 5.5 -27.167 16.5 -37.5
s23.833 -15.5 38.5 -15.5c22 0 41.333 15.333 58 46z" />
    <glyph glyph-name="hyphen" unicode="-" horiz-adv-x="469" 
d="M156 243h169c44 0 66 18.667 66 56c0 38 -22 57 -66 57h-168c-44 0 -66 -18.667 -66 -56c0 -18 5.66699 -32 17 -42s27.333 -15 48 -15z" />
    <glyph glyph-name="period" unicode="." horiz-adv-x="278" 
d="M69 70c0 -21.333 7.16895 -39.333 21.502 -54s32.166 -22 53.499 -22s39.333 7.33301 54 22s22 32.667 22 54s-7.33301 39.333 -22 54s-32.667 22 -54 22c-20.667 0 -38.334 -7.33301 -53.001 -22s-22 -32.667 -22 -54z" />
    <glyph glyph-name="slash" unicode="/" horiz-adv-x="504" 
d="M185 29l259 489c8 16 12 29.333 12 40c0 14.667 -5.33301 27 -16 37s-23.667 15 -39 15c-12.667 0 -23.5 -4.33301 -32.5 -13s-17.833 -20.667 -26.5 -36l-258 -488c-7.33301 -14 -11 -27.333 -11 -40c0 -15.333 5.5 -27.833 16.5 -37.5s23.833 -14.5 38.5 -14.5
c22 0 41 16 57 48z" />
    <glyph glyph-name="zero" unicode="0" horiz-adv-x="607" 
d="M67 295c0 -98 20.167 -174.667 60.5 -230s97.5 -83 171.5 -83c73.333 0 130.5 27.667 171.5 83s61.5 132 61.5 230c0 98.667 -20.5 175.5 -61.5 230.5s-98.167 82.5 -171.5 82.5c-74 0 -131.167 -27.5 -171.5 -82.5s-60.5 -131.833 -60.5 -230.5zM299 484
c32 0 56.668 -16.167 74.001 -48.5s26 -78.833 26 -139.5s-8.66699 -107.334 -26 -140.001s-42 -49 -74 -49s-56.5 16.333 -73.5 49s-25.5 79.334 -25.5 140.001s8.66699 107.167 26 139.5s41.666 48.5 72.999 48.5z" />
    <glyph glyph-name="one" unicode="1" horiz-adv-x="524" 
d="M400 125h-70.0029v371c0 23.333 -0.666992 41.833 -2 55.5s-4 24 -8 31s-9.66699 11.5 -17 13.5s-17 3 -29 3c-18 0 -37.167 -1.33301 -57.5 -4s-39.166 -7.16699 -56.499 -13.5s-31.833 -14.333 -43.5 -24s-17.5 -21.5 -17.5 -35.5c0 -20.667 6 -34.167 18 -40.5
s26.667 -9.5 44 -9.5h33v-347h-74c-19.333 0 -34.166 -5.5 -44.499 -16.5s-15.5 -26.5 -15.5 -46.5c0 -19.333 5.16699 -34.5 15.5 -45.5s25.166 -16.5 44.499 -16.5h280c18.667 0 33.334 5.5 44.001 16.5s16 26.167 16 45.5c0 20 -5.66699 35.5 -17 46.5
s-25.666 16.5 -42.999 16.5z" />
    <glyph glyph-name="two" unicode="2" horiz-adv-x="545" 
d="M378 125l-123.006 -0.000976562c64 64 114 119.5 150 166.5s54 94.167 54 141.5c0 24.667 -4.5 47.667 -13.5 69s-21.667 39.833 -38 55.5s-36.166 28 -59.499 37s-49.666 13.5 -78.999 13.5c-31.333 0 -60.666 -6.5 -87.999 -19.5s-51 -32.167 -71 -57.5
c-12.667 -16.667 -22.667 -35 -30 -55s-11 -37.667 -11 -53c0 -20.667 6.33301 -37.5 19 -50.5s28.334 -19.5 47.001 -19.5c18 0 31.333 5.83301 40 17.5s17.334 28.834 26.001 51.501c14.667 40 36 60 64 60c14 0 26 -5 36 -15s15 -23.667 15 -41
c0 -23.333 -13.167 -52.333 -39.5 -87s-63.166 -78.334 -110.499 -131.001l-78.5 -88c-19.667 -21.333 -29.5 -40.666 -29.5 -57.999c0 -41.333 27.333 -62 82 -62h238c64 0 96 20.667 96 62c0 42 -32 63 -96 63z" />
    <glyph glyph-name="three" unicode="3" horiz-adv-x="544" 
d="M381 325c45.333 33.333 68.001 73.6699 68.001 121.003c0 22 -4.5 42.833 -13.5 62.5s-21.333 36.834 -37 51.501s-34.334 26.334 -56.001 35.001s-45.5 13 -71.5 13s-50.5 -4.33301 -73.5 -13s-43.333 -19.667 -61 -33s-31.5 -28.5 -41.5 -45.5s-15 -33.5 -15 -49.5
c0 -16.667 5.66699 -30.334 17 -41.001s24.333 -16 39 -16c12.667 0 22.834 3.83301 30.501 11.5s15.667 16.167 24 25.5s18.166 17.833 29.499 25.5s27.666 11.5 48.999 11.5c14.667 0 26.334 -4.66699 35.001 -14s13 -21.666 13 -36.999
c0 -31.333 -20.667 -51.333 -62 -60c-20 -4.66699 -34.333 -11.334 -43 -20.001s-13 -22 -13 -40c0 -19.333 4.33301 -33.333 13 -42s23 -14.334 43 -17.001c28.667 -4.66699 50.167 -11.667 64.5 -21s21.5 -25.666 21.5 -48.999c0 -21.333 -7 -39.333 -21 -54
s-30.667 -22 -50 -22c-22 0 -39.167 5.33301 -51.5 16s-23 22.5 -32 35.5s-18.167 24.833 -27.5 35.5s-22 16 -38 16c-14.667 0 -28.167 -6.5 -40.5 -19.5s-18.5 -27.833 -18.5 -44.5c0 -20.667 4.83301 -40.834 14.5 -60.501s23.5 -37.334 41.5 -53.001
s39.667 -28.167 65 -37.5s53.666 -14 84.999 -14s59.833 5 85.5 15s47.834 23.667 66.501 41s33.167 37.666 43.5 60.999s15.5 48.333 15.5 75c0 67.333 -32.667 117.666 -98 150.999z" />
    <glyph glyph-name="four" unicode="4" horiz-adv-x="595" 
d="M445 65v68c22.667 0 39.167 4.5 49.5 13.5s15.5 23.5 15.5 43.5c0 38 -21.667 57 -65 57v216c0 46 -10 80.167 -30 102.5s-45.333 33.5 -76 33.5c-22 0 -40.5 -4.83301 -55.5 -14.5s-29.833 -26.167 -44.5 -49.5l-137 -217c-14.667 -23.333 -25 -43.166 -31 -59.499
s-9 -33.833 -9 -52.5c0 -22.667 7.16699 -40.5 21.5 -53.5s35.166 -19.5 62.499 -19.5h176v-64c0 -50.667 19 -76 57 -76c20.667 0 36.834 6.16699 48.501 18.5s17.5 30.166 17.5 53.499zM322 247h-140l140 225v-225z" />
    <glyph glyph-name="five" unicode="5" horiz-adv-x="507" 
d="M225 396l8.99805 71h139c54 0 81 20.667 81 62s-28.667 62 -86 62h-164c-27.333 0 -48 -4.16699 -62 -12.5s-22.667 -27.833 -26 -58.5l-19 -154c-1.33301 -11.333 -2.33301 -20.833 -3 -28.5s-1 -13.5 -1 -17.5c0 -38.667 17.333 -58 52 -58
c15.333 0 31.333 3.5 48 10.5s33.667 10.5 51 10.5c22.667 0 40.834 -7.33301 54.501 -22s20.5 -35.334 20.5 -62.001c0 -24.667 -8.33301 -45.667 -25 -63s-36.667 -26 -60 -26c-14.667 0 -27.834 2.66699 -39.501 8s-22.667 11 -33 17l-29.5 17
c-9.33301 5.33301 -19 8 -29 8c-15.333 0 -28.5 -5.66699 -39.5 -17s-16.5 -25.666 -16.5 -42.999c0 -14.667 5 -29.167 15 -43.5s23.5 -27 40.5 -38s37 -19.833 60 -26.5s47.5 -10 73.5 -10c33.333 0 63.833 5.83301 91.5 17.5s51.334 27.5 71.001 47.5
s34.834 43.667 45.501 71s16 57 16 89c0 28.667 -4.5 55 -13.5 79s-21.5 44.667 -37.5 62s-34.833 30.833 -56.5 40.5s-45.167 14.5 -70.5 14.5c-18.667 0 -37.667 -2.33301 -57 -7z" />
    <glyph glyph-name="six" unicode="6" horiz-adv-x="569" 
d="M260 377c15.333 22.667 30.334 42.3311 45.001 58.998l39.5 44.5c11.667 13 21 24.833 28 35.5s10.5 21.334 10.5 32.001c0 16.667 -6.5 31.167 -19.5 43.5s-28.167 18.5 -45.5 18.5s-36.5 -9.83301 -57.5 -29.5s-46.167 -47.5 -75.5 -83.5
c-92 -115.333 -138 -215.666 -138 -300.999c0 -31.333 5.16699 -60.166 15.5 -86.499s24.666 -49 42.999 -68s40.333 -33.667 66 -44s53.5 -15.5 83.5 -15.5c32 0 61.5 5.5 88.5 16.5s50.333 26 70 45s35 41.167 46 66.5s16.5 52.333 16.5 81
c0 27.333 -4.5 52.666 -13.5 75.999s-21.333 43.5 -37 60.5s-33.667 30.333 -54 40s-41.833 14.5 -64.5 14.5c-6 0 -13 -0.5 -21 -1.5s-16.667 -2.16699 -26 -3.5zM185.001 189.997c0 22.667 7.5 41.834 22.5 57.501s32.833 23.5 53.5 23.5s38.5 -7.83301 53.5 -23.5
s22.5 -34.834 22.5 -57.501s-7.5 -42.167 -22.5 -58.5s-32.833 -24.5 -53.5 -24.5s-38.5 8.16699 -53.5 24.5s-22.5 35.833 -22.5 58.5z" />
    <glyph glyph-name="seven" unicode="7" horiz-adv-x="551" 
d="M135 467l183 -0.000976562l-175 -360c-5.33301 -11.333 -9.66602 -21.666 -12.999 -30.999s-5 -18.333 -5 -27c0 -19.333 6.66699 -35.333 20 -48s29.666 -19 48.999 -19c27.333 0 51 21 71 63l195 422c5.33301 10.667 9 20.334 11 29.001s3 16 3 22
c0 48.667 -32.667 73 -98 73h-241c-54.667 0 -82 -20.333 -82 -61c0 -22.667 6.83301 -38.834 20.5 -48.501s34.167 -14.5 61.5 -14.5z" />
    <glyph glyph-name="eight" unicode="8" horiz-adv-x="547" 
d="M130 323c-52.667 -33.333 -79 -82.333 -79 -147c0 -26.667 5.16699 -51.834 15.5 -75.501s25 -44.167 44 -61.5s41.5 -31.166 67.5 -41.499s55 -15.5 87 -15.5s61.167 5.16699 87.5 15.5s49 24.166 68 41.499s33.667 37.833 44 61.5s15.5 48.834 15.5 75.501
c0 63.333 -26.333 112.333 -79 147c36 32 54 71.333 54 118c0 23.333 -4.66699 45.166 -14 65.499s-22.5 38 -39.5 53s-37.167 26.833 -60.5 35.5s-48.666 13 -75.999 13s-52.5 -4.33301 -75.5 -13s-42.833 -20.5 -59.5 -35.5s-29.834 -32.667 -39.501 -53
s-14.5 -42.166 -14.5 -65.499c0 -46 18 -85.333 54 -118zM185 188c0 24.667 8.16602 45.167 24.499 61.5s34.833 24.5 55.5 24.5c22 0 41 -8.16699 57 -24.5s24 -36.833 24 -61.5s-8.16699 -45 -24.5 -61s-35.166 -24 -56.499 -24c-20.667 0 -39.167 8.33301 -55.5 25
s-24.5 36.667 -24.5 60zM204.999 429c0 17.333 5.83203 32.166 17.499 44.499s25.834 18.5 42.501 18.5c17.333 0 32 -6.16699 44 -18.5s18 -27.166 18 -44.499c0 -16.667 -6 -31.167 -18 -43.5s-26.667 -18.5 -44 -18.5c-16 0 -30 6.16699 -42 18.5s-18 26.833 -18 43.5z
" />
    <glyph glyph-name="nine" unicode="9" horiz-adv-x="580" 
d="M364 403c0 -23.333 -7.33301 -42.833 -22 -58.5s-32.667 -23.5 -54 -23.5c-20.667 0 -38.5 7.83301 -53.5 23.5s-22.5 35.167 -22.5 58.5c0 22.667 7.5 41.834 22.5 57.501s32.833 23.5 53.5 23.5c21.333 0 39.333 -7.83301 54 -23.5s22 -34.834 22 -57.501zM289 215
c-15.333 -22.667 -30.335 -42.1641 -45.002 -58.4971l-39.5 -44.5c-11.667 -13.333 -21 -25.166 -28 -35.499s-10.5 -20.833 -10.5 -31.5c0 -16.667 6.66699 -31.5 20 -44.5s28.333 -19.5 45 -19.5s35.5 9.83301 56.5 29.5s46.167 47.834 75.5 84.501
c87.333 109.333 133.333 209.666 138 300.999c0 31.333 -5.16699 60.166 -15.5 86.499s-24.666 48.833 -42.999 67.5s-40.166 33.167 -65.499 43.5s-53 15.5 -83 15.5c-32 0 -61.5 -5.5 -88.5 -16.5s-50.333 -26 -70 -45s-35 -41.333 -46 -67s-16.5 -53.167 -16.5 -82.5
c0 -26.667 4.5 -51.334 13.5 -74.001s21.167 -42.334 36.5 -59.001s33.5 -29.834 54.5 -39.501s43.833 -14.5 68.5 -14.5c10.667 0 25 1.33301 43 4z" />
    <glyph glyph-name="colon" unicode=":" horiz-adv-x="260" 
d="M60 70c0 -21.333 7.16895 -39.333 21.502 -54s32.166 -22 53.499 -22s39.333 7.33301 54 22s22 32.667 22 54s-7.33301 39.333 -22 54s-32.667 22 -54 22c-20.667 0 -38.334 -7.33301 -53.001 -22s-22 -32.667 -22 -54zM60.002 397
c0 -20.667 7.16895 -38.334 21.502 -53.001s32.166 -22 53.499 -22s39.333 7.33301 54 22s22 32.334 22 53.001s-7.33301 38.334 -22 53.001s-32.667 22 -54 22c-20.667 0 -38.334 -7.33301 -53.001 -22s-22 -32.334 -22 -53.001z" />
    <glyph glyph-name="semicolon" unicode=";" horiz-adv-x="324" 
d="M110 397c0 -20.667 7.16895 -38.334 21.502 -53.001s32.166 -22 53.499 -22s39.333 7.33301 54 22s22 32.334 22 53.001s-7.33301 38.334 -22 53.001s-32.667 22 -54 22c-20.667 0 -38.334 -7.33301 -53.001 -22s-22 -32.334 -22 -53.001zM173.002 -79l65.999 119
c4 8.66699 7.16699 16.334 9.5 23.001s3.5 13.334 3.5 20.001c0 15.333 -5.5 27.666 -16.5 36.999s-23.833 14 -38.5 14c-23.333 0 -42.666 -15 -57.999 -45l-66 -120c-8.66699 -14.667 -13 -28.334 -13 -41.001c0 -14.667 5.5 -27.167 16.5 -37.5s23.833 -15.5 38.5 -15.5
c22 0 41.333 15.333 58 46z" />
    <glyph glyph-name="less" unicode="&#x3c;" horiz-adv-x="580" 
d="M168 297l0.000976562 4l336 136c9.33301 4 15.5 8.83301 18.5 14.5s4.5 15.5 4.5 29.5c0 12 -3.16699 20.667 -9.5 26s-14.166 8 -23.499 8c-11.333 0 -23.333 -2.66699 -36 -8l-358 -147c-20.667 -8.66699 -34.334 -17.167 -41.001 -25.5s-10 -20.166 -10 -35.499
s3.66699 -27.333 11 -36s20.666 -17 39.999 -25l358 -147c12 -5.33301 23.333 -8 34 -8s19.167 2.66699 25.5 8s9.5 14.333 9.5 27c0 13.333 -1.5 22.666 -4.5 27.999s-9.16699 10.333 -18.5 15z" />
    <glyph glyph-name="equal" unicode="=" horiz-adv-x="600" 
d="M64 383c0 -11.333 3.66699 -20.833 11 -28.5s16.333 -11.5 27 -11.5h411c10.667 0 19.667 3.83301 27 11.5s11 17.167 11 28.5s-3.66699 21 -11 29s-16.333 12 -27 12h-411c-10.667 0 -19.667 -4 -27 -12s-11 -17.667 -11 -29zM64 208
c0 -11.333 3.66699 -20.833 11 -28.5s16.333 -11.5 27 -11.5h411c10.667 0 19.667 3.83301 27 11.5s11 17.167 11 28.5s-3.66699 21 -11 29s-16.333 12 -27 12h-411c-10.667 0 -19.667 -4 -27 -12s-11 -17.667 -11 -29z" />
    <glyph glyph-name="greater" unicode="&#x3e;" horiz-adv-x="602" 
d="M432 301l-0.000976562 -4l-334 -136c-10.667 -4.66699 -17.5 -9.66699 -20.5 -15s-4.5 -14.666 -4.5 -27.999c0 -12.667 3.33301 -21.667 10 -27s15.334 -8 26.001 -8s22 2.66699 34 8l358 147c19.333 8 32.5 16.333 39.5 25s10.5 20.667 10.5 36
s-3.33301 27.166 -10 35.499s-20 16.833 -40 25.5l-358 147c-12.667 5.33301 -24.667 8 -36 8c-10 0 -18.167 -2.66699 -24.5 -8s-9.5 -14 -9.5 -26c0 -14 1.66699 -23.833 5 -29.5s10 -10.5 20 -14.5z" />
    <glyph glyph-name="question" unicode="?" horiz-adv-x="513" 
d="M175 56c0 -20.667 7.16699 -38.167 21.5 -52.5s31.5 -21.5 51.5 -21.5s37 7.33301 51 22s21 32 21 52s-7 37 -21 51s-31 21 -51 21s-37.167 -7 -51.5 -21s-21.5 -31 -21.5 -51zM184 289l0.00195312 -51.998c0 -24.667 5.66699 -43.5 17 -56.5s26.666 -19.5 45.999 -19.5
s35 7 47 21s18 34.333 18 61v2c44.667 8.66699 80.167 28.667 106.5 60s39.5 69.666 39.5 114.999c0 25.333 -4.83301 49.166 -14.5 71.499s-23.334 42 -41.001 59s-38.667 30.333 -63 40s-51.5 14.5 -81.5 14.5c-28.667 0 -55.167 -4.5 -79.5 -13.5
s-45.333 -20.667 -63 -35s-31.334 -30.333 -41.001 -48s-14.5 -34.834 -14.5 -51.501c0 -18 5.16699 -32.667 15.5 -44s23.166 -17 38.499 -17c12.667 0 24.334 4.33301 35.001 13s21.5 18.334 32.5 29.001s22.5 20.334 34.5 29.001s26 13 42 13
c16.667 0 30.5 -5.33301 41.5 -16s16.5 -23.334 16.5 -38.001c0 -16 -3.33301 -28.5 -10 -37.5s-15 -16 -25 -21s-21.167 -9.16699 -33.5 -12.5s-24.166 -7.33301 -35.499 -12s-18.833 -11 -22.5 -19s-5.5 -19.667 -5.5 -35z" />
    <glyph glyph-name="at" unicode="@" horiz-adv-x="882" 
d="M437 469l-2 0.000976562c-18.667 0 -38 -3.83301 -58 -11.5s-38.167 -19.167 -54.5 -34.5s-29.833 -34.166 -40.5 -56.499s-16 -48.166 -16 -77.499c0 -26 4 -50 12 -72s18.833 -40.833 32.5 -56.5s29.834 -28 48.501 -37s39 -13.5 61 -13.5c35.333 0 62.666 6 81.999 18
s34 22.667 44 32c5.33301 -12 17 -23.333 35 -34s38 -16 60 -16c64.667 0 110.667 21.167 138 63.5s41 102.166 41 179.499c0 46 -8.83301 87.667 -26.5 125s-42.667 69.166 -75 95.499s-71.666 46.666 -117.999 60.999s-97.833 21.5 -154.5 21.5
c-55.333 0 -106.5 -8.33301 -153.5 -25s-87.833 -40.667 -122.5 -72s-61.667 -69.833 -81 -115.5s-29 -97.167 -29 -154.5c0 -58 9.83301 -109.5 29.5 -154.5s46.834 -83 81.501 -114s75.5 -54.667 122.5 -71s97.833 -24.5 152.5 -24.5c18.667 0 41.5 2 68.5 6
s52.833 9.33301 77.5 16s45.667 14.5 63 23.5s26 18.5 26 28.5c0 8.66699 -2.33301 17 -7 25s-12.334 12 -23.001 12s-22 -2.16699 -34 -6.5s-25.667 -9 -41 -14s-33.666 -9.66699 -54.999 -14s-47 -6.5 -77 -6.5c-99.333 0 -175.5 25.5 -228.5 76.5
s-79.5 123.5 -79.5 217.5c0 93.333 26.667 166.166 80 218.499s130 78.5 230 78.5c96.667 0 170.5 -21 221.5 -63s76.5 -99.667 76.5 -173c0 -58.667 -5.83301 -102.667 -17.5 -132s-34.834 -44 -69.501 -44c-14 0 -25.333 3.83301 -34 11.5s-13 24.167 -13 49.5v194
c0 10 -3.83301 19.167 -11.5 27.5s-17.834 12.5 -30.501 12.5c-8 0 -15.833 -2.66699 -23.5 -8s-13.5 -11.666 -17.5 -18.999c-24 18 -54 27 -90 27zM362 289.001c0 28.667 6.16797 53.498 18.501 74.498s32.833 31.5 61.5 31.5c24.667 0 44 -7.66699 58 -23
s21 -41.666 21 -78.999c0 -72.667 -28 -109 -84 -109c-24.667 0 -43.334 9.83301 -56.001 29.5s-19 44.834 -19 75.501z" />
    <glyph glyph-name="A" unicode="A" horiz-adv-x="626" 
d="M316 599c-47.333 0 -81.668 -29 -103.001 -87l-154 -417c-4 -12 -6 -25 -6 -39c0 -18.667 6 -33.834 18 -45.501s27.333 -17.5 46 -17.5c30.667 0 52.334 19.667 65.001 59l24 74h209l22 -69c13.333 -42.667 37 -64 71 -64c18.667 0 34.5 5.5 47.5 16.5
s19.5 25.833 19.5 44.5c0 6 -0.833008 12.333 -2.5 19s-4.16699 14.334 -7.5 23.001l-149 426c-18.667 51.333 -52 77 -100 77zM244.998 245l67 208h2l65 -208h-134z" />
    <glyph glyph-name="B" unicode="B" horiz-adv-x="591" 
d="M164 0h133.001c68.667 0 121 16.167 157 48.5s54 75.5 54 129.5c0 36.667 -7.66699 65.167 -23 85.5s-40.333 36.166 -75 47.499v2c28 14 46.667 32 56 54s14 47.667 14 77c0 44.667 -18.833 80.334 -56.5 107.001s-86.834 40 -147.501 40h-110c-38 0 -63 -7.5 -75 -22.5
s-18 -38.833 -18 -71.5v-412c0 -32 6.16699 -54.167 18.5 -66.5s36.5 -18.5 72.5 -18.5zM207.001 116v138.999h65c36 0 60.667 -5.5 74 -16.5s20 -29.833 20 -56.5c0 -21.333 -6.66699 -37.666 -20 -48.999s-37.333 -17 -72 -17h-67zM207.001 359.999v116h58
c52.667 0 79 -19 79 -57c0 -21.333 -5.66699 -36.5 -17 -45.5s-32 -13.5 -62 -13.5h-58z" />
    <glyph glyph-name="C" unicode="C" horiz-adv-x="631" 
d="M364 -7c54.667 0 98.6611 9.83398 131.994 29.501s50 42.167 50 67.5c0 15.333 -5.66699 28.833 -17 40.5s-23.666 17.5 -36.999 17.5c-15.333 0 -32.666 -4.83301 -51.999 -14.5s-42.666 -14.5 -69.999 -14.5c-44 0 -79.333 15.333 -106 46s-40 73 -40 127
c0 55.333 13.167 99.166 39.5 131.499s60.5 48.5 102.5 48.5c24.667 0 46.667 -3.83301 66 -11.5s36.333 -11.5 51 -11.5s27.667 5.83301 39 17.5s17 25.167 17 40.5c0 12 -4.33301 23.5 -13 34.5s-20.667 20.667 -36 29s-33.666 15.166 -54.999 20.499s-44.666 8 -69.999 8
c-40 0 -77.167 -7.16699 -111.5 -21.5s-64.166 -34.666 -89.499 -60.999s-45.333 -58.333 -60 -96s-22 -79.5 -22 -125.5c0 -46.667 6.83301 -88.667 20.5 -126s33 -69 58 -95s54.833 -46 89.5 -60s72.667 -21 114 -21z" />
    <glyph glyph-name="D" unicode="D" horiz-adv-x="688" 
d="M276 591h-107.999c-38 0 -63 -7.5 -75 -22.5s-18 -38.833 -18 -71.5v-412c0 -32 6.16699 -54.167 18.5 -66.5s36.5 -18.5 72.5 -18.5h123c44.667 0 85 7.16699 121 21.5s66.333 34.5 91 60.5s43.667 57.667 57 95s20 79 20 125c0 52.667 -11.333 101 -34 145
s-53.334 78.333 -92.001 103c-22.667 14.667 -48.667 25.167 -78 31.5s-62 9.5 -98 9.5zM271.001 125h-62v341h59c108.667 0 163 -54.333 163 -163c0 -118.667 -53.333 -178 -160 -178z" />
    <glyph glyph-name="E" unicode="E" horiz-adv-x="476" 
d="M333 591h-151c-38 0 -63 -7.5 -75 -22.5s-18 -38.833 -18 -71.5v-412c0 -32 6.16699 -54.167 18.5 -66.5s36.5 -18.5 72.5 -18.5h157c64 0 96 20.667 96 62c0 42 -32 63 -96 63h-114v111h95c63.333 0 95 20.667 95 62s-31.667 62 -95 62h-95v106h110
c64 0 96 20.667 96 62c0 42 -32 63 -96 63z" />
    <glyph glyph-name="F" unicode="F" horiz-adv-x="515" 
d="M328 591h-151c-38 0 -63 -7.5 -75 -22.5s-18 -38.833 -18 -71.5v-409c0 -63.333 22.333 -95 67 -95s67 31.667 67 95v148h95c63.333 0 95 20.667 95 62s-31.667 62 -95 62h-95v106h110c64 0 96 20.667 96 62c0 42 -32 63 -96 63z" />
    <glyph glyph-name="G" unicode="G" horiz-adv-x="682" 
d="M524 354l-97.002 0.00292969c-30.667 0 -53.667 -4.83301 -69 -14.5s-23 -25.5 -23 -47.5c0 -21.333 7.66699 -36.666 23 -45.999s38.333 -14 69 -14h46c0 -36 -10.833 -64.167 -32.5 -84.5s-49.5 -30.5 -83.5 -30.5c-43.333 0 -78.333 16.167 -105 48.5
s-40 76.833 -40 133.5c0 55.333 13.167 98.333 39.5 129s61.5 46 105.5 46c20 0 37.833 -2.83301 53.5 -8.5s29.834 -11.834 42.501 -18.501l34.5 -18.5c10.333 -5.66699 20.5 -8.5 30.5 -8.5c15.333 0 28.5 6.16699 39.5 18.5s16.5 26.5 16.5 42.5c0 14 -5 28 -15 42
s-24.333 26.667 -43 38s-41.167 20.5 -67.5 27.5s-55.5 10.5 -87.5 10.5c-44 0 -83.833 -7 -119.5 -21s-66.167 -34 -91.5 -60s-44.833 -57.833 -58.5 -95.5s-20.5 -79.834 -20.5 -126.501c0 -46 6.83301 -87.5 20.5 -124.5s32.834 -68.833 57.501 -95.5
s53.834 -47.167 87.501 -61.5s70.5 -21.5 110.5 -21.5c40.667 0 77.667 6.66699 111 20s61.666 32.166 84.999 56.499s41.333 53.333 54 87s19 70.5 19 110.5c0 31.333 -7.33301 53.666 -22 66.999s-38 20 -70 20z" />
    <glyph glyph-name="H" unicode="H" horiz-adv-x="685" 
d="M203 88v151h248v-151c0 -63.333 22.333 -95 67 -95s67 31.667 67 95v415c0 64 -22.333 96 -67 96s-67 -32 -67 -96v-139h-248v139c0 64 -22.333 96 -67 96s-67 -32 -67 -96v-415c0 -63.333 22.333 -95 67 -95s67 31.667 67 95z" />
    <glyph glyph-name="I" unicode="I" horiz-adv-x="308" 
d="M229 88v415c0 64 -22.333 96 -67 96s-67 -32 -67 -96v-415c0 -63.333 22.333 -95 67 -95s67 31.667 67 95z" />
    <glyph glyph-name="J" unicode="J" horiz-adv-x="397" 
d="M315 10l-0.000976562 492.999c0 64 -23 96 -69 96c-44 0 -66 -32 -66 -96v-458c0 -19.333 -2.66699 -31.666 -8 -36.999s-17.666 -8 -36.999 -8c-24.667 0 -41.167 -4.83301 -49.5 -14.5s-12.5 -24.167 -12.5 -43.5c0 -22.667 9.5 -38.667 28.5 -48s45.167 -14 78.5 -14
c38 0 70 12.5 96 37.5s39 55.833 39 92.5z" />
    <glyph glyph-name="K" unicode="K" horiz-adv-x="594" 
d="M78 503l0.000976562 -415.001c0 -63.333 22.333 -95 67 -95s67 31.667 67 95v140l24 19l178 -207c12 -14.667 23.5 -26.167 34.5 -34.5s23.833 -12.5 38.5 -12.5s28.667 6 42 18s20 26.667 20 44c0 18 -11.333 40.333 -34 67l-181 203l137 135
c22.667 22.667 37.167 38.667 43.5 48s9.5 18.333 9.5 27c0 16.667 -6.83301 31.5 -20.5 44.5s-28.834 19.5 -45.501 19.5c-12 0 -24 -4.66699 -36 -14s-24.667 -20.666 -38 -33.999l-172 -177v129c0 64 -22.333 96 -67 96s-67 -32 -67 -96z" />
    <glyph glyph-name="L" unicode="L" horiz-adv-x="476" 
d="M69 503v-418c0 -32 6.16699 -54.167 18.5 -66.5s36.5 -18.5 72.5 -18.5h157c64 0 96 20.667 96 62c0 42 -32 63 -96 63h-114v378c0 64 -22.333 96 -67 96s-67 -32 -67 -96z" />
    <glyph glyph-name="M" unicode="M" horiz-adv-x="844" 
d="M424 187l78 332c5.33301 23.333 16.5 42.5 33.5 57.5s37.833 22.5 62.5 22.5c29.333 0 53.333 -9.33301 72 -28s30 -40.334 34 -65.001l65 -403c1.33301 -11.333 2.33301 -20.5 3 -27.5s1 -12.833 1 -17.5c0 -23.333 -5.16699 -40 -15.5 -50s-25.166 -15 -44.499 -15
c-20.667 0 -36.334 6.16699 -47.001 18.5s-18.334 34.833 -23.001 67.5l-51 324h-2l-76 -299c-10 -39.333 -22.5 -65 -37.5 -77s-32.833 -18 -53.5 -18c-21.333 0 -39.5 6 -54.5 18s-27.5 37.667 -37.5 77l-77 299h-1l-51 -324c-5.33301 -32.667 -13 -55.167 -23 -67.5
s-25.667 -18.5 -47 -18.5c-18.667 0 -33.5 5 -44.5 15s-16.5 26.667 -16.5 50c0 8 2 23 6 45l65 403c3.33301 24.667 14.333 46.334 33 65.001s42.334 28 71.001 28c25.333 0 46.5 -7.5 63.5 -22.5s28.167 -34.167 33.5 -57.5l78 -332h3z" />
    <glyph glyph-name="N" unicode="N" horiz-adv-x="624" 
d="M167 88v272.001l244 -322c24.667 -32.667 50.334 -49 77.001 -49c22 0 37.667 7.16699 47 21.5s14 35.166 14 62.499v430c0 64 -22.333 96 -67 96s-67 -32 -67 -96v-277l-249 329c-10.667 14 -21.334 24.833 -32.001 32.5s-23.667 11.5 -39 11.5
c-22 0 -37.833 -7.83301 -47.5 -23.5s-14.5 -38.167 -14.5 -67.5v-420c0 -63.333 22.333 -95 67 -95s67 31.667 67 95z" />
    <glyph glyph-name="O" unicode="O" horiz-adv-x="699" 
d="M75 295c0 -46 6.83008 -87.5 20.4971 -124.5s32.834 -68.667 57.501 -95s54.334 -46.666 89.001 -60.999s73.334 -21.5 116.001 -21.5s81.5 7.16699 116.5 21.5s64.833 34.666 89.5 60.999s43.667 58 57 95s20 78.5 20 124.5s-6.83301 87.667 -20.5 125
s-33 69.333 -58 96s-54.833 47.167 -89.5 61.5s-73 21.5 -115 21.5s-80.333 -7.16699 -115 -21.5s-64.5 -34.833 -89.5 -61.5s-44.333 -58.667 -58 -96s-20.5 -79 -20.5 -125zM217.997 293c0 56.667 12.999 101.167 38.999 133.5s59.667 48.5 101 48.5
c42 0 76 -16.167 102 -48.5s39 -76.833 39 -133.5c0 -54.667 -13.167 -97.667 -39.5 -129s-60.166 -47 -101.499 -47s-75 15.667 -101 47s-39 74.333 -39 129z" />
    <glyph glyph-name="P" unicode="P" horiz-adv-x="569" 
d="M261 312h-58v155h58c62 0 93 -25.667 93 -77c0 -52 -31 -78 -93 -78zM203 88v102.001h91c65.333 0 116 17.833 152 53.5s54 84.5 54 146.5c0 61.333 -19.167 110.166 -57.5 146.499s-91.5 54.5 -159.5 54.5h-121c-38 0 -63 -7.5 -75 -22.5s-18 -38.833 -18 -71.5v-409
c0 -63.333 22.333 -95 67 -95s67 31.667 67 95z" />
    <glyph glyph-name="Q" unicode="Q" horiz-adv-x="717" 
d="M357 599c-41.333 0 -79.334 -7.1709 -114.001 -21.5039s-64.5 -34.833 -89.5 -61.5s-44.333 -58.667 -58 -96s-20.5 -79 -20.5 -125c0 -45.333 6.66699 -86.666 20 -123.999s32.333 -69.166 57 -95.499s54.334 -46.666 89.001 -60.999s73.334 -21.5 116.001 -21.5
c28.667 0 54.667 2.33301 78 7s45.333 13.334 66 26.001l43 -41c19.333 -17.333 38.666 -26 57.999 -26c14.667 0 27.667 5.5 39 16.5s17 24.167 17 39.5c0 20.667 -9.33301 39.667 -28 57l-41 37c34.667 54 52 116 52 186c0 46 -6.83301 87.667 -20.5 125
s-33 69.333 -58 96s-55 47.167 -90 61.5s-73.5 21.5 -115.5 21.5zM401.999 123.996c-7.33301 -2.66699 -14.5 -4.50293 -21.5 -5.50293s-14.167 -1.5 -21.5 -1.5c-42.667 0 -77 15.667 -103 47s-39 74.333 -39 129c0 56.667 13 101.167 39 133.5s59.667 48.5 101 48.5
c42.667 0 76.834 -16.167 102.501 -48.5s38.5 -76.833 38.5 -133.5c0 -31.333 -6 -62.666 -18 -93.999c-12.667 12.667 -23.834 22.334 -33.501 29.001s-20.167 10 -31.5 10c-14 0 -25.833 -5.16699 -35.5 -15.5s-14.5 -23.166 -14.5 -38.499
c0 -11.333 3.16699 -21.5 9.5 -30.5s15.5 -18.833 27.5 -29.5z" />
    <glyph glyph-name="R" unicode="R" horiz-adv-x="571" 
d="M263 323h-61.999v144h64c27.333 0 48.166 -6.16699 62.499 -18.5s21.5 -29.5 21.5 -51.5c0 -23.333 -7.33301 -41.5 -22 -54.5s-36 -19.5 -64 -19.5zM201.001 88l-0.000976562 146.002l157 -198c12.667 -14.667 24.5 -26.167 35.5 -34.5s23.167 -12.5 36.5 -12.5
c18.667 0 34 6.16699 46 18.5s18 27.166 18 44.499c0 21.333 -13 47 -39 77l-106 118c44.667 7.33301 79.167 25.166 103.5 53.499s36.5 63.833 36.5 106.5c0 54.667 -19.167 99 -57.5 133s-94.166 51 -167.499 51h-104c-38 0 -63 -7.5 -75 -22.5s-18 -38.833 -18 -71.5
v-409c0 -63.333 22.333 -95 67 -95s67 31.667 67 95z" />
    <glyph glyph-name="S" unicode="S" horiz-adv-x="531" 
d="M483 185c0 44 -13.165 79.8311 -39.498 107.498s-66.166 50.5 -119.499 68.5c-32.667 10.667 -58 19.5 -76 26.5s-27 20.833 -27 41.5c0 14.667 5.5 26.667 16.5 36s26.833 14 47.5 14c16.667 0 33.834 -3.5 51.501 -10.5s34.5 -10.5 50.5 -10.5
c19.333 0 34.166 5 44.499 15s15.5 23.667 15.5 41c0 22.667 -14.5 42.5 -43.5 59.5s-67.167 25.5 -114.5 25.5c-32 0 -60.833 -4.66699 -86.5 -14s-47.5 -22.166 -65.5 -38.499s-32 -35.666 -42 -57.999s-15 -46.5 -15 -72.5c0 -44.667 13.333 -78.834 40 -102.501
s67.667 -43.834 123 -60.501c31.333 -9.33301 56 -19.166 74 -29.499s27 -27.166 27 -50.499c0 -16.667 -6.33301 -30.5 -19 -41.5s-28.334 -16.5 -47.001 -16.5c-28.667 0 -54.834 4.66699 -78.501 14s-44.167 14 -61.5 14c-20 0 -35.833 -5.5 -47.5 -16.5
s-17.5 -24.833 -17.5 -41.5c0 -12 4.66699 -23.5 14 -34.5s22.333 -20.833 39 -29.5s36.5 -15.5 59.5 -20.5s47.833 -7.5 74.5 -7.5c34 0 64.833 4.83301 92.5 14.5s51.167 23 70.5 40s34.166 37.167 44.499 60.5s15.5 49 15.5 77z" />
    <glyph glyph-name="T" unicode="T" horiz-adv-x="575" 
d="M167 466h50v-378c0 -63.333 22.333 -95 67 -95s67 31.667 67 95v378h50c64 0 96 20.667 96 62c0 42 -32 63 -96 63h-234c-64 0 -96 -21 -96 -63c0 -41.333 32 -62 96 -62z" />
    <glyph glyph-name="U" unicode="U" horiz-adv-x="651" 
d="M71 503v-239c0 -88.667 22.833 -156 68.5 -202s107.167 -69 184.5 -69s139 23 185 69s69 113.333 69 202v239c0 64 -22.667 96 -68 96c-44.667 0 -67 -32 -67 -96v-224c0 -104.667 -39.667 -157 -119 -157s-119 52.333 -119 157v224c0 64 -22.333 96 -67 96
s-67 -32 -67 -96z" />
    <glyph glyph-name="V" unicode="V" horiz-adv-x="654" 
d="M86 493l180.002 -453c7.33301 -17.333 15.833 -30 25.5 -38s22.5 -12 38.5 -12c16.667 0 30.167 4.33301 40.5 13s19.5 22.667 27.5 42l175 445c3.33301 8 5.66602 16 6.99902 24s2 15.333 2 22c0 18.667 -5.33301 33.834 -16 45.501s-26.334 17.5 -47.001 17.5
c-17.333 0 -31.333 -5 -42 -15s-19.667 -26.333 -27 -49l-116 -330l-124 335c-8 21.333 -16.833 36.5 -26.5 45.5s-22.167 13.5 -37.5 13.5c-20 0 -36.333 -6.5 -49 -19.5s-19 -29.167 -19 -48.5c0 -12.667 2.66699 -25.334 8 -38.001z" />
    <glyph glyph-name="W" unicode="W" horiz-adv-x="899" 
d="M364 75l83 331.002l89 -338c12.667 -50 42.334 -75 89.001 -75c31.333 0 52.833 7.16699 64.5 21.5s21.5 36.833 29.5 67.5l102 415c2 6.66699 3.33301 13.5 4 20.5s1 13.167 1 18.5c0 17.333 -6 32.166 -18 44.499s-28 18.5 -48 18.5s-35.167 -5.5 -45.5 -16.5
s-17.833 -28.167 -22.5 -51.5l-71 -367l-96 376c-10 39.333 -34.667 59 -74 59s-64 -19 -74 -57l-98 -378l-71 376c-7.33301 39.333 -29 59 -65 59c-20 0 -36.333 -5.83301 -49 -17.5s-19 -26.834 -19 -45.501c0 -8 0.333008 -15 1 -21s2 -12.667 4 -20l94 -413
c7.33301 -31.333 18 -54 32 -68s34.333 -21 61 -21c51.333 0 83.666 27.333 96.999 82z" />
    <glyph glyph-name="X" unicode="X" horiz-adv-x="677" 
d="M204 43l118.999 168l120 -169c22.667 -32.667 47 -49 73 -49c16.667 0 31 5.83301 43 17.5s18 24.834 18 39.501c0 8 -2 17.167 -6 27.5s-12 23.833 -24 40.5l-145 195l109 158c20.667 30 31 53 31 69c0 14.667 -6.16699 28.167 -18.5 40.5s-25.833 18.5 -40.5 18.5
c-24.667 0 -49 -17 -73 -51l-85 -125l-82 124c-23.333 34.667 -46.666 52 -69.999 52c-19.333 0 -35 -6.16699 -47 -18.5s-18 -26.833 -18 -43.5c0 -7.33301 2.33301 -16 7 -26s12.334 -23.333 23.001 -40l108 -158l-143 -194
c-12.667 -16.667 -20.834 -30.334 -24.501 -41.001s-5.5 -19.667 -5.5 -27c0 -14.667 6 -28 18 -40s26 -18 42 -18c12.667 0 24.667 4.16699 36 12.5s23 20.833 35 37.5z" />
    <glyph glyph-name="Y" unicode="Y" horiz-adv-x="593" 
d="M401 548l-102.002 -145.002l-101 144c-24.667 34.667 -47.667 52 -69 52c-19.333 0 -35 -6.16699 -47 -18.5s-18 -26.166 -18 -41.499c0 -8.66699 1.83301 -17.667 5.5 -27s11.834 -23 24.501 -41l137 -193v-191c0 -62.667 22.333 -94 67 -94s67 31.333 67 94v191
l136 193c12.667 18 21.167 31.667 25.5 41s6.5 18.333 6.5 27c0 14.667 -6 28.334 -18 41.001s-25.667 19 -41 19c-25.333 0 -49.666 -17 -72.999 -51z" />
    <glyph glyph-name="Z" unicode="Z" horiz-adv-x="598" 
d="M436 125l-190.999 -0.000976562l236 318c15.333 21.333 25.666 38.5 30.999 51.5s8 24.167 8 33.5c0 22.667 -8 38.834 -24 48.501s-43.333 14.5 -82 14.5h-238c-64 0 -96 -20.333 -96 -61s32 -61 96 -61h174l-242 -320c-16 -21.333 -26.167 -37.833 -30.5 -49.5
s-6.5 -22.5 -6.5 -32.5c0 -44.667 31 -67 93 -67h272c64 0 96 20.667 96 62c0 42 -32 63 -96 63z" />
    <glyph glyph-name="bracketleft" unicode="[" horiz-adv-x="289" 
d="M192 668l-59 0.000976562c-38 0 -63 -7.66699 -75 -23s-18 -39.333 -18 -72v-568c0 -32 6.33301 -54.167 19 -66.5s37 -18.5 73 -18.5h59c44 0 66 14.667 66 44c0 13.333 -5.66699 24.166 -17 32.499s-27.333 12.5 -48 12.5h-40v570h39c44 0 66 15.333 66 46
c0 28.667 -21.667 43 -65 43z" />
    <glyph glyph-name="backslash" unicode="\" horiz-adv-x="518" 
d="M78 518l258.002 -489c17.333 -32 36.666 -48 57.999 -48c14.667 0 27.667 4.83301 39 14.5s17 22.167 17 37.5c0 12 -4 25.333 -12 40l-259 488c-8 15.333 -16.333 27.333 -25 36s-19.334 13 -32.001 13c-14.667 0 -27.5 -5 -38.5 -15s-16.5 -22.333 -16.5 -37
c0 -12 3.66699 -25.333 11 -40z" />
    <glyph glyph-name="bracketright" unicode="]" horiz-adv-x="463" 
d="M199 668l-59.001 -0.000976562c-43.333 0 -65 -14.333 -65 -43c0 -30.667 22 -46 66 -46h39v-570h-40c-21.333 0 -37.5 -4.16699 -48.5 -12.5s-16.5 -19.166 -16.5 -32.499c0 -29.333 22 -44 66 -44h59c36 0 60.333 6.16699 73 18.5s19 34.5 19 66.5v568
c0 32.667 -6.16699 56.667 -18.5 72s-37.166 23 -74.499 23z" />
    <glyph glyph-name="asciicircum" unicode="^" horiz-adv-x="496" 
d="M160 410l86 52l87 -52c18 -10.667 33.333 -16 46 -16c13.333 0 24.5 5 33.5 15s13.5 22.333 13.5 37c0 12 -2.5 22 -7.5 30s-12.5 16 -22.5 24l-109 85c-6 4.66699 -12.667 8.16699 -20 10.5s-14.333 3.5 -21 3.5c-6 0 -12.667 -1.16699 -20 -3.5s-14 -5.83301 -20 -10.5
l-109 -85c-10 -8 -17.5 -16 -22.5 -24s-7.5 -18 -7.5 -30c0 -15.333 4.5 -27.833 13.5 -37.5s20.167 -14.5 33.5 -14.5c12.667 0 28 5.33301 46 16z" />
    <glyph glyph-name="underscore" unicode="_" horiz-adv-x="565" 
 />
    <glyph glyph-name="grave" unicode="`" horiz-adv-x="300" 
d="M91 575l62.999 -70c14.667 -16.667 29.667 -25 45 -25c12.667 0 23.334 4.16699 32.001 12.5s13 19.5 13 33.5c0 12 -5 24 -15 36l-60 84c-13.333 17.333 -29 26 -47 26c-14.667 0 -27.167 -5 -37.5 -15s-15.5 -22.333 -15.5 -37s7.33301 -29.667 22 -45z" />
    <glyph glyph-name="a" unicode="a" horiz-adv-x="666" 
d="M327 599c-47.333 0 -81.668 -29 -103.001 -87l-154 -417c-4 -12 -6 -25 -6 -39c0 -18.667 6 -33.834 18 -45.501s27.333 -17.5 46 -17.5c30.667 0 52.334 19.667 65.001 59l24 74h209l22 -69c13.333 -42.667 37 -64 71 -64c18.667 0 34.5 5.5 47.5 16.5
s19.5 25.833 19.5 44.5c0 6 -0.833008 12.333 -2.5 19s-4.16699 14.334 -7.5 23.001l-149 426c-18.667 51.333 -52 77 -100 77zM255.998 245l67 208h2l65 -208h-134z" />
    <glyph glyph-name="b" unicode="b" horiz-adv-x="560" 
d="M158 0h133.001c68.667 0 121 16.167 157 48.5s54 75.5 54 129.5c0 36.667 -7.66699 65.167 -23 85.5s-40.333 36.166 -75 47.499v2c28 14 46.667 32 56 54s14 47.667 14 77c0 44.667 -18.833 80.334 -56.5 107.001s-86.834 40 -147.501 40h-110c-38 0 -63 -7.5 -75 -22.5
s-18 -38.833 -18 -71.5v-412c0 -32 6.16699 -54.167 18.5 -66.5s36.5 -18.5 72.5 -18.5zM201.001 116v138.999h65c36 0 60.667 -5.5 74 -16.5s20 -29.833 20 -56.5c0 -21.333 -6.66699 -37.666 -20 -48.999s-37.333 -17 -72 -17h-67zM201.001 359.999v116h58
c52.667 0 79 -19 79 -57c0 -21.333 -5.66699 -36.5 -17 -45.5s-32 -13.5 -62 -13.5h-58z" />
    <glyph glyph-name="c" unicode="c" horiz-adv-x="591" 
d="M349 -7c54.667 0 98.6611 9.83398 131.994 29.501s50 42.167 50 67.5c0 15.333 -5.66699 28.833 -17 40.5s-23.666 17.5 -36.999 17.5c-15.333 0 -32.666 -4.83301 -51.999 -14.5s-42.666 -14.5 -69.999 -14.5c-44 0 -79.333 15.333 -106 46s-40 73 -40 127
c0 55.333 13.167 99.166 39.5 131.499s60.5 48.5 102.5 48.5c24.667 0 46.667 -3.83301 66 -11.5s36.333 -11.5 51 -11.5s27.667 5.83301 39 17.5s17 25.167 17 40.5c0 12 -4.33301 23.5 -13 34.5s-20.667 20.667 -36 29s-33.666 15.166 -54.999 20.499s-44.666 8 -69.999 8
c-40 0 -77.167 -7.16699 -111.5 -21.5s-64.166 -34.666 -89.499 -60.999s-45.333 -58.333 -60 -96s-22 -79.5 -22 -125.5c0 -46.667 6.83301 -88.667 20.5 -126s33 -69 58 -95s54.833 -46 89.5 -60s72.667 -21 114 -21z" />
    <glyph glyph-name="d" unicode="d" horiz-adv-x="647" 
d="M270 591h-107.999c-38 0 -63 -7.5 -75 -22.5s-18 -38.833 -18 -71.5v-412c0 -32 6.16699 -54.167 18.5 -66.5s36.5 -18.5 72.5 -18.5h123c44.667 0 85 7.16699 121 21.5s66.333 34.5 91 60.5s43.667 57.667 57 95s20 79 20 125c0 52.667 -11.333 101 -34 145
s-53.334 78.333 -92.001 103c-22.667 14.667 -48.667 25.167 -78 31.5s-62 9.5 -98 9.5zM265.001 125h-62v341h59c108.667 0 163 -54.333 163 -163c0 -118.667 -53.333 -178 -160 -178z" />
    <glyph glyph-name="e" unicode="e" horiz-adv-x="485" 
d="M311 591h-151c-38 0 -63 -7.5 -75 -22.5s-18 -38.833 -18 -71.5v-412c0 -32 6.16699 -54.167 18.5 -66.5s36.5 -18.5 72.5 -18.5h157c64 0 96 20.667 96 62c0 42 -32 63 -96 63h-114v111h95c63.333 0 95 20.667 95 62s-31.667 62 -95 62h-95v106h110
c64 0 96 20.667 96 62c0 42 -32 63 -96 63z" />
    <glyph glyph-name="f" unicode="f" horiz-adv-x="485" 
d="M313 591h-151c-38 0 -63 -7.5 -75 -22.5s-18 -38.833 -18 -71.5v-409c0 -63.333 22.333 -95 67 -95s67 31.667 67 95v148h95c63.333 0 95 20.667 95 62s-31.667 62 -95 62h-95v106h110c64 0 96 20.667 96 62c0 42 -32 63 -96 63z" />
    <glyph glyph-name="g" unicode="g" horiz-adv-x="683" 
d="M520 354l-97.002 0.00292969c-30.667 0 -53.667 -4.83301 -69 -14.5s-23 -25.5 -23 -47.5c0 -21.333 7.66699 -36.666 23 -45.999s38.333 -14 69 -14h46c0 -36 -10.833 -64.167 -32.5 -84.5s-49.5 -30.5 -83.5 -30.5c-43.333 0 -78.333 16.167 -105 48.5
s-40 76.833 -40 133.5c0 55.333 13.167 98.333 39.5 129s61.5 46 105.5 46c20 0 37.833 -2.83301 53.5 -8.5s29.834 -11.834 42.501 -18.501l34.5 -18.5c10.333 -5.66699 20.5 -8.5 30.5 -8.5c15.333 0 28.5 6.16699 39.5 18.5s16.5 26.5 16.5 42.5c0 14 -5 28 -15 42
s-24.333 26.667 -43 38s-41.167 20.5 -67.5 27.5s-55.5 10.5 -87.5 10.5c-44 0 -83.833 -7 -119.5 -21s-66.167 -34 -91.5 -60s-44.833 -57.833 -58.5 -95.5s-20.5 -79.834 -20.5 -126.501c0 -46 6.83301 -87.5 20.5 -124.5s32.834 -68.833 57.501 -95.5
s53.834 -47.167 87.501 -61.5s70.5 -21.5 110.5 -21.5c40.667 0 77.667 6.66699 111 20s61.666 32.166 84.999 56.499s41.333 53.333 54 87s19 70.5 19 110.5c0 31.333 -7.33301 53.666 -22 66.999s-38 20 -70 20z" />
    <glyph glyph-name="h" unicode="h" horiz-adv-x="662" 
d="M207 88v151h248v-151c0 -63.333 22.333 -95 67 -95s67 31.667 67 95v415c0 64 -22.333 96 -67 96s-67 -32 -67 -96v-139h-248v139c0 64 -22.333 96 -67 96s-67 -32 -67 -96v-415c0 -63.333 22.333 -95 67 -95s67 31.667 67 95z" />
    <glyph glyph-name="i" unicode="i" horiz-adv-x="291" 
d="M205 88v415c0 64 -22.333 96 -67 96s-67 -32 -67 -96v-415c0 -63.333 22.333 -95 67 -95s67 31.667 67 95z" />
    <glyph glyph-name="j" unicode="j" horiz-adv-x="382" 
d="M311 10l-0.000976562 492.999c0 64 -23 96 -69 96c-44 0 -66 -32 -66 -96v-458c0 -19.333 -2.66699 -31.666 -8 -36.999s-17.666 -8 -36.999 -8c-24.667 0 -41.167 -4.83301 -49.5 -14.5s-12.5 -24.167 -12.5 -43.5c0 -22.667 9.5 -38.667 28.5 -48s45.167 -14 78.5 -14
c38 0 70 12.5 96 37.5s39 55.833 39 92.5z" />
    <glyph glyph-name="k" unicode="k" horiz-adv-x="605" 
d="M69 503l0.000976562 -415.001c0 -63.333 22.333 -95 67 -95s67 31.667 67 95v140l24 19l178 -207c12 -14.667 23.5 -26.167 34.5 -34.5s23.833 -12.5 38.5 -12.5s28.667 6 42 18s20 26.667 20 44c0 18 -11.333 40.333 -34 67l-181 203l137 135
c22.667 22.667 37.167 38.667 43.5 48s9.5 18.333 9.5 27c0 16.667 -6.83301 31.5 -20.5 44.5s-28.834 19.5 -45.501 19.5c-12 0 -24 -4.66699 -36 -14s-24.667 -20.666 -38 -33.999l-172 -177v129c0 64 -22.333 96 -67 96s-67 -32 -67 -96z" />
    <glyph glyph-name="l" unicode="l" horiz-adv-x="480" 
d="M71 503v-418c0 -32 6.16699 -54.167 18.5 -66.5s36.5 -18.5 72.5 -18.5h157c64 0 96 20.667 96 62c0 42 -32 63 -96 63h-114v378c0 64 -22.333 96 -67 96s-67 -32 -67 -96z" />
    <glyph glyph-name="m" unicode="m" horiz-adv-x="835" 
d="M426 187l78 332c5.33301 23.333 16.5 42.5 33.5 57.5s37.833 22.5 62.5 22.5c29.333 0 53.333 -9.33301 72 -28s30 -40.334 34 -65.001l65 -403c1.33301 -11.333 2.33301 -20.5 3 -27.5s1 -12.833 1 -17.5c0 -23.333 -5.16699 -40 -15.5 -50s-25.166 -15 -44.499 -15
c-20.667 0 -36.334 6.16699 -47.001 18.5s-18.334 34.833 -23.001 67.5l-51 324h-2l-76 -299c-10 -39.333 -22.5 -65 -37.5 -77s-32.833 -18 -53.5 -18c-21.333 0 -39.5 6 -54.5 18s-27.5 37.667 -37.5 77l-77 299h-1l-51 -324c-5.33301 -32.667 -13 -55.167 -23 -67.5
s-25.667 -18.5 -47 -18.5c-18.667 0 -33.5 5 -44.5 15s-16.5 26.667 -16.5 50c0 8 2 23 6 45l65 403c3.33301 24.667 14.333 46.334 33 65.001s42.334 28 71.001 28c25.333 0 46.5 -7.5 63.5 -22.5s28.167 -34.167 33.5 -57.5l78 -332h3z" />
    <glyph glyph-name="n" unicode="n" horiz-adv-x="691" 
d="M201 88v272.001l244 -322c24.667 -32.667 50.334 -49 77.001 -49c22 0 37.667 7.16699 47 21.5s14 35.166 14 62.499v430c0 64 -22.333 96 -67 96s-67 -32 -67 -96v-277l-249 329c-10.667 14 -21.334 24.833 -32.001 32.5s-23.667 11.5 -39 11.5
c-22 0 -37.833 -7.83301 -47.5 -23.5s-14.5 -38.167 -14.5 -67.5v-420c0 -63.333 22.333 -95 67 -95s67 31.667 67 95z" />
    <glyph glyph-name="o" unicode="o" horiz-adv-x="713" 
d="M71 295c0 -46 6.83008 -87.5 20.4971 -124.5s32.834 -68.667 57.501 -95s54.334 -46.666 89.001 -60.999s73.334 -21.5 116.001 -21.5s81.5 7.16699 116.5 21.5s64.833 34.666 89.5 60.999s43.667 58 57 95s20 78.5 20 124.5s-6.83301 87.667 -20.5 125
s-33 69.333 -58 96s-54.833 47.167 -89.5 61.5s-73 21.5 -115 21.5s-80.333 -7.16699 -115 -21.5s-64.5 -34.833 -89.5 -61.5s-44.333 -58.667 -58 -96s-20.5 -79 -20.5 -125zM213.997 293c0 56.667 12.999 101.167 38.999 133.5s59.667 48.5 101 48.5
c42 0 76 -16.167 102 -48.5s39 -76.833 39 -133.5c0 -54.667 -13.167 -97.667 -39.5 -129s-60.166 -47 -101.499 -47s-75 15.667 -101 47s-39 74.333 -39 129z" />
    <glyph glyph-name="p" unicode="p" horiz-adv-x="584" 
d="M265 312h-58v155h58c62 0 93 -25.667 93 -77c0 -52 -31 -78 -93 -78zM207 88v102.001h91c65.333 0 116 17.833 152 53.5s54 84.5 54 146.5c0 61.333 -19.167 110.166 -57.5 146.499s-91.5 54.5 -159.5 54.5h-121c-38 0 -63 -7.5 -75 -22.5s-18 -38.833 -18 -71.5v-409
c0 -63.333 22.333 -95 67 -95s67 31.667 67 95z" />
    <glyph glyph-name="q" unicode="q" horiz-adv-x="718" 
d="M353 599c-41.333 0 -79.334 -7.1709 -114.001 -21.5039s-64.5 -34.833 -89.5 -61.5s-44.333 -58.667 -58 -96s-20.5 -79 -20.5 -125c0 -45.333 6.66699 -86.666 20 -123.999s32.333 -69.166 57 -95.499s54.334 -46.666 89.001 -60.999s73.334 -21.5 116.001 -21.5
c28.667 0 54.667 2.33301 78 7s45.333 13.334 66 26.001l43 -41c19.333 -17.333 38.666 -26 57.999 -26c14.667 0 27.667 5.5 39 16.5s17 24.167 17 39.5c0 20.667 -9.33301 39.667 -28 57l-41 37c34.667 54 52 116 52 186c0 46 -6.83301 87.667 -20.5 125
s-33 69.333 -58 96s-55 47.167 -90 61.5s-73.5 21.5 -115.5 21.5zM397.999 123.996c-7.33301 -2.66699 -14.5 -4.50293 -21.5 -5.50293s-14.167 -1.5 -21.5 -1.5c-42.667 0 -77 15.667 -103 47s-39 74.333 -39 129c0 56.667 13 101.167 39 133.5s59.667 48.5 101 48.5
c42.667 0 76.834 -16.167 102.501 -48.5s38.5 -76.833 38.5 -133.5c0 -31.333 -6 -62.666 -18 -93.999c-12.667 12.667 -23.834 22.334 -33.501 29.001s-20.167 10 -31.5 10c-14 0 -25.833 -5.16699 -35.5 -15.5s-14.5 -23.166 -14.5 -38.499
c0 -11.333 3.16699 -21.5 9.5 -30.5s15.5 -18.833 27.5 -29.5z" />
    <glyph glyph-name="r" unicode="r" horiz-adv-x="562" 
d="M260 323h-61.999v144h64c27.333 0 48.166 -6.16699 62.499 -18.5s21.5 -29.5 21.5 -51.5c0 -23.333 -7.33301 -41.5 -22 -54.5s-36 -19.5 -64 -19.5zM198.001 88l-0.000976562 146.002l157 -198c12.667 -14.667 24.5 -26.167 35.5 -34.5s23.167 -12.5 36.5 -12.5
c18.667 0 34 6.16699 46 18.5s18 27.166 18 44.499c0 21.333 -13 47 -39 77l-106 118c44.667 7.33301 79.167 25.166 103.5 53.499s36.5 63.833 36.5 106.5c0 54.667 -19.167 99 -57.5 133s-94.166 51 -167.499 51h-104c-38 0 -63 -7.5 -75 -22.5s-18 -38.833 -18 -71.5
v-409c0 -63.333 22.333 -95 67 -95s67 31.667 67 95z" />
    <glyph glyph-name="s" unicode="s" horiz-adv-x="571" 
d="M483 185c0 44 -13.165 79.8311 -39.498 107.498s-66.166 50.5 -119.499 68.5c-32.667 10.667 -58 19.5 -76 26.5s-27 20.833 -27 41.5c0 14.667 5.5 26.667 16.5 36s26.833 14 47.5 14c16.667 0 33.834 -3.5 51.501 -10.5s34.5 -10.5 50.5 -10.5
c19.333 0 34.166 5 44.499 15s15.5 23.667 15.5 41c0 22.667 -14.5 42.5 -43.5 59.5s-67.167 25.5 -114.5 25.5c-32 0 -60.833 -4.66699 -86.5 -14s-47.5 -22.166 -65.5 -38.499s-32 -35.666 -42 -57.999s-15 -46.5 -15 -72.5c0 -44.667 13.333 -78.834 40 -102.501
s67.667 -43.834 123 -60.501c31.333 -9.33301 56 -19.166 74 -29.499s27 -27.166 27 -50.499c0 -16.667 -6.33301 -30.5 -19 -41.5s-28.334 -16.5 -47.001 -16.5c-28.667 0 -54.834 4.66699 -78.501 14s-44.167 14 -61.5 14c-20 0 -35.833 -5.5 -47.5 -16.5
s-17.5 -24.833 -17.5 -41.5c0 -12 4.66699 -23.5 14 -34.5s22.333 -20.833 39 -29.5s36.5 -15.5 59.5 -20.5s47.833 -7.5 74.5 -7.5c34 0 64.833 4.83301 92.5 14.5s51.167 23 70.5 40s34.166 37.167 44.499 60.5s15.5 49 15.5 77z" />
    <glyph glyph-name="t" unicode="t" horiz-adv-x="560" 
d="M160 466h50v-378c0 -63.333 22.333 -95 67 -95s67 31.667 67 95v378h50c64 0 96 20.667 96 62c0 42 -32 63 -96 63h-234c-64 0 -96 -21 -96 -63c0 -41.333 32 -62 96 -62z" />
    <glyph glyph-name="u" unicode="u" horiz-adv-x="675" 
d="M71 503v-239c0 -88.667 22.833 -156 68.5 -202s107.167 -69 184.5 -69s139 23 185 69s69 113.333 69 202v239c0 64 -22.667 96 -68 96c-44.667 0 -67 -32 -67 -96v-224c0 -104.667 -39.667 -157 -119 -157s-119 52.333 -119 157v224c0 64 -22.333 96 -67 96
s-67 -32 -67 -96z" />
    <glyph glyph-name="v" unicode="v" horiz-adv-x="660" 
d="M75 493l180.002 -453c7.33301 -17.333 15.833 -30 25.5 -38s22.5 -12 38.5 -12c16.667 0 30.167 4.33301 40.5 13s19.5 22.667 27.5 42l175 445c3.33301 8 5.66602 16 6.99902 24s2 15.333 2 22c0 18.667 -5.33301 33.834 -16 45.501s-26.334 17.5 -47.001 17.5
c-17.333 0 -31.333 -5 -42 -15s-19.667 -26.333 -27 -49l-116 -330l-124 335c-8 21.333 -16.833 36.5 -26.5 45.5s-22.167 13.5 -37.5 13.5c-20 0 -36.333 -6.5 -49 -19.5s-19 -29.167 -19 -48.5c0 -12.667 2.66699 -25.334 8 -38.001z" />
    <glyph glyph-name="w" unicode="w" horiz-adv-x="893" 
d="M360 75l83 331.002l89 -338c12.667 -50 42.334 -75 89.001 -75c31.333 0 52.833 7.16699 64.5 21.5s21.5 36.833 29.5 67.5l102 415c2 6.66699 3.33301 13.5 4 20.5s1 13.167 1 18.5c0 17.333 -6 32.166 -18 44.499s-28 18.5 -48 18.5s-35.167 -5.5 -45.5 -16.5
s-17.833 -28.167 -22.5 -51.5l-71 -367l-96 376c-10 39.333 -34.667 59 -74 59s-64 -19 -74 -57l-98 -378l-71 376c-7.33301 39.333 -29 59 -65 59c-20 0 -36.333 -5.83301 -49 -17.5s-19 -26.834 -19 -45.501c0 -8 0.333008 -15 1 -21s2 -12.667 4 -20l94 -413
c7.33301 -31.333 18 -54 32 -68s34.333 -21 61 -21c51.333 0 83.666 27.333 96.999 82z" />
    <glyph glyph-name="x" unicode="x" horiz-adv-x="642" 
d="M200 43l118.999 168l120 -169c22.667 -32.667 47 -49 73 -49c16.667 0 31 5.83301 43 17.5s18 24.834 18 39.501c0 8 -2 17.167 -6 27.5s-12 23.833 -24 40.5l-145 195l109 158c20.667 30 31 53 31 69c0 14.667 -6.16699 28.167 -18.5 40.5s-25.833 18.5 -40.5 18.5
c-24.667 0 -49 -17 -73 -51l-85 -125l-82 124c-23.333 34.667 -46.666 52 -69.999 52c-19.333 0 -35 -6.16699 -47 -18.5s-18 -26.833 -18 -43.5c0 -7.33301 2.33301 -16 7 -26s12.334 -23.333 23.001 -40l108 -158l-143 -194
c-12.667 -16.667 -20.834 -30.334 -24.501 -41.001s-5.5 -19.667 -5.5 -27c0 -14.667 6 -28 18 -40s26 -18 42 -18c12.667 0 24.667 4.16699 36 12.5s23 20.833 35 37.5z" />
    <glyph glyph-name="y" unicode="y" horiz-adv-x="627" 
d="M408 548l-102.002 -145.002l-101 144c-24.667 34.667 -47.667 52 -69 52c-19.333 0 -35 -6.16699 -47 -18.5s-18 -26.166 -18 -41.499c0 -8.66699 1.83301 -17.667 5.5 -27s11.834 -23 24.501 -41l137 -193v-191c0 -62.667 22.333 -94 67 -94s67 31.333 67 94v191
l136 193c12.667 18 21.167 31.667 25.5 41s6.5 18.333 6.5 27c0 14.667 -6 28.334 -18 41.001s-25.667 19 -41 19c-25.333 0 -49.666 -17 -72.999 -51z" />
    <glyph glyph-name="z" unicode="z" horiz-adv-x="600" 
d="M425 125l-190.999 -0.000976562l236 318c15.333 21.333 25.666 38.5 30.999 51.5s8 24.167 8 33.5c0 22.667 -8 38.834 -24 48.501s-43.333 14.5 -82 14.5h-238c-64 0 -96 -20.333 -96 -61s32 -61 96 -61h174l-242 -320c-16 -21.333 -26.167 -37.833 -30.5 -49.5
s-6.5 -22.5 -6.5 -32.5c0 -44.667 31 -67 93 -67h272c64 0 96 20.667 96 62c0 42 -32 63 -96 63z" />
    <glyph glyph-name="braceleft" unicode="{" horiz-adv-x="442" 
d="M200 298v3.00098c28.667 8.66699 47.5 22.5 56.5 41.5s13.5 45.167 13.5 78.5v97c0 35.333 3.33301 57.666 10 66.999s19 14 37 14c27.333 0 41 14.333 41 43c0 28 -13.667 42 -41 42c-29.333 0 -53.333 -2 -72 -6s-33.5 -11.167 -44.5 -21.5s-18.667 -24.5 -23 -42.5
s-6.5 -40.667 -6.5 -68v-101c0 -36.667 -5.33301 -63.167 -16 -79.5s-25 -24.5 -43 -24.5c-32 0 -48 -14 -48 -42c0 -27.333 16 -41 48 -41c18 0 32.333 -7.83301 43 -23.5s16 -41.834 16 -78.501v-103c0 -28 2.16699 -51 6.5 -69s12 -32 23 -42s25.833 -16.833 44.5 -20.5
s42.667 -5.5 72 -5.5c27.333 0 41 14 41 42s-13.667 42 -41 42c-18 0 -30.333 5 -37 15s-10 32 -10 66v98c0 33.333 -4.5 59.333 -13.5 78s-27.833 32.334 -56.5 41.001z" />
    <glyph glyph-name="bar" unicode="|" horiz-adv-x="227" 
d="M153 687h-84v-794h84v794z" />
    <glyph glyph-name="braceright" unicode="}" horiz-adv-x="418" 
d="M225 301v-3.00098c-28 -8.66699 -46.5 -22.334 -55.5 -41.001s-13.5 -44.667 -13.5 -78v-98c0 -34 -3.5 -56 -10.5 -66s-19.167 -15 -36.5 -15c-28 0 -42 -14 -42 -42s14 -42 42 -42c28.667 0 52.5 1.83301 71.5 5.5s33.833 10.5 44.5 20.5s18.167 24 22.5 42
s6.5 41 6.5 69v103c0 36.667 5.66699 62.834 17 78.501s25.666 23.5 42.999 23.5c31.333 0 47 13.667 47 41c0 28 -15.667 42 -47 42c-17.333 0 -31.666 8.16699 -42.999 24.5s-17 42.833 -17 79.5v101c0 27.333 -2.16699 50 -6.5 68s-11.833 32.167 -22.5 42.5
s-25.5 17.5 -44.5 21.5s-42.833 6 -71.5 6c-28 0 -42 -14 -42 -42c0 -28.667 14 -43 42 -43c17.333 0 29.5 -4.66699 36.5 -14s10.5 -31.666 10.5 -66.999v-97c0 -33.333 4.5 -59.5 13.5 -78.5s27.5 -32.833 55.5 -41.5z" />
    <glyph glyph-name="asciitilde" unicode="~" horiz-adv-x="664" 
d="M235 339c-24.667 0 -47.002 -3.16699 -67.002 -9.5s-37.167 -14.5 -51.5 -24.5s-25.5 -21.5 -33.5 -34.5s-12 -26.167 -12 -39.5c0 -32 17 -48 51 -48c14 0 24.667 3 32 9s14.166 12.5 20.499 19.5s13.833 13.5 22.5 19.5s21.334 9 38.001 9
c18.667 0 31.834 -3.33301 39.501 -10l25.5 -23c31.333 -31.333 76 -47 134 -47c24 0 46.167 3 66.5 9s37.833 14 52.5 24s26.167 21.333 34.5 34s12.5 26 12.5 40c0 15.333 -4.83301 27.166 -14.5 35.499s-22.834 12.5 -39.501 12.5c-14 0 -24.5 -3 -31.5 -9
s-13.5 -12.5 -19.5 -19.5s-13.333 -13.5 -22 -19.5s-21.667 -9 -39 -9c-10.667 0 -19.167 1.16699 -25.5 3.5s-11.666 5.5 -15.999 9.5s-8.66602 8.33301 -12.999 13s-9.5 9.33398 -15.5 14.001c-16.667 12 -35.5 21.833 -56.5 29.5s-45.167 11.5 -72.5 11.5z" />
    <glyph glyph-name="quotesinglbase" horiz-adv-x="291" 
d="M163 11c-0.666992 -15.333 -4.66406 -28.001 -11.9971 -38.001s-18 -19 -32 -27c-12 -6.66699 -22.167 -12 -30.5 -16s-12.5 -11.333 -12.5 -22c0 -5.33301 2.33301 -10.333 7 -15s10.667 -7 18 -7c13.333 0 27.166 3.83301 41.499 11.5s27.5 18.167 39.5 31.5
s21.833 28.833 29.5 46.5s11.5 36.834 11.5 57.501c0 30 -7.83301 54.333 -23.5 73s-34.834 28 -57.501 28c-20.667 0 -37.334 -6.5 -50.001 -19.5s-19 -29.167 -19 -48.5c0 -18 5.33301 -32.667 16 -44s25 -17 43 -17c8.66699 0 19 2 31 6z" />
    <glyph glyph-name="quotesinglbase" unicode="&#x201a;" horiz-adv-x="291" 
d="M163 11c-0.666992 -15.333 -4.66406 -28.001 -11.9971 -38.001s-18 -19 -32 -27c-12 -6.66699 -22.167 -12 -30.5 -16s-12.5 -11.333 -12.5 -22c0 -5.33301 2.33301 -10.333 7 -15s10.667 -7 18 -7c13.333 0 27.166 3.83301 41.499 11.5s27.5 18.167 39.5 31.5
s21.833 28.833 29.5 46.5s11.5 36.834 11.5 57.501c0 30 -7.83301 54.333 -23.5 73s-34.834 28 -57.501 28c-20.667 0 -37.334 -6.5 -50.001 -19.5s-19 -29.167 -19 -48.5c0 -18 5.33301 -32.667 16 -44s25 -17 43 -17c8.66699 0 19 2 31 6z" />
    <glyph glyph-name="quotedblbase" horiz-adv-x="484" 
d="M163 11c-0.666992 -15.333 -4.66406 -28.001 -11.9971 -38.001s-18 -19 -32 -27c-12 -6.66699 -22.167 -12 -30.5 -16s-12.5 -11.333 -12.5 -22c0 -5.33301 2.33301 -10.333 7 -15s10.667 -7 18 -7c13.333 0 27.166 3.83301 41.499 11.5s27.5 18.167 39.5 31.5
s21.833 28.833 29.5 46.5s11.5 36.834 11.5 57.501c0 30 -7.83301 54.333 -23.5 73s-34.834 28 -57.501 28c-20.667 0 -37.334 -6.5 -50.001 -19.5s-19 -29.167 -19 -48.5c0 -18 5.33301 -32.667 16 -44s25 -17 43 -17c8.66699 0 19 2 31 6zM345.003 10.999
c-0.666992 -15.333 -4.5 -28.001 -11.5 -38.001s-17.5 -19 -31.5 -27c-12 -6.66699 -22.333 -12 -31 -16s-13 -11.333 -13 -22c0 -5.33301 2.5 -10.333 7.5 -15s10.5 -7 16.5 -7c14 0 28.333 3.83301 43 11.5s28 18.167 40 31.5s21.833 28.833 29.5 46.5
s11.5 36.834 11.5 57.501c0 30 -7.66699 54.333 -23 73s-34.666 28 -57.999 28c-20.667 0 -37.334 -6.5 -50.001 -19.5s-19 -29.167 -19 -48.5c0 -18 5.33301 -32.667 16 -44s24.667 -17 42 -17c10 0 20.333 2 31 6z" />
    <glyph glyph-name="quotedblbase" unicode="&#x201e;" horiz-adv-x="484" 
d="M163 11c-0.666992 -15.333 -4.66406 -28.001 -11.9971 -38.001s-18 -19 -32 -27c-12 -6.66699 -22.167 -12 -30.5 -16s-12.5 -11.333 -12.5 -22c0 -5.33301 2.33301 -10.333 7 -15s10.667 -7 18 -7c13.333 0 27.166 3.83301 41.499 11.5s27.5 18.167 39.5 31.5
s21.833 28.833 29.5 46.5s11.5 36.834 11.5 57.501c0 30 -7.83301 54.333 -23.5 73s-34.834 28 -57.501 28c-20.667 0 -37.334 -6.5 -50.001 -19.5s-19 -29.167 -19 -48.5c0 -18 5.33301 -32.667 16 -44s25 -17 43 -17c8.66699 0 19 2 31 6zM345.003 10.999
c-0.666992 -15.333 -4.5 -28.001 -11.5 -38.001s-17.5 -19 -31.5 -27c-12 -6.66699 -22.333 -12 -31 -16s-13 -11.333 -13 -22c0 -5.33301 2.5 -10.333 7.5 -15s10.5 -7 16.5 -7c14 0 28.333 3.83301 43 11.5s28 18.167 40 31.5s21.833 28.833 29.5 46.5
s11.5 36.834 11.5 57.501c0 30 -7.66699 54.333 -23 73s-34.666 28 -57.999 28c-20.667 0 -37.334 -6.5 -50.001 -19.5s-19 -29.167 -19 -48.5c0 -18 5.33301 -32.667 16 -44s24.667 -17 42 -17c10 0 20.333 2 31 6z" />
    <glyph glyph-name="ellipsis" unicode="&#x85;" horiz-adv-x="853" 
d="M71 70c0 -21.333 7.33301 -39.333 22 -54s32.667 -22 54 -22c20.667 0 38.334 7.33301 53.001 22s22 32.667 22 54s-7.33301 39.333 -22 54s-32.334 22 -53.001 22s-38.5 -7.33301 -53.5 -22s-22.5 -32.667 -22.5 -54zM348 70c0 -21.333 7.33301 -39.333 22 -54
s32.667 -22 54 -22c20.667 0 38.334 7.33301 53.001 22s22 32.667 22 54s-7.33301 39.333 -22 54s-32.334 22 -53.001 22c-21.333 0 -39.333 -7.33301 -54 -22s-22 -32.667 -22 -54zM626 70c0 -21.333 7.33301 -39.333 22 -54s32.667 -22 54 -22
c20.667 0 38.167 7.33301 52.5 22s21.5 32.667 21.5 54s-7.16699 39.333 -21.5 54s-31.833 22 -52.5 22c-21.333 0 -39.333 -7.33301 -54 -22s-22 -32.667 -22 -54z" />
    <glyph glyph-name="ellipsis" unicode="&#x2026;" horiz-adv-x="853" 
d="M71 70c0 -21.333 7.33301 -39.333 22 -54s32.667 -22 54 -22c20.667 0 38.334 7.33301 53.001 22s22 32.667 22 54s-7.33301 39.333 -22 54s-32.334 22 -53.001 22s-38.5 -7.33301 -53.5 -22s-22.5 -32.667 -22.5 -54zM348 70c0 -21.333 7.33301 -39.333 22 -54
s32.667 -22 54 -22c20.667 0 38.334 7.33301 53.001 22s22 32.667 22 54s-7.33301 39.333 -22 54s-32.334 22 -53.001 22c-21.333 0 -39.333 -7.33301 -54 -22s-22 -32.667 -22 -54zM626 70c0 -21.333 7.33301 -39.333 22 -54s32.667 -22 54 -22
c20.667 0 38.167 7.33301 52.5 22s21.5 32.667 21.5 54s-7.16699 39.333 -21.5 54s-31.833 22 -52.5 22c-21.333 0 -39.333 -7.33301 -54 -22s-22 -32.667 -22 -54z" />
    <glyph glyph-name="dagger" horiz-adv-x="526" 
d="M394 428h-70v98c0 54.667 -19 82 -57 82s-57 -27.333 -57 -82v-98h-69c-44 0 -66 -16 -66 -48s21.667 -48 65 -48h70v-343c0 -56 19 -84 57 -84s57 28 57 84v343h69c44 0 66 15.667 66 47c0 14.667 -5.5 26.5 -16.5 35.5s-27.167 13.5 -48.5 13.5z" />
    <glyph glyph-name="dagger" unicode="&#x2020;" horiz-adv-x="526" 
d="M394 428h-70v98c0 54.667 -19 82 -57 82s-57 -27.333 -57 -82v-98h-69c-44 0 -66 -16 -66 -48s21.667 -48 65 -48h70v-343c0 -56 19 -84 57 -84s57 28 57 84v343h69c44 0 66 15.667 66 47c0 14.667 -5.5 26.5 -16.5 35.5s-27.167 13.5 -48.5 13.5z" />
    <glyph glyph-name="perthousand" horiz-adv-x="995" 
d="M73 467c0 -18.667 3.33301 -36 10 -52s15.834 -30 27.501 -42s25.167 -21.333 40.5 -28s31.666 -10 48.999 -10c18 0 34.667 3.33301 50 10s28.666 16 39.999 28s20.333 26 27 42s10 33.333 10 52c0 18 -3.33301 35 -10 51s-15.667 30 -27 42s-24.666 21.5 -39.999 28.5
s-32 10.5 -50 10.5c-17.333 0 -33.666 -3.33301 -48.999 -10s-28.833 -16 -40.5 -28s-20.834 -26 -27.501 -42s-10 -33.333 -10 -52zM158 467c0 12.667 4.33301 23 13 31s18.334 12 29.001 12c12 0 22.167 -4 30.5 -12s12.5 -18.333 12.5 -31s-4.16699 -23.167 -12.5 -31.5
s-18.5 -12.5 -30.5 -12.5c-10.667 0 -20.334 4.16699 -29.001 12.5s-13 18.833 -13 31.5zM383 125c0 -37.333 12.502 -68.668 37.502 -94.001s55.167 -38 90.5 -38c17.333 0 33.833 3.33301 49.5 10s29.167 16 40.5 28s20.333 26 27 42s10 33.333 10 52
c0 36.667 -12.333 67.834 -37 93.501s-54.667 38.5 -90 38.5c-17.333 0 -33.833 -3.33301 -49.5 -10s-29.334 -16 -41.001 -28s-20.834 -26 -27.501 -42s-10 -33.333 -10 -52zM468.002 124.998c0 12.667 4.33301 23 13 31s18.667 12 30 12s21.166 -4 29.499 -12
s12.5 -18.333 12.5 -31s-4.16699 -23.167 -12.5 -31.5s-18.166 -12.5 -29.499 -12.5s-21.333 4.16699 -30 12.5s-13 18.833 -13 31.5zM668.002 124.998c0 -37.333 12.502 -68.667 37.502 -94s55.167 -38 90.5 -38c17.333 0 33.833 3.33301 49.5 10s29.334 16 41.001 28
s20.834 26 27.501 42s10 33.333 10 52c0 18 -3.33301 35 -10 51s-15.834 30 -27.501 42s-25.334 21.5 -41.001 28.5s-32.167 10.5 -49.5 10.5s-33.833 -3.33301 -49.5 -10s-29.334 -16 -41.001 -28s-20.834 -26 -27.501 -42s-10 -33.333 -10 -52zM753.004 124.997
c0 12.667 4.33301 23 13 31s18.667 12 30 12s21.333 -4 30 -12s13 -18.333 13 -31s-4.33301 -23.167 -13 -31.5s-18.667 -12.5 -30 -12.5s-21.333 4.16699 -30 12.5s-13 18.833 -13 31.5zM263.004 32.9971l273.999 478.999c10 18.667 15 33.334 15 44.001
c0 14 -4.66699 25.333 -14 34s-20.666 13 -33.999 13c-12.667 0 -23.167 -4.16699 -31.5 -12.5s-17.166 -19.833 -26.499 -34.5l-275 -479c-8.66699 -14.667 -13 -29 -13 -43s4.66699 -25.5 14 -34.5s20.666 -13.5 33.999 -13.5c20.667 0 39.667 15.667 57 47z" />
    <glyph glyph-name="perthousand" unicode="&#x2030;" horiz-adv-x="995" 
d="M73 467c0 -18.667 3.33301 -36 10 -52s15.834 -30 27.501 -42s25.167 -21.333 40.5 -28s31.666 -10 48.999 -10c18 0 34.667 3.33301 50 10s28.666 16 39.999 28s20.333 26 27 42s10 33.333 10 52c0 18 -3.33301 35 -10 51s-15.667 30 -27 42s-24.666 21.5 -39.999 28.5
s-32 10.5 -50 10.5c-17.333 0 -33.666 -3.33301 -48.999 -10s-28.833 -16 -40.5 -28s-20.834 -26 -27.501 -42s-10 -33.333 -10 -52zM158 467c0 12.667 4.33301 23 13 31s18.334 12 29.001 12c12 0 22.167 -4 30.5 -12s12.5 -18.333 12.5 -31s-4.16699 -23.167 -12.5 -31.5
s-18.5 -12.5 -30.5 -12.5c-10.667 0 -20.334 4.16699 -29.001 12.5s-13 18.833 -13 31.5zM383 125c0 -37.333 12.502 -68.668 37.502 -94.001s55.167 -38 90.5 -38c17.333 0 33.833 3.33301 49.5 10s29.167 16 40.5 28s20.333 26 27 42s10 33.333 10 52
c0 36.667 -12.333 67.834 -37 93.501s-54.667 38.5 -90 38.5c-17.333 0 -33.833 -3.33301 -49.5 -10s-29.334 -16 -41.001 -28s-20.834 -26 -27.501 -42s-10 -33.333 -10 -52zM468.002 124.998c0 12.667 4.33301 23 13 31s18.667 12 30 12s21.166 -4 29.499 -12
s12.5 -18.333 12.5 -31s-4.16699 -23.167 -12.5 -31.5s-18.166 -12.5 -29.499 -12.5s-21.333 4.16699 -30 12.5s-13 18.833 -13 31.5zM668.002 124.998c0 -37.333 12.502 -68.667 37.502 -94s55.167 -38 90.5 -38c17.333 0 33.833 3.33301 49.5 10s29.334 16 41.001 28
s20.834 26 27.501 42s10 33.333 10 52c0 18 -3.33301 35 -10 51s-15.834 30 -27.501 42s-25.334 21.5 -41.001 28.5s-32.167 10.5 -49.5 10.5s-33.833 -3.33301 -49.5 -10s-29.334 -16 -41.001 -28s-20.834 -26 -27.501 -42s-10 -33.333 -10 -52zM753.004 124.997
c0 12.667 4.33301 23 13 31s18.667 12 30 12s21.333 -4 30 -12s13 -18.333 13 -31s-4.33301 -23.167 -13 -31.5s-18.667 -12.5 -30 -12.5s-21.333 4.16699 -30 12.5s-13 18.833 -13 31.5zM263.004 32.9971l273.999 478.999c10 18.667 15 33.334 15 44.001
c0 14 -4.66699 25.333 -14 34s-20.666 13 -33.999 13c-12.667 0 -23.167 -4.16699 -31.5 -12.5s-17.166 -19.833 -26.499 -34.5l-275 -479c-8.66699 -14.667 -13 -29 -13 -43s4.66699 -25.5 14 -34.5s20.666 -13.5 33.999 -13.5c20.667 0 39.667 15.667 57 47z" />
    <glyph glyph-name="quoteleft" horiz-adv-x="295" 
d="M134 484c0.666992 28.667 14.665 50.666 41.998 65.999c12 6.66699 22.5 12 31.5 16s13.5 11 13.5 21c0 6 -2.66699 11.333 -8 16s-11.333 7 -18 7c-13.333 0 -27.166 -3.83301 -41.499 -11.5s-27.5 -18.167 -39.5 -31.5s-21.833 -29.333 -29.5 -48s-11.5 -39 -11.5 -61
c0 -27.333 7.5 -50.333 22.5 -69s34.167 -28 57.5 -28c20.667 0 37.667 6.5 51 19.5s20 28.833 20 47.5s-5.66699 33.834 -17 45.501s-25.666 17.5 -42.999 17.5c-5.33301 0 -10.333 -0.666992 -15 -2s-9.66699 -3 -15 -5z" />
    <glyph glyph-name="quoteleft" unicode="&#x2018;" horiz-adv-x="295" 
d="M134 484c0.666992 28.667 14.665 50.666 41.998 65.999c12 6.66699 22.5 12 31.5 16s13.5 11 13.5 21c0 6 -2.66699 11.333 -8 16s-11.333 7 -18 7c-13.333 0 -27.166 -3.83301 -41.499 -11.5s-27.5 -18.167 -39.5 -31.5s-21.833 -29.333 -29.5 -48s-11.5 -39 -11.5 -61
c0 -27.333 7.5 -50.333 22.5 -69s34.167 -28 57.5 -28c20.667 0 37.667 6.5 51 19.5s20 28.833 20 47.5s-5.66699 33.834 -17 45.501s-25.666 17.5 -42.999 17.5c-5.33301 0 -10.333 -0.666992 -15 -2s-9.66699 -3 -15 -5z" />
    <glyph glyph-name="quoteright" horiz-adv-x="298" 
d="M161 485c-0.666992 -15.333 -4.49902 -28.001 -11.499 -38.001s-17.5 -19 -31.5 -27c-11.333 -6.66699 -21.5 -12.167 -30.5 -16.5s-13.5 -11.5 -13.5 -21.5c0 -6 2.5 -11.167 7.5 -15.5s10.833 -6.5 17.5 -6.5c14 0 28.333 3.83301 43 11.5s28 18.167 40 31.5
s21.833 29 29.5 47s11.5 37 11.5 57c0 30 -7.83301 54.333 -23.5 73s-35.167 28 -58.5 28c-20.667 0 -37.5 -6.5 -50.5 -19.5s-19.5 -29.5 -19.5 -49.5c0 -18 5.66699 -32.5 17 -43.5s25.666 -16.5 42.999 -16.5c4.66699 0 9.5 0.333008 14.5 1s10.167 2.33398 15.5 5.00098
z" />
    <glyph glyph-name="quoteright" unicode="&#x2019;" horiz-adv-x="298" 
d="M161 485c-0.666992 -15.333 -4.49902 -28.001 -11.499 -38.001s-17.5 -19 -31.5 -27c-11.333 -6.66699 -21.5 -12.167 -30.5 -16.5s-13.5 -11.5 -13.5 -21.5c0 -6 2.5 -11.167 7.5 -15.5s10.833 -6.5 17.5 -6.5c14 0 28.333 3.83301 43 11.5s28 18.167 40 31.5
s21.833 29 29.5 47s11.5 37 11.5 57c0 30 -7.83301 54.333 -23.5 73s-35.167 28 -58.5 28c-20.667 0 -37.5 -6.5 -50.5 -19.5s-19.5 -29.5 -19.5 -49.5c0 -18 5.66699 -32.5 17 -43.5s25.666 -16.5 42.999 -16.5c4.66699 0 9.5 0.333008 14.5 1s10.167 2.33398 15.5 5.00098
z" />
    <glyph glyph-name="quotedblleft" horiz-adv-x="484" 
d="M310 484c0 28 14 49.999 42 65.999l31 16c8 4 12 11 12 21c0 6 -2.33301 11.333 -7 16s-10.334 7 -17.001 7c-13.333 0 -27.166 -3.83301 -41.499 -11.5s-27.5 -18.167 -39.5 -31.5s-21.833 -29.333 -29.5 -48s-11.5 -39 -11.5 -61c0 -27.333 7.66699 -50.333 23 -69
s34.333 -28 57 -28c20.667 0 37.5 6.5 50.5 19.5s19.5 28.833 19.5 47.5s-5.66699 33.834 -17 45.501s-25.333 17.5 -42 17.5c-8.66699 0 -18.667 -2.33301 -30 -7zM125 483.999c0.666992 28.667 14.998 50.666 42.998 65.999c12 6.66699 22.333 12 31 16s13 11 13 21
c0 6 -2.5 11.333 -7.5 16s-10.833 7 -17.5 7c-13.333 0 -27.333 -3.83301 -42 -11.5s-28 -18.167 -40 -31.5s-21.833 -29.333 -29.5 -48s-11.5 -39 -11.5 -61c0 -27.333 7.83301 -50.333 23.5 -69s34.834 -28 57.501 -28c20.667 0 37.5 6.5 50.5 19.5s19.5 28.833 19.5 47.5
s-5.66699 33.834 -17 45.501s-25.333 17.5 -42 17.5c-9.33301 0 -19.666 -2.33301 -30.999 -7z" />
    <glyph glyph-name="quotedblleft" unicode="&#x201c;" horiz-adv-x="484" 
d="M310 484c0 28 14 49.999 42 65.999l31 16c8 4 12 11 12 21c0 6 -2.33301 11.333 -7 16s-10.334 7 -17.001 7c-13.333 0 -27.166 -3.83301 -41.499 -11.5s-27.5 -18.167 -39.5 -31.5s-21.833 -29.333 -29.5 -48s-11.5 -39 -11.5 -61c0 -27.333 7.66699 -50.333 23 -69
s34.333 -28 57 -28c20.667 0 37.5 6.5 50.5 19.5s19.5 28.833 19.5 47.5s-5.66699 33.834 -17 45.501s-25.333 17.5 -42 17.5c-8.66699 0 -18.667 -2.33301 -30 -7zM125 483.999c0.666992 28.667 14.998 50.666 42.998 65.999c12 6.66699 22.333 12 31 16s13 11 13 21
c0 6 -2.5 11.333 -7.5 16s-10.833 7 -17.5 7c-13.333 0 -27.333 -3.83301 -42 -11.5s-28 -18.167 -40 -31.5s-21.833 -29.333 -29.5 -48s-11.5 -39 -11.5 -61c0 -27.333 7.83301 -50.333 23.5 -69s34.834 -28 57.501 -28c20.667 0 37.5 6.5 50.5 19.5s19.5 28.833 19.5 47.5
s-5.66699 33.834 -17 45.501s-25.333 17.5 -42 17.5c-9.33301 0 -19.666 -2.33301 -30.999 -7z" />
    <glyph glyph-name="quotedblright" horiz-adv-x="482" 
d="M161 485c-0.666992 -15.333 -4.49902 -28.001 -11.499 -38.001s-17.5 -19 -31.5 -27c-11.333 -6.66699 -21.5 -12.167 -30.5 -16.5s-13.5 -11.5 -13.5 -21.5c0 -6 2.5 -11.167 7.5 -15.5s10.833 -6.5 17.5 -6.5c14 0 28.333 3.83301 43 11.5s28 18.167 40 31.5
s21.833 29 29.5 47s11.5 37 11.5 57c0 30 -7.83301 54.333 -23.5 73s-35.167 28 -58.5 28c-20.667 0 -37.5 -6.5 -50.5 -19.5s-19.5 -29.5 -19.5 -49.5c0 -18 5.66699 -32.5 17 -43.5s25.666 -16.5 42.999 -16.5c4.66699 0 9.5 0.333008 14.5 1s10.167 2.33398 15.5 5.00098
zM346.001 484.999c-0.666992 -15.333 -4.66699 -28.001 -12 -38.001s-18 -19 -32 -27l-30.5 -16.5c-8.33301 -4.33301 -12.5 -11.5 -12.5 -21.5c0 -6 2.5 -11.167 7.5 -15.5s10.833 -6.5 17.5 -6.5c13.333 0 27.166 3.83301 41.499 11.5s27.5 18.167 39.5 31.5
s21.833 29 29.5 47s11.5 37 11.5 57c0 30 -7.66699 54.333 -23 73s-34.666 28 -57.999 28c-20 0 -36.5 -6.5 -49.5 -19.5s-19.5 -29.5 -19.5 -49.5c0 -18 5.66699 -32.5 17 -43.5s25.666 -16.5 42.999 -16.5c4.66699 0 9.33398 0.333008 14.001 1s10 2.33398 16 5.00098z
" />
    <glyph glyph-name="quotedblright" unicode="&#x201d;" horiz-adv-x="482" 
d="M161 485c-0.666992 -15.333 -4.49902 -28.001 -11.499 -38.001s-17.5 -19 -31.5 -27c-11.333 -6.66699 -21.5 -12.167 -30.5 -16.5s-13.5 -11.5 -13.5 -21.5c0 -6 2.5 -11.167 7.5 -15.5s10.833 -6.5 17.5 -6.5c14 0 28.333 3.83301 43 11.5s28 18.167 40 31.5
s21.833 29 29.5 47s11.5 37 11.5 57c0 30 -7.83301 54.333 -23.5 73s-35.167 28 -58.5 28c-20.667 0 -37.5 -6.5 -50.5 -19.5s-19.5 -29.5 -19.5 -49.5c0 -18 5.66699 -32.5 17 -43.5s25.666 -16.5 42.999 -16.5c4.66699 0 9.5 0.333008 14.5 1s10.167 2.33398 15.5 5.00098
zM346.001 484.999c-0.666992 -15.333 -4.66699 -28.001 -12 -38.001s-18 -19 -32 -27l-30.5 -16.5c-8.33301 -4.33301 -12.5 -11.5 -12.5 -21.5c0 -6 2.5 -11.167 7.5 -15.5s10.833 -6.5 17.5 -6.5c13.333 0 27.166 3.83301 41.499 11.5s27.5 18.167 39.5 31.5
s21.833 29 29.5 47s11.5 37 11.5 57c0 30 -7.66699 54.333 -23 73s-34.666 28 -57.999 28c-20 0 -36.5 -6.5 -49.5 -19.5s-19.5 -29.5 -19.5 -49.5c0 -18 5.66699 -32.5 17 -43.5s25.666 -16.5 42.999 -16.5c4.66699 0 9.33398 0.333008 14.001 1s10 2.33398 16 5.00098z
" />
    <glyph glyph-name="bullet" horiz-adv-x="387" 
d="M69 309c0 -16.667 3.16504 -32.167 9.49805 -46.5s14.833 -27 25.5 -38s23.334 -19.667 38.001 -26s30.334 -9.5 47.001 -9.5s32.167 3.16699 46.5 9.5s27 15 38 26s19.667 23.833 26 38.5s9.5 30 9.5 46c0 16.667 -3.16699 32.334 -9.5 47.001s-15 27.334 -26 38.001
s-23.667 19.167 -38 25.5s-29.833 9.5 -46.5 9.5s-32.167 -3.16699 -46.5 -9.5s-27 -14.833 -38 -25.5s-19.667 -23.334 -26 -38.001s-9.5 -30.334 -9.5 -47.001z" />
    <glyph glyph-name="bullet" unicode="&#x2022;" horiz-adv-x="387" 
d="M69 309c0 -16.667 3.16504 -32.167 9.49805 -46.5s14.833 -27 25.5 -38s23.334 -19.667 38.001 -26s30.334 -9.5 47.001 -9.5s32.167 3.16699 46.5 9.5s27 15 38 26s19.667 23.833 26 38.5s9.5 30 9.5 46c0 16.667 -3.16699 32.334 -9.5 47.001s-15 27.334 -26 38.001
s-23.667 19.167 -38 25.5s-29.833 9.5 -46.5 9.5s-32.167 -3.16699 -46.5 -9.5s-27 -14.833 -38 -25.5s-19.667 -23.334 -26 -38.001s-9.5 -30.334 -9.5 -47.001z" />
    <glyph glyph-name="endash" 
d="M452 342l-328 0.000976562c-32.667 0 -49 -14.333 -49 -43c0 -12.667 4.5 -22.834 13.5 -30.501s20.833 -11.5 35.5 -11.5h328c32.667 0 49 14 49 42c0 12.667 -4.5 23 -13.5 31s-20.833 12 -35.5 12z" />
    <glyph glyph-name="endash" unicode="&#x2013;" 
d="M452 342l-328 0.000976562c-32.667 0 -49 -14.333 -49 -43c0 -12.667 4.5 -22.834 13.5 -30.501s20.833 -11.5 35.5 -11.5h328c32.667 0 49 14 49 42c0 12.667 -4.5 23 -13.5 31s-20.833 12 -35.5 12z" />
    <glyph glyph-name="emdash" horiz-adv-x="982" 
d="M855 342h-734c-19.333 0 -34 -4 -44 -12s-15 -18.333 -15 -31c0 -12 5.16699 -22 15.5 -30s24.833 -12 43.5 -12h733c39.333 0 59 14 59 42c0 12.667 -5 23 -15 31s-24.333 12 -43 12z" />
    <glyph glyph-name="emdash" unicode="&#x2014;" horiz-adv-x="982" 
d="M855 342h-734c-19.333 0 -34 -4 -44 -12s-15 -18.333 -15 -31c0 -12 5.16699 -22 15.5 -30s24.833 -12 43.5 -12h733c39.333 0 59 14 59 42c0 12.667 -5 23 -15 31s-24.333 12 -43 12z" />
    <glyph glyph-name="trademark" horiz-adv-x="620" 
d="M233 594h-135c-20.667 0 -31 -8 -31 -24c0 -14.667 10.333 -22 31 -22h37v-145c0 -10.667 2.83301 -18.5 8.5 -23.5s12.5 -7.5 20.5 -7.5c9.33301 0 17 2.5 23 7.5s9 12.833 9 23.5v145h37c20.667 0 31 7.33301 31 22c0 16 -10.333 24 -31 24zM449 403l49.9971 118h1
v-118c0 -10.667 2.33301 -18.5 7 -23.5s10.667 -7.5 18 -7.5c19.333 0 29 10.333 29 31v153c0 10.667 -3.5 19.667 -10.5 27s-16.833 11 -29.5 11c-13.333 0 -24.166 -2.66699 -32.499 -8s-15.166 -15.333 -20.499 -30l-36 -97l-37 95
c-5.33301 14.667 -12.166 25 -20.499 31s-19.833 9 -34.5 9c-12 0 -21.5 -3.66699 -28.5 -11s-10.5 -16.333 -10.5 -27v-153c0 -20.667 9 -31 27 -31c8 0 14.667 2.5 20 7.5s8 12.833 8 23.5v118h1l50 -118c6 -12.667 14.333 -19 25 -19s18.667 6.33301 24 19z" />
    <glyph glyph-name="trademark" unicode="&#x2122;" horiz-adv-x="620" 
d="M233 594h-135c-20.667 0 -31 -8 -31 -24c0 -14.667 10.333 -22 31 -22h37v-145c0 -10.667 2.83301 -18.5 8.5 -23.5s12.5 -7.5 20.5 -7.5c9.33301 0 17 2.5 23 7.5s9 12.833 9 23.5v145h37c20.667 0 31 7.33301 31 22c0 16 -10.333 24 -31 24zM449 403l49.9971 118h1
v-118c0 -10.667 2.33301 -18.5 7 -23.5s10.667 -7.5 18 -7.5c19.333 0 29 10.333 29 31v153c0 10.667 -3.5 19.667 -10.5 27s-16.833 11 -29.5 11c-13.333 0 -24.166 -2.66699 -32.499 -8s-15.166 -15.333 -20.499 -30l-36 -97l-37 95
c-5.33301 14.667 -12.166 25 -20.499 31s-19.833 9 -34.5 9c-12 0 -21.5 -3.66699 -28.5 -11s-10.5 -16.333 -10.5 -27v-153c0 -20.667 9 -31 27 -31c8 0 14.667 2.5 20 7.5s8 12.833 8 23.5v118h1l50 -118c6 -12.667 14.333 -19 25 -19s18.667 6.33301 24 19z" />
    <glyph glyph-name="currency" unicode="&#xa4;" horiz-adv-x="579" 
d="M180 501l-83.001 83l-42 -44l82 -82c-20.667 -30 -31 -62.667 -31 -98c0 -37.333 10.333 -70.333 31 -99l-82 -83l42 -43l83 83c28 -21.333 61.333 -32 100 -32c37.333 0 70.333 10.667 99 32l83 -83l42 43l-82 83c20.667 29.333 31 62.333 31 99
c0 35.333 -10.333 68 -31 98l82 82l-42 44l-83 -83c-29.333 21.333 -62.666 32 -99.999 32c-20 0 -38 -2.66699 -54 -8s-31 -13.333 -45 -24zM279.999 471c30.667 0 57 -11.001 79 -33.001s33 -48 33 -78c0 -30.667 -11 -57 -33 -79s-48.333 -33 -79 -33
c-31.333 0 -57.833 11 -79.5 33s-32.5 48.333 -32.5 79c0 14.667 3 28.834 9 42.501s14 25.5 24 35.5s21.833 18 35.5 24s28.167 9 43.5 9z" />
    <glyph glyph-name="brokenbar" unicode="&#xa6;" horiz-adv-x="231" 
d="M153 653h-84v-308h84v308zM153 236h-84v-308h84v308z" />
    <glyph glyph-name="section" unicode="&#xa7;" horiz-adv-x="549" 
d="M145 428c-24 -13.333 -42.668 -31.332 -56.001 -53.999s-20 -46.667 -20 -72c0 -20.667 3.66699 -39 11 -55s17.833 -30.5 31.5 -43.5s30.334 -25.333 50.001 -37s41.834 -23.5 66.501 -35.5l85 -42c19.333 -10 29 -23 29 -39c0 -12.667 -5 -22.834 -15 -30.501
s-24.333 -11.5 -43 -11.5c-34 0 -59.333 14.333 -76 43c-7.33301 12.667 -14.5 22.834 -21.5 30.501s-17.167 11.5 -30.5 11.5c-14.667 0 -27.334 -5.33301 -38.001 -16s-16 -24.334 -16 -41.001c0 -16 4.33301 -31.667 13 -47s21 -28.833 37 -40.5s35.167 -21 57.5 -28
s47.166 -10.5 74.499 -10.5c54 0 96.833 13.833 128.5 41.5s47.5 62.5 47.5 104.5c0 36.667 -13.333 68.667 -40 96c24 14 42.333 32.167 55 54.5s19 46.166 19 71.499c0 42 -14 74.833 -42 98.5s-66.667 47.167 -116 70.5l-85.5 44c-19.667 10 -29.5 23.333 -29.5 40
c0 11.333 5.16699 21 15.5 29s23.833 12 40.5 12c32.667 0 56.667 -14.667 72 -44c8 -13.333 15.5 -23.5 22.5 -30.5s16.833 -10.5 29.5 -10.5c14.667 0 27.334 5.16699 38.001 15.5s16 23.833 16 40.5c0 32.667 -16 61.834 -48 87.501s-76.333 38.5 -133 38.5
c-52 0 -93.333 -13.833 -124 -41.5s-46 -63.167 -46 -106.5c0 -35.333 13.667 -66.333 41 -93zM344.999 207.001c-52.667 24 -92.834 43.668 -120.501 59.001s-41.5 32.333 -41.5 51c0 23.333 12 42.333 36 57c52.667 -25.333 92.834 -45.333 120.501 -60
s41.5 -31.667 41.5 -51c0 -24.667 -12 -43.334 -36 -56.001z" />
    <glyph glyph-name="dieresis" unicode="&#xa8;" horiz-adv-x="487" 
d="M311 591h-151c-38 0 -63 -7.5 -75 -22.5s-18 -38.833 -18 -71.5v-412c0 -32 6.16699 -54.167 18.5 -66.5s36.5 -18.5 72.5 -18.5h157c64 0 96 20.667 96 62c0 42 -32 63 -96 63h-114v111h95c63.333 0 95 20.667 95 62s-31.667 62 -95 62h-95v106h110
c64 0 96 20.667 96 62c0 42 -32 63 -96 63zM351 686c0 -17.333 -4.66699 -30.666 -14 -39.999s-22 -14 -38 -14c-34.667 0 -52 18 -52 54c0 16 4.5 29 13.5 39s21.833 15 38.5 15c16 0 28.667 -4.83301 38 -14.5s14 -22.834 14 -39.501zM222 686
c0 -17.333 -4.66699 -30.665 -14 -39.998s-22 -14 -38 -14s-28.667 4.66699 -38 14s-14 22.666 -14 39.999c0 16 4.66699 29 14 39s22 15 38 15s28.667 -4.83301 38 -14.5s14 -22.834 14 -39.501z" />
    <glyph glyph-name="dieresis" unicode="&#x401;" horiz-adv-x="487" 
d="M311 591h-151c-38 0 -63 -7.5 -75 -22.5s-18 -38.833 -18 -71.5v-412c0 -32 6.16699 -54.167 18.5 -66.5s36.5 -18.5 72.5 -18.5h157c64 0 96 20.667 96 62c0 42 -32 63 -96 63h-114v111h95c63.333 0 95 20.667 95 62s-31.667 62 -95 62h-95v106h110
c64 0 96 20.667 96 62c0 42 -32 63 -96 63zM351 686c0 -17.333 -4.66699 -30.666 -14 -39.999s-22 -14 -38 -14c-34.667 0 -52 18 -52 54c0 16 4.5 29 13.5 39s21.833 15 38.5 15c16 0 28.667 -4.83301 38 -14.5s14 -22.834 14 -39.501zM222 686
c0 -17.333 -4.66699 -30.665 -14 -39.998s-22 -14 -38 -14s-28.667 4.66699 -38 14s-14 22.666 -14 39.999c0 16 4.66699 29 14 39s22 15 38 15s28.667 -4.83301 38 -14.5s14 -22.834 14 -39.501z" />
    <glyph glyph-name="copyright" unicode="&#xa9;" horiz-adv-x="653" 
d="M331 600c84 0 155.667 -29.667 215 -89c28.667 -28 50.5 -60.333 65.5 -97s22.5 -75.334 22.5 -116.001c0 -83.333 -29.333 -153.666 -88 -210.999c-62 -60.667 -133.667 -91 -215 -91s-152 30 -212 90c-29.333 28.667 -51.5 61.167 -66.5 97.5s-22.5 74.5 -22.5 114.5
c0 39.333 7.5 77.5 22.5 114.5s37.167 70.167 66.5 99.5c57.333 58.667 128 88 212 88zM332 551c-71.333 0 -131.001 -24.667 -179.001 -74c-48.667 -50.667 -73 -110 -73 -178c0 -70 24.333 -129.333 73 -178c50 -50 109.667 -75 179 -75
c68.667 0 128.334 25.333 179.001 76c48.667 47.333 73 106.333 73 177c0 69.333 -24.333 128.333 -73 177c-50 50 -109.667 75 -179 75zM171.999 298c0 25.333 4.3291 48.6699 12.9961 70.0029s20.834 39.666 36.501 54.999s34.167 27.333 55.5 36s45 13 71 13
c32.667 0 59 -5.83301 79 -17.5s30 -26.834 30 -45.501c0 -12 -3.66699 -21.833 -11 -29.5s-16.666 -11.5 -27.999 -11.5c-9.33301 0 -19.833 2.33301 -31.5 7s-24.5 7 -38.5 7c-20.667 0 -38.334 -7.5 -53.001 -22.5s-22 -34.833 -22 -59.5c0 -26 7.5 -46.5 22.5 -61.5
s33.833 -22.5 56.5 -22.5c14.667 0 27.334 2.5 38.001 7.5s20.334 7.5 29.001 7.5c11.333 0 20.5 -4.16699 27.5 -12.5s10.5 -18.166 10.5 -29.499c0 -16.667 -10.667 -31.834 -32 -45.501s-49.333 -20.5 -84 -20.5c-24 0 -46.167 4.16699 -66.5 12.5
s-38.166 20.166 -53.499 35.499s-27.333 33.833 -36 55.5s-13 45.5 -13 71.5z" />
    <glyph glyph-name="guillemotleft" unicode="&#xab;" horiz-adv-x="520" 
d="M217 246l-72.002 53.0049l72 53c8 6 14.667 12 20 18s8 15.667 8 29c0 16 -3.16699 28.167 -9.5 36.5s-14.166 12.5 -23.499 12.5c-11.333 0 -23.333 -3.83301 -36 -11.5s-27.334 -17.834 -44.001 -30.501c-24 -17.333 -42.333 -33 -55 -47s-19 -34 -19 -60
c0 -26.667 6.66699 -46.834 20 -60.501s31.333 -28.834 54 -45.501c16.667 -12.667 31.334 -22.834 44.001 -30.501s24.334 -11.5 35.001 -11.5c10 0 18.167 4.16699 24.5 12.5s9.5 20.166 9.5 35.499c0 14 -2.66699 23.833 -8 29.5s-12 11.5 -20 17.5zM409.998 246.005
l-71 53.0049l71 53c7.33301 6 13.666 12 18.999 18s8 15.667 8 29c0 32.667 -11 49 -33 49c-10.667 0 -22.167 -3.83301 -34.5 -11.5s-27.166 -17.834 -44.499 -30.501c-23.333 -17.333 -41.5 -33 -54.5 -47s-19.5 -34 -19.5 -60c0 -26.667 6.66699 -46.834 20 -60.501
s31.333 -28.834 54 -45.501c17.333 -12.667 32 -22.834 44 -30.501s23.333 -11.5 34 -11.5c10 0 18.167 4.16699 24.5 12.5s9.5 20.166 9.5 35.499c0 14 -2.5 23.833 -7.5 29.5s-11.5 11.5 -19.5 17.5z" />
    <glyph glyph-name="logicalnot" unicode="&#xac;" 
d="M528 356l0.000976562 -171.001c0 -14 -3.83301 -24.5 -11.5 -31.5s-17.834 -10.5 -30.501 -10.5c-12 0 -21.833 3.5 -29.5 10.5s-11.5 17.5 -11.5 31.5v86h-368c-15.333 0 -27.333 3.83301 -36 11.5s-13 17.834 -13 30.501c0 28.667 16.333 43 49 43h451z" />
    <glyph glyph-name="registered" unicode="&#xae;" horiz-adv-x="651" 
d="M331 600c41.333 0 80.665 -7.66895 117.998 -23.002s70.333 -38 99 -68c28 -27.333 49.333 -59.333 64 -96s22 -75 22 -115c0 -41.333 -7.66699 -80.5 -23 -117.5s-37.333 -69.167 -66 -96.5c-29.333 -28.667 -62.666 -50.5 -99.999 -65.5s-75.333 -22.5 -114 -22.5
c-40 0 -78.5 7.83301 -115.5 23.5s-70.167 38.167 -99.5 67.5c-28 28.667 -49.333 61.334 -64 98.001s-22 74.334 -22 113.001c0 54.667 14.667 107 44 157c27.333 46 63.333 81.667 108 107s94.334 38 149.001 38zM331.999 550.998c-68.667 0 -126.999 -24 -174.999 -72
c-25.333 -24.667 -44.5 -52.667 -57.5 -84s-19.5 -63.333 -19.5 -96c0 -33.333 6.16699 -65.333 18.5 -96s30.166 -57.667 53.499 -81c24 -24.667 51.5 -43.667 82.5 -57s63.167 -20 96.5 -20c67.333 0 127 25 179 75c23.333 22.667 41.5 49 54.5 79s19.5 61.333 19.5 94
c0 72 -24 132.667 -72 182c-49.333 50.667 -109.333 76 -180 76zM337 470.998c96 0 144.002 -32.001 144.002 -96.001c0 -22 -6.5 -40.833 -19.5 -56.5s-30.833 -26.5 -53.5 -32.5l57 -87c10.667 -16 16 -33.333 16 -52c0 -5.33301 -4.5 -10.666 -13.5 -15.999
s-17.833 -8 -26.5 -8s-15.834 1.83301 -21.501 5.5s-13.167 13.167 -22.5 28.5l-69 117h-40v-99c0 -21.333 -3.83301 -35.333 -11.5 -42s-17.834 -10 -30.501 -10c-10.667 0 -20 3.5 -28 10.5s-12 20.833 -12 41.5v249c0 19.333 4 32 12 38s17.333 9 28 9h91z
M288.002 321.997h40c45.333 0 68 16 68 48c0 33.333 -24 50 -72 50h-36v-98z" />
    <glyph glyph-name="degree" unicode="&#xb0;" horiz-adv-x="382" 
d="M194 619c-34 0 -62.999 -12.167 -86.999 -36.5s-36 -53.5 -36 -87.5c0 -34.667 11.833 -64 35.5 -88s52.5 -36 86.5 -36c35.333 0 64.833 12.167 88.5 36.5s35.5 53.5 35.5 87.5s-11.833 63.167 -35.5 87.5s-52.834 36.5 -87.501 36.5zM194.001 566
c20 0 36.833 -7 50.5 -21s20.5 -30.667 20.5 -50s-6.83301 -36 -20.5 -50s-30.5 -21 -50.5 -21s-36.833 7 -50.5 21s-20.5 30.667 -20.5 50s7 36 21 50s30.667 21 50 21z" />
    <glyph glyph-name="plusminus" unicode="&#xb1;" horiz-adv-x="549" 
d="M86 284c-21.333 0 -36.333 2.83301 -45 8.5s-13 15.834 -13 30.501c0 15.333 4.33301 26.166 13 32.499s23.667 9.5 45 9.5h145v89c0 14 3.66699 24.667 11 32s17 11 29 11c28 0 42 -14.333 42 -43v-89h144c21.333 0 36.5 -3.16699 45.5 -9.5s13.5 -17.166 13.5 -32.499
c0 -14.667 -4.5 -24.834 -13.5 -30.501s-24.167 -8.5 -45.5 -8.5h-144v-89c0 -28.667 -14 -43 -42 -43c-12 0 -21.667 3.66699 -29 11s-11 18 -11 32v89h-145zM457 81c21.333 0 36.5 -3.16699 45.5 -9.5s13.5 -17.166 13.5 -32.499c0 -14.667 -4.5 -24.834 -13.5 -30.501
s-24.167 -8.5 -45.5 -8.5h-371c-21.333 -0 -36.333 2.83301 -45 8.5s-13 15.834 -13 30.501c0 15.333 4.33301 26.166 13 32.499s23.667 9.5 45 9.5h371z" />
    <glyph glyph-name="mu" unicode="&#xb5;" horiz-adv-x="560" 
d="M473 83c23.333 0 38.334 -3.66699 45.001 -11s10 -16.333 10 -27c0 -11.333 -3.66699 -20.666 -11 -27.999s-16.5 -13.333 -27.5 -18s-23 -7.83398 -36 -9.50098s-24.833 -2.5 -35.5 -2.5c-23.333 0 -41.5 3.66699 -54.5 11s-22.5 18.333 -28.5 33h-3
c-20 -29.333 -43.667 -44 -71 -44c-32 0 -62 16.333 -90 49v-150c0 -24 -4.5 -40.667 -13.5 -50s-22.833 -14 -41.5 -14s-33.5 4.66699 -44.5 14s-16.5 26 -16.5 50v496c0 22.667 5.5 38.5 16.5 47.5s25.833 13.5 44.5 13.5s32.5 -4.5 41.5 -13.5s13.5 -24.833 13.5 -47.5
v-115c0 -36 2 -65.833 6 -89.5s10 -42.5 18 -56.5s18.167 -23.833 30.5 -29.5s27.166 -8.5 44.499 -8.5c20.667 0 36.667 12.167 48 36.5s17 62.833 17 115.5v147c0 22.667 5.16699 38.5 15.5 47.5s25.166 13.5 44.499 13.5c18.667 0 32.834 -4.5 42.501 -13.5
s14.5 -24.833 14.5 -47.5v-299h21z" />
    <glyph glyph-name="paragraph" unicode="&#xb6;" horiz-adv-x="480" 
d="M410 600c15.333 0 26.334 -2.49902 33.001 -7.49902s10 -11.5 10 -19.5c0 -7.33301 -3.33301 -13.333 -10 -18s-17.667 -7 -33 -7h-46v-500c0 -32 -11 -48 -33 -48c-11.333 0 -18.833 3.66699 -22.5 11s-5.5 19.666 -5.5 36.999v500h-65v-500
c0 -17.333 -2.33301 -29.666 -7 -36.999s-12.667 -11 -24 -11c-20.667 0 -31 16 -31 48v270c-46 2 -82.167 16 -108.5 42s-39.5 59 -39.5 99c0 41.333 14.167 75.166 42.5 101.499s67.166 39.5 116.499 39.5h223z" />
    <glyph glyph-name="periodcentered" unicode="&#xb7;" horiz-adv-x="285" 
d="M69 295c0 -20.667 7.16895 -38.334 21.502 -53.001s32.166 -22 53.499 -22s39.5 7.33301 54.5 22s22.5 32.334 22.5 53.001s-7.5 38.5 -22.5 53.5s-33.167 22.5 -54.5 22.5c-20.667 0 -38.334 -7.5 -53.001 -22.5s-22 -32.833 -22 -53.5z" />
    <glyph glyph-name="periodcentered" unicode="&#x2219;" horiz-adv-x="285" 
d="M69 295c0 -20.667 7.16895 -38.334 21.502 -53.001s32.166 -22 53.499 -22s39.5 7.33301 54.5 22s22.5 32.334 22.5 53.001s-7.5 38.5 -22.5 53.5s-33.167 22.5 -54.5 22.5c-20.667 0 -38.334 -7.5 -53.001 -22.5s-22 -32.833 -22 -53.5z" />
    <glyph glyph-name="cedilla" unicode="&#xb8;" horiz-adv-x="487" 
d="M311 591h-151c-38 0 -63 -7.5 -75 -22.5s-18 -38.833 -18 -71.5v-412c0 -32 6.16699 -54.167 18.5 -66.5s36.5 -18.5 72.5 -18.5h157c64 0 96 20.667 96 62c0 42 -32 63 -96 63h-114v111h95c63.333 0 95 20.667 95 62s-31.667 62 -95 62h-95v106h110
c64 0 96 20.667 96 62c0 42 -32 63 -96 63zM351 686c0 -17.333 -4.66699 -30.666 -14 -39.999s-22 -14 -38 -14c-34.667 0 -52 18 -52 54c0 16 4.5 29 13.5 39s21.833 15 38.5 15c16 0 28.667 -4.83301 38 -14.5s14 -22.834 14 -39.501zM222 686
c0 -17.333 -4.66699 -30.665 -14 -39.998s-22 -14 -38 -14s-28.667 4.66699 -38 14s-14 22.666 -14 39.999c0 16 4.66699 29 14 39s22 15 38 15s28.667 -4.83301 38 -14.5s14 -22.834 14 -39.501z" />
    <glyph glyph-name="cedilla" unicode="&#x451;" horiz-adv-x="487" 
d="M311 591h-151c-38 0 -63 -7.5 -75 -22.5s-18 -38.833 -18 -71.5v-412c0 -32 6.16699 -54.167 18.5 -66.5s36.5 -18.5 72.5 -18.5h157c64 0 96 20.667 96 62c0 42 -32 63 -96 63h-114v111h95c63.333 0 95 20.667 95 62s-31.667 62 -95 62h-95v106h110
c64 0 96 20.667 96 62c0 42 -32 63 -96 63zM351 686c0 -17.333 -4.66699 -30.666 -14 -39.999s-22 -14 -38 -14c-34.667 0 -52 18 -52 54c0 16 4.5 29 13.5 39s21.833 15 38.5 15c16 0 28.667 -4.83301 38 -14.5s14 -22.834 14 -39.501zM222 686
c0 -17.333 -4.66699 -30.665 -14 -39.998s-22 -14 -38 -14s-28.667 4.66699 -38 14s-14 22.666 -14 39.999c0 16 4.66699 29 14 39s22 15 38 15s28.667 -4.83301 38 -14.5s14 -22.834 14 -39.501z" />
    <glyph glyph-name="uni00B9" unicode="&#xb9;" horiz-adv-x="1031" 
d="M204 88v272.001l243 -322c24.667 -32.667 50.334 -49 77.001 -49c22 0 37.833 7.16699 47.5 21.5s14.5 35.166 14.5 62.499v430c0 64 -22.333 96 -67 96s-67 -32 -67 -96v-277l-249 329c-11.333 14 -22.333 24.833 -33 32.5s-23.334 11.5 -38.001 11.5
c-42 0 -63 -30.333 -63 -91v-420c0 -63.333 22.333 -95 67 -95c45.333 0 68 31.667 68 95zM650 352.001c0 -48 13.167 -87 39.5 -117s63.833 -45 112.5 -45s86.167 15 112.5 45s39.5 69 39.5 117c0 47.333 -13.167 86.333 -39.5 117s-63.833 46 -112.5 46
s-86.167 -15.333 -112.5 -46s-39.5 -69.667 -39.5 -117zM750 353.001c0 24 4.16797 42.667 12.501 56s21.5 20 39.5 20s31 -6.83301 39 -20.5s12 -32.167 12 -55.5c0 -24 -3.83301 -42.833 -11.5 -56.5s-20.834 -20.5 -39.501 -20.5s-32 6.83301 -40 20.5s-12 32.5 -12 56.5
zM715.001 32.001h173c21.333 0 37.666 3 48.999 9s17 18.667 17 38c0 16.667 -5.66699 28.5 -17 35.5s-27.333 10.5 -48 10.5h-173c-21.333 0 -37.666 -3.16699 -48.999 -9.5s-17 -18.5 -17 -36.5s5.66699 -30.333 17 -37s27.333 -10 48 -10z" />
    <glyph glyph-name="uni00B9" unicode="&#x2116;" horiz-adv-x="1031" 
d="M204 88v272.001l243 -322c24.667 -32.667 50.334 -49 77.001 -49c22 0 37.833 7.16699 47.5 21.5s14.5 35.166 14.5 62.499v430c0 64 -22.333 96 -67 96s-67 -32 -67 -96v-277l-249 329c-11.333 14 -22.333 24.833 -33 32.5s-23.334 11.5 -38.001 11.5
c-42 0 -63 -30.333 -63 -91v-420c0 -63.333 22.333 -95 67 -95c45.333 0 68 31.667 68 95zM650 352.001c0 -48 13.167 -87 39.5 -117s63.833 -45 112.5 -45s86.167 15 112.5 45s39.5 69 39.5 117c0 47.333 -13.167 86.333 -39.5 117s-63.833 46 -112.5 46
s-86.167 -15.333 -112.5 -46s-39.5 -69.667 -39.5 -117zM750 353.001c0 24 4.16797 42.667 12.501 56s21.5 20 39.5 20s31 -6.83301 39 -20.5s12 -32.167 12 -55.5c0 -24 -3.83301 -42.833 -11.5 -56.5s-20.834 -20.5 -39.501 -20.5s-32 6.83301 -40 20.5s-12 32.5 -12 56.5
zM715.001 32.001h173c21.333 0 37.666 3 48.999 9s17 18.667 17 38c0 16.667 -5.66699 28.5 -17 35.5s-27.333 10.5 -48 10.5h-173c-21.333 0 -37.666 -3.16699 -48.999 -9.5s-17 -18.5 -17 -36.5s5.66699 -30.333 17 -37s27.333 -10 48 -10z" />
    <glyph glyph-name="guillemotright" unicode="&#xbb;" horiz-adv-x="511" 
d="M97 352l70.998 -53l-71 -54c-8.66699 -5.33301 -15.5 -11 -20.5 -17s-7.5 -16 -7.5 -30c0 -32 11 -48 33 -48c10.667 0 22.334 3.66699 35.001 11s27.334 17.333 44.001 30c23.333 17.333 41.5 33.166 54.5 47.499s19.5 34.5 19.5 60.5s-6.5 46 -19.5 60
s-31.167 29.333 -54.5 46c-16.667 12.667 -31.167 22.834 -43.5 30.501s-23.833 11.5 -34.5 11.5c-22.667 0 -34 -16 -34 -48c0 -14 2.5 -23.833 7.5 -29.5s11.833 -11.5 20.5 -17.5zM288.998 352l70.9971 -53l-71 -54c-8 -5.33301 -14.5 -11 -19.5 -17s-7.5 -16 -7.5 -30
c0 -32 10.667 -48 32 -48c10.667 0 22.334 3.66699 35.001 11s27.334 17.333 44.001 30c23.333 17.333 41.666 33.166 54.999 47.499s20 34.5 20 60.5s-6.66699 46 -20 60s-31.666 29.333 -54.999 46c-16.667 12.667 -31 22.834 -43 30.501s-23.333 11.5 -34 11.5
c-22.667 0 -34 -16 -34 -48c0 -14 2.33301 -23.833 7 -29.5s11.334 -11.5 20.001 -17.5z" />
    <glyph glyph-name="Agrave" unicode="&#xc0;" horiz-adv-x="633" 
d="M325 599c-47.333 0 -81.668 -29 -103.001 -87l-154 -417c-4 -12 -6 -25 -6 -39c0 -18.667 6 -33.834 18 -45.501s27.333 -17.5 46 -17.5c30.667 0 52.334 19.667 65.001 59l24 74h209l22 -69c13.333 -42.667 37 -64 71 -64c18.667 0 34.5 5.5 47.5 16.5
s19.5 25.833 19.5 44.5c0 6 -0.833008 12.333 -2.5 19s-4.16699 14.334 -7.5 23.001l-149 426c-18.667 51.333 -52 77 -100 77zM253.998 245l67 208h2l65 -208h-134z" />
    <glyph glyph-name="Agrave" unicode="&#x410;" horiz-adv-x="633" 
d="M325 599c-47.333 0 -81.668 -29 -103.001 -87l-154 -417c-4 -12 -6 -25 -6 -39c0 -18.667 6 -33.834 18 -45.501s27.333 -17.5 46 -17.5c30.667 0 52.334 19.667 65.001 59l24 74h209l22 -69c13.333 -42.667 37 -64 71 -64c18.667 0 34.5 5.5 47.5 16.5
s19.5 25.833 19.5 44.5c0 6 -0.833008 12.333 -2.5 19s-4.16699 14.334 -7.5 23.001l-149 426c-18.667 51.333 -52 77 -100 77zM253.998 245l67 208h2l65 -208h-134z" />
    <glyph glyph-name="Aacute" unicode="&#xc1;" horiz-adv-x="547" 
d="M203 124v155h58c62 0 93 -26 93 -78c0 -51.333 -31 -77 -93 -77h-58zM294 402l-91 -0.000976562v64h169c64.667 0 97 20.667 97 62c0 42 -32.333 63 -97 63h-210c-38 0 -63 -7.5 -75 -22.5s-18 -38.833 -18 -71.5v-402c0 -32.667 6 -56.667 18 -72s37 -23 75 -23h121
c68 0 121.167 18.333 159.5 55s57.5 85.334 57.5 146.001c0 62 -18 111 -54 147s-86.667 54 -152 54z" />
    <glyph glyph-name="Aacute" unicode="&#x411;" horiz-adv-x="547" 
d="M203 124v155h58c62 0 93 -26 93 -78c0 -51.333 -31 -77 -93 -77h-58zM294 402l-91 -0.000976562v64h169c64.667 0 97 20.667 97 62c0 42 -32.333 63 -97 63h-210c-38 0 -63 -7.5 -75 -22.5s-18 -38.833 -18 -71.5v-402c0 -32.667 6 -56.667 18 -72s37 -23 75 -23h121
c68 0 121.167 18.333 159.5 55s57.5 85.334 57.5 146.001c0 62 -18 111 -54 147s-86.667 54 -152 54z" />
    <glyph glyph-name="Acircumflex" unicode="&#xc2;" 
d="M162 0h133.001c68.667 0 121 16.167 157 48.5s54 75.5 54 129.5c0 36.667 -7.66699 65.167 -23 85.5s-40.333 36.166 -75 47.499v2c28 14 46.667 32 56 54s14 47.667 14 77c0 44.667 -18.833 80.334 -56.5 107.001s-86.834 40 -147.501 40h-110c-38 0 -63 -7.5 -75 -22.5
s-18 -38.833 -18 -71.5v-412c0 -32 6.16699 -54.167 18.5 -66.5s36.5 -18.5 72.5 -18.5zM205.001 116v138.999h65c36 0 60.667 -5.5 74 -16.5s20 -29.833 20 -56.5c0 -21.333 -6.66699 -37.666 -20 -48.999s-37.333 -17 -72 -17h-67zM205.001 359.999v116h58
c52.667 0 79 -19 79 -57c0 -21.333 -5.66699 -36.5 -17 -45.5s-32 -13.5 -62 -13.5h-58z" />
    <glyph glyph-name="Acircumflex" unicode="&#x412;" 
d="M162 0h133.001c68.667 0 121 16.167 157 48.5s54 75.5 54 129.5c0 36.667 -7.66699 65.167 -23 85.5s-40.333 36.166 -75 47.499v2c28 14 46.667 32 56 54s14 47.667 14 77c0 44.667 -18.833 80.334 -56.5 107.001s-86.834 40 -147.501 40h-110c-38 0 -63 -7.5 -75 -22.5
s-18 -38.833 -18 -71.5v-412c0 -32 6.16699 -54.167 18.5 -66.5s36.5 -18.5 72.5 -18.5zM205.001 116v138.999h65c36 0 60.667 -5.5 74 -16.5s20 -29.833 20 -56.5c0 -21.333 -6.66699 -37.666 -20 -48.999s-37.333 -17 -72 -17h-67zM205.001 359.999v116h58
c52.667 0 79 -19 79 -57c0 -21.333 -5.66699 -36.5 -17 -45.5s-32 -13.5 -62 -13.5h-58z" />
    <glyph glyph-name="Atilde" unicode="&#xc3;" horiz-adv-x="469" 
d="M67 497v-409c0 -63.333 22.333 -95 67 -95s67 31.667 67 95v378h110c64 0 96 20.667 96 62c0 42 -32 63 -96 63h-151c-38 0 -63 -7.5 -75 -22.5s-18 -38.833 -18 -71.5z" />
    <glyph glyph-name="Atilde" unicode="&#x413;" horiz-adv-x="469" 
d="M67 497v-409c0 -63.333 22.333 -95 67 -95s67 31.667 67 95v378h110c64 0 96 20.667 96 62c0 42 -32 63 -96 63h-151c-38 0 -63 -7.5 -75 -22.5s-18 -38.833 -18 -71.5z" />
    <glyph glyph-name="Adieresis" unicode="&#xc4;" horiz-adv-x="705" 
d="M578 113l-143 410.999c-8.66699 24.667 -21.5 43.334 -38.5 56.001s-36.5 19 -58.5 19c-46 0 -79.333 -28 -100 -84l-148 -402h-17c-18.667 0 -32.167 -4.5 -40.5 -13.5s-12.5 -23.833 -12.5 -44.5c0 -16.667 4.16699 -30 12.5 -40s21.833 -15 40.5 -15h525
c18.667 0 33.167 5 43.5 15s15.5 23.333 15.5 40c0 17.333 -5.16699 31.333 -15.5 42s-24.833 16 -43.5 16h-20zM334 456.999h2l107 -344h-220z" />
    <glyph glyph-name="Adieresis" unicode="&#x414;" horiz-adv-x="705" 
d="M578 113l-143 410.999c-8.66699 24.667 -21.5 43.334 -38.5 56.001s-36.5 19 -58.5 19c-46 0 -79.333 -28 -100 -84l-148 -402h-17c-18.667 0 -32.167 -4.5 -40.5 -13.5s-12.5 -23.833 -12.5 -44.5c0 -16.667 4.16699 -30 12.5 -40s21.833 -15 40.5 -15h525
c18.667 0 33.167 5 43.5 15s15.5 23.333 15.5 40c0 17.333 -5.16699 31.333 -15.5 42s-24.833 16 -43.5 16h-20zM334 456.999h2l107 -344h-220z" />
    <glyph glyph-name="Aring" unicode="&#xc5;" horiz-adv-x="494" 
d="M322 591h-151c-38 0 -63 -7.5 -75 -22.5s-18 -38.833 -18 -71.5v-412c0 -32 6.16699 -54.167 18.5 -66.5s36.5 -18.5 72.5 -18.5h157c64 0 96 20.667 96 62c0 42 -32 63 -96 63h-114v111h95c63.333 0 95 20.667 95 62s-31.667 62 -95 62h-95v106h110
c64 0 96 20.667 96 62c0 42 -32 63 -96 63z" />
    <glyph glyph-name="Aring" unicode="&#x415;" horiz-adv-x="494" 
d="M322 591h-151c-38 0 -63 -7.5 -75 -22.5s-18 -38.833 -18 -71.5v-412c0 -32 6.16699 -54.167 18.5 -66.5s36.5 -18.5 72.5 -18.5h157c64 0 96 20.667 96 62c0 42 -32 63 -96 63h-114v111h95c63.333 0 95 20.667 95 62s-31.667 62 -95 62h-95v106h110
c64 0 96 20.667 96 62c0 42 -32 63 -96 63z" />
    <glyph glyph-name="AE" unicode="&#xc6;" horiz-adv-x="891" 
d="M390 241l0.00292969 -153.001c0 -32 4.66699 -55.833 14 -71.5s25.333 -23.5 48 -23.5s38.834 7.83301 48.501 23.5s14.5 39.5 14.5 71.5v153l12 9l174 -210c12 -14.667 23.5 -26.167 34.5 -34.5s23.833 -12.5 38.5 -12.5s28.667 6 42 18s20 26.667 20 44
c0 18 -11.333 40.333 -34 67l-177 207l132 131c23.333 22.667 38.166 38.667 44.499 48s9.5 18.333 9.5 27c0 16.667 -6.83301 31.5 -20.5 44.5s-28.834 19.5 -45.501 19.5c-12 0 -24 -4.66699 -36 -14s-25 -20.666 -39 -33.999l-155 -160v112c0 32 -4.83301 56 -14.5 72
s-25.834 24 -48.501 24s-38.667 -8 -48 -24s-14 -40 -14 -72v-112l-156 160c-13.333 13.333 -26 24.666 -38 33.999s-23.667 14 -35 14c-16.667 0 -32 -6.5 -46 -19.5s-21 -27.833 -21 -44.5c0 -8.66699 3.16699 -17.667 9.5 -27s21.166 -25.333 44.499 -48l132 -131
l-177 -207c-22.667 -25.333 -34 -47.666 -34 -66.999c0 -17.333 6.5 -32 19.5 -44s27.167 -18 42.5 -18s28.333 4.16699 39 12.5s21.667 19.833 33 34.5l175 210z" />
    <glyph glyph-name="AE" unicode="&#x416;" horiz-adv-x="891" 
d="M390 241l0.00292969 -153.001c0 -32 4.66699 -55.833 14 -71.5s25.333 -23.5 48 -23.5s38.834 7.83301 48.501 23.5s14.5 39.5 14.5 71.5v153l12 9l174 -210c12 -14.667 23.5 -26.167 34.5 -34.5s23.833 -12.5 38.5 -12.5s28.667 6 42 18s20 26.667 20 44
c0 18 -11.333 40.333 -34 67l-177 207l132 131c23.333 22.667 38.166 38.667 44.499 48s9.5 18.333 9.5 27c0 16.667 -6.83301 31.5 -20.5 44.5s-28.834 19.5 -45.501 19.5c-12 0 -24 -4.66699 -36 -14s-25 -20.666 -39 -33.999l-155 -160v112c0 32 -4.83301 56 -14.5 72
s-25.834 24 -48.501 24s-38.667 -8 -48 -24s-14 -40 -14 -72v-112l-156 160c-13.333 13.333 -26 24.666 -38 33.999s-23.667 14 -35 14c-16.667 0 -32 -6.5 -46 -19.5s-21 -27.833 -21 -44.5c0 -8.66699 3.16699 -17.667 9.5 -27s21.166 -25.333 44.499 -48l132 -131
l-177 -207c-22.667 -25.333 -34 -47.666 -34 -66.999c0 -17.333 6.5 -32 19.5 -44s27.167 -18 42.5 -18s28.333 4.16699 39 12.5s21.667 19.833 33 34.5l175 210z" />
    <glyph glyph-name="Ccedilla" unicode="&#xc7;" horiz-adv-x="566" 
d="M400 313v2.99609c24.667 10.667 44.167 25 58.5 43s21.5 43.667 21.5 77c0 52.667 -17.5 93 -52.5 121s-87.5 42 -157.5 42c-24.667 0 -48.167 -2 -70.5 -6s-42 -9.83301 -59 -17.5s-30.5 -16.667 -40.5 -27s-15 -21.5 -15 -33.5c0 -20.667 5 -34.334 15 -41.001
s23.667 -10 41 -10c11.333 0 21.666 1.16699 30.999 3.5s18.666 5 27.999 8s19.166 5.66699 29.499 8s22.5 3.5 36.5 3.5c54 0 81 -21.333 81 -64c0 -19.333 -7.5 -33.5 -22.5 -42.5s-32.833 -13.5 -53.5 -13.5h-36c-25.333 0 -45.833 -5.16699 -61.5 -15.5
s-23.5 -24.166 -23.5 -41.499c0 -18.667 7.83301 -32.667 23.5 -42s36.167 -14 61.5 -14h36c26.667 0 47.334 -7.16699 62.001 -21.5s22 -31.166 22 -50.499c0 -21.333 -7.5 -38.166 -22.5 -50.499s-37.5 -18.5 -67.5 -18.5c-25.333 0 -44.166 1.66699 -56.499 5
s-22.666 6.83301 -30.999 10.5l-24 10.5c-7.66699 3.33301 -19.5 5 -35.5 5s-29.333 -4 -40 -12s-16 -21 -16 -39c0 -17.333 5.16699 -32.333 15.5 -45s24.5 -23 42.5 -31s39.167 -14 63.5 -18s50.5 -6 78.5 -6c44 0 80.833 4.5 110.5 13.5s53.667 21.833 72 38.5
s31.333 36.334 39 59.001s11.5 47.334 11.5 74.001s-7.66699 52.667 -23 78s-39.333 44.333 -72 57z" />
    <glyph glyph-name="Ccedilla" unicode="&#x417;" horiz-adv-x="566" 
d="M400 313v2.99609c24.667 10.667 44.167 25 58.5 43s21.5 43.667 21.5 77c0 52.667 -17.5 93 -52.5 121s-87.5 42 -157.5 42c-24.667 0 -48.167 -2 -70.5 -6s-42 -9.83301 -59 -17.5s-30.5 -16.667 -40.5 -27s-15 -21.5 -15 -33.5c0 -20.667 5 -34.334 15 -41.001
s23.667 -10 41 -10c11.333 0 21.666 1.16699 30.999 3.5s18.666 5 27.999 8s19.166 5.66699 29.499 8s22.5 3.5 36.5 3.5c54 0 81 -21.333 81 -64c0 -19.333 -7.5 -33.5 -22.5 -42.5s-32.833 -13.5 -53.5 -13.5h-36c-25.333 0 -45.833 -5.16699 -61.5 -15.5
s-23.5 -24.166 -23.5 -41.499c0 -18.667 7.83301 -32.667 23.5 -42s36.167 -14 61.5 -14h36c26.667 0 47.334 -7.16699 62.001 -21.5s22 -31.166 22 -50.499c0 -21.333 -7.5 -38.166 -22.5 -50.499s-37.5 -18.5 -67.5 -18.5c-25.333 0 -44.166 1.66699 -56.499 5
s-22.666 6.83301 -30.999 10.5l-24 10.5c-7.66699 3.33301 -19.5 5 -35.5 5s-29.333 -4 -40 -12s-16 -21 -16 -39c0 -17.333 5.16699 -32.333 15.5 -45s24.5 -23 42.5 -31s39.167 -14 63.5 -18s50.5 -6 78.5 -6c44 0 80.833 4.5 110.5 13.5s53.667 21.833 72 38.5
s31.333 36.334 39 59.001s11.5 47.334 11.5 74.001s-7.66699 52.667 -23 78s-39.333 44.333 -72 57z" />
    <glyph glyph-name="Egrave" unicode="&#xc8;" horiz-adv-x="654" 
d="M449 360l0.00195312 -271.999c0 -63.333 22.333 -95 67 -95s67 31.667 67 95v420c0 29.333 -4.83301 51.833 -14.5 67.5s-25.5 23.5 -47.5 23.5c-15.333 0 -28.333 -3.83301 -39 -11.5s-21.334 -18.5 -32.001 -32.5l-249 -329v277c0 64 -22.333 96 -67 96
s-67 -32 -67 -96v-430c0 -27.333 4.66699 -47.5 14 -60.5s24.666 -19.5 45.999 -19.5c14.667 0 28.167 3.16699 40.5 9.5s24.833 18.166 37.5 35.499z" />
    <glyph glyph-name="Egrave" unicode="&#x418;" horiz-adv-x="654" 
d="M449 360l0.00195312 -271.999c0 -63.333 22.333 -95 67 -95s67 31.667 67 95v420c0 29.333 -4.83301 51.833 -14.5 67.5s-25.5 23.5 -47.5 23.5c-15.333 0 -28.333 -3.83301 -39 -11.5s-21.334 -18.5 -32.001 -32.5l-249 -329v277c0 64 -22.333 96 -67 96
s-67 -32 -67 -96v-430c0 -27.333 4.66699 -47.5 14 -60.5s24.666 -19.5 45.999 -19.5c14.667 0 28.167 3.16699 40.5 9.5s24.833 18.166 37.5 35.499z" />
    <glyph glyph-name="Eacute" unicode="&#xc9;" horiz-adv-x="653" 
d="M331 598c-40.667 0 -73.667 9.83105 -99 29.498s-38 41.834 -38 66.501c0 14 3.83301 25.167 11.5 33.5s18.167 12.5 31.5 12.5s22.5 -2.83301 27.5 -8.5s9.66699 -11.834 14 -18.501s10 -12.834 17 -18.501s18.833 -8.5 35.5 -8.5s28.5 2.83301 35.5 8.5
s12.5 11.834 16.5 18.501s8.5 12.834 13.5 18.501s14.167 8.5 27.5 8.5c14 0 24.833 -4.16699 32.5 -12.5s11.5 -19.5 11.5 -33.5c0 -25.333 -12.667 -47.666 -38 -66.999s-58.333 -29 -99 -29zM455 359.998l0.00195312 -271.999c0 -63.333 22.333 -95 67 -95
s67 31.667 67 95v420c0 29.333 -4.83301 51.833 -14.5 67.5s-25.5 23.5 -47.5 23.5c-15.333 0 -28.333 -3.83301 -39 -11.5s-21.334 -18.5 -32.001 -32.5l-249 -329v277c0 64 -22.333 96 -67 96s-67 -32 -67 -96v-430c0 -27.333 4.66699 -47.5 14 -60.5
s24.666 -19.5 45.999 -19.5c14.667 0 28.167 3.16699 40.5 9.5s24.833 18.166 37.5 35.499z" />
    <glyph glyph-name="Eacute" unicode="&#x419;" horiz-adv-x="653" 
d="M331 598c-40.667 0 -73.667 9.83105 -99 29.498s-38 41.834 -38 66.501c0 14 3.83301 25.167 11.5 33.5s18.167 12.5 31.5 12.5s22.5 -2.83301 27.5 -8.5s9.66699 -11.834 14 -18.501s10 -12.834 17 -18.501s18.833 -8.5 35.5 -8.5s28.5 2.83301 35.5 8.5
s12.5 11.834 16.5 18.501s8.5 12.834 13.5 18.501s14.167 8.5 27.5 8.5c14 0 24.833 -4.16699 32.5 -12.5s11.5 -19.5 11.5 -33.5c0 -25.333 -12.667 -47.666 -38 -66.999s-58.333 -29 -99 -29zM455 359.998l0.00195312 -271.999c0 -63.333 22.333 -95 67 -95
s67 31.667 67 95v420c0 29.333 -4.83301 51.833 -14.5 67.5s-25.5 23.5 -47.5 23.5c-15.333 0 -28.333 -3.83301 -39 -11.5s-21.334 -18.5 -32.001 -32.5l-249 -329v277c0 64 -22.333 96 -67 96s-67 -32 -67 -96v-430c0 -27.333 4.66699 -47.5 14 -60.5
s24.666 -19.5 45.999 -19.5c14.667 0 28.167 3.16699 40.5 9.5s24.833 18.166 37.5 35.499z" />
    <glyph glyph-name="Ecircumflex" unicode="&#xca;" horiz-adv-x="605" 
d="M69 503l0.000976562 -415.001c0 -63.333 22.333 -95 67 -95s67 31.667 67 95v140l24 19l178 -207c12 -14.667 23.5 -26.167 34.5 -34.5s23.833 -12.5 38.5 -12.5s28.667 6 42 18s20 26.667 20 44c0 18 -11.333 40.333 -34 67l-181 203l137 135
c22.667 22.667 37.167 38.667 43.5 48s9.5 18.333 9.5 27c0 16.667 -6.83301 31.5 -20.5 44.5s-28.834 19.5 -45.501 19.5c-12 0 -24 -4.66699 -36 -14s-24.667 -20.666 -38 -33.999l-172 -177v129c0 64 -22.333 96 -67 96s-67 -32 -67 -96z" />
    <glyph glyph-name="Ecircumflex" unicode="&#x41a;" horiz-adv-x="605" 
d="M69 503l0.000976562 -415.001c0 -63.333 22.333 -95 67 -95s67 31.667 67 95v140l24 19l178 -207c12 -14.667 23.5 -26.167 34.5 -34.5s23.833 -12.5 38.5 -12.5s28.667 6 42 18s20 26.667 20 44c0 18 -11.333 40.333 -34 67l-181 203l137 135
c22.667 22.667 37.167 38.667 43.5 48s9.5 18.333 9.5 27c0 16.667 -6.83301 31.5 -20.5 44.5s-28.834 19.5 -45.501 19.5c-12 0 -24 -4.66699 -36 -14s-24.667 -20.666 -38 -33.999l-172 -177v129c0 64 -22.333 96 -67 96s-67 -32 -67 -96z" />
    <glyph glyph-name="Edieresis" unicode="&#xcb;" horiz-adv-x="625" 
d="M187 52l129.998 401h2l123 -396c13.333 -42.667 37 -64 71 -64c18.667 0 34.5 5.5 47.5 16.5s19.5 25.833 19.5 44.5c0 6 -0.833008 12.333 -2.5 19s-4.16699 14.334 -7.5 23.001l-149 426c-18.667 51.333 -52 77 -100 77c-47.333 0 -81.666 -29 -102.999 -87l-154 -417
c-4 -12 -6 -25 -6 -39c0 -18.667 6 -33.834 18 -45.501s27.333 -17.5 46 -17.5c30.667 0 52.334 19.667 65.001 59z" />
    <glyph glyph-name="Edieresis" unicode="&#x41b;" horiz-adv-x="625" 
d="M187 52l129.998 401h2l123 -396c13.333 -42.667 37 -64 71 -64c18.667 0 34.5 5.5 47.5 16.5s19.5 25.833 19.5 44.5c0 6 -0.833008 12.333 -2.5 19s-4.16699 14.334 -7.5 23.001l-149 426c-18.667 51.333 -52 77 -100 77c-47.333 0 -81.666 -29 -102.999 -87l-154 -417
c-4 -12 -6 -25 -6 -39c0 -18.667 6 -33.834 18 -45.501s27.333 -17.5 46 -17.5c30.667 0 52.334 19.667 65.001 59z" />
    <glyph glyph-name="Igrave" unicode="&#xcc;" horiz-adv-x="868" 
d="M417 187l78 332c5.33301 23.333 16.5 42.5 33.5 57.5s37.833 22.5 62.5 22.5c29.333 0 53.333 -9.33301 72 -28s30 -40.334 34 -65.001l65 -403c1.33301 -11.333 2.33301 -20.5 3 -27.5s1 -12.833 1 -17.5c0 -23.333 -5.16699 -40 -15.5 -50s-25.166 -15 -44.499 -15
c-20.667 0 -36.334 6.16699 -47.001 18.5s-18.334 34.833 -23.001 67.5l-51 324h-2l-76 -299c-10 -39.333 -22.5 -65 -37.5 -77s-32.833 -18 -53.5 -18c-21.333 0 -39.5 6 -54.5 18s-27.5 37.667 -37.5 77l-77 299h-1l-51 -324c-5.33301 -32.667 -13 -55.167 -23 -67.5
s-25.667 -18.5 -47 -18.5c-18.667 0 -33.5 5 -44.5 15s-16.5 26.667 -16.5 50c0 8 2 23 6 45l65 403c3.33301 24.667 14.333 46.334 33 65.001s42.334 28 71.001 28c25.333 0 46.5 -7.5 63.5 -22.5s28.167 -34.167 33.5 -57.5l78 -332h3z" />
    <glyph glyph-name="Igrave" unicode="&#x41c;" horiz-adv-x="868" 
d="M417 187l78 332c5.33301 23.333 16.5 42.5 33.5 57.5s37.833 22.5 62.5 22.5c29.333 0 53.333 -9.33301 72 -28s30 -40.334 34 -65.001l65 -403c1.33301 -11.333 2.33301 -20.5 3 -27.5s1 -12.833 1 -17.5c0 -23.333 -5.16699 -40 -15.5 -50s-25.166 -15 -44.499 -15
c-20.667 0 -36.334 6.16699 -47.001 18.5s-18.334 34.833 -23.001 67.5l-51 324h-2l-76 -299c-10 -39.333 -22.5 -65 -37.5 -77s-32.833 -18 -53.5 -18c-21.333 0 -39.5 6 -54.5 18s-27.5 37.667 -37.5 77l-77 299h-1l-51 -324c-5.33301 -32.667 -13 -55.167 -23 -67.5
s-25.667 -18.5 -47 -18.5c-18.667 0 -33.5 5 -44.5 15s-16.5 26.667 -16.5 50c0 8 2 23 6 45l65 403c3.33301 24.667 14.333 46.334 33 65.001s42.334 28 71.001 28c25.333 0 46.5 -7.5 63.5 -22.5s28.167 -34.167 33.5 -57.5l78 -332h3z" />
    <glyph glyph-name="Iacute" unicode="&#xcd;" horiz-adv-x="660" 
d="M198 88v151h248v-151c0 -63.333 22.333 -95 67 -95s67 31.667 67 95v415c0 64 -22.333 96 -67 96s-67 -32 -67 -96v-139h-248v139c0 64 -22.333 96 -67 96s-67 -32 -67 -96v-415c0 -63.333 22.333 -95 67 -95s67 31.667 67 95z" />
    <glyph glyph-name="Iacute" unicode="&#x41d;" horiz-adv-x="660" 
d="M198 88v151h248v-151c0 -63.333 22.333 -95 67 -95s67 31.667 67 95v415c0 64 -22.333 96 -67 96s-67 -32 -67 -96v-139h-248v139c0 64 -22.333 96 -67 96s-67 -32 -67 -96v-415c0 -63.333 22.333 -95 67 -95s67 31.667 67 95z" />
    <glyph glyph-name="Icircumflex" unicode="&#xce;" horiz-adv-x="691" 
d="M60 295c0 -46 6.83008 -87.5 20.4971 -124.5s32.834 -68.667 57.501 -95s54.334 -46.666 89.001 -60.999s73.334 -21.5 116.001 -21.5s81.5 7.16699 116.5 21.5s64.833 34.666 89.5 60.999s43.667 58 57 95s20 78.5 20 124.5s-6.83301 87.667 -20.5 125
s-33 69.333 -58 96s-54.833 47.167 -89.5 61.5s-73 21.5 -115 21.5s-80.333 -7.16699 -115 -21.5s-64.5 -34.833 -89.5 -61.5s-44.333 -58.667 -58 -96s-20.5 -79 -20.5 -125zM202.997 293c0 56.667 12.999 101.167 38.999 133.5s59.667 48.5 101 48.5
c42 0 76 -16.167 102 -48.5s39 -76.833 39 -133.5c0 -54.667 -13.167 -97.667 -39.5 -129s-60.166 -47 -101.499 -47s-75 15.667 -101 47s-39 74.333 -39 129z" />
    <glyph glyph-name="Icircumflex" unicode="&#x41e;" horiz-adv-x="691" 
d="M60 295c0 -46 6.83008 -87.5 20.4971 -124.5s32.834 -68.667 57.501 -95s54.334 -46.666 89.001 -60.999s73.334 -21.5 116.001 -21.5s81.5 7.16699 116.5 21.5s64.833 34.666 89.5 60.999s43.667 58 57 95s20 78.5 20 124.5s-6.83301 87.667 -20.5 125
s-33 69.333 -58 96s-54.833 47.167 -89.5 61.5s-73 21.5 -115 21.5s-80.333 -7.16699 -115 -21.5s-64.5 -34.833 -89.5 -61.5s-44.333 -58.667 -58 -96s-20.5 -79 -20.5 -125zM202.997 293c0 56.667 12.999 101.167 38.999 133.5s59.667 48.5 101 48.5
c42 0 76 -16.167 102 -48.5s39 -76.833 39 -133.5c0 -54.667 -13.167 -97.667 -39.5 -129s-60.166 -47 -101.499 -47s-75 15.667 -101 47s-39 74.333 -39 129z" />
    <glyph glyph-name="Idieresis" unicode="&#xcf;" horiz-adv-x="660" 
d="M221 88v384h248v-384c0 -63.333 22.333 -95 67 -95s67 31.667 67 95v408c0 63.333 -30.667 95 -92 95h-332c-61.333 0 -92 -31.667 -92 -95v-408c0 -63.333 22.333 -95 67 -95s67 31.667 67 95z" />
    <glyph glyph-name="Idieresis" unicode="&#x41f;" horiz-adv-x="660" 
d="M221 88v384h248v-384c0 -63.333 22.333 -95 67 -95s67 31.667 67 95v408c0 63.333 -30.667 95 -92 95h-332c-61.333 0 -92 -31.667 -92 -95v-408c0 -63.333 22.333 -95 67 -95s67 31.667 67 95z" />
    <glyph glyph-name="Eth" unicode="&#xd0;" horiz-adv-x="566" 
d="M254 312h-58v155h58c62 0 93 -25.667 93 -77c0 -52 -31 -78 -93 -78zM196 88v102.001h91c65.333 0 116 17.833 152 53.5s54 84.5 54 146.5c0 61.333 -19.167 110.166 -57.5 146.499s-91.5 54.5 -159.5 54.5h-121c-38 0 -63 -7.5 -75 -22.5s-18 -38.833 -18 -71.5v-409
c0 -63.333 22.333 -95 67 -95s67 31.667 67 95z" />
    <glyph glyph-name="Eth" unicode="&#x420;" horiz-adv-x="566" 
d="M254 312h-58v155h58c62 0 93 -25.667 93 -77c0 -52 -31 -78 -93 -78zM196 88v102.001h91c65.333 0 116 17.833 152 53.5s54 84.5 54 146.5c0 61.333 -19.167 110.166 -57.5 146.499s-91.5 54.5 -159.5 54.5h-121c-38 0 -63 -7.5 -75 -22.5s-18 -38.833 -18 -71.5v-409
c0 -63.333 22.333 -95 67 -95s67 31.667 67 95z" />
    <glyph glyph-name="Ntilde" unicode="&#xd1;" horiz-adv-x="607" 
d="M351 -7c54.667 0 98.6611 9.83398 131.994 29.501s50 42.167 50 67.5c0 15.333 -5.66699 28.833 -17 40.5s-23.666 17.5 -36.999 17.5c-15.333 0 -32.666 -4.83301 -51.999 -14.5s-42.666 -14.5 -69.999 -14.5c-44 0 -79.333 15.333 -106 46s-40 73 -40 127
c0 55.333 13.167 99.166 39.5 131.499s60.5 48.5 102.5 48.5c24.667 0 46.667 -3.83301 66 -11.5s36.333 -11.5 51 -11.5s27.667 5.83301 39 17.5s17 25.167 17 40.5c0 12 -4.33301 23.5 -13 34.5s-20.667 20.667 -36 29s-33.666 15.166 -54.999 20.499s-44.666 8 -69.999 8
c-40 0 -77.167 -7.16699 -111.5 -21.5s-64.166 -34.666 -89.499 -60.999s-45.333 -58.333 -60 -96s-22 -79.5 -22 -125.5c0 -46.667 6.83301 -88.667 20.5 -126s33 -69 58 -95s54.833 -46 89.5 -60s72.667 -21 114 -21z" />
    <glyph glyph-name="Ntilde" unicode="&#x421;" horiz-adv-x="607" 
d="M351 -7c54.667 0 98.6611 9.83398 131.994 29.501s50 42.167 50 67.5c0 15.333 -5.66699 28.833 -17 40.5s-23.666 17.5 -36.999 17.5c-15.333 0 -32.666 -4.83301 -51.999 -14.5s-42.666 -14.5 -69.999 -14.5c-44 0 -79.333 15.333 -106 46s-40 73 -40 127
c0 55.333 13.167 99.166 39.5 131.499s60.5 48.5 102.5 48.5c24.667 0 46.667 -3.83301 66 -11.5s36.333 -11.5 51 -11.5s27.667 5.83301 39 17.5s17 25.167 17 40.5c0 12 -4.33301 23.5 -13 34.5s-20.667 20.667 -36 29s-33.666 15.166 -54.999 20.499s-44.666 8 -69.999 8
c-40 0 -77.167 -7.16699 -111.5 -21.5s-64.166 -34.666 -89.499 -60.999s-45.333 -58.333 -60 -96s-22 -79.5 -22 -125.5c0 -46.667 6.83301 -88.667 20.5 -126s33 -69 58 -95s54.833 -46 89.5 -60s72.667 -21 114 -21z" />
    <glyph glyph-name="Ograve" unicode="&#xd2;" horiz-adv-x="582" 
d="M165 466h50v-378c0 -63.333 22.333 -95 67 -95s67 31.667 67 95v378h50c64 0 96 20.667 96 62c0 42 -32 63 -96 63h-234c-64 0 -96 -21 -96 -63c0 -41.333 32 -62 96 -62z" />
    <glyph glyph-name="Ograve" unicode="&#x422;" horiz-adv-x="582" 
d="M165 466h50v-378c0 -63.333 22.333 -95 67 -95s67 31.667 67 95v378h50c64 0 96 20.667 96 62c0 42 -32 63 -96 63h-234c-64 0 -96 -21 -96 -63c0 -41.333 32 -62 96 -62z" />
    <glyph glyph-name="Oacute" unicode="&#xd3;" horiz-adv-x="622" 
d="M262 -117c13.333 0 25.334 2.83398 36.001 8.50098s21 21.167 31 46.5l215 553c3.33301 8 5.66602 16 6.99902 24s2 15.333 2 22c0 19.333 -5.16699 34.5 -15.5 45.5s-25.833 16.5 -46.5 16.5c-17.333 0 -30.666 -4.83301 -39.999 -14.5s-18.333 -25.834 -27 -48.501
l-106 -282h-3l-116 287c-8.66699 20.667 -17.334 35.5 -26.001 44.5s-20.667 13.5 -36 13.5c-19.333 0 -34.833 -6.33301 -46.5 -19s-17.5 -28.667 -17.5 -48c0 -13.333 2.66699 -26 8 -38l167 -413l-38 -95c-5.33301 -12.667 -8 -25.667 -8 -39
c0 -19.333 5 -34.833 15 -46.5s25 -17.5 45 -17.5z" />
    <glyph glyph-name="Oacute" unicode="&#x423;" horiz-adv-x="622" 
d="M262 -117c13.333 0 25.334 2.83398 36.001 8.50098s21 21.167 31 46.5l215 553c3.33301 8 5.66602 16 6.99902 24s2 15.333 2 22c0 19.333 -5.16699 34.5 -15.5 45.5s-25.833 16.5 -46.5 16.5c-17.333 0 -30.666 -4.83301 -39.999 -14.5s-18.333 -25.834 -27 -48.501
l-106 -282h-3l-116 287c-8.66699 20.667 -17.334 35.5 -26.001 44.5s-20.667 13.5 -36 13.5c-19.333 0 -34.833 -6.33301 -46.5 -19s-17.5 -28.667 -17.5 -48c0 -13.333 2.66699 -26 8 -38l167 -413l-38 -95c-5.33301 -12.667 -8 -25.667 -8 -39
c0 -19.333 5 -34.833 15 -46.5s25 -17.5 45 -17.5z" />
    <glyph glyph-name="Ocircumflex" unicode="&#xd4;" horiz-adv-x="805" 
d="M405 -7c22.667 0 39.499 6.5 50.499 19.5s16.5 35.167 16.5 66.5v20h43c32 0 61.333 4.83301 88 14.5s49.667 23.5 69 41.5s34.5 39.5 45.5 64.5s16.5 52.5 16.5 82.5s-5.16699 57.333 -15.5 82s-25.166 46 -44.499 64s-42.333 32 -69 42s-56.667 15 -90 15h-43v13
c0 29.333 -5.83301 50.166 -17.5 62.499s-28.167 18.5 -49.5 18.5s-37.5 -6.16699 -48.5 -18.5s-16.5 -33.166 -16.5 -62.499v-13h-44c-32.667 0 -62.5 -5 -89.5 -15s-50 -24 -69 -42s-33.667 -39.333 -44 -64s-15.5 -52 -15.5 -82s5.33301 -57.5 16 -82.5
s25.667 -46.5 45 -64.5s42.333 -31.833 69 -41.5s56 -14.5 88 -14.5h44v-20c0 -31.333 5.33301 -53.5 16 -66.5s27 -19.5 49 -19.5zM468.999 209v187h38c60 0 90 -31.333 90 -94c0 -62 -30 -93 -90 -93h-38zM341.999 396v-187h-37c-60 0 -90 31 -90 93c0 62.667 30 94 90 94
h37z" />
    <glyph glyph-name="Ocircumflex" unicode="&#x424;" horiz-adv-x="805" 
d="M405 -7c22.667 0 39.499 6.5 50.499 19.5s16.5 35.167 16.5 66.5v20h43c32 0 61.333 4.83301 88 14.5s49.667 23.5 69 41.5s34.5 39.5 45.5 64.5s16.5 52.5 16.5 82.5s-5.16699 57.333 -15.5 82s-25.166 46 -44.499 64s-42.333 32 -69 42s-56.667 15 -90 15h-43v13
c0 29.333 -5.83301 50.166 -17.5 62.499s-28.167 18.5 -49.5 18.5s-37.5 -6.16699 -48.5 -18.5s-16.5 -33.166 -16.5 -62.499v-13h-44c-32.667 0 -62.5 -5 -89.5 -15s-50 -24 -69 -42s-33.667 -39.333 -44 -64s-15.5 -52 -15.5 -82s5.33301 -57.5 16 -82.5
s25.667 -46.5 45 -64.5s42.333 -31.833 69 -41.5s56 -14.5 88 -14.5h44v-20c0 -31.333 5.33301 -53.5 16 -66.5s27 -19.5 49 -19.5zM468.999 209v187h38c60 0 90 -31.333 90 -94c0 -62 -30 -93 -90 -93h-38zM341.999 396v-187h-37c-60 0 -90 31 -90 93c0 62.667 30 94 90 94
h37z" />
    <glyph glyph-name="Otilde" unicode="&#xd5;" horiz-adv-x="651" 
d="M200 43l118.999 168l120 -169c22.667 -32.667 47 -49 73 -49c16.667 0 31 5.83301 43 17.5s18 24.834 18 39.501c0 8 -2 17.167 -6 27.5s-12 23.833 -24 40.5l-145 195l109 158c20.667 30 31 53 31 69c0 14.667 -6.16699 28.167 -18.5 40.5s-25.833 18.5 -40.5 18.5
c-24.667 0 -49 -17 -73 -51l-85 -125l-82 124c-23.333 34.667 -46.666 52 -69.999 52c-19.333 0 -35 -6.16699 -47 -18.5s-18 -26.833 -18 -43.5c0 -7.33301 2.33301 -16 7 -26s12.334 -23.333 23.001 -40l108 -158l-143 -194
c-12.667 -16.667 -20.834 -30.334 -24.501 -41.001s-5.5 -19.667 -5.5 -27c0 -14.667 6 -28 18 -40s26 -18 42 -18c12.667 0 24.667 4.16699 36 12.5s23 20.833 35 37.5z" />
    <glyph glyph-name="Otilde" unicode="&#x425;" horiz-adv-x="651" 
d="M200 43l118.999 168l120 -169c22.667 -32.667 47 -49 73 -49c16.667 0 31 5.83301 43 17.5s18 24.834 18 39.501c0 8 -2 17.167 -6 27.5s-12 23.833 -24 40.5l-145 195l109 158c20.667 30 31 53 31 69c0 14.667 -6.16699 28.167 -18.5 40.5s-25.833 18.5 -40.5 18.5
c-24.667 0 -49 -17 -73 -51l-85 -125l-82 124c-23.333 34.667 -46.666 52 -69.999 52c-19.333 0 -35 -6.16699 -47 -18.5s-18 -26.833 -18 -43.5c0 -7.33301 2.33301 -16 7 -26s12.334 -23.333 23.001 -40l108 -158l-143 -194
c-12.667 -16.667 -20.834 -30.334 -24.501 -41.001s-5.5 -19.667 -5.5 -27c0 -14.667 6 -28 18 -40s26 -18 42 -18c12.667 0 24.667 4.16699 36 12.5s23 20.833 35 37.5z" />
    <glyph glyph-name="Odieresis" unicode="&#xd6;" horiz-adv-x="722" 
d="M445 113h-213v390c0 64 -22.333 96 -67 96c-45.333 0 -68 -32 -68 -96v-407c0 -64 31 -96 93 -96h432c18.667 0 33.334 4.5 44.001 13.5s16 22.833 16 41.5c0 19.333 -5.33301 33.833 -16 43.5s-25.334 14.5 -44.001 14.5h-43v390c0 64 -22.333 96 -67 96
s-67 -32 -67 -96v-390z" />
    <glyph glyph-name="Odieresis" unicode="&#x426;" horiz-adv-x="722" 
d="M445 113h-213v390c0 64 -22.333 96 -67 96c-45.333 0 -68 -32 -68 -96v-407c0 -64 31 -96 93 -96h432c18.667 0 33.334 4.5 44.001 13.5s16 22.833 16 41.5c0 19.333 -5.33301 33.833 -16 43.5s-25.334 14.5 -44.001 14.5h-43v390c0 64 -22.333 96 -67 96
s-67 -32 -67 -96v-390z" />
    <glyph glyph-name="multiply" unicode="&#xd7;" horiz-adv-x="551" 
d="M354 319h-68c-34.667 0 -57.167 5.83301 -67.5 17.5s-15.5 32.167 -15.5 61.5v106c0 63.333 -22.333 95 -67 95s-67 -31.667 -67 -95v-106c0 -62 16.167 -110.667 48.5 -146s80.833 -53 145.5 -53h91v-111c0 -63.333 22.333 -95 67 -95s67 31.667 67 95v416
c0 63.333 -22.333 95 -67 95s-67 -31.667 -67 -95v-185z" />
    <glyph glyph-name="multiply" unicode="&#x427;" horiz-adv-x="551" 
d="M354 319h-68c-34.667 0 -57.167 5.83301 -67.5 17.5s-15.5 32.167 -15.5 61.5v106c0 63.333 -22.333 95 -67 95s-67 -31.667 -67 -95v-106c0 -62 16.167 -110.667 48.5 -146s80.833 -53 145.5 -53h91v-111c0 -63.333 22.333 -95 67 -95s67 31.667 67 95v416
c0 63.333 -22.333 95 -67 95s-67 -31.667 -67 -95v-185z" />
    <glyph glyph-name="Oslash" unicode="&#xd8;" horiz-adv-x="833" 
d="M643 503l0.00195312 -390h-157v390c0 32 -4.33301 56 -13 72s-24.334 24 -47.001 24s-38.334 -8 -47.001 -24s-13 -40 -13 -72v-390h-157v390c0 64 -22.333 96 -67 96s-67 -32 -67 -96v-407c0 -64 30.667 -96 92 -96h518c62 0 93 32 93 96v407c0 64 -22.667 96 -68 96
c-44.667 0 -67 -32 -67 -96z" />
    <glyph glyph-name="Oslash" unicode="&#x428;" horiz-adv-x="833" 
d="M643 503l0.00195312 -390h-157v390c0 32 -4.33301 56 -13 72s-24.334 24 -47.001 24s-38.334 -8 -47.001 -24s-13 -40 -13 -72v-390h-157v390c0 64 -22.333 96 -67 96s-67 -32 -67 -96v-407c0 -64 30.667 -96 92 -96h518c62 0 93 32 93 96v407c0 64 -22.667 96 -68 96
c-44.667 0 -67 -32 -67 -96z" />
    <glyph glyph-name="Ugrave" unicode="&#xd9;" horiz-adv-x="911" 
d="M484 113h156.998v390c0 64 22.333 96 67 96c45.333 0 68 -32 68 -96v-390h45c18.667 0 33.334 -5 44.001 -15s16 -25 16 -45c0 -19.333 -5.33301 -33 -16 -41s-25.334 -12 -44.001 -12h-656c-61.333 0 -92 32 -92 96v407c0 64 22.333 96 67 96s67 -32 67 -96v-390h157
v390c0 32 4.33301 56 13 72s24.334 24 47.001 24s38.334 -8 47.001 -24s13 -40 13 -72v-390z" />
    <glyph glyph-name="Ugrave" unicode="&#x429;" horiz-adv-x="911" 
d="M484 113h156.998v390c0 64 22.333 96 67 96c45.333 0 68 -32 68 -96v-390h45c18.667 0 33.334 -5 44.001 -15s16 -25 16 -45c0 -19.333 -5.33301 -33 -16 -41s-25.334 -12 -44.001 -12h-656c-61.333 0 -92 32 -92 96v407c0 64 22.333 96 67 96s67 -32 67 -96v-390h157
v390c0 32 4.33301 56 13 72s24.334 24 47.001 24s38.334 -8 47.001 -24s13 -40 13 -72v-390z" />
    <glyph glyph-name="Uacute" unicode="&#xda;" horiz-adv-x="687" 
d="M343 124v155h58c61.333 0 92 -26 92 -78c0 -51.333 -30.667 -77 -92 -77h-58zM208 471l0.00195312 -376.002c0 -32.667 6.16699 -56.667 18.5 -72s37.166 -23 74.499 -23h122c67.333 0 120 18.333 158 55s57 85.334 57 146.001c0 62 -17.833 111 -53.5 147
s-86.167 54 -151.5 54h-90v101c0 32.667 -3.33301 55.5 -10 68.5s-22.334 19.5 -47.001 19.5h-155c-18.667 0 -33.334 -5 -44.001 -15s-16 -25 -16 -45c0 -19.333 5.33301 -34.166 16 -44.499s25.334 -15.5 44.001 -15.5h77z" />
    <glyph glyph-name="Uacute" unicode="&#x42a;" horiz-adv-x="687" 
d="M343 124v155h58c61.333 0 92 -26 92 -78c0 -51.333 -30.667 -77 -92 -77h-58zM208 471l0.00195312 -376.002c0 -32.667 6.16699 -56.667 18.5 -72s37.166 -23 74.499 -23h122c67.333 0 120 18.333 158 55s57 85.334 57 146.001c0 62 -17.833 111 -53.5 147
s-86.167 54 -151.5 54h-90v101c0 32.667 -3.33301 55.5 -10 68.5s-22.334 19.5 -47.001 19.5h-155c-18.667 0 -33.334 -5 -44.001 -15s-16 -25 -16 -45c0 -19.333 5.33301 -34.166 16 -44.499s25.334 -15.5 44.001 -15.5h77z" />
    <glyph glyph-name="Ucircumflex" unicode="&#xdb;" horiz-adv-x="762" 
d="M205 124v155h43c61.333 0 92 -26 92 -78c0 -51.333 -30.667 -77 -92 -77h-43zM205 402l0.000976562 100.999c0 64 -22.333 96 -67 96s-67 -32 -67 -96v-408c0 -32.667 6 -56.667 18 -72s37 -23 75 -23h101c67.333 0 120.166 18.333 158.499 55s57.5 85.334 57.5 146.001
c0 62 -17.833 111 -53.5 147s-86.167 54 -151.5 54h-71zM691.001 87.999v415c0 64 -22.667 96 -68 96c-44.667 0 -67 -32 -67 -96v-415c0 -63.333 22.333 -95 67 -95c45.333 0 68 31.667 68 95z" />
    <glyph glyph-name="Ucircumflex" unicode="&#x42b;" horiz-adv-x="762" 
d="M205 124v155h43c61.333 0 92 -26 92 -78c0 -51.333 -30.667 -77 -92 -77h-43zM205 402l0.000976562 100.999c0 64 -22.333 96 -67 96s-67 -32 -67 -96v-408c0 -32.667 6 -56.667 18 -72s37 -23 75 -23h101c67.333 0 120.166 18.333 158.499 55s57.5 85.334 57.5 146.001
c0 62 -17.833 111 -53.5 147s-86.167 54 -151.5 54h-71zM691.001 87.999v415c0 64 -22.667 96 -68 96c-44.667 0 -67 -32 -67 -96v-415c0 -63.333 22.333 -95 67 -95c45.333 0 68 31.667 68 95z" />
    <glyph glyph-name="Udieresis" unicode="&#xdc;" 
d="M205 124v155h58c62 0 93 -26 93 -78c0 -51.333 -31 -77 -93 -77h-58zM205 402v100.999c0 64 -22.333 96 -67 96s-67 -32 -67 -96v-408c0 -32.667 6 -56.667 18 -72s37 -23 75 -23h121c68 0 121.167 18.333 159.5 55s57.5 85.334 57.5 146.001c0 62 -18 111 -54 147
s-86.667 54 -152 54h-91z" />
    <glyph glyph-name="Udieresis" unicode="&#x42c;" 
d="M205 124v155h58c62 0 93 -26 93 -78c0 -51.333 -31 -77 -93 -77h-58zM205 402v100.999c0 64 -22.333 96 -67 96s-67 -32 -67 -96v-408c0 -32.667 6 -56.667 18 -72s37 -23 75 -23h121c68 0 121.167 18.333 159.5 55s57.5 85.334 57.5 146.001c0 62 -18 111 -54 147
s-86.667 54 -152 54h-91z" />
    <glyph glyph-name="Yacute" unicode="&#xdd;" horiz-adv-x="606" 
d="M227 249h154.999c-4.66699 -40.667 -20 -72.5 -46 -95.5s-58.333 -34.5 -97 -34.5c-27.333 0 -50.833 4.83301 -70.5 14.5s-36.834 14.5 -51.501 14.5c-13.333 0 -25.5 -5.83301 -36.5 -17.5s-16.5 -25.167 -16.5 -40.5c0 -25.333 16.667 -47.833 50 -67.5
s77 -29.5 131 -29.5c42 0 80.333 7 115 21s64.5 34 89.5 60s44.333 57.667 58 95s20.5 79.333 20.5 126c0 46 -7.33301 87.833 -22 125.5s-34.834 69.667 -60.501 96s-55.667 46.666 -90 60.999s-71.5 21.5 -111.5 21.5c-51.333 0 -93 -9.5 -125 -28.5
s-48 -40.167 -48 -63.5c0 -15.333 5.5 -28.833 16.5 -40.5s24.167 -17.5 39.5 -17.5c14.667 0 31.667 3.83301 51 11.5s41 11.5 65 11.5c36.667 0 67.834 -10.167 93.501 -30.5s40.834 -47.5 45.501 -81.5h-154c-42.667 0 -64 -18 -64 -54
c0 -17.333 5.33301 -31.166 16 -41.499s26.334 -15.5 47.001 -15.5z" />
    <glyph glyph-name="Yacute" unicode="&#x42d;" horiz-adv-x="606" 
d="M227 249h154.999c-4.66699 -40.667 -20 -72.5 -46 -95.5s-58.333 -34.5 -97 -34.5c-27.333 0 -50.833 4.83301 -70.5 14.5s-36.834 14.5 -51.501 14.5c-13.333 0 -25.5 -5.83301 -36.5 -17.5s-16.5 -25.167 -16.5 -40.5c0 -25.333 16.667 -47.833 50 -67.5
s77 -29.5 131 -29.5c42 0 80.333 7 115 21s64.5 34 89.5 60s44.333 57.667 58 95s20.5 79.333 20.5 126c0 46 -7.33301 87.833 -22 125.5s-34.834 69.667 -60.501 96s-55.667 46.666 -90 60.999s-71.5 21.5 -111.5 21.5c-51.333 0 -93 -9.5 -125 -28.5
s-48 -40.167 -48 -63.5c0 -15.333 5.5 -28.833 16.5 -40.5s24.167 -17.5 39.5 -17.5c14.667 0 31.667 3.83301 51 11.5s41 11.5 65 11.5c36.667 0 67.834 -10.167 93.501 -30.5s40.834 -47.5 45.501 -81.5h-154c-42.667 0 -64 -18 -64 -54
c0 -17.333 5.33301 -31.166 16 -41.499s26.334 -15.5 47.001 -15.5z" />
    <glyph glyph-name="Thorn" unicode="&#xde;" horiz-adv-x="826" 
d="M284 361h-88.001v142c0 64 -22.333 96 -67 96s-67 -32 -67 -96v-415c0 -63.333 22.333 -95 67 -95s67 31.667 67 95v161h86c7.33301 -83.333 33 -146.833 77 -190.5s100 -65.5 168 -65.5c73.333 0 132.833 25.833 178.5 77.5s68.5 126.5 68.5 224.5
c0 98.667 -22.833 174 -68.5 226s-105.167 78 -178.5 78c-65.333 0 -119.666 -20.5 -162.999 -61.5s-70 -99.833 -80 -176.5zM526.999 484c32 0 57.833 -16.167 77.5 -48.5s29.5 -78.833 29.5 -139.5s-9.83301 -107.334 -29.5 -140.001s-45.5 -49 -77.5 -49
s-57.833 16.333 -77.5 49s-29.5 79.334 -29.5 140.001s10 107.167 30 139.5s45.667 48.5 77 48.5z" />
    <glyph glyph-name="Thorn" unicode="&#x42e;" horiz-adv-x="826" 
d="M284 361h-88.001v142c0 64 -22.333 96 -67 96s-67 -32 -67 -96v-415c0 -63.333 22.333 -95 67 -95s67 31.667 67 95v161h86c7.33301 -83.333 33 -146.833 77 -190.5s100 -65.5 168 -65.5c73.333 0 132.833 25.833 178.5 77.5s68.5 126.5 68.5 224.5
c0 98.667 -22.833 174 -68.5 226s-105.167 78 -178.5 78c-65.333 0 -119.666 -20.5 -162.999 -61.5s-70 -99.833 -80 -176.5zM526.999 484c32 0 57.833 -16.167 77.5 -48.5s29.5 -78.833 29.5 -139.5s-9.83301 -107.334 -29.5 -140.001s-45.5 -49 -77.5 -49
s-57.833 16.333 -77.5 49s-29.5 79.334 -29.5 140.001s10 107.167 30 139.5s45.667 48.5 77 48.5z" />
    <glyph glyph-name="germandbls" unicode="&#xdf;" horiz-adv-x="584" 
d="M368 467l-0.000976562 -144h-62c-27.333 0 -48.5 6.5 -63.5 19.5s-22.5 31.167 -22.5 54.5c0 22 7.33301 39.167 22 51.5s35.334 18.5 62.001 18.5h64zM502.999 88l-0.00195312 408.999c0 32.667 -6.16699 56.5 -18.5 71.5s-37.166 22.5 -74.499 22.5h-105
c-72.667 0 -128.334 -17 -167.001 -51s-58 -78.333 -58 -133c0 -42.667 12.333 -78.167 37 -106.5s59.334 -46.166 104.001 -53.499l-106 -118c-26.667 -29.333 -40 -55 -40 -77c0 -17.333 6.16699 -31.5 18.5 -42.5s27.833 -16.5 46.5 -16.5c13.333 0 25.333 3.5 36 10.5
s22.334 17.833 35.001 32.5l157 198v-146c0 -63.333 22.667 -95 68 -95c44.667 0 67 31.667 67 95z" />
    <glyph glyph-name="germandbls" unicode="&#x42f;" horiz-adv-x="584" 
d="M368 467l-0.000976562 -144h-62c-27.333 0 -48.5 6.5 -63.5 19.5s-22.5 31.167 -22.5 54.5c0 22 7.33301 39.167 22 51.5s35.334 18.5 62.001 18.5h64zM502.999 88l-0.00195312 408.999c0 32.667 -6.16699 56.5 -18.5 71.5s-37.166 22.5 -74.499 22.5h-105
c-72.667 0 -128.334 -17 -167.001 -51s-58 -78.333 -58 -133c0 -42.667 12.333 -78.167 37 -106.5s59.334 -46.166 104.001 -53.499l-106 -118c-26.667 -29.333 -40 -55 -40 -77c0 -17.333 6.16699 -31.5 18.5 -42.5s27.833 -16.5 46.5 -16.5c13.333 0 25.333 3.5 36 10.5
s22.334 17.833 35.001 32.5l157 198v-146c0 -63.333 22.667 -95 68 -95c44.667 0 67 31.667 67 95z" />
    <glyph glyph-name="agrave" unicode="&#xe0;" horiz-adv-x="656" 
d="M330 599c-47.333 0 -81.668 -29 -103.001 -87l-154 -417c-4 -12 -6 -25 -6 -39c0 -18.667 6 -33.834 18 -45.501s27.333 -17.5 46 -17.5c30.667 0 52.334 19.667 65.001 59l24 74h209l22 -69c13.333 -42.667 37 -64 71 -64c18.667 0 34.5 5.5 47.5 16.5
s19.5 25.833 19.5 44.5c0 6 -0.833008 12.333 -2.5 19s-4.16699 14.334 -7.5 23.001l-149 426c-18.667 51.333 -52 77 -100 77zM258.998 245l67 208h2l65 -208h-134z" />
    <glyph glyph-name="agrave" unicode="&#x430;" horiz-adv-x="656" 
d="M330 599c-47.333 0 -81.668 -29 -103.001 -87l-154 -417c-4 -12 -6 -25 -6 -39c0 -18.667 6 -33.834 18 -45.501s27.333 -17.5 46 -17.5c30.667 0 52.334 19.667 65.001 59l24 74h209l22 -69c13.333 -42.667 37 -64 71 -64c18.667 0 34.5 5.5 47.5 16.5
s19.5 25.833 19.5 44.5c0 6 -0.833008 12.333 -2.5 19s-4.16699 14.334 -7.5 23.001l-149 426c-18.667 51.333 -52 77 -100 77zM258.998 245l67 208h2l65 -208h-134z" />
    <glyph glyph-name="aacute" unicode="&#xe1;" horiz-adv-x="556" 
d="M203 124v155h58c62 0 93 -26 93 -78c0 -51.333 -31 -77 -93 -77h-58zM294 402l-91 -0.000976562v64h169c64.667 0 97 20.667 97 62c0 42 -32.333 63 -97 63h-210c-38 0 -63 -7.5 -75 -22.5s-18 -38.833 -18 -71.5v-402c0 -32.667 6 -56.667 18 -72s37 -23 75 -23h121
c68 0 121.167 18.333 159.5 55s57.5 85.334 57.5 146.001c0 62 -18 111 -54 147s-86.667 54 -152 54z" />
    <glyph glyph-name="aacute" unicode="&#x431;" horiz-adv-x="556" 
d="M203 124v155h58c62 0 93 -26 93 -78c0 -51.333 -31 -77 -93 -77h-58zM294 402l-91 -0.000976562v64h169c64.667 0 97 20.667 97 62c0 42 -32.333 63 -97 63h-210c-38 0 -63 -7.5 -75 -22.5s-18 -38.833 -18 -71.5v-402c0 -32.667 6 -56.667 18 -72s37 -23 75 -23h121
c68 0 121.167 18.333 159.5 55s57.5 85.334 57.5 146.001c0 62 -18 111 -54 147s-86.667 54 -152 54z" />
    <glyph glyph-name="acircumflex" unicode="&#xe2;" horiz-adv-x="578" 
d="M160 0h133.001c68.667 0 121 16.167 157 48.5s54 75.5 54 129.5c0 36.667 -7.66699 65.167 -23 85.5s-40.333 36.166 -75 47.499v2c28 14 46.667 32 56 54s14 47.667 14 77c0 44.667 -18.833 80.334 -56.5 107.001s-86.834 40 -147.501 40h-110c-38 0 -63 -7.5 -75 -22.5
s-18 -38.833 -18 -71.5v-412c0 -32 6.16699 -54.167 18.5 -66.5s36.5 -18.5 72.5 -18.5zM203.001 116v138.999h65c36 0 60.667 -5.5 74 -16.5s20 -29.833 20 -56.5c0 -21.333 -6.66699 -37.666 -20 -48.999s-37.333 -17 -72 -17h-67zM203.001 359.999v116h58
c52.667 0 79 -19 79 -57c0 -21.333 -5.66699 -36.5 -17 -45.5s-32 -13.5 -62 -13.5h-58z" />
    <glyph glyph-name="acircumflex" unicode="&#x432;" horiz-adv-x="578" 
d="M160 0h133.001c68.667 0 121 16.167 157 48.5s54 75.5 54 129.5c0 36.667 -7.66699 65.167 -23 85.5s-40.333 36.166 -75 47.499v2c28 14 46.667 32 56 54s14 47.667 14 77c0 44.667 -18.833 80.334 -56.5 107.001s-86.834 40 -147.501 40h-110c-38 0 -63 -7.5 -75 -22.5
s-18 -38.833 -18 -71.5v-412c0 -32 6.16699 -54.167 18.5 -66.5s36.5 -18.5 72.5 -18.5zM203.001 116v138.999h65c36 0 60.667 -5.5 74 -16.5s20 -29.833 20 -56.5c0 -21.333 -6.66699 -37.666 -20 -48.999s-37.333 -17 -72 -17h-67zM203.001 359.999v116h58
c52.667 0 79 -19 79 -57c0 -21.333 -5.66699 -36.5 -17 -45.5s-32 -13.5 -62 -13.5h-58z" />
    <glyph glyph-name="atilde" unicode="&#xe3;" horiz-adv-x="489" 
d="M71 497v-409c0 -63.333 22.333 -95 67 -95s67 31.667 67 95v378h110c64 0 96 20.667 96 62c0 42 -32 63 -96 63h-151c-38 0 -63 -7.5 -75 -22.5s-18 -38.833 -18 -71.5z" />
    <glyph glyph-name="atilde" unicode="&#x433;" horiz-adv-x="489" 
d="M71 497v-409c0 -63.333 22.333 -95 67 -95s67 31.667 67 95v378h110c64 0 96 20.667 96 62c0 42 -32 63 -96 63h-151c-38 0 -63 -7.5 -75 -22.5s-18 -38.833 -18 -71.5z" />
    <glyph glyph-name="adieresis" unicode="&#xe4;" horiz-adv-x="700" 
d="M567 113l-143 410.999c-8.66699 24.667 -21.5 43.334 -38.5 56.001s-36.5 19 -58.5 19c-46 0 -79.333 -28 -100 -84l-148 -402h-17c-18.667 0 -32.167 -4.5 -40.5 -13.5s-12.5 -23.833 -12.5 -44.5c0 -16.667 4.16699 -30 12.5 -40s21.833 -15 40.5 -15h525
c18.667 0 33.167 5 43.5 15s15.5 23.333 15.5 40c0 17.333 -5.16699 31.333 -15.5 42s-24.833 16 -43.5 16h-20zM323 456.999h2l107 -344h-220z" />
    <glyph glyph-name="adieresis" unicode="&#x434;" horiz-adv-x="700" 
d="M567 113l-143 410.999c-8.66699 24.667 -21.5 43.334 -38.5 56.001s-36.5 19 -58.5 19c-46 0 -79.333 -28 -100 -84l-148 -402h-17c-18.667 0 -32.167 -4.5 -40.5 -13.5s-12.5 -23.833 -12.5 -44.5c0 -16.667 4.16699 -30 12.5 -40s21.833 -15 40.5 -15h525
c18.667 0 33.167 5 43.5 15s15.5 23.333 15.5 40c0 17.333 -5.16699 31.333 -15.5 42s-24.833 16 -43.5 16h-20zM323 456.999h2l107 -344h-220z" />
    <glyph glyph-name="aring" unicode="&#xe5;" horiz-adv-x="487" 
d="M315 591h-151c-38 0 -63 -7.5 -75 -22.5s-18 -38.833 -18 -71.5v-412c0 -32 6.16699 -54.167 18.5 -66.5s36.5 -18.5 72.5 -18.5h157c64 0 96 20.667 96 62c0 42 -32 63 -96 63h-114v111h95c63.333 0 95 20.667 95 62s-31.667 62 -95 62h-95v106h110
c64 0 96 20.667 96 62c0 42 -32 63 -96 63z" />
    <glyph glyph-name="aring" unicode="&#x435;" horiz-adv-x="487" 
d="M315 591h-151c-38 0 -63 -7.5 -75 -22.5s-18 -38.833 -18 -71.5v-412c0 -32 6.16699 -54.167 18.5 -66.5s36.5 -18.5 72.5 -18.5h157c64 0 96 20.667 96 62c0 42 -32 63 -96 63h-114v111h95c63.333 0 95 20.667 95 62s-31.667 62 -95 62h-95v106h110
c64 0 96 20.667 96 62c0 42 -32 63 -96 63z" />
    <glyph glyph-name="ae" unicode="&#xe6;" horiz-adv-x="906" 
d="M394 241l0.00292969 -153.001c0 -32 4.66699 -55.833 14 -71.5s25.333 -23.5 48 -23.5s38.834 7.83301 48.501 23.5s14.5 39.5 14.5 71.5v153l12 9l174 -210c12 -14.667 23.5 -26.167 34.5 -34.5s23.833 -12.5 38.5 -12.5s28.667 6 42 18s20 26.667 20 44
c0 18 -11.333 40.333 -34 67l-177 207l132 131c23.333 22.667 38.166 38.667 44.499 48s9.5 18.333 9.5 27c0 16.667 -6.83301 31.5 -20.5 44.5s-28.834 19.5 -45.501 19.5c-12 0 -24 -4.66699 -36 -14s-25 -20.666 -39 -33.999l-155 -160v112c0 32 -4.83301 56 -14.5 72
s-25.834 24 -48.501 24s-38.667 -8 -48 -24s-14 -40 -14 -72v-112l-156 160c-13.333 13.333 -26 24.666 -38 33.999s-23.667 14 -35 14c-16.667 0 -32 -6.5 -46 -19.5s-21 -27.833 -21 -44.5c0 -8.66699 3.16699 -17.667 9.5 -27s21.166 -25.333 44.499 -48l132 -131
l-177 -207c-22.667 -25.333 -34 -47.666 -34 -66.999c0 -17.333 6.5 -32 19.5 -44s27.167 -18 42.5 -18s28.333 4.16699 39 12.5s21.667 19.833 33 34.5l175 210z" />
    <glyph glyph-name="ae" unicode="&#x436;" horiz-adv-x="906" 
d="M394 241l0.00292969 -153.001c0 -32 4.66699 -55.833 14 -71.5s25.333 -23.5 48 -23.5s38.834 7.83301 48.501 23.5s14.5 39.5 14.5 71.5v153l12 9l174 -210c12 -14.667 23.5 -26.167 34.5 -34.5s23.833 -12.5 38.5 -12.5s28.667 6 42 18s20 26.667 20 44
c0 18 -11.333 40.333 -34 67l-177 207l132 131c23.333 22.667 38.166 38.667 44.499 48s9.5 18.333 9.5 27c0 16.667 -6.83301 31.5 -20.5 44.5s-28.834 19.5 -45.501 19.5c-12 0 -24 -4.66699 -36 -14s-25 -20.666 -39 -33.999l-155 -160v112c0 32 -4.83301 56 -14.5 72
s-25.834 24 -48.501 24s-38.667 -8 -48 -24s-14 -40 -14 -72v-112l-156 160c-13.333 13.333 -26 24.666 -38 33.999s-23.667 14 -35 14c-16.667 0 -32 -6.5 -46 -19.5s-21 -27.833 -21 -44.5c0 -8.66699 3.16699 -17.667 9.5 -27s21.166 -25.333 44.499 -48l132 -131
l-177 -207c-22.667 -25.333 -34 -47.666 -34 -66.999c0 -17.333 6.5 -32 19.5 -44s27.167 -18 42.5 -18s28.333 4.16699 39 12.5s21.667 19.833 33 34.5l175 210z" />
    <glyph glyph-name="ccedilla" unicode="&#xe7;" horiz-adv-x="587" 
d="M405 313v2.99609c24.667 10.667 44.167 25 58.5 43s21.5 43.667 21.5 77c0 52.667 -17.5 93 -52.5 121s-87.5 42 -157.5 42c-24.667 0 -48.167 -2 -70.5 -6s-42 -9.83301 -59 -17.5s-30.5 -16.667 -40.5 -27s-15 -21.5 -15 -33.5c0 -20.667 5 -34.334 15 -41.001
s23.667 -10 41 -10c11.333 0 21.666 1.16699 30.999 3.5s18.666 5 27.999 8s19.166 5.66699 29.499 8s22.5 3.5 36.5 3.5c54 0 81 -21.333 81 -64c0 -19.333 -7.5 -33.5 -22.5 -42.5s-32.833 -13.5 -53.5 -13.5h-36c-25.333 0 -45.833 -5.16699 -61.5 -15.5
s-23.5 -24.166 -23.5 -41.499c0 -18.667 7.83301 -32.667 23.5 -42s36.167 -14 61.5 -14h36c26.667 0 47.334 -7.16699 62.001 -21.5s22 -31.166 22 -50.499c0 -21.333 -7.5 -38.166 -22.5 -50.499s-37.5 -18.5 -67.5 -18.5c-25.333 0 -44.166 1.66699 -56.499 5
s-22.666 6.83301 -30.999 10.5l-24 10.5c-7.66699 3.33301 -19.5 5 -35.5 5s-29.333 -4 -40 -12s-16 -21 -16 -39c0 -17.333 5.16699 -32.333 15.5 -45s24.5 -23 42.5 -31s39.167 -14 63.5 -18s50.5 -6 78.5 -6c44 0 80.833 4.5 110.5 13.5s53.667 21.833 72 38.5
s31.333 36.334 39 59.001s11.5 47.334 11.5 74.001s-7.66699 52.667 -23 78s-39.333 44.333 -72 57z" />
    <glyph glyph-name="ccedilla" unicode="&#x437;" horiz-adv-x="587" 
d="M405 313v2.99609c24.667 10.667 44.167 25 58.5 43s21.5 43.667 21.5 77c0 52.667 -17.5 93 -52.5 121s-87.5 42 -157.5 42c-24.667 0 -48.167 -2 -70.5 -6s-42 -9.83301 -59 -17.5s-30.5 -16.667 -40.5 -27s-15 -21.5 -15 -33.5c0 -20.667 5 -34.334 15 -41.001
s23.667 -10 41 -10c11.333 0 21.666 1.16699 30.999 3.5s18.666 5 27.999 8s19.166 5.66699 29.499 8s22.5 3.5 36.5 3.5c54 0 81 -21.333 81 -64c0 -19.333 -7.5 -33.5 -22.5 -42.5s-32.833 -13.5 -53.5 -13.5h-36c-25.333 0 -45.833 -5.16699 -61.5 -15.5
s-23.5 -24.166 -23.5 -41.499c0 -18.667 7.83301 -32.667 23.5 -42s36.167 -14 61.5 -14h36c26.667 0 47.334 -7.16699 62.001 -21.5s22 -31.166 22 -50.499c0 -21.333 -7.5 -38.166 -22.5 -50.499s-37.5 -18.5 -67.5 -18.5c-25.333 0 -44.166 1.66699 -56.499 5
s-22.666 6.83301 -30.999 10.5l-24 10.5c-7.66699 3.33301 -19.5 5 -35.5 5s-29.333 -4 -40 -12s-16 -21 -16 -39c0 -17.333 5.16699 -32.333 15.5 -45s24.5 -23 42.5 -31s39.167 -14 63.5 -18s50.5 -6 78.5 -6c44 0 80.833 4.5 110.5 13.5s53.667 21.833 72 38.5
s31.333 36.334 39 59.001s11.5 47.334 11.5 74.001s-7.66699 52.667 -23 78s-39.333 44.333 -72 57z" />
    <glyph glyph-name="egrave" unicode="&#xe8;" horiz-adv-x="658" 
d="M451 360l0.00195312 -271.999c0 -63.333 22.333 -95 67 -95s67 31.667 67 95v420c0 29.333 -4.83301 51.833 -14.5 67.5s-25.5 23.5 -47.5 23.5c-15.333 0 -28.333 -3.83301 -39 -11.5s-21.334 -18.5 -32.001 -32.5l-249 -329v277c0 64 -22.333 96 -67 96
s-67 -32 -67 -96v-430c0 -27.333 4.66699 -47.5 14 -60.5s24.666 -19.5 45.999 -19.5c14.667 0 28.167 3.16699 40.5 9.5s24.833 18.166 37.5 35.499z" />
    <glyph glyph-name="egrave" unicode="&#x438;" horiz-adv-x="658" 
d="M451 360l0.00195312 -271.999c0 -63.333 22.333 -95 67 -95s67 31.667 67 95v420c0 29.333 -4.83301 51.833 -14.5 67.5s-25.5 23.5 -47.5 23.5c-15.333 0 -28.333 -3.83301 -39 -11.5s-21.334 -18.5 -32.001 -32.5l-249 -329v277c0 64 -22.333 96 -67 96
s-67 -32 -67 -96v-430c0 -27.333 4.66699 -47.5 14 -60.5s24.666 -19.5 45.999 -19.5c14.667 0 28.167 3.16699 40.5 9.5s24.833 18.166 37.5 35.499z" />
    <glyph glyph-name="eacute" unicode="&#xe9;" horiz-adv-x="669" 
d="M329 598c-40.667 0 -73.667 9.83105 -99 29.498s-38 41.834 -38 66.501c0 14 3.83301 25.167 11.5 33.5s18.167 12.5 31.5 12.5s22.5 -2.83301 27.5 -8.5s9.66699 -11.834 14 -18.501s10 -12.834 17 -18.501s18.833 -8.5 35.5 -8.5s28.5 2.83301 35.5 8.5
s12.5 11.834 16.5 18.501s8.5 12.834 13.5 18.501s14.167 8.5 27.5 8.5c14 0 24.833 -4.16699 32.5 -12.5s11.5 -19.5 11.5 -33.5c0 -25.333 -12.667 -47.666 -38 -66.999s-58.333 -29 -99 -29zM453 359.998l0.00195312 -271.999c0 -63.333 22.333 -95 67 -95
s67 31.667 67 95v420c0 29.333 -4.83301 51.833 -14.5 67.5s-25.5 23.5 -47.5 23.5c-15.333 0 -28.333 -3.83301 -39 -11.5s-21.334 -18.5 -32.001 -32.5l-249 -329v277c0 64 -22.333 96 -67 96s-67 -32 -67 -96v-430c0 -27.333 4.66699 -47.5 14 -60.5
s24.666 -19.5 45.999 -19.5c14.667 0 28.167 3.16699 40.5 9.5s24.833 18.166 37.5 35.499z" />
    <glyph glyph-name="eacute" unicode="&#x439;" horiz-adv-x="669" 
d="M329 598c-40.667 0 -73.667 9.83105 -99 29.498s-38 41.834 -38 66.501c0 14 3.83301 25.167 11.5 33.5s18.167 12.5 31.5 12.5s22.5 -2.83301 27.5 -8.5s9.66699 -11.834 14 -18.501s10 -12.834 17 -18.501s18.833 -8.5 35.5 -8.5s28.5 2.83301 35.5 8.5
s12.5 11.834 16.5 18.501s8.5 12.834 13.5 18.501s14.167 8.5 27.5 8.5c14 0 24.833 -4.16699 32.5 -12.5s11.5 -19.5 11.5 -33.5c0 -25.333 -12.667 -47.666 -38 -66.999s-58.333 -29 -99 -29zM453 359.998l0.00195312 -271.999c0 -63.333 22.333 -95 67 -95
s67 31.667 67 95v420c0 29.333 -4.83301 51.833 -14.5 67.5s-25.5 23.5 -47.5 23.5c-15.333 0 -28.333 -3.83301 -39 -11.5s-21.334 -18.5 -32.001 -32.5l-249 -329v277c0 64 -22.333 96 -67 96s-67 -32 -67 -96v-430c0 -27.333 4.66699 -47.5 14 -60.5
s24.666 -19.5 45.999 -19.5c14.667 0 28.167 3.16699 40.5 9.5s24.833 18.166 37.5 35.499z" />
    <glyph glyph-name="ecircumflex" unicode="&#xea;" horiz-adv-x="613" 
d="M71 503l0.000976562 -415.001c0 -63.333 22.333 -95 67 -95s67 31.667 67 95v140l24 19l178 -207c12 -14.667 23.5 -26.167 34.5 -34.5s23.833 -12.5 38.5 -12.5s28.667 6 42 18s20 26.667 20 44c0 18 -11.333 40.333 -34 67l-181 203l137 135
c22.667 22.667 37.167 38.667 43.5 48s9.5 18.333 9.5 27c0 16.667 -6.83301 31.5 -20.5 44.5s-28.834 19.5 -45.501 19.5c-12 0 -24 -4.66699 -36 -14s-24.667 -20.666 -38 -33.999l-172 -177v129c0 64 -22.333 96 -67 96s-67 -32 -67 -96z" />
    <glyph glyph-name="ecircumflex" unicode="&#x43a;" horiz-adv-x="613" 
d="M71 503l0.000976562 -415.001c0 -63.333 22.333 -95 67 -95s67 31.667 67 95v140l24 19l178 -207c12 -14.667 23.5 -26.167 34.5 -34.5s23.833 -12.5 38.5 -12.5s28.667 6 42 18s20 26.667 20 44c0 18 -11.333 40.333 -34 67l-181 203l137 135
c22.667 22.667 37.167 38.667 43.5 48s9.5 18.333 9.5 27c0 16.667 -6.83301 31.5 -20.5 44.5s-28.834 19.5 -45.501 19.5c-12 0 -24 -4.66699 -36 -14s-24.667 -20.666 -38 -33.999l-172 -177v129c0 64 -22.333 96 -67 96s-67 -32 -67 -96z" />
    <glyph glyph-name="edieresis" unicode="&#xeb;" horiz-adv-x="645" 
d="M196 52l129.998 401h2l123 -396c13.333 -42.667 37 -64 71 -64c18.667 0 34.5 5.5 47.5 16.5s19.5 25.833 19.5 44.5c0 6 -0.833008 12.333 -2.5 19s-4.16699 14.334 -7.5 23.001l-149 426c-18.667 51.333 -52 77 -100 77c-47.333 0 -81.666 -29 -102.999 -87l-154 -417
c-4 -12 -6 -25 -6 -39c0 -18.667 6 -33.834 18 -45.501s27.333 -17.5 46 -17.5c30.667 0 52.334 19.667 65.001 59z" />
    <glyph glyph-name="edieresis" unicode="&#x43b;" horiz-adv-x="645" 
d="M196 52l129.998 401h2l123 -396c13.333 -42.667 37 -64 71 -64c18.667 0 34.5 5.5 47.5 16.5s19.5 25.833 19.5 44.5c0 6 -0.833008 12.333 -2.5 19s-4.16699 14.334 -7.5 23.001l-149 426c-18.667 51.333 -52 77 -100 77c-47.333 0 -81.666 -29 -102.999 -87l-154 -417
c-4 -12 -6 -25 -6 -39c0 -18.667 6 -33.834 18 -45.501s27.333 -17.5 46 -17.5c30.667 0 52.334 19.667 65.001 59z" />
    <glyph glyph-name="igrave" unicode="&#xec;" horiz-adv-x="831" 
d="M420 187l78 332c5.33301 23.333 16.5 42.5 33.5 57.5s37.833 22.5 62.5 22.5c29.333 0 53.333 -9.33301 72 -28s30 -40.334 34 -65.001l65 -403c1.33301 -11.333 2.33301 -20.5 3 -27.5s1 -12.833 1 -17.5c0 -23.333 -5.16699 -40 -15.5 -50s-25.166 -15 -44.499 -15
c-20.667 0 -36.334 6.16699 -47.001 18.5s-18.334 34.833 -23.001 67.5l-51 324h-2l-76 -299c-10 -39.333 -22.5 -65 -37.5 -77s-32.833 -18 -53.5 -18c-21.333 0 -39.5 6 -54.5 18s-27.5 37.667 -37.5 77l-77 299h-1l-51 -324c-5.33301 -32.667 -13 -55.167 -23 -67.5
s-25.667 -18.5 -47 -18.5c-18.667 0 -33.5 5 -44.5 15s-16.5 26.667 -16.5 50c0 8 2 23 6 45l65 403c3.33301 24.667 14.333 46.334 33 65.001s42.334 28 71.001 28c25.333 0 46.5 -7.5 63.5 -22.5s28.167 -34.167 33.5 -57.5l78 -332h3z" />
    <glyph glyph-name="igrave" unicode="&#x43c;" horiz-adv-x="831" 
d="M420 187l78 332c5.33301 23.333 16.5 42.5 33.5 57.5s37.833 22.5 62.5 22.5c29.333 0 53.333 -9.33301 72 -28s30 -40.334 34 -65.001l65 -403c1.33301 -11.333 2.33301 -20.5 3 -27.5s1 -12.833 1 -17.5c0 -23.333 -5.16699 -40 -15.5 -50s-25.166 -15 -44.499 -15
c-20.667 0 -36.334 6.16699 -47.001 18.5s-18.334 34.833 -23.001 67.5l-51 324h-2l-76 -299c-10 -39.333 -22.5 -65 -37.5 -77s-32.833 -18 -53.5 -18c-21.333 0 -39.5 6 -54.5 18s-27.5 37.667 -37.5 77l-77 299h-1l-51 -324c-5.33301 -32.667 -13 -55.167 -23 -67.5
s-25.667 -18.5 -47 -18.5c-18.667 0 -33.5 5 -44.5 15s-16.5 26.667 -16.5 50c0 8 2 23 6 45l65 403c3.33301 24.667 14.333 46.334 33 65.001s42.334 28 71.001 28c25.333 0 46.5 -7.5 63.5 -22.5s28.167 -34.167 33.5 -57.5l78 -332h3z" />
    <glyph glyph-name="iacute" unicode="&#xed;" horiz-adv-x="633" 
d="M205 88v151h248v-151c0 -63.333 22.333 -95 67 -95s67 31.667 67 95v415c0 64 -22.333 96 -67 96s-67 -32 -67 -96v-139h-248v139c0 64 -22.333 96 -67 96s-67 -32 -67 -96v-415c0 -63.333 22.333 -95 67 -95s67 31.667 67 95z" />
    <glyph glyph-name="iacute" unicode="&#x43d;" horiz-adv-x="633" 
d="M205 88v151h248v-151c0 -63.333 22.333 -95 67 -95s67 31.667 67 95v415c0 64 -22.333 96 -67 96s-67 -32 -67 -96v-139h-248v139c0 64 -22.333 96 -67 96s-67 -32 -67 -96v-415c0 -63.333 22.333 -95 67 -95s67 31.667 67 95z" />
    <glyph glyph-name="icircumflex" unicode="&#xee;" horiz-adv-x="706" 
d="M64 295c0 -46 6.83008 -87.5 20.4971 -124.5s32.834 -68.667 57.501 -95s54.334 -46.666 89.001 -60.999s73.334 -21.5 116.001 -21.5s81.5 7.16699 116.5 21.5s64.833 34.666 89.5 60.999s43.667 58 57 95s20 78.5 20 124.5s-6.83301 87.667 -20.5 125
s-33 69.333 -58 96s-54.833 47.167 -89.5 61.5s-73 21.5 -115 21.5s-80.333 -7.16699 -115 -21.5s-64.5 -34.833 -89.5 -61.5s-44.333 -58.667 -58 -96s-20.5 -79 -20.5 -125zM209.997 295c0 56.667 12.999 101.167 38.999 133.5s59.667 48.5 101 48.5
c42 0 76 -16.167 102 -48.5s39 -76.833 39 -133.5c0 -54.667 -13.167 -97.667 -39.5 -129s-60.166 -47 -101.499 -47s-75 15.667 -101 47s-39 74.333 -39 129z" />
    <glyph glyph-name="icircumflex" unicode="&#x43e;" horiz-adv-x="706" 
d="M64 295c0 -46 6.83008 -87.5 20.4971 -124.5s32.834 -68.667 57.501 -95s54.334 -46.666 89.001 -60.999s73.334 -21.5 116.001 -21.5s81.5 7.16699 116.5 21.5s64.833 34.666 89.5 60.999s43.667 58 57 95s20 78.5 20 124.5s-6.83301 87.667 -20.5 125
s-33 69.333 -58 96s-54.833 47.167 -89.5 61.5s-73 21.5 -115 21.5s-80.333 -7.16699 -115 -21.5s-64.5 -34.833 -89.5 -61.5s-44.333 -58.667 -58 -96s-20.5 -79 -20.5 -125zM209.997 295c0 56.667 12.999 101.167 38.999 133.5s59.667 48.5 101 48.5
c42 0 76 -16.167 102 -48.5s39 -76.833 39 -133.5c0 -54.667 -13.167 -97.667 -39.5 -129s-60.166 -47 -101.499 -47s-75 15.667 -101 47s-39 74.333 -39 129z" />
    <glyph glyph-name="idieresis" unicode="&#xef;" horiz-adv-x="653" 
d="M207 88v384h248v-384c0 -63.333 22.333 -95 67 -95s67 31.667 67 95v408c0 63.333 -30.667 95 -92 95h-332c-61.333 0 -92 -31.667 -92 -95v-408c0 -63.333 22.333 -95 67 -95s67 31.667 67 95z" />
    <glyph glyph-name="idieresis" unicode="&#x43f;" horiz-adv-x="653" 
d="M207 88v384h248v-384c0 -63.333 22.333 -95 67 -95s67 31.667 67 95v408c0 63.333 -30.667 95 -92 95h-332c-61.333 0 -92 -31.667 -92 -95v-408c0 -63.333 22.333 -95 67 -95s67 31.667 67 95z" />
    <glyph glyph-name="eth" unicode="&#xf0;" horiz-adv-x="564" 
d="M263 312h-58v155h58c62 0 93 -25.667 93 -77c0 -52 -31 -78 -93 -78zM205 88v102.001h91c65.333 0 116 17.833 152 53.5s54 84.5 54 146.5c0 61.333 -19.167 110.166 -57.5 146.499s-91.5 54.5 -159.5 54.5h-121c-38 0 -63 -7.5 -75 -22.5s-18 -38.833 -18 -71.5v-409
c0 -63.333 22.333 -95 67 -95s67 31.667 67 95z" />
    <glyph glyph-name="eth" unicode="&#x440;" horiz-adv-x="564" 
d="M263 312h-58v155h58c62 0 93 -25.667 93 -77c0 -52 -31 -78 -93 -78zM205 88v102.001h91c65.333 0 116 17.833 152 53.5s54 84.5 54 146.5c0 61.333 -19.167 110.166 -57.5 146.499s-91.5 54.5 -159.5 54.5h-121c-38 0 -63 -7.5 -75 -22.5s-18 -38.833 -18 -71.5v-409
c0 -63.333 22.333 -95 67 -95s67 31.667 67 95z" />
    <glyph glyph-name="ntilde" unicode="&#xf1;" horiz-adv-x="611" 
d="M353 -7c54.667 0 98.6611 9.83398 131.994 29.501s50 42.167 50 67.5c0 15.333 -5.66699 28.833 -17 40.5s-23.666 17.5 -36.999 17.5c-15.333 0 -32.666 -4.83301 -51.999 -14.5s-42.666 -14.5 -69.999 -14.5c-44 0 -79.333 15.333 -106 46s-40 73 -40 127
c0 55.333 13.167 99.166 39.5 131.499s60.5 48.5 102.5 48.5c24.667 0 46.667 -3.83301 66 -11.5s36.333 -11.5 51 -11.5s27.667 5.83301 39 17.5s17 25.167 17 40.5c0 12 -4.33301 23.5 -13 34.5s-20.667 20.667 -36 29s-33.666 15.166 -54.999 20.499s-44.666 8 -69.999 8
c-40 0 -77.167 -7.16699 -111.5 -21.5s-64.166 -34.666 -89.499 -60.999s-45.333 -58.333 -60 -96s-22 -79.5 -22 -125.5c0 -46.667 6.83301 -88.667 20.5 -126s33 -69 58 -95s54.833 -46 89.5 -60s72.667 -21 114 -21z" />
    <glyph glyph-name="ntilde" unicode="&#x441;" horiz-adv-x="611" 
d="M353 -7c54.667 0 98.6611 9.83398 131.994 29.501s50 42.167 50 67.5c0 15.333 -5.66699 28.833 -17 40.5s-23.666 17.5 -36.999 17.5c-15.333 0 -32.666 -4.83301 -51.999 -14.5s-42.666 -14.5 -69.999 -14.5c-44 0 -79.333 15.333 -106 46s-40 73 -40 127
c0 55.333 13.167 99.166 39.5 131.499s60.5 48.5 102.5 48.5c24.667 0 46.667 -3.83301 66 -11.5s36.333 -11.5 51 -11.5s27.667 5.83301 39 17.5s17 25.167 17 40.5c0 12 -4.33301 23.5 -13 34.5s-20.667 20.667 -36 29s-33.666 15.166 -54.999 20.499s-44.666 8 -69.999 8
c-40 0 -77.167 -7.16699 -111.5 -21.5s-64.166 -34.666 -89.499 -60.999s-45.333 -58.333 -60 -96s-22 -79.5 -22 -125.5c0 -46.667 6.83301 -88.667 20.5 -126s33 -69 58 -95s54.833 -46 89.5 -60s72.667 -21 114 -21z" />
    <glyph glyph-name="ograve" unicode="&#xf2;" horiz-adv-x="555" 
d="M169 466h50v-378c0 -63.333 22.333 -95 67 -95s67 31.667 67 95v378h50c64 0 96 20.667 96 62c0 42 -32 63 -96 63h-234c-64 0 -96 -21 -96 -63c0 -41.333 32 -62 96 -62z" />
    <glyph glyph-name="ograve" unicode="&#x442;" horiz-adv-x="555" 
d="M169 466h50v-378c0 -63.333 22.333 -95 67 -95s67 31.667 67 95v378h50c64 0 96 20.667 96 62c0 42 -32 63 -96 63h-234c-64 0 -96 -21 -96 -63c0 -41.333 32 -62 96 -62z" />
    <glyph glyph-name="oacute" unicode="&#xf3;" horiz-adv-x="611" 
d="M253 -117c13.333 0 25.334 2.83398 36.001 8.50098s21 21.167 31 46.5l215 553c3.33301 8 5.66602 16 6.99902 24s2 15.333 2 22c0 19.333 -5.16699 34.5 -15.5 45.5s-25.833 16.5 -46.5 16.5c-17.333 0 -30.666 -4.83301 -39.999 -14.5s-18.333 -25.834 -27 -48.501
l-106 -282h-3l-116 287c-8.66699 20.667 -17.334 35.5 -26.001 44.5s-20.667 13.5 -36 13.5c-19.333 0 -34.833 -6.33301 -46.5 -19s-17.5 -28.667 -17.5 -48c0 -13.333 2.66699 -26 8 -38l167 -413l-38 -95c-5.33301 -12.667 -8 -25.667 -8 -39
c0 -19.333 5 -34.833 15 -46.5s25 -17.5 45 -17.5z" />
    <glyph glyph-name="oacute" unicode="&#x443;" horiz-adv-x="611" 
d="M253 -117c13.333 0 25.334 2.83398 36.001 8.50098s21 21.167 31 46.5l215 553c3.33301 8 5.66602 16 6.99902 24s2 15.333 2 22c0 19.333 -5.16699 34.5 -15.5 45.5s-25.833 16.5 -46.5 16.5c-17.333 0 -30.666 -4.83301 -39.999 -14.5s-18.333 -25.834 -27 -48.501
l-106 -282h-3l-116 287c-8.66699 20.667 -17.334 35.5 -26.001 44.5s-20.667 13.5 -36 13.5c-19.333 0 -34.833 -6.33301 -46.5 -19s-17.5 -28.667 -17.5 -48c0 -13.333 2.66699 -26 8 -38l167 -413l-38 -95c-5.33301 -12.667 -8 -25.667 -8 -39
c0 -19.333 5 -34.833 15 -46.5s25 -17.5 45 -17.5z" />
    <glyph glyph-name="ocircumflex" unicode="&#xf4;" horiz-adv-x="793" 
d="M400 -7c22.667 0 39.499 6.5 50.499 19.5s16.5 35.167 16.5 66.5v20h43c32 0 61.333 4.83301 88 14.5s49.667 23.5 69 41.5s34.5 39.5 45.5 64.5s16.5 52.5 16.5 82.5s-5.16699 57.333 -15.5 82s-25.166 46 -44.499 64s-42.333 32 -69 42s-56.667 15 -90 15h-43v13
c0 29.333 -5.83301 50.166 -17.5 62.499s-28.167 18.5 -49.5 18.5s-37.5 -6.16699 -48.5 -18.5s-16.5 -33.166 -16.5 -62.499v-13h-44c-32.667 0 -62.5 -5 -89.5 -15s-50 -24 -69 -42s-33.667 -39.333 -44 -64s-15.5 -52 -15.5 -82s5.33301 -57.5 16 -82.5
s25.667 -46.5 45 -64.5s42.333 -31.833 69 -41.5s56 -14.5 88 -14.5h44v-20c0 -31.333 5.33301 -53.5 16 -66.5s27 -19.5 49 -19.5zM463.999 209v187h38c60 0 90 -31.333 90 -94c0 -62 -30 -93 -90 -93h-38zM336.999 396v-187h-37c-60 0 -90 31 -90 93c0 62.667 30 94 90 94
h37z" />
    <glyph glyph-name="ocircumflex" unicode="&#x444;" horiz-adv-x="793" 
d="M400 -7c22.667 0 39.499 6.5 50.499 19.5s16.5 35.167 16.5 66.5v20h43c32 0 61.333 4.83301 88 14.5s49.667 23.5 69 41.5s34.5 39.5 45.5 64.5s16.5 52.5 16.5 82.5s-5.16699 57.333 -15.5 82s-25.166 46 -44.499 64s-42.333 32 -69 42s-56.667 15 -90 15h-43v13
c0 29.333 -5.83301 50.166 -17.5 62.499s-28.167 18.5 -49.5 18.5s-37.5 -6.16699 -48.5 -18.5s-16.5 -33.166 -16.5 -62.499v-13h-44c-32.667 0 -62.5 -5 -89.5 -15s-50 -24 -69 -42s-33.667 -39.333 -44 -64s-15.5 -52 -15.5 -82s5.33301 -57.5 16 -82.5
s25.667 -46.5 45 -64.5s42.333 -31.833 69 -41.5s56 -14.5 88 -14.5h44v-20c0 -31.333 5.33301 -53.5 16 -66.5s27 -19.5 49 -19.5zM463.999 209v187h38c60 0 90 -31.333 90 -94c0 -62 -30 -93 -90 -93h-38zM336.999 396v-187h-37c-60 0 -90 31 -90 93c0 62.667 30 94 90 94
h37z" />
    <glyph glyph-name="otilde" unicode="&#xf5;" horiz-adv-x="624" 
d="M202 43l118.999 168l120 -169c22.667 -32.667 47 -49 73 -49c16.667 0 31 5.83301 43 17.5s18 24.834 18 39.501c0 8 -2 17.167 -6 27.5s-12 23.833 -24 40.5l-145 195l109 158c20.667 30 31 53 31 69c0 14.667 -6.16699 28.167 -18.5 40.5s-25.833 18.5 -40.5 18.5
c-24.667 0 -49 -17 -73 -51l-85 -125l-82 124c-23.333 34.667 -46.666 52 -69.999 52c-19.333 0 -35 -6.16699 -47 -18.5s-18 -26.833 -18 -43.5c0 -7.33301 2.33301 -16 7 -26s12.334 -23.333 23.001 -40l108 -158l-143 -194
c-12.667 -16.667 -20.834 -30.334 -24.501 -41.001s-5.5 -19.667 -5.5 -27c0 -14.667 6 -28 18 -40s26 -18 42 -18c12.667 0 24.667 4.16699 36 12.5s23 20.833 35 37.5z" />
    <glyph glyph-name="otilde" unicode="&#x445;" horiz-adv-x="624" 
d="M202 43l118.999 168l120 -169c22.667 -32.667 47 -49 73 -49c16.667 0 31 5.83301 43 17.5s18 24.834 18 39.501c0 8 -2 17.167 -6 27.5s-12 23.833 -24 40.5l-145 195l109 158c20.667 30 31 53 31 69c0 14.667 -6.16699 28.167 -18.5 40.5s-25.833 18.5 -40.5 18.5
c-24.667 0 -49 -17 -73 -51l-85 -125l-82 124c-23.333 34.667 -46.666 52 -69.999 52c-19.333 0 -35 -6.16699 -47 -18.5s-18 -26.833 -18 -43.5c0 -7.33301 2.33301 -16 7 -26s12.334 -23.333 23.001 -40l108 -158l-143 -194
c-12.667 -16.667 -20.834 -30.334 -24.501 -41.001s-5.5 -19.667 -5.5 -27c0 -14.667 6 -28 18 -40s26 -18 42 -18c12.667 0 24.667 4.16699 36 12.5s23 20.833 35 37.5z" />
    <glyph glyph-name="odieresis" unicode="&#xf6;" horiz-adv-x="720" 
d="M439 113h-213v390c0 64 -22.333 96 -67 96c-45.333 0 -68 -32 -68 -96v-407c0 -64 31 -96 93 -96h432c18.667 0 33.334 4.5 44.001 13.5s16 22.833 16 41.5c0 19.333 -5.33301 33.833 -16 43.5s-25.334 14.5 -44.001 14.5h-43v390c0 64 -22.333 96 -67 96
s-67 -32 -67 -96v-390z" />
    <glyph glyph-name="odieresis" unicode="&#x446;" horiz-adv-x="720" 
d="M439 113h-213v390c0 64 -22.333 96 -67 96c-45.333 0 -68 -32 -68 -96v-407c0 -64 31 -96 93 -96h432c18.667 0 33.334 4.5 44.001 13.5s16 22.833 16 41.5c0 19.333 -5.33301 33.833 -16 43.5s-25.334 14.5 -44.001 14.5h-43v390c0 64 -22.333 96 -67 96
s-67 -32 -67 -96v-390z" />
    <glyph glyph-name="divide" unicode="&#xf7;" horiz-adv-x="537" 
d="M349 319h-68c-34.667 0 -57.167 5.83301 -67.5 17.5s-15.5 32.167 -15.5 61.5v106c0 63.333 -22.333 95 -67 95s-67 -31.667 -67 -95v-106c0 -62 16.167 -110.667 48.5 -146s80.833 -53 145.5 -53h91v-111c0 -63.333 22.333 -95 67 -95s67 31.667 67 95v416
c0 63.333 -22.333 95 -67 95s-67 -31.667 -67 -95v-185z" />
    <glyph glyph-name="divide" unicode="&#x447;" horiz-adv-x="537" 
d="M349 319h-68c-34.667 0 -57.167 5.83301 -67.5 17.5s-15.5 32.167 -15.5 61.5v106c0 63.333 -22.333 95 -67 95s-67 -31.667 -67 -95v-106c0 -62 16.167 -110.667 48.5 -146s80.833 -53 145.5 -53h91v-111c0 -63.333 22.333 -95 67 -95s67 31.667 67 95v416
c0 63.333 -22.333 95 -67 95s-67 -31.667 -67 -95v-185z" />
    <glyph glyph-name="oslash" unicode="&#xf8;" horiz-adv-x="823" 
d="M635 503l0.00195312 -390h-157v390c0 32 -4.33301 56 -13 72s-24.334 24 -47.001 24s-38.334 -8 -47.001 -24s-13 -40 -13 -72v-390h-157v390c0 64 -22.333 96 -67 96s-67 -32 -67 -96v-407c0 -64 30.667 -96 92 -96h518c62 0 93 32 93 96v407c0 64 -22.667 96 -68 96
c-44.667 0 -67 -32 -67 -96z" />
    <glyph glyph-name="oslash" unicode="&#x448;" horiz-adv-x="823" 
d="M635 503l0.00195312 -390h-157v390c0 32 -4.33301 56 -13 72s-24.334 24 -47.001 24s-38.334 -8 -47.001 -24s-13 -40 -13 -72v-390h-157v390c0 64 -22.333 96 -67 96s-67 -32 -67 -96v-407c0 -64 30.667 -96 92 -96h518c62 0 93 32 93 96v407c0 64 -22.667 96 -68 96
c-44.667 0 -67 -32 -67 -96z" />
    <glyph glyph-name="ugrave" unicode="&#xf9;" horiz-adv-x="907" 
d="M480 113h156.998v390c0 64 22.333 96 67 96c45.333 0 68 -32 68 -96v-390h45c18.667 0 33.334 -5 44.001 -15s16 -25 16 -45c0 -19.333 -5.33301 -33 -16 -41s-25.334 -12 -44.001 -12h-656c-61.333 0 -92 32 -92 96v407c0 64 22.333 96 67 96s67 -32 67 -96v-390h157
v390c0 32 4.33301 56 13 72s24.334 24 47.001 24s38.334 -8 47.001 -24s13 -40 13 -72v-390z" />
    <glyph glyph-name="ugrave" unicode="&#x449;" horiz-adv-x="907" 
d="M480 113h156.998v390c0 64 22.333 96 67 96c45.333 0 68 -32 68 -96v-390h45c18.667 0 33.334 -5 44.001 -15s16 -25 16 -45c0 -19.333 -5.33301 -33 -16 -41s-25.334 -12 -44.001 -12h-656c-61.333 0 -92 32 -92 96v407c0 64 22.333 96 67 96s67 -32 67 -96v-390h157
v390c0 32 4.33301 56 13 72s24.334 24 47.001 24s38.334 -8 47.001 -24s13 -40 13 -72v-390z" />
    <glyph glyph-name="uacute" unicode="&#xfa;" horiz-adv-x="704" 
d="M343 124v155h58c61.333 0 92 -26 92 -78c0 -51.333 -30.667 -77 -92 -77h-58zM208 471l0.00195312 -376.002c0 -32.667 6.16699 -56.667 18.5 -72s37.166 -23 74.499 -23h122c67.333 0 120 18.333 158 55s57 85.334 57 146.001c0 62 -17.833 111 -53.5 147
s-86.167 54 -151.5 54h-90v101c0 32.667 -3.33301 55.5 -10 68.5s-22.334 19.5 -47.001 19.5h-155c-18.667 0 -33.334 -5 -44.001 -15s-16 -25 -16 -45c0 -19.333 5.33301 -34.166 16 -44.499s25.334 -15.5 44.001 -15.5h77z" />
    <glyph glyph-name="uacute" unicode="&#x44a;" horiz-adv-x="704" 
d="M343 124v155h58c61.333 0 92 -26 92 -78c0 -51.333 -30.667 -77 -92 -77h-58zM208 471l0.00195312 -376.002c0 -32.667 6.16699 -56.667 18.5 -72s37.166 -23 74.499 -23h122c67.333 0 120 18.333 158 55s57 85.334 57 146.001c0 62 -17.833 111 -53.5 147
s-86.167 54 -151.5 54h-90v101c0 32.667 -3.33301 55.5 -10 68.5s-22.334 19.5 -47.001 19.5h-155c-18.667 0 -33.334 -5 -44.001 -15s-16 -25 -16 -45c0 -19.333 5.33301 -34.166 16 -44.499s25.334 -15.5 44.001 -15.5h77z" />
    <glyph glyph-name="ucircumflex" unicode="&#xfb;" horiz-adv-x="743" 
d="M201 124v155h43c61.333 0 92 -26 92 -78c0 -51.333 -30.667 -77 -92 -77h-43zM201 402l0.000976562 100.999c0 64 -22.333 96 -67 96s-67 -32 -67 -96v-408c0 -32.667 6 -56.667 18 -72s37 -23 75 -23h101c67.333 0 120.166 18.333 158.499 55s57.5 85.334 57.5 146.001
c0 62 -17.833 111 -53.5 147s-86.167 54 -151.5 54h-71zM687.001 87.999v415c0 64 -22.667 96 -68 96c-44.667 0 -67 -32 -67 -96v-415c0 -63.333 22.333 -95 67 -95c45.333 0 68 31.667 68 95z" />
    <glyph glyph-name="ucircumflex" unicode="&#x44b;" horiz-adv-x="743" 
d="M201 124v155h43c61.333 0 92 -26 92 -78c0 -51.333 -30.667 -77 -92 -77h-43zM201 402l0.000976562 100.999c0 64 -22.333 96 -67 96s-67 -32 -67 -96v-408c0 -32.667 6 -56.667 18 -72s37 -23 75 -23h101c67.333 0 120.166 18.333 158.499 55s57.5 85.334 57.5 146.001
c0 62 -17.833 111 -53.5 147s-86.167 54 -151.5 54h-71zM687.001 87.999v415c0 64 -22.667 96 -68 96c-44.667 0 -67 -32 -67 -96v-415c0 -63.333 22.333 -95 67 -95c45.333 0 68 31.667 68 95z" />
    <glyph glyph-name="udieresis" unicode="&#xfc;" horiz-adv-x="566" 
d="M198 124v155h58c62 0 93 -26 93 -78c0 -51.333 -31 -77 -93 -77h-58zM198 402v100.999c0 64 -22.333 96 -67 96s-67 -32 -67 -96v-408c0 -32.667 6 -56.667 18 -72s37 -23 75 -23h121c68 0 121.167 18.333 159.5 55s57.5 85.334 57.5 146.001c0 62 -18 111 -54 147
s-86.667 54 -152 54h-91z" />
    <glyph glyph-name="udieresis" unicode="&#x44c;" horiz-adv-x="566" 
d="M198 124v155h58c62 0 93 -26 93 -78c0 -51.333 -31 -77 -93 -77h-58zM198 402v100.999c0 64 -22.333 96 -67 96s-67 -32 -67 -96v-408c0 -32.667 6 -56.667 18 -72s37 -23 75 -23h121c68 0 121.167 18.333 159.5 55s57.5 85.334 57.5 146.001c0 62 -18 111 -54 147
s-86.667 54 -152 54h-91z" />
    <glyph glyph-name="yacute" unicode="&#xfd;" horiz-adv-x="609" 
d="M236 249h154.999c-4.66699 -40.667 -20 -72.5 -46 -95.5s-58.333 -34.5 -97 -34.5c-27.333 0 -50.833 4.83301 -70.5 14.5s-36.834 14.5 -51.501 14.5c-13.333 0 -25.5 -5.83301 -36.5 -17.5s-16.5 -25.167 -16.5 -40.5c0 -25.333 16.667 -47.833 50 -67.5
s77 -29.5 131 -29.5c42 0 80.333 7 115 21s64.5 34 89.5 60s44.333 57.667 58 95s20.5 79.333 20.5 126c0 46 -7.33301 87.833 -22 125.5s-34.834 69.667 -60.501 96s-55.667 46.666 -90 60.999s-71.5 21.5 -111.5 21.5c-51.333 0 -93 -9.5 -125 -28.5
s-48 -40.167 -48 -63.5c0 -15.333 5.5 -28.833 16.5 -40.5s24.167 -17.5 39.5 -17.5c14.667 0 31.667 3.83301 51 11.5s41 11.5 65 11.5c36.667 0 67.834 -10.167 93.501 -30.5s40.834 -47.5 45.501 -81.5h-154c-42.667 0 -64 -18 -64 -54
c0 -17.333 5.33301 -31.166 16 -41.499s26.334 -15.5 47.001 -15.5z" />
    <glyph glyph-name="yacute" unicode="&#x44d;" horiz-adv-x="609" 
d="M236 249h154.999c-4.66699 -40.667 -20 -72.5 -46 -95.5s-58.333 -34.5 -97 -34.5c-27.333 0 -50.833 4.83301 -70.5 14.5s-36.834 14.5 -51.501 14.5c-13.333 0 -25.5 -5.83301 -36.5 -17.5s-16.5 -25.167 -16.5 -40.5c0 -25.333 16.667 -47.833 50 -67.5
s77 -29.5 131 -29.5c42 0 80.333 7 115 21s64.5 34 89.5 60s44.333 57.667 58 95s20.5 79.333 20.5 126c0 46 -7.33301 87.833 -22 125.5s-34.834 69.667 -60.501 96s-55.667 46.666 -90 60.999s-71.5 21.5 -111.5 21.5c-51.333 0 -93 -9.5 -125 -28.5
s-48 -40.167 -48 -63.5c0 -15.333 5.5 -28.833 16.5 -40.5s24.167 -17.5 39.5 -17.5c14.667 0 31.667 3.83301 51 11.5s41 11.5 65 11.5c36.667 0 67.834 -10.167 93.501 -30.5s40.834 -47.5 45.501 -81.5h-154c-42.667 0 -64 -18 -64 -54
c0 -17.333 5.33301 -31.166 16 -41.499s26.334 -15.5 47.001 -15.5z" />
    <glyph glyph-name="thorn" unicode="&#xfe;" horiz-adv-x="838" 
d="M291 361h-88.001v142c0 64 -22.333 96 -67 96s-67 -32 -67 -96v-415c0 -63.333 22.333 -95 67 -95s67 31.667 67 95v161h86c7.33301 -83.333 33 -146.833 77 -190.5s100 -65.5 168 -65.5c73.333 0 132.833 25.833 178.5 77.5s68.5 126.5 68.5 224.5
c0 98.667 -22.833 174 -68.5 226s-105.167 78 -178.5 78c-65.333 0 -119.666 -20.5 -162.999 -61.5s-70 -99.833 -80 -176.5zM533.999 484c32 0 57.833 -16.167 77.5 -48.5s29.5 -78.833 29.5 -139.5s-9.83301 -107.334 -29.5 -140.001s-45.5 -49 -77.5 -49
s-57.833 16.333 -77.5 49s-29.5 79.334 -29.5 140.001s10 107.167 30 139.5s45.667 48.5 77 48.5z" />
    <glyph glyph-name="thorn" unicode="&#x44e;" horiz-adv-x="838" 
d="M291 361h-88.001v142c0 64 -22.333 96 -67 96s-67 -32 -67 -96v-415c0 -63.333 22.333 -95 67 -95s67 31.667 67 95v161h86c7.33301 -83.333 33 -146.833 77 -190.5s100 -65.5 168 -65.5c73.333 0 132.833 25.833 178.5 77.5s68.5 126.5 68.5 224.5
c0 98.667 -22.833 174 -68.5 226s-105.167 78 -178.5 78c-65.333 0 -119.666 -20.5 -162.999 -61.5s-70 -99.833 -80 -176.5zM533.999 484c32 0 57.833 -16.167 77.5 -48.5s29.5 -78.833 29.5 -139.5s-9.83301 -107.334 -29.5 -140.001s-45.5 -49 -77.5 -49
s-57.833 16.333 -77.5 49s-29.5 79.334 -29.5 140.001s10 107.167 30 139.5s45.667 48.5 77 48.5z" />
    <glyph glyph-name="ydieresis" unicode="&#xff;" horiz-adv-x="580" 
d="M360 467l-0.000976562 -144h-62c-27.333 0 -48.5 6.5 -63.5 19.5s-22.5 31.167 -22.5 54.5c0 22 7.33301 39.167 22 51.5s35.334 18.5 62.001 18.5h64zM494.999 88l-0.00195312 408.999c0 32.667 -6.16699 56.5 -18.5 71.5s-37.166 22.5 -74.499 22.5h-105
c-72.667 0 -128.334 -17 -167.001 -51s-58 -78.333 -58 -133c0 -42.667 12.333 -78.167 37 -106.5s59.334 -46.166 104.001 -53.499l-106 -118c-26.667 -29.333 -40 -55 -40 -77c0 -17.333 6.16699 -31.5 18.5 -42.5s27.833 -16.5 46.5 -16.5c13.333 0 25.333 3.5 36 10.5
s22.334 17.833 35.001 32.5l157 198v-146c0 -63.333 22.667 -95 68 -95c44.667 0 67 31.667 67 95z" />
    <glyph glyph-name="ydieresis" unicode="&#x44f;" horiz-adv-x="580" 
d="M360 467l-0.000976562 -144h-62c-27.333 0 -48.5 6.5 -63.5 19.5s-22.5 31.167 -22.5 54.5c0 22 7.33301 39.167 22 51.5s35.334 18.5 62.001 18.5h64zM494.999 88l-0.00195312 408.999c0 32.667 -6.16699 56.5 -18.5 71.5s-37.166 22.5 -74.499 22.5h-105
c-72.667 0 -128.334 -17 -167.001 -51s-58 -78.333 -58 -133c0 -42.667 12.333 -78.167 37 -106.5s59.334 -46.166 104.001 -53.499l-106 -118c-26.667 -29.333 -40 -55 -40 -77c0 -17.333 6.16699 -31.5 18.5 -42.5s27.833 -16.5 46.5 -16.5c13.333 0 25.333 3.5 36 10.5
s22.334 17.833 35.001 32.5l157 198v-146c0 -63.333 22.667 -95 68 -95c44.667 0 67 31.667 67 95z" />
    <glyph glyph-name="guilsinglleft" unicode="&#x2039;" horiz-adv-x="320" 
d="M228 246l-72.002 53.0049l72 53c8 6 14.667 12 20 18s8 15.667 8 29c0 16 -3.16699 28.167 -9.5 36.5s-14.166 12.5 -23.499 12.5c-11.333 0 -23.333 -3.83301 -36 -11.5s-27.334 -17.834 -44.001 -30.501c-24 -17.333 -42.333 -33 -55 -47s-19 -34 -19 -60
c0 -26.667 6.66699 -46.834 20 -60.501s31.333 -28.834 54 -45.501c16.667 -12.667 31.334 -22.834 44.001 -30.501s24.334 -11.5 35.001 -11.5c10 0 18.167 4.16699 24.5 12.5s9.5 20.166 9.5 35.499c0 14 -2.66699 23.833 -8 29.5s-12 11.5 -20 17.5z" />
    <glyph glyph-name="guilsinglright" unicode="&#x203a;" horiz-adv-x="316" 
d="M98 352l71.0029 -53l-71 -54c-8 -5.33301 -14.5 -11 -19.5 -17s-7.5 -16 -7.5 -30c0 -32 10.667 -48 32 -48c10.667 0 22.167 3.66699 34.5 11s27.166 17.333 44.499 30c23.333 17.333 41.666 33.166 54.999 47.499s20 34.5 20 60.5s-6.83301 46 -20.5 60
s-31.834 29.333 -54.501 46c-17.333 12.667 -31.833 22.834 -43.5 30.501s-22.834 11.5 -33.501 11.5c-22.667 0 -34 -16 -34 -48c0 -14 2.33301 -23.833 7 -29.5s11.334 -11.5 20.001 -17.5z" />
  </font>
</defs>
</svg>
