<?xml version="1.0" encoding="UTF-8"?>
<!DOCTYPE svg PUBLIC "-//W3C//DTD SVG 1.1//EN" "http://www.w3.org/Graphics/SVG/1.1/DTD/svg11.dtd">
<!-- Creator: CorelDRAW X6 -->
<svg xmlns="http://www.w3.org/2000/svg" xml:space="preserve" width="30mm" height="30mm" version="1.1" style="shape-rendering:geometricPrecision; text-rendering:geometricPrecision; image-rendering:optimizeQuality; fill-rule:evenodd; clip-rule:evenodd"
viewBox="0 0 3000 3000"
 xmlns:xlink="http://www.w3.org/1999/xlink">
 <defs>
  <style type="text/css">
   <![CDATA[
    .str0 {stroke:#2B2A29;stroke-width:50;stroke-linejoin:round}
    .fil1 {fill:none}
    .fil2 {fill:#2B2A29}
    .fil3 {fill:#FEFEFE}
    .fil4 {fill:#A36B36}
    .fil0 {fill:#EC9C12}
   ]]>
  </style>
 </defs>
 <g id="Слой_x0020_1">
  <metadata id="CorelCorpID_0Corel-Layer"/>
  <g id="_1019195376">
   <path class="fil0 str0" d="M889 627c-35,384 340,401 379,19 370,226 415,898 -238,879 -574,-17 -580,-748 -141,-898z"/>
   <path class="fil1 str0" d="M863 1290c-4,111 169,145 196,8 10,105 162,126 198,-8"/>
   <path class="fil2 str0" d="M988 1234c0,0 -56,-45 -27,-50 13,-2 253,-33 189,31 -16,16 -91,83 -91,83l-71 -64z"/>
   <line class="fil1 str0" x1="771" y1="1202" x2="413" y2= "1202" />
   <line class="fil1 str0" x1="768" y1="1319" x2="427" y2= "1321" />
   <line class="fil1 str0" x1="1355" y1="1202" x2="1522" y2= "1204" />
   <line class="fil1 str0" x1="1358" y1="1311" x2="1478" y2= "1318" />
   <circle class="fil3 str0" cx="911" cy="1057" r="66"/>
   <circle class="fil3 str0" cx="1234" cy="1060" r="66"/>
   <circle class="fil2 str0" cx="944" cy="1057" r="22"/>
   <circle class="fil2 str0" cx="1267" cy="1060" r="22"/>
   <path class="fil0 str0" d="M831 1483c-90,167 -144,152 -272,294 -147,162 -177,320 -13,479 50,48 97,74 97,74l-16 25c-405,-187 -252,-466 -131,-615 12,-14 24,-27 34,-41 4,-5 8,-11 12,-16 74,-109 -69,-201 -200,-105 -611,448 128,1290 548,995 68,-48 81,-172 80,-224l-1 -332c0,0 -8,403 16,490 33,120 150,130 188,2 40,-138 28,-345 28,-490l23 441c10,191 200,171 200,-29l2 -419c0,0 86,-111 65,-216 -21,-106 -107,-104 -125,-168 -19,-63 -17,-177 -17,-177 0,0 -145,79 -266,74 -121,-6 -185,-24 -252,-42z"/>
   <path class="fil4 str0" d="M1349 1458c0,0 0,17 10,138 9,122 320,208 563,191 353,-24 444,-275 243,-548 -31,-42 -84,-208 -30,-366 34,-99 217,-334 283,-141 14,40 29,92 62,137 61,83 132,85 185,29 126,-136 46,-298 -47,-429 -158,-224 -493,-41 -588,157 -141,-71 -308,-108 -450,-19 0,0 -129,-212 -262,-233 -490,-78 -514,438 -317,534 57,28 143,3 183,-44 49,-58 79,-173 76,-201 -5,-45 56,8 113,69 57,61 142,166 156,306 13,133 17,288 -180,420z"/>
   <path class="fil2 str0" d="M1761 1329c-21,3 -37,12 -58,-4 -21,-16 -30,-54 0,-63 32,-10 182,-24 208,5 18,21 22,57 1,60 -31,4 -50,-7 -62,5 -9,9 -11,18 -14,25 -7,20 -43,21 -54,7 -11,-13 -6,-37 -21,-35z"/>
   <path class="fil1 str0" d="M1811 1373c10,334 -273,317 -278,77"/>
   <path class="fil1 str0" d="M1811 1386c-12,301 206,300 267,82"/>
   <circle class="fil3 str0" cx="1678" cy="1064" r="65"/>
   <circle class="fil3 str0" cx="1928" cy="1059" r="65"/>
   <circle class="fil2 str0" cx="1648" cy="1069" r="20"/>
   <circle class="fil2 str0" cx="1901" cy="1063" r="21"/>
   <path class="fil4 str0" d="M2233 1642c0,0 9,89 88,134 80,45 305,26 328,198 32,226 -82,336 -270,347 0,0 175,118 294,-123 43,-87 99,-91 137,-77 97,35 125,236 -20,341 -169,122 -712,271 -712,-59 0,-143 -10,-372 -10,-372l12 432c2,77 -74,128 -153,129 -71,1 -143,-34 -150,-157 -8,-130 1,-329 -7,-410 -13,-8 -30,1 -30,1l-15 425c-7,207 -285,170 -293,-5 -7,-140 -6,-434 -6,-434 54,-76 121,-213 -2,-319 71,38 584,228 809,-51z"/>
  </g>
 </g>
</svg>
