<svg xmlns="http://www.w3.org/2000/svg" viewBox="0 0 5600 4600" shape-rendering="geometricPrecision" text-rendering="geometricPrecision" image-rendering="optimizeQuality" fill-rule="evenodd" clip-rule="evenodd">
  <defs>
    <style>
<![CDATA[
    .fil2 {fill:#2B2A29;fill-rule:nonzero}
    .fil1 {fill:#A9692F;fill-rule:nonzero}
    .fil0 {fill:#F39314;fill-rule:nonzero}
    .fil3 {fill:#FEFEFE;fill-rule:nonzero}
   ]]>
    </style>
  </defs>
  <g id="Слой_x0020_1">
    <g id="_764292016">
      <path class="fil0" d="M2516 2009h-33c-30 0-55-25-55-56 0-30 25-55 55-55h106c17-31 33-62 46-95h-152c-30 0-55-25-55-56 0-30 25-55 55-55h188c17-68 27-140 27-214 0-288-142-554-374-710-19 39-41 95-58 137-76 188-114 282-202 282-10 0-19-1-28-4-31-10-82-15-137-15s-106 5-137 15c-9 3-18 4-28 4-81 0-124-79-222-272-24-46-55-109-79-149-234 156-377 423-377 712 0 74 10 146 27 214h221c30 0 55 25 55 55 0 31-25 56-55 56h-185c13 33 29 64 46 95h139c30 0 55 25 55 55 0 31-25 56-55 56h-66c150 193 381 316 639 316s489-123 639-316zm-1062-104c0-36 29-65 65-65 37 0 66 29 66 65 0 72 56 131 124 131 59 0 109-43 121-101v-1c-61-43-121-131-121-185 0-73 109-75 183-75 73 0 183 2 183 75 0 53-54 139-112 183v2c14 56 63 97 120 97 69 0 125-59 125-132 0-36 29-65 65-65s65 29 65 65c0 145-114 262-255 262-72 0-138-31-184-81-47 53-115 87-190 87-140 0-255-118-255-262z"/>
      <path class="fil1" d="M1743 974c3 7 4 14 5 21 3 5 6 9 9 14 53-10 109-12 142-12 31 0 84 1 136 11 22-42 52-117 72-167 73-180 110-270 195-270 16 0 32 4 46 12 321 178 521 521 521 895 0 267-101 509-264 691-12 31-28 78-32 104-7 54-6 136 38 222 31 55 73 93 117 134 10 9 20 19 30 28 153 108 353 175 538 180 371 11 667-84 793-254 77-103 89-235 36-391-19-59-53-128-88-201-167-345-420-866 309-1375 35-24 76-32 114-20 88 26 133 136 185 263 22 54 57 141 82 168 54 12 199 13 233-11 93-217 85-427-24-593-90-138-242-224-396-224-315 0-521 237-620 352-40 46-60 69-88 80-25 11-54 8-76-8-1 0-141-91-393-78-183 8-282 42-348 64-65 22-147 49-208-36-247-343-563-390-615-384-180 20-314 85-397 191-112 145-107 333-93 432 8 59 22 116 41 162zm1157 1264c0 146 86 264 193 264 106 0 193-118 193-264v-170h-101c-69 0-125-56-125-126 0-69 56-125 125-125h342c69 0 126 56 126 125 0 70-57 126-126 126h-100v170c0 146 86 264 193 264 106 0 193-118 193-264 0-39 31-71 70-71s70 32 70 71c0 223-149 405-333 405-107 0-203-61-264-157-61 96-156 157-263 157-184 0-334-182-334-405 0-39 32-71 70-71 39 0 71 32 71 71z"/>
      <path class="fil0" d="M2611 2754c-49-46-105-98-150-176 0-1-1-2-2-3-42-84-57-164-60-232-151 97-330 153-522 153-138 0-270-29-390-82-7 39-22 82-47 131-3 7-8 13-13 19-121 132-247 222-358 302-205 147-340 244-348 497-15 459 314 511 351 516 47 5 81 48 75 94-5 44-41 76-84 76h-9c-6-1-525-63-504-691 1-18 2-35 4-52-3-203 99-347 180-462 102-144 110-176 63-232-43-50-98-63-166-38-203 75-423 428-423 867 0 387 154 614 283 736 169 162 375 219 510 219h426c14 1 133 6 185-96-1-7-2-13-2-19v-895c0-47 39-85 86-85s85 38 85 85v895c0 1 1 2 1 3 1 3 2 5 2 8 14 38 72 104 109 104h78c41 0 108-81 112-116v-894c0-47 38-85 85-85 48 0 86 38 86 85v895c3 34 71 115 112 115h77c41 0 109-81 112-116v-909c0-26 13-51 33-67 6-5 147-120 143-338-2-102-49-145-120-212z"/>
      <path class="fil1" d="M5300 3667c-67-35-172-28-257 91-14 23-29 45-47 66-168 200-457 210-469 210h-3c-46 0-84-37-85-83-1-47 36-87 83-88 2 0 226-8 344-149 5-6 9-13 14-19 5-8 9-16 14-23 42-72 56-165 39-276-27-189-118-226-284-292-148-59-330-132-512-339-169 149-452 233-788 233h-57c-130-4-267-34-394-85 2 16 4 32 4 50 4 234-116 385-176 446v869c9 30 94 118 172 118h101c78 0 163-88 172-118v-892c0-47 38-85 85-85 48 0 86 38 86 85v892c9 30 94 118 171 118h102c78 0 162-88 172-118v-892c0-47 38-85 85-85s85 38 85 85v877c4 5 7 11 9 17 46 123 180 117 195 116 6 0 13 0 19 1 2 0 78 9 403-1 192-6 590-18 784-461 58-133 8-230-67-268z"/>
      <path class="fil2" d="M5378 3514c-76-38-173-49-267-17 1-40-2-82-8-126-43-286-211-354-390-425-143-58-304-123-465-314 62-105 104-266 29-491-23-69-58-142-96-220-167-345-357-736 240-1162 24 33 55 111 76 160 42 103 81 201 144 245 49 34 244 42 342 14 61-17 102-48 122-93 116-266 103-539-35-750-119-183-322-296-530-296-388 0-635 285-741 407-4 4-8 9-12 13-76-35-223-84-432-74-205 10-321 49-391 72-12 4-25 9-35 12-293-398-675-449-755-439-225 25-395 110-505 252-84 108-119 231-130 340-28-33-56-49-91-49-16 0-33 4-47 12-318 179-516 522-516 893 0 74 8 145 23 214H681c-31 0-56 25-56 55 0 31 25 56 56 56h256c11 32 23 64 37 95H681c-31 0-56 25-56 55 0 31 25 56 56 56h350c73 122 170 227 285 308v1s-2-1-4-4c11 13 22 59-19 143-99 106-201 182-301 254 11-66-3-137-65-210-90-105-220-137-355-87-263 97-535 508-535 1027 0 448 183 715 336 860 175 167 410 266 628 266h415c7 0 14 1 22 1 72 0 179-24 260-101 51 57 121 100 195 100h78c75 0 146-44 197-102 52 58 123 102 198 102h77c79 0 153-49 206-111 65 63 157 111 249 111h101c95 0 191-52 257-119 66 67 162 119 257 119h102c95 0 191-52 257-118 88 99 218 122 294 118 19 2 64 4 158 4 64 0 149-1 264-4 209-7 698-21 935-564 98-222 1-414-145-489zM1795 380c83-106 217-171 397-191 52-6 368 41 615 384 61 85 143 58 208 36 66-22 165-56 348-64 252-13 392 78 393 78 22 16 51 19 76 8 28-11 48-34 88-80 99-115 305-352 620-352 154 0 306 86 396 224 109 166 117 376 24 593-34 24-179 23-233 11-25-27-60-114-82-168-52-127-97-237-185-263-38-12-79-4-114 20-729 509-476 1030-309 1375 35 73 69 142 88 201 53 156 41 288-36 391-126 170-422 265-793 254-185-5-385-72-538-180-10-9-20-19-30-28-44-41-86-79-117-134-44-86-45-168-38-222 4-26 20-73 32-104 163-182 264-424 264-691 0-374-200-717-521-895-14-8-30-12-46-12-85 0-122 90-195 270-20 50-50 125-72 167-52-10-105-11-136-11-33 0-89 2-142 12-3-5-6-9-9-14-1-7-2-14-5-21-19-46-33-103-41-162-14-99-19-287 93-432zm-557 1629h66c30 0 55-25 55-56 0-30-25-55-55-55h-139c-17-31-33-62-46-95h185c30 0 55-25 55-56 0-30-25-55-55-55h-221c-17-68-27-140-27-214 0-289 143-556 377-712 24 40 55 103 79 149 98 193 141 272 222 272 10 0 19-1 28-4 31-10 82-15 137-15s106 5 137 15c9 3 18 4 28 4 88 0 126-94 202-282 17-42 39-98 58-137 232 156 374 422 374 710 0 74-10 146-27 214h-188c-30 0-55 25-55 55 0 31 25 56 55 56h152c-13 33-29 64-46 95h-106c-30 0-55 25-55 55 0 31 25 56 55 56h33c-150 193-381 316-639 316s-489-123-639-316zm1350 1295c-20 16-33 41-33 67v909c-3 35-71 116-112 116h-77c-41 0-109-81-112-115v-895c0-47-38-85-86-85-47 0-85 38-85 85v894c-4 35-71 116-112 116h-78c-37 0-95-66-109-104 0-3-1-5-2-8 0-1-1-2-1-3v-895c0-47-38-85-85-85s-86 38-86 85v895c0 6 1 12 2 19-52 102-171 97-185 96h-426c-135 0-341-57-510-219-129-122-283-349-283-736 0-439 220-792 423-867 68-25 123-12 166 38 47 56 39 88-63 232-81 115-183 259-180 462-2 17-3 34-4 52-21 628 498 690 504 691h9c43 0 79-32 84-76 6-46-28-89-75-94-37-5-366-57-351-516 8-253 143-350 348-497 111-80 237-170 358-302 5-6 10-12 13-19 25-49 40-92 47-131 120 53 252 82 390 82 192 0 371-56 522-153 3 68 18 148 60 232 1 1 2 2 2 3 45 78 101 130 150 176 71 67 118 110 120 212 4 218-137 333-143 338zm2779 631c-194 443-592 455-784 461-325 10-401 1-403 1-6-1-13-1-19-1-15 1-149 7-195-116-2-6-5-12-9-17v-877c0-47-38-85-85-85s-85 38-85 85v892c-10 30-94 118-172 118h-102c-77 0-162-88-171-118v-892c0-47-38-85-86-85-47 0-85 38-85 85v892c-9 30-94 118-172 118h-101c-78 0-163-88-172-118v-869c60-61 180-212 176-446 0-18-2-34-4-50 127 51 264 81 394 85h57c336 0 619-84 788-233 182 207 364 280 512 339 166 66 257 103 284 292 17 111 3 204-39 276-5 7-9 15-14 23-5 6-9 13-14 19-118 141-342 149-344 149-47 1-84 41-83 88 1 46 39 83 85 83h3c12 0 301-10 469-210 18-21 33-43 47-66 85-119 190-126 257-91 75 38 125 135 67 268z"/>
      <path class="fil2" d="M1899 2080c46 50 112 81 184 81 141 0 255-117 255-262 0-36-29-65-65-65s-65 29-65 65c0 73-56 132-125 132-57 0-106-41-120-97v-2c58-44 112-130 112-183 0-73-110-75-183-75-74 0-183 2-183 75 0 54 60 142 121 185v1c-12 58-62 101-121 101-68 0-124-59-124-131 0-36-29-65-66-65-36 0-65 29-65 65 0 144 115 262 255 262 75 0 143-34 190-87zm860 158c0 223 150 405 334 405 107 0 202-61 263-157 61 96 157 157 264 157 184 0 333-182 333-405 0-39-31-71-70-71s-70 32-70 71c0 146-87 264-193 264-107 0-193-118-193-264v-170h100c69 0 126-56 126-126 0-69-57-125-126-125h-342c-69 0-125 56-125 125 0 70 56 126 125 126h101v170c0 146-87 264-193 264-107 0-193-118-193-264 0-39-32-71-71-71-38 0-70 32-70 71zm-365-782c0 89-72 161-160 161-89 0-161-72-161-161s72-161 161-161c88 0 160 72 160 161z"/>
      <path class="fil3" d="M2369 1432c0 38-30 69-68 69s-69-31-69-69c0-37 31-68 69-68s68 31 68 68z"/>
      <path class="fil2" d="M1751 1456c0 89-72 161-161 161-88 0-160-72-160-161s72-161 160-161c89 0 161 72 161 161z"/>
      <path class="fil3" d="M1726 1432c0 38-31 69-69 69s-68-31-68-69c0-37 30-68 68-68s69 31 69 68z"/>
      <path class="fil2" d="M2937 1456c0-89 72-161 161-161s161 72 161 161-72 161-161 161-161-72-161-161z"/>
      <path class="fil3" d="M2962 1479c0-38 31-68 69-68s69 30 69 68-31 69-69 69-69-31-69-69z"/>
      <path class="fil2" d="M3450 1456c0-89 72-161 161-161 88 0 160 72 160 161s-72 161-160 161c-89 0-161-72-161-161z"/>
      <path class="fil3" d="M3475 1479c0-38 31-68 69-68s68 30 68 68-30 69-68 69-69-31-69-69z"/>
    </g>
  </g>
</svg>
