<svg xmlns="http://www.w3.org/2000/svg" viewBox="0 0 25500 4900" shape-rendering="geometricPrecision" text-rendering="geometricPrecision" image-rendering="optimizeQuality" fill-rule="evenodd" clip-rule="evenodd">
  <defs>
    <style>
<![CDATA[
    .fil1 {fill:#2B2A29;fill-rule:nonzero}
    .fil2 {fill:#A9692F;fill-rule:nonzero}
    .fil0 {fill:#F39314;fill-rule:nonzero}
    .fil3 {fill:#FEFEFE;fill-rule:nonzero}
   ]]>
    </style>
  </defs>
  <g id="Слой_x0020_1">
    <g id="_764047520">
      <path class="fil0" d="M8611 4721c-114 0-202-53-254-154-33-59-58-153-76-286l-166-1205-243 1098c-34 148-73 253-118 320-71 102-172 153-300 153s-229-51-300-152c-45-65-84-170-118-321l-244-1089-162 1196c-18 136-43 231-77 291-55 98-144 149-258 149-111 0-297-45-297-349 0-32 8-102 23-213l259-1849c18-135 70-247 154-334 87-90 193-136 315-136 111 0 207 39 285 116 75 74 126 172 152 291l267 1296 265-1296c23-116 75-214 152-289 80-78 176-118 285-118 122 0 229 46 316 135 86 88 139 200 157 335l259 1849c13 94 20 164 20 213 0 304-185 349-296 349z"/>
      <path class="fil1" d="M8155 1894c108 0 200 40 278 119 77 79 124 181 142 304l258 1849c13 91 19 160 19 206 0 197-80 295-241 295-94 0-163-42-206-125-30-54-53-144-70-269l-204-1481-9 1-303 1369c-32 140-69 241-110 302-60 86-145 129-255 129s-195-43-255-129c-41-59-78-159-110-302l-307-1369h-5l-200 1481c-18 127-41 218-72 272-45 81-115 121-210 121-162 0-243-98-243-295 0-29 8-98 23-206l258-1849c17-123 64-225 141-304 76-79 168-119 275-119 97 0 179 34 247 101 67 67 113 155 137 264l314 1521h13l311-1522c22-106 67-193 137-262 70-68 152-102 247-102zm0-108c-123 0-232 45-322 133-86 83-142 190-168 318l-212 1037-214-1037c-28-131-84-238-167-319-89-88-197-132-323-132-137 0-256 51-354 152-92 96-149 218-169 365l-259 1848c-21 152-23 199-23 221 0 364 245 404 351 404 135 0 240-61 305-177 37-67 65-168 84-310l121-897 178 794c36 158 77 269 127 340 80 115 199 175 344 175s264-60 344-175c0 0 1-1 1-2 49-73 90-183 126-337l178-804 124 905c19 139 46 239 83 305 62 120 166 183 301 183 105 0 350-40 350-404 0-52-7-124-21-221l-258-1849c-20-146-78-269-172-365-98-100-218-151-355-151z"/>
      <path class="fil0" d="M10342 4721c-365 0-659-140-873-417-205-261-309-604-309-1020 0-415 104-760 309-1023 214-279 508-421 873-421 367 0 661 141 876 418 205 263 308 608 308 1026 0 416-103 760-308 1024-217 274-512 413-876 413zm0-2205c-170 0-296 77-386 236-79 139-119 321-119 540 0 211 42 387 125 524 90 154 214 229 380 229s291-74 383-226c82-138 124-316 124-527 0-219-40-401-118-540-92-158-219-236-389-236z"/>
      <path class="fil1" d="M10342 1894c351 0 628 133 833 397 198 255 297 586 297 993 0 406-99 736-297 990-207 262-484 393-833 393s-626-132-830-396c-198-253-297-581-297-987 0-405 99-735 297-989 204-267 481-401 830-401zm0 2205c185 0 328-84 429-252 89-148 133-333 133-555 0-230-42-419-126-567-101-175-247-263-436-263-190 0-334 88-433 263-84 148-126 337-126 567 0 222 44 406 132 552 99 170 242 255 427 255zm0-2313c-383 0-691 149-916 443-212 272-320 627-320 1055 0 429 108 783 320 1054 225 290 533 438 916 438 382 0 691-146 918-435 213-273 321-628 321-1057 0-430-108-787-320-1060-225-290-535-438-919-438zm0 2205c-147 0-253-64-333-202 0 0 0-1-1-2-77-127-117-294-117-495 0-210 38-382 112-513 81-142 188-208 339-208s260 66 342 208c74 131 111 303 111 513 0 201-39 369-117 500-82 135-189 199-336 199z"/>
      <path class="fil0" d="M13446 4721c-121 0-234-83-337-247l-433-702-428 696c-107 171-213 253-327 253-75 0-145-33-206-98-60-64-90-139-90-221 0-96 42-206 128-340l554-863-411-691c-87-143-129-252-129-332 0-98 30-179 89-241 60-63 136-95 224-95 117 0 223 87 325 265l280 487 294-495c101-170 213-257 335-257 78 0 147 33 205 98 56 64 84 139 84 224 0 88-42 201-129 347l-415 693 555 864c89 136 132 247 132 339 0 86-31 160-90 222-60 63-131 94-210 94z"/>
      <path class="fil1" d="M13314 1894c62 0 117 27 164 80 48 54 71 116 71 188 0 77-40 183-121 320l-433 721 574 893c81 125 122 228 122 309 0 72-24 133-74 185-50 51-107 77-171 77-102 0-199-74-291-222l-479-776-474 771c-95 151-189 227-281 227-60 0-115-27-166-81-50-54-76-115-76-184 0-84 40-187 120-310l572-892-429-720c-80-133-121-235-121-304 0-84 25-152 75-204 49-52 111-78 184-78 95 0 187 80 278 238l326 568 342-576c91-153 186-230 288-230zm0-108c-142 0-270 95-381 283l-248 416-233-407c-113-197-234-292-372-292-102 0-193 38-263 111-69 73-104 167-104 279 0 91 43 206 136 360l395 662-536 835c-92 142-137 263-137 369 0 97 35 183 105 258 71 77 154 116 245 116 134 0 256-91 373-279l382-621 386 626c114 182 243 274 384 274 93 0 180-39 249-111 70-72 105-160 105-260 0-103-46-224-140-369l-537-835 398-663c92-156 137-278 137-376 0-99-33-186-99-260-67-76-152-116-245-116z"/>
      <path class="fil0" d="M15862 4721c-147 0-322-85-322-492v-636h-880v636c0 407-175 492-322 492s-322-85-322-491V2332c0-407 175-492 322-492s322 86 322 492v585h880v-585c0-406 175-492 322-492s322 85 322 492v1898c0 406-175 491-322 491z"/>
      <path class="fil1" d="M15862 1894c179 0 268 146 268 438v1898c0 291-89 437-268 437s-268-146-268-438v-690h-988v690c0 292-89 438-268 438s-268-146-268-437V2332c0-292 89-438 268-438s268 146 268 438v639h988v-639c0-292 89-438 268-438zm0-108c-140 0-376 71-376 546v530h-772v-530c0-475-236-546-376-546-141 0-377 71-377 546v1898c0 475 236 546 377 546 140 0 376-71 376-547v-582h772v582c0 476 236 547 376 547 141 0 377-71 377-546V2332c0-475-236-546-377-546z"/>
      <path class="fil0" d="M18372 4721c-162 0-276-111-336-331l-77-277h-751l-85 300c-59 205-164 308-311 308-91 0-167-33-224-97s-85-146-85-246c0-70 9-135 28-194l614-1910c94-290 249-438 462-438 217 0 368 133 449 395l594 1946c28 90 41 158 41 208 0 99-31 180-93 243-62 62-138 93-226 93zm-588-1262l-191-705-199 705h390z"/>
      <path class="fil1" d="M17607 1891c191 0 324 118 397 355l594 1947c26 84 39 148 39 192 0 85-26 153-78 204-51 52-114 78-187 78-136 0-230-97-284-291l-87-318h-834l-96 340c-52 179-138 269-259 269-75 0-137-26-184-80-47-53-71-122-71-209 0-64 9-123 26-178l614-1909c86-267 222-400 410-400zm-285 1622h533l-258-951h-6l-269 951zm285-1731c-165 0-387 83-514 476l-613 1909c-21 65-31 136-31 211 0 114 33 208 98 282 68 76 159 116 265 116 120 0 280-61 363-348l74-261h669l65 237c85 307 259 372 389 372 103 0 192-37 264-110 73-73 109-167 109-281 0-55-14-129-43-224l-594-1946c-111-358-334-433-501-433zm-141 1622l126-447 122 447h-248z"/>
      <path class="fil0" d="M19477 4721c-148 0-325-85-325-491V2557c-224-1-291-12-322-20-167-40-256-151-256-320 0-157 75-343 435-343h933c360 0 436 186 436 343 0 169-90 280-258 320-30 8-97 19-321 20v1673c0 406-175 491-322 491z"/>
      <path class="fil1" d="M19942 1928c254 0 381 96 381 289 0 144-72 233-216 268-47 12-168 18-362 18v1727c0 291-89 437-268 437-181 0-271-146-271-437V2503c-194 0-315-6-362-18-144-35-216-124-216-268 0-193 127-289 381-289h933zm0-109h-933c-426 0-490 250-490 398 0 194 106 326 299 373 33 8 97 18 279 21v1619c0 475 238 546 380 546 141 0 377-71 377-546V2611c182-3 246-13 279-21 193-47 299-179 299-373 0-148-64-398-490-398z"/>
      <path class="fil0" d="M22558 4721c-147 0-322-85-322-491V3167l-873 1326c-101 152-220 228-355 228s-297-73-297-421V2332c0-407 176-492 323-492s322 86 322 492v1088l892-1355c98-149 209-225 329-225 139 0 303 82 303 469v1921c0 406-175 491-322 491z"/>
      <path class="fil1" d="M22577 1894c166 0 249 139 249 415v1921c0 291-89 437-268 437s-268-145-268-437V2986l-972 1477c-91 136-194 204-310 204-162 0-242-122-242-367V2332c0-292 89-438 268-438 178 0 268 146 268 438v1269l991-1506c88-134 183-201 284-201zm0-108c-139 0-265 84-374 249l-793 1204v-907c0-475-236-546-376-546-141 0-377 71-377 546v1968c0 414 220 476 351 476 154 0 289-85 400-253l774-1175v882c0 475 235 546 376 546s377-71 377-546V2309c0-455-224-523-358-523z"/>
      <path class="fil0" d="M24890 4721c-147 0-322-85-322-490v-493l-528 760c-103 148-213 223-329 223-85 0-159-31-220-91-61-61-92-140-92-233 0-113 55-239 170-386l371-475c-146-43-266-124-358-240-109-138-164-314-164-523 0-263 83-481 247-648s401-251 705-251h417c160 0 270 37 334 113 62 74 92 197 92 374v1869c0 406-176 491-323 491zm-523-2171c-195 0-282 83-282 269 0 196 89 283 289 283h194v-552h-201z"/>
      <path class="fil1" d="M24787 1928c142 0 240 31 292 94 53 63 79 176 79 339v1869c0 291-89 437-268 437-178 0-268-145-268-436v-666l-626 902c-93 134-188 200-284 200-72 0-132-25-183-76-51-50-76-115-76-194 0-99 53-217 158-353l423-541c-172-32-309-112-410-241-101-128-151-291-151-489 0-250 76-453 230-610s377-235 667-235h417zm-413 1228h248v-660h-255c-224 0-336 107-336 323 0 225 114 337 343 337zm413-1337h-417c-319 0-570 90-744 268-174 177-262 408-262 686 0 222 59 409 175 556 83 106 187 184 311 234l-324 415c-122 157-181 294-181 419 0 108 36 199 107 271 71 70 160 108 260 108 133 0 259-83 373-247l429-618v320c0 474 236 545 376 545 141 0 377-71 377-546V2361c0-191-34-324-105-408-75-90-198-134-375-134zm-413 1229c-169 0-234-64-234-229 0-155 63-215 227-215h147v444h-140z"/>
      <path class="fil0" d="M2712 2105h-33c-31 0-55-25-55-56 0-30 24-55 55-55h106c17-31 32-63 46-95h-152c-31 0-55-25-55-56 0-30 24-55 55-55h188c17-68 26-140 26-214 0-288-141-555-373-710-19 39-42 95-59 137-76 188-114 282-201 282-10 0-20-2-29-4-31-10-82-16-136-16-55 0-106 6-137 16-9 2-19 4-29 4-80 0-123-79-222-273-23-45-55-108-79-148-233 155-376 423-376 712 0 74 9 146 27 214h221c30 0 55 25 55 55 0 31-25 56-55 56h-185c13 32 28 64 45 95h140c30 0 55 25 55 55 0 31-25 56-55 56h-67c151 192 382 316 640 316s488-124 639-316zm-1062-104c0-36 29-66 65-66s66 30 66 66c0 72 55 131 124 131 59 0 108-43 121-101v-1c-61-44-121-132-121-185 0-74 109-75 183-75 73 0 183 1 183 75 0 53-54 138-112 183v2c14 55 62 97 120 97 68 0 124-59 124-132 0-36 30-65 66-65s65 29 65 65c0 145-115 262-255 262-73 0-138-31-185-81-46 53-114 87-189 87-141 0-255-118-255-262z"/>
      <path class="fil2" d="M1939 1070c3 7 4 14 5 21 3 4 6 9 9 13 53-10 109-11 142-11 31 0 84 1 136 10 21-41 52-116 72-166 73-180 109-271 194-271 16 0 32 5 47 12 321 179 520 522 520 896 0 267-100 509-264 691-12 31-28 78-31 103-7 54-6 137 37 223 32 54 73 93 117 134 10 9 20 19 30 28 154 108 353 175 539 180 371 11 667-84 793-254 76-103 89-235 36-391-20-59-53-128-88-201-168-345-420-866 309-1375 35-25 76-32 114-21 88 26 133 136 185 264 22 54 57 141 81 168 55 11 200 13 234-11 93-217 85-428-24-594-90-137-242-223-396-223-316 0-521 237-620 351-40 46-60 69-89 81-25 11-53 8-76-8-1 0-140-91-392-79-183 9-283 43-349 65-65 22-146 49-207-36-247-343-563-390-615-385-181 21-314 86-397 192-113 145-107 332-94 431 8 60 23 117 42 163zm1157 1264c0 146 86 264 193 264 106 0 193-118 193-264v-170h-101c-69 0-126-57-126-126s57-126 126-126h342c69 0 125 57 125 126s-56 126-125 126h-101v170c0 146 87 264 193 264 107 0 193-118 193-264 0-39 32-71 71-71 38 0 70 32 70 71 0 223-150 405-334 405-107 0-202-62-263-157-61 95-157 157-263 157-184 0-334-182-334-405 0-39 31-71 70-71s71 32 71 71z"/>
      <path class="fil0" d="M2807 2850c-49-46-105-98-150-176-1-1-1-2-2-4-43-83-58-163-60-231-152 97-331 153-522 153-139 0-271-29-390-82-8 38-22 82-47 131-4 7-8 13-13 19-121 132-247 222-359 302-204 147-339 244-347 497-16 459 313 511 351 516 47 5 80 47 75 94-5 44-42 76-85 76-3 0-6 0-9-1-5 0-524-63-503-690 0-18 2-35 3-52-2-203 99-347 181-462 101-144 110-176 62-232-43-51-97-63-165-38-203 75-423 428-423 867 0 387 153 614 282 736 170 161 375 219 511 219h426c13 1 133 6 185-96-1-7-2-13-2-19v-895c0-47 38-85 86-85 47 0 85 38 85 85v895c0 1 0 2 1 3 1 2 1 5 2 8 14 38 72 104 109 104h78c41 0 108-81 112-116v-894c0-47 38-85 85-85s85 38 85 85v895c4 33 71 115 112 115h78c41 0 109-82 112-116v-909c0-26 12-51 33-68 6-4 147-119 143-338-2-101-49-145-120-211z"/>
      <path class="fil2" d="M5496 3762c-68-34-172-27-258 92-13 23-29 45-46 66-168 200-457 210-470 210h-2c-46 0-84-37-85-83-1-48 36-87 83-88 2 0 226-9 344-150 5-6 9-12 13-18 5-8 10-16 15-23 42-73 55-165 39-276-28-189-119-226-284-292-148-59-330-133-512-339-170 149-452 233-788 233-19 0-38 0-57-1-131-3-267-33-394-84 2 16 3 32 4 49 4 235-116 386-176 446v869c9 31 94 119 172 119h101c78 0 162-88 172-119v-891c0-47 38-85 85-85s86 38 86 85v891c9 31 94 119 171 119h102c77 0 162-88 171-119v-891c0-47 39-85 86-85s85 38 85 85v876c4 6 7 11 9 18 46 123 180 117 195 116 6 0 13 0 19 1 2 0 78 9 403-1 191-6 589-18 783-462 58-132 9-229-66-268z"/>
      <path class="fil1" d="M5573 3610c-76-38-172-49-266-17 0-40-2-82-9-126-42-286-211-354-390-426-142-57-303-122-464-313 61-105 104-267 29-491-23-69-59-142-96-220-168-345-357-736 240-1162 23 33 55 111 75 160 42 103 82 201 145 244 48 34 243 43 342 15 61-17 102-49 122-93 116-266 103-540-35-750-120-183-323-296-530-296-389 0-636 285-741 406-4 5-8 9-12 14-76-35-223-85-432-74-205 9-322 49-392 72-11 4-24 8-34 11-293-398-675-448-755-439-225 26-395 111-506 253-84 108-118 231-129 339-28-32-56-48-91-48-17 0-33 4-47 12-318 179-516 521-516 893 0 74 8 145 22 214H876c-30 0-55 25-55 55 0 31 25 56 55 56h257c11 32 23 64 37 95H876c-30 0-55 25-55 55 0 31 25 56 55 56h351c73 122 170 227 285 308 0 0-2-1-5-3 12 12 23 59-18 143-99 106-202 182-301 254 11-67-3-137-66-210-90-105-219-137-354-87-263 97-535 507-535 1027 0 447 183 715 335 860 175 166 410 266 629 266h436c72 0 180-23 260-100 52 57 122 100 196 100h78c75 0 145-44 197-102 52 58 122 102 197 102h78c79 0 153-49 205-111 66 63 158 111 250 111h101c95 0 191-52 257-119 66 67 162 119 257 119h102c95 0 190-52 256-119 89 100 219 123 295 119 19 2 63 4 158 4 63 0 149-1 264-4 209-7 698-21 935-564 97-223 0-414-146-489zM1991 476c83-106 216-171 397-192 52-5 368 42 615 385 61 85 142 58 207 36 66-22 166-56 349-65 252-12 391 79 392 79 23 16 51 19 76 8 29-12 49-35 89-81 99-114 304-351 620-351 154 0 306 86 396 223 109 166 117 377 24 594-34 24-179 22-234 11-24-27-59-114-81-168-52-128-97-238-185-264-38-11-79-4-114 21-729 509-477 1030-309 1375 35 73 68 142 88 201 53 156 40 288-36 391-126 170-422 265-793 254-186-5-385-72-539-180-10-9-20-19-30-28-44-41-85-80-117-134-43-86-44-169-37-223 3-25 19-72 31-103 164-182 264-424 264-691 0-374-199-717-520-896-15-7-31-12-47-12-85 0-121 91-194 271-20 50-51 125-72 166-52-9-105-10-136-10-33 0-89 1-142 11-3-4-6-9-9-13-1-7-2-14-5-21-19-46-34-103-42-163-13-99-19-286 94-431zm-558 1629h67c30 0 55-25 55-56 0-30-25-55-55-55h-140c-17-31-32-63-45-95h185c30 0 55-25 55-56 0-30-25-55-55-55h-221c-18-68-27-140-27-214 0-289 143-557 376-712 24 40 56 103 79 148 99 194 142 273 222 273 10 0 20-2 29-4 31-10 82-16 137-16 54 0 105 6 136 16 9 2 19 4 29 4 87 0 125-94 201-282 17-42 40-98 59-137 232 155 373 422 373 710 0 74-9 146-26 214h-188c-31 0-55 25-55 55 0 31 24 56 55 56h152c-14 32-29 64-46 95h-106c-31 0-55 25-55 55 0 31 24 56 55 56h33c-151 192-381 316-639 316s-489-124-640-316zm1351 1294c-21 17-33 42-33 68v909c-3 34-71 116-112 116h-78c-41 0-108-82-112-115v-895c0-47-38-85-85-85s-85 38-85 85v894c-4 35-71 116-112 116h-78c-37 0-95-66-109-104-1-3-1-6-2-8-1-1-1-2-1-3v-895c0-47-38-85-85-85-48 0-86 38-86 85v895c0 6 1 12 2 19-52 102-172 97-185 96h-426c-136 0-341-58-511-219-129-122-282-349-282-736 0-439 220-792 423-867 68-25 122-13 165 38 48 56 39 88-62 232-82 115-183 259-181 462-1 17-3 34-3 52-21 627 498 690 503 690 3 1 6 1 9 1 43 0 80-32 85-76 5-47-28-89-75-94-38-5-367-57-351-516 8-253 143-350 347-497 112-80 238-170 359-302 5-6 9-12 13-19 25-49 39-93 47-131 119 53 251 82 390 82 191 0 370-56 522-153 2 68 17 148 60 231 1 2 1 3 2 4 45 78 101 130 150 176 71 66 118 110 120 211 4 219-137 334-143 338zm2778 631c-194 444-592 456-783 462-325 10-401 1-403 1-6-1-13-1-19-1-15 1-149 7-195-116-2-7-5-12-9-18v-876c0-47-38-85-85-85s-86 38-86 85v891c-9 31-94 119-171 119h-102c-77 0-162-88-171-119v-891c0-47-39-85-86-85s-85 38-85 85v891c-10 31-94 119-172 119h-101c-78 0-163-88-172-119v-869c60-60 180-211 176-446-1-17-2-33-4-49 127 51 263 81 394 84 19 1 38 1 57 1 336 0 618-84 788-233 182 206 364 280 512 339 165 66 256 103 284 292 16 111 3 203-39 276-5 7-10 15-15 23-4 6-8 12-13 18-118 141-342 150-344 150-47 1-84 40-83 88 1 46 39 83 85 83h2c13 0 302-10 470-210 17-21 33-43 46-66 86-119 190-126 258-92 75 39 124 136 66 268z"/>
      <path class="fil1" d="M2094 2176c47 50 112 81 185 81 140 0 255-117 255-262 0-36-29-65-65-65s-66 29-66 65c0 73-56 132-124 132-58 0-106-42-120-97v-2c58-45 112-130 112-183 0-74-110-75-183-75-74 0-183 1-183 75 0 53 60 141 121 185v1c-13 58-62 101-121 101-69 0-124-59-124-131 0-36-30-66-66-66s-65 30-65 66c0 144 114 262 255 262 75 0 143-34 189-87zm861 158c0 223 150 405 334 405 106 0 202-62 263-157 61 95 156 157 263 157 184 0 334-182 334-405 0-39-32-71-70-71-39 0-71 32-71 71 0 146-86 264-193 264-106 0-193-118-193-264v-170h101c69 0 125-57 125-126s-56-126-125-126h-342c-69 0-126 57-126 126s57 126 126 126h101v170c0 146-87 264-193 264-107 0-193-118-193-264 0-39-32-71-71-71s-70 32-70 71zm-365-782c0 89-72 161-161 161-88 0-160-72-160-161s72-161 160-161c89 0 161 72 161 161z"/>
      <path class="fil3" d="M2565 1528c0 38-31 69-69 69s-68-31-68-69 30-68 68-68 69 30 69 68z"/>
      <path class="fil1" d="M1947 1552c0 89-72 161-161 161s-161-72-161-161 72-161 161-161 161 72 161 161z"/>
      <path class="fil3" d="M1922 1528c0 38-31 69-69 69s-69-31-69-69 31-68 69-68 69 30 69 68z"/>
      <path class="fil1" d="M3133 1552c0-89 72-161 161-161s161 72 161 161-72 161-161 161-161-72-161-161z"/>
      <path class="fil3" d="M3158 1575c0-38 31-68 69-68s68 30 68 68-30 69-68 69-69-31-69-69z"/>
      <path class="fil1" d="M3646 1552c0-89 72-161 160-161 89 0 161 72 161 161s-72 161-161 161c-88 0-160-72-160-161z"/>
      <path class="fil3" d="M3671 1575c0-38 30-68 68-68s69 30 69 68-31 69-69 69-68-31-68-69z"/>
      <path class="fil2" d="M6552 1362c-177 0-319-59-424-178-101-113-152-259-152-438 0-176 52-322 157-439 107-122 248-183 422-183 63 0 122 9 178 26 70 22 120 52 150 92 17 23 26 46 26 70 0 31-12 58-34 83-23 24-50 36-81 36-29 0-64-8-105-24s-85-24-132-24c-97 0-171 38-223 116-45 66-67 151-67 253 0 100 24 182 72 245 53 71 128 107 226 107 43 0 91-10 144-29 52-20 88-29 106-29 30 0 56 12 77 36s31 51 31 81c0 26-8 51-26 75-60 82-175 124-345 124zm737-617c0-176 50-320 149-430 102-116 240-174 415-174s314 57 416 172c99 111 148 255 148 432 0 176-49 319-148 430-103 114-242 171-416 171-175 0-313-58-415-173-99-109-149-252-149-428zm284 3c0 97 22 177 67 240 49 74 120 111 213 111 92 0 164-37 214-110 44-64 66-144 66-241 0-100-21-182-63-246-50-77-123-115-217-115-95 0-167 38-217 115-42 64-63 146-63 246zm1573-215h181c128 0 228 34 301 104 73 69 109 168 109 296 0 127-40 226-121 298-77 68-181 102-310 102h-242c-70 0-118-14-145-42s-40-77-40-147V344c0-70 13-119 40-147s75-42 145-42h420c128 0 192 42 192 126 0 83-64 124-192 124h-338v128zm0 243v310h117c122 0 184-51 184-153 0-105-62-157-184-157h-117zm1388-637c96 0 162 51 198 155l297 845c13 37 20 65 20 84 0 37-13 66-39 89-26 22-57 34-94 34-67 0-115-43-142-127l-43-138h-416l-49 148c-26 78-69 117-129 117-38 0-68-12-92-35s-35-53-35-91c0-28 4-54 13-77l306-830c43-116 111-174 205-174zm-8 292l-134 413h266l-129-413h-3zm1286 266h135V329c0-126 45-188 134-188s134 62 134 188v827c0 126-45 190-134 190s-134-63-134-190V936h-180c-126 0-222-34-288-103-67-68-100-165-100-292V329c0-126 45-188 134-188 90 0 134 62 134 188v212c0 62 12 104 35 125s66 31 130 31zm1202-164h180c128 0 229 34 301 104 73 69 109 168 109 296 0 127-40 226-121 298-77 68-181 102-310 102h-242c-70 0-118-14-145-42s-40-77-40-147V331c0-127 45-190 134-190s134 63 134 190v202zm0 243v310h116c122 0 184-51 184-153 0-105-62-157-184-157h-116zm1905-432v812c0 126-45 190-134 190s-134-64-134-190V867l-313 392c-46 58-93 87-142 87-35 0-66-11-91-33s-38-51-38-85c0-43 27-94 79-153l212-235c-86-14-155-49-205-105-51-56-76-127-76-213 0-108 38-196 115-265 77-68 188-102 333-102h209c71 0 119 14 146 41 26 28 39 77 39 148zm-268 345V402h-127c-112 0-168 47-168 140 0 98 57 147 171 147h124zm2438 644h-684v105c0 36-11 65-32 87-22 21-51 32-89 32-37 0-65-11-86-32-21-22-32-51-32-87v-215c0-76 35-114 105-114 20 0 36-17 48-50 11-34 17-91 17-173V454c0-92 25-164 77-218s123-81 215-81h411c57 0 97 18 121 55 18 29 27 74 27 135v764c94 0 141 38 141 114v215c0 79-40 119-120 119-36 0-65-11-87-32-21-22-32-51-32-87v-105zm-550-224h379V392h-284c-40 0-60 22-60 65v429c0 82-11 156-35 223zm1731-954c127 0 190 42 190 126 0 83-63 124-190 124h-219v210h188c127 0 191 41 191 123 0 83-64 124-191 124h-188v224h227c127 0 190 41 190 123 0 83-63 124-190 124h-313c-68 0-115-12-142-35s-40-68-40-135V344c0-70 13-119 40-147s75-42 145-42h302zm805 1191c-89 0-134-64-134-190V344c0-70 14-119 41-147 26-28 75-42 145-42h242c130 0 233 34 310 102 80 71 121 170 121 298 0 127-37 226-110 295-73 70-173 105-300 105h-181v201c0 127-45 190-134 190zm134-634h116c123 0 184-53 184-157 0-102-61-153-184-153h-116v310zm1546-557c127 0 190 42 190 126 0 83-63 124-190 124h-220v210h189c127 0 190 41 190 123 0 83-63 124-190 124h-189v224h228c127 0 190 41 190 123 0 83-63 124-190 124h-313c-68 0-115-12-142-35s-41-68-41-135V344c0-70 14-119 41-147s75-42 145-42h302zm853 1178c-68 0-115-12-142-35s-40-68-40-135V344c0-70 13-119 40-147s75-42 145-42h220c106 0 197 22 271 66 90 53 135 129 135 228 0 128-46 214-138 259v5c68 22 118 53 148 95 30 41 45 98 45 170 0 119-41 210-124 273-73 54-172 82-295 82h-265zm86-949v231h116c52 0 90-7 111-20 30-17 45-49 45-96 0-77-52-115-156-115h-116zm0 441v277h133c57 0 100-7 128-22 36-21 55-57 55-110 0-61-18-102-53-123-26-15-71-22-134-22h-129zm1342 30v300c0 127-45 191-134 191s-134-64-134-190V331c0-127 45-190 134-190s134 63 134 190v277h494V331c0-127 44-190 133-190 90 0 134 63 134 190v825c0 126-44 190-134 190-89 0-133-64-133-191V855h-494zm2141-511v812c0 126-45 190-134 190s-134-64-134-190V867l-313 392c-46 58-94 87-142 87-35 0-66-11-91-33s-38-51-38-85c0-43 26-94 79-153l211-235c-86-14-154-49-205-105-50-56-75-127-75-213 0-108 38-196 115-265 77-68 188-102 333-102h208c71 0 120 14 146 41 27 28 40 77 40 148zm-268 345V402h-127c-112 0-168 47-168 140 0 98 57 147 171 147h124z"/>
    </g>
  </g>
</svg>
