<svg xmlns="http://www.w3.org/2000/svg" viewBox="0 0 12800 2600" shape-rendering="geometricPrecision" text-rendering="geometricPrecision" image-rendering="optimizeQuality" fill-rule="evenodd" clip-rule="evenodd">
  <defs>
    <style>
<![CDATA[
    .str0 {stroke:#2B2A29;stroke-width:50;stroke-linejoin:round}
    .fil4 {fill:none}
    .fil2 {fill:none;fill-rule:nonzero}
    .fil5 {fill:#2B2A29}
    .fil6 {fill:#FEFEFE}
    .fil7 {fill:#A36B36}
    .fil3 {fill:#EC9C12}
    .fil0 {fill:#A36B36;fill-rule:nonzero}
    .fil1 {fill:#EC9C12;fill-rule:nonzero}
   ]]>
    </style>
  </defs>
  <g id="Слой_x0020_1">
    <g id="_1130402800">
      <path class="fil0" d="M3425 291c26 0 57 6 92 17 41 14 70 6 85-24 6-10 8-24 5-40-3-17-12-31-28-43-36-29-89-43-158-43-81 0-146 27-195 80-48 54-73 126-73 216 0 93 23 165 67 216 45 52 110 77 196 77 70 0 126-16 167-49 21-16 33-34 38-55s2-38-9-51c-20-25-49-27-88-8-15 8-25 13-32 16-6 3-15 6-27 10-13 3-24 5-36 5-34 0-62-14-84-41-23-28-34-67-34-119s10-92 30-121c21-29 48-43 84-43zm361 162c0 86 24 157 73 212s118 82 207 82 158-27 207-82 74-126 74-212-25-157-74-212-118-83-207-83-158 28-207 83-73 126-73 212zm157 0c0-48 11-87 31-117 21-30 51-45 92-45s72 15 92 45c21 30 31 69 31 117s-10 87-31 117c-20 30-51 45-92 45s-71-15-92-45c-20-30-31-69-31-117zm677-286c-22 0-39 7-52 21-13 15-20 33-20 54v412c0 45 24 72 71 79 39 7 84 10 138 10 70 0 126-15 168-46 41-30 62-79 62-145 0-117-72-175-216-175-27 0-52 1-73 4v-82h184c23 0 40-6 52-17 12-12 18-29 18-49 0-21-6-37-18-49s-29-17-52-17h-262zm139 330c23 0 41 6 53 17s18 26 18 45-7 35-21 47c-13 11-33 17-57 17-20 0-38-1-54-3V500c15-2 36-3 61-3zm757 185c8 24 21 40 39 50 17 9 38 9 60 1 20-9 33-23 38-44s4-40-5-58l-180-425c-13-32-37-48-70-48-34 0-59 18-73 54l-174 422c-10 20-13 40-10 60 4 20 15 33 34 39 25 10 46 8 63-5 16-12 29-31 37-56l26-74h183l32 84zm-125-333l54 138h-107l53-138zm696 57c-26 16-55 24-89 24-41 0-62-26-62-77V242c0-21-6-39-19-53-13-15-31-22-54-22-24 0-42 7-56 22-13 14-20 32-20 53v115c0 75 16 127 49 157 32 29 78 44 137 44 45 0 83-9 114-26v132c0 22 6 40 19 54s32 21 56 21 42-7 55-21c13-13 19-32 19-54V242c0-22-6-40-19-54s-31-21-55-21-42 7-56 21c-13 14-19 32-19 54v164zm372 244c0 24 5 43 16 56 10 13 28 22 52 27 32 7 74 10 128 10 75 0 133-16 176-49 42-33 64-83 64-149 0-64-19-112-57-142-38-31-91-46-159-46-26 0-50 1-71 4V242c0-22-6-40-19-54s-31-21-55-21-42 7-55 21-20 32-20 54v408zm202-39c-25 0-43-1-53-2V492c14-2 31-3 52-3 51 0 77 20 77 59 0 42-25 63-76 63zm453-247c0 72 29 122 87 151l-74 103c-14 19-19 39-16 61 3 21 13 37 30 48 19 12 39 15 62 10 22-5 39-18 51-39l90-158c21 0 37-1 49-2v126c0 22 6 40 19 54s31 21 55 21 42-7 55-21 20-32 20-54V249c0-22-6-39-18-53-13-14-30-22-53-25-38-6-80-9-127-9-69 0-124 18-167 52-42 35-63 85-63 150zm237-69c13 0 27 1 42 2v142c-8 1-22 1-41 1-24 0-44-6-59-18-14-13-22-31-22-55 0-23 7-41 21-53 14-13 34-19 59-19zm1068 444h299v46c0 22 6 40 18 54s30 21 53 21 41-7 53-21 18-32 18-54V678c0-22-5-40-17-55-11-14-28-21-49-21h-5V242c0-22-7-40-20-54s-31-21-55-21h-242c-45 1-69 27-71 79-5 180-22 299-49 356h-5c-23 0-41 7-53 21s-18 32-18 55v107c0 22 6 40 18 54s30 21 53 21c24 0 41-7 54-21 12-14 18-32 18-54v-46zm77-137c24-95 37-195 38-299h107v299h-145z"/>
      <path id="1" class="fil0" d="M9047 664c0 22 6 40 19 54s32 21 56 21h271c23 0 40-6 53-18s20-28 20-48c0-21-7-38-20-49-13-12-30-18-53-18h-197v-91h147c23 0 41-6 54-18s19-28 19-48c0-21-6-38-19-49-13-12-31-18-54-18h-147v-83h189c23 0 41-6 54-18s19-28 19-48c0-21-6-37-19-49s-31-17-54-17h-263c-24 0-43 7-56 21s-19 32-19 54v422z"/>
      <path id="2" class="fil0" d="M9648 664c0 22 6 40 19 54s31 21 55 21 42-7 55-21 20-32 20-54V559c18 3 36 4 54 4 67 0 123-17 166-51 43-35 65-85 65-152 0-66-22-115-64-148s-98-50-169-50c-53 0-98 4-135 12-44 9-66 37-66 83v407zm195-229c-18 0-34-1-46-3V294c12-2 28-3 49-3 25 0 44 6 58 18 13 12 20 29 20 51 0 25-7 43-22 56-15 12-34 19-59 19z"/>
      <path id="3" class="fil0" d="M10264 664c0 22 7 40 20 54s31 21 55 21h271c23 0 41-6 54-18s19-28 19-48c0-21-6-38-19-49-13-12-31-18-54-18h-197v-91h147c23 0 41-6 54-18s19-28 19-48c0-21-6-38-19-49-13-12-31-18-54-18h-147v-83h190c22 0 40-6 53-18s20-28 20-48c0-21-7-37-20-49s-31-17-53-17h-264c-24 0-42 7-55 21s-20 32-20 54v422z"/>
      <path id="4" class="fil0" d="M10865 656c0 44 22 70 68 77 40 7 89 10 146 10 161 0 241-60 241-180 0-30-7-57-22-81s-37-42-67-53c20-11 36-26 47-46 12-20 18-42 18-66 0-53-20-92-61-117-40-25-94-38-161-38-48 0-94 4-139 10-47 8-70 34-70 78v406zm220-153c54 0 82 20 82 59 0 41-28 61-84 61-34 0-59-1-77-3V503h79zm-15-220c48 0 73 19 73 56 0 17-6 31-18 41-11 10-28 15-50 15h-69V286c24-2 46-3 64-3z"/>
      <path id="5" class="fil0" d="M11859 380h-191V242c0-22-6-40-19-54s-32-21-56-21c-23 0-42 7-55 21s-19 32-19 54v422c0 22 6 40 19 54s32 21 55 21c24 0 43-7 56-21s19-32 19-54V513h191v151c0 22 6 40 19 54s32 21 56 21 42-7 55-21c13-13 19-32 19-54V242c0-22-6-40-19-54s-31-21-55-21c-23 0-42 7-55 21s-20 32-20 54v138z"/>
      <path id="6" class="fil0" d="M12231 364c0 72 29 122 87 151l-74 103c-14 19-19 39-16 61 3 21 13 37 30 48 19 12 39 15 61 10s40-18 52-39l89-158c22 0 38-1 49-2v126c0 22 7 40 20 54s31 21 55 21 42-7 55-21 20-32 20-54V249c0-22-6-39-19-53-12-14-29-22-53-25-37-6-79-9-126-9-69 0-125 18-167 52-42 35-63 85-63 150zm237-69c13 0 27 1 41 2v142c-7 1-21 1-40 1-25 0-44-6-59-18-14-13-22-31-22-55 0-23 7-41 21-53 14-13 33-19 59-19z"/>
      <path class="fil1" d="M3741 1677l-292-505c-37-69-90-103-157-103-50 0-87 17-111 51-25 33-38 76-38 126v991c0 52 12 94 36 127 23 33 61 50 113 50 99 0 148-59 148-177v-527l142 240c38 64 85 96 143 96 64 0 113-33 147-98l134-257v546c0 52 14 94 42 127 27 33 67 50 117 50 52 0 92-16 119-49 27-32 40-75 40-128v-991c0-54-12-98-38-129-25-32-62-48-110-48-64 0-114 34-150 103l-285 505z"/>
      <path id="1" class="fil2 str0" d="M3741 1677l-292-505c-37-69-90-103-157-103-50 0-87 17-111 51-25 33-38 76-38 126v991c0 52 12 94 36 127 23 33 61 50 113 50 99 0 148-59 148-177v-527l142 240c38 64 85 96 143 96 64 0 113-33 147-98l134-257v546c0 52 14 94 42 127 27 33 67 50 117 50 52 0 92-16 119-49 27-32 40-75 40-128v-991c0-54-12-98-38-129-25-32-62-48-110-48-64 0-114 34-150 103l-285 505z"/>
      <path class="fil1" d="M4508 1741c0 203 52 369 157 499 104 129 251 193 441 193s337-64 441-193c104-130 156-296 156-499 0-202-52-368-156-498-104-129-251-194-441-194s-337 65-441 194c-105 130-157 296-157 498zm336 0c0-113 22-204 66-274 43-71 109-106 196-106s152 35 196 106c44 70 65 161 65 274 0 114-21 205-65 275s-109 106-196 106-153-36-196-106c-44-70-66-161-66-275z"/>
      <path id="1" class="fil2 str0" d="M4508 1741c0 203 52 369 157 499 104 129 251 193 441 193s337-64 441-193c104-130 156-296 156-499 0-202-52-368-156-498-104-129-251-194-441-194s-337 65-441 194c-105 130-157 296-157 498zm336 0c0-113 22-204 66-274 43-71 109-106 196-106s152 35 196 106c44 70 65 161 65 274 0 114-21 205-65 275s-109 106-196 106-153-36-196-106c-44-70-66-161-66-275z"/>
      <path class="fil1" d="M6126 1162c-28-45-63-75-103-88-40-14-84-3-134 34-36 32-55 74-56 124 0 50 13 93 40 129l269 369-295 423c-27 36-40 77-38 122 3 44 22 82 59 114 82 52 154 29 216-69l231-350 244 358c28 44 62 72 102 83 39 11 80 0 123-32 36-30 56-69 60-118 3-49-9-93-36-134l-298-419 263-370c28-43 43-84 43-124 1-40-18-77-55-112-77-62-149-40-216 66l-207 306-212-312z"/>
      <path id="1" class="fil2 str0" d="M6126 1162c-28-45-63-75-103-88-40-14-84-3-134 34-36 32-55 74-56 124 0 50 13 93 40 129l269 369-295 423c-27 36-40 77-38 122 3 44 22 82 59 114 82 52 154 29 216-69l231-350 244 358c28 44 62 72 102 83 39 11 80 0 123-32 36-30 56-69 60-118 3-49-9-93-36-134l-298-419 263-370c28-43 43-84 43-124 1-40-18-77-55-112-77-62-149-40-216 66l-207 306-212-312z"/>
      <path class="fil1" d="M7769 1570h-406v-324c0-52-14-94-42-127-28-34-67-50-118-50-50 0-89 16-117 50-28 33-42 75-42 127v991c0 52 14 94 42 127s67 50 117 50c51 0 90-17 118-50s42-75 42-127v-355h406v355c0 52 14 94 42 127 27 33 67 50 119 50 51 0 90-16 117-49 27-32 40-75 40-128v-991c0-52-13-94-40-127-27-34-66-50-117-50s-90 16-118 50c-29 33-43 75-43 127v324z"/>
      <path id="1" class="fil2 str0" d="M7769 1570h-406v-324c0-52-14-94-42-127-28-34-67-50-118-50-50 0-89 16-117 50-28 33-42 75-42 127v991c0 52 14 94 42 127s67 50 117 50c51 0 90-17 118-50s42-75 42-127v-355h406v355c0 52 14 94 42 127 27 33 67 50 119 50 51 0 90-16 117-49 27-32 40-75 40-128v-991c0-52-13-94-40-127-27-34-66-50-117-50s-90 16-118 50c-29 33-43 75-43 127v324z"/>
      <path class="fil1" d="M9045 2279c17 56 45 95 83 117 37 23 81 23 129 2 42-19 69-53 80-102s8-94-11-135l-382-999c-30-75-80-113-150-113-73 0-125 43-156 127l-371 990c-20 49-27 96-20 142s31 77 71 92c54 22 99 19 134-11 36-30 62-74 80-133l55-173h391l67 196zm-265-781l114 323h-228l114-323z"/>
      <path id="1" class="fil2 str0" d="M9045 2279c17 56 45 95 83 117 37 23 81 23 129 2 42-19 69-53 80-102s8-94-11-135l-382-999c-30-75-80-113-150-113-73 0-125 43-156 127l-371 990c-20 49-27 96-20 142s31 77 71 92c54 22 99 19 134-11 36-30 62-74 80-133l55-173h391l67 196zm-265-781l114 323h-228l114-323z"/>
      <path class="fil1" d="M9401 1069c-50 0-88 13-115 40-27 26-41 65-41 114 0 47 14 85 42 114s66 44 114 44h235v856c0 52 14 94 42 127 27 33 67 50 117 50 51 0 90-17 118-50 27-33 41-75 41-127v-856h235c49 0 87-15 114-44 28-29 42-67 42-114 0-49-14-88-41-114-27-27-65-40-115-40h-788z"/>
      <path id="1" class="fil2 str0" d="M9401 1069c-50 0-88 13-115 40-27 26-41 65-41 114 0 47 14 85 42 114s66 44 114 44h235v856c0 52 14 94 42 127 27 33 67 50 117 50 51 0 90-17 118-50 27-33 41-75 41-127v-856h235c49 0 87-15 114-44 28-29 42-67 42-114 0-49-14-88-41-114-27-27-65-40-115-40h-788z"/>
      <path class="fil1" d="M10783 1246c0-50-13-93-40-126-27-34-67-51-119-51-53 0-92 17-119 51-26 33-40 76-40 126v991c0 57 14 101 40 131 27 31 65 46 114 46 50 0 98-33 145-99l428-650v572c0 50 13 93 41 126 27 34 67 51 120 51 52 0 91-17 117-50 27-33 40-75 40-127v-991c0-53-12-96-37-128-25-33-64-49-117-49-57 0-106 32-146 95l-108 166-212 332-107 163v-579z"/>
      <path id="1" class="fil2 str0" d="M10783 1246c0-50-13-93-40-126-27-34-67-51-119-51-53 0-92 17-119 51-26 33-40 76-40 126v991c0 57 14 101 40 131 27 31 65 46 114 46 50 0 98-33 145-99l428-650v572c0 50 13 93 41 126 27 34 67 51 120 51 52 0 91-17 117-50 27-33 40-75 40-127v-991c0-53-12-96-37-128-25-33-64-49-117-49-57 0-106 32-146 95l-108 166-212 332-107 163v-579z"/>
      <path class="fil1" d="M11752 1533c0 169 62 287 186 355l-157 241c-30 45-41 92-35 143 7 50 28 88 65 113 40 28 83 36 130 24 48-12 84-43 110-92l191-371c46 0 81-2 104-6v297c0 52 14 94 42 127s67 50 117 50c51 0 90-17 118-50s42-75 42-127v-975c0-51-13-92-39-124s-64-52-113-59c-79-13-169-20-269-20-148 0-266 41-356 122-91 81-136 198-136 352zm506-162c28 0 58 1 88 4v333c-16 3-45 4-86 4-52 0-94-14-125-44-31-29-47-71-47-127 0-55 15-97 44-126 30-29 72-44 126-44z"/>
      <path id="1" class="fil2 str0" d="M11752 1533c0 169 62 287 186 355l-157 241c-30 45-41 92-35 143 7 50 28 88 65 113 40 28 83 36 130 24 48-12 84-43 110-92l191-371c46 0 81-2 104-6v297c0 52 14 94 42 127s67 50 117 50c51 0 90-17 118-50s42-75 42-127v-975c0-51-13-92-39-124s-64-52-113-59c-79-13-169-20-269-20-148 0-266 41-356 122-91 81-136 198-136 352zm506-162c28 0 58 1 88 4v333c-16 3-45 4-86 4-52 0-94-14-125-44-31-29-47-71-47-127 0-55 15-97 44-126 30-29 72-44 126-44z"/>
      <path class="fil3 str0" d="M916 434c-36 384 339 402 378 20 370 226 415 898-238 879-574-18-580-748-140-899z"/>
      <path class="fil4 str0" d="M889 1098c-3 111 169 145 196 7 11 105 162 127 199-7"/>
      <path class="fil5 str0" d="M1014 1042s-56-45-27-50c13-3 253-34 189 30-16 16-91 83-91 83l-71-63z"/>
      <path class="fil4 str0" d="M797 1010H440m354 117l-341 2m929-119l166 1m-164 108l120 7"/>
      <circle class="fil6 str0" cx="937" cy="865" r="66"/>
      <circle class="fil6 str0" cx="1260" cy="867" r="66"/>
      <circle class="fil5 str0" cx="970" cy="865" r="22"/>
      <circle class="fil5 str0" cx="1293" cy="867" r="22"/>
      <path class="fil3 str0" d="M858 1291c-91 167-145 151-273 293-146 163-177 321-13 480 50 48 97 73 97 73l-16 26c-405-187-251-466-130-615 11-15 24-28 33-41 4-5 8-11 12-16 74-109-69-201-200-105-611 447 128 1289 549 994 67-47 80-171 80-223l-2-332s-8 402 16 490c33 120 150 130 188 2 40-138 28-345 28-491l23 442c10 191 200 171 201-29l1-419s86-111 65-217c-21-105-106-103-125-167-18-63-16-177-16-177s-146 79-267 73c-121-5-185-23-251-41z"/>
      <path class="fil7 str0" d="M1376 1266s0 16 9 138 320 208 563 191c353-25 445-275 243-548-31-42-84-208-29-366 34-99 216-335 282-142 14 41 29 92 62 138 61 83 133 85 185 28 126-135 46-297-47-428-158-224-493-41-588 156-141-70-308-107-450-18 0 0-129-212-261-233-491-79-515 438-318 534 57 28 143 3 183-44 49-59 80-173 76-202-5-45 57 9 113 70 57 61 142 166 156 306 14 133 17 288-179 420z"/>
      <path class="fil5 str0" d="M1787 1137c-21 3-36 12-57-4-22-16-31-54 0-63 32-10 181-24 207 5 18 21 23 57 2 59-32 4-51-6-63 6-9 9-11 18-13 25-8 20-44 21-55 7-10-14-6-37-21-35z"/>
      <path class="fil4 str0" d="M1837 1181c11 334-273 317-278 77m278-65c-12 302 206 301 267 82"/>
      <circle class="fil6 str0" cx="1705" cy="872" r="65"/>
      <circle class="fil6 str0" cx="1955" cy="867" r="65"/>
      <circle class="fil5 str0" cx="1674" cy="877" r="20"/>
      <circle class="fil5 str0" cx="1927" cy="871" r="21"/>
      <path class="fil7 str0" d="M2259 1450s9 89 89 134c79 45 304 26 328 198 31 226-83 336-270 347 0 0 174 118 293-123 44-87 99-92 137-78 97 36 125 237-20 342-169 122-712 271-712-59 0-143-10-372-10-372l12 432c2 77-74 128-152 129-72 1-143-34-151-157-8-130 2-329-6-410-14-9-31 1-31 1l-14 425c-8 207-285 170-294-5-7-140-6-434-6-434 54-76 121-213-2-319 71 38 584 228 809-51z"/>
    </g>
  </g>
</svg>
