<svg xmlns="http://www.w3.org/2000/svg" viewBox="0 0 29700 21000" shape-rendering="geometricPrecision" text-rendering="geometricPrecision" image-rendering="optimizeQuality" fill-rule="evenodd" clip-rule="evenodd">
  <defs>
    <style>
<![CDATA[
    .fil1 {fill:#2B2A29;fill-rule:nonzero}
    .fil2 {fill:#A9692F;fill-rule:nonzero}
    .fil0 {fill:#F39314;fill-rule:nonzero}
    .fil3 {fill:#FEFEFE;fill-rule:nonzero}
   ]]>
    </style>
  </defs>
  <g id="Слой_x0020_1">
    <g id="_756673072">
      <path class="fil0" d="M10374 12060c-108 0-192-51-241-147-31-56-55-145-72-272l-157-1143-231 1042c-33 141-69 240-112 304-68 97-163 145-285 145-121 0-217-48-284-144-43-62-80-162-112-305l-232-1033-153 1135c-18 128-42 219-74 276-52 93-137 142-245 142-105 0-281-44-281-332 0-30 7-97 21-203l246-1754c17-128 67-234 147-317 82-86 182-129 298-129 106 0 196 37 270 110 72 71 120 164 145 276l254 1231 251-1230c22-111 71-204 144-275 76-74 167-112 270-112 116 0 217 43 301 128 81 83 131 190 149 318l245 1754c12 90 19 156 19 203 0 288-176 332-281 332z"/>
      <path class="fil1" d="M9941 9377c103 0 190 37 264 112 73 76 118 172 135 289l245 1755c12 86 18 151 18 195 0 187-76 280-229 280-89 0-154-40-195-119-29-51-51-136-67-255l-194-1405h-7l-289 1300c-30 133-65 228-104 286-57 82-138 123-242 123s-185-41-242-123c-39-56-74-151-104-286l-291-1300h-5l-190 1406c-17 121-39 207-68 258-43 77-110 115-200 115-153 0-230-93-230-280 0-28 7-93 21-195l246-1755c16-117 60-213 133-289 72-75 159-112 261-112 92 0 170 31 234 95 64 63 108 147 130 250l298 1444h13l295-1444c20-101 64-184 130-248 67-65 145-97 234-97zm0-103c-117 0-220 42-306 126-81 79-134 180-159 302l-201 984-203-984c-27-124-80-226-158-303-84-83-187-125-307-125-130 0-243 48-335 144-88 91-142 207-161 346l-246 1754c-20 144-22 189-22 210 0 346 233 383 333 383 128 0 228-58 290-168 35-63 61-159 80-294l115-851 168 753c34 150 74 256 120 323 77 109 190 166 327 166s250-57 326-166c1 0 1-1 2-2 46-69 85-174 119-320l169-762 118 858c18 132 44 227 78 290 59 113 158 173 286 173 100 0 332-37 332-383 0-49-6-118-19-210l-245-1754c-20-139-75-256-164-347-93-95-206-143-337-143z"/>
      <path class="fil0" d="M12017 12060c-347 0-625-134-829-397-194-247-293-572-293-967s99-721 293-971c203-265 482-400 829-400 348 0 627 134 831 397 194 249 293 577 293 974 0 394-99 721-293 971-206 260-485 393-831 393zm0-2093c-162 0-281 73-366 223-75 133-113 305-113 513 0 200 40 368 118 497 85 147 203 218 361 218 157 0 276-70 363-214 79-132 118-301 118-501 0-208-38-380-112-512-87-151-208-224-369-224z"/>
      <path class="fil1" d="M12017 9377c333 0 596 125 790 376 188 242 282 556 282 943 0 385-94 698-282 939-196 249-459 373-790 373s-594-125-788-376c-188-240-282-551-282-936s94-698 282-939c194-254 457-380 788-380zm0 2092c175 0 311-80 407-239 84-140 126-316 126-527 0-218-40-397-120-538-96-166-234-249-413-249-180 0-317 83-411 249-80 141-120 320-120 538 0 211 42 385 126 524 94 161 229 242 405 242zm0-2195c-364 0-656 141-870 420-201 258-303 596-303 1002s102 743 304 999c213 276 506 416 869 416 362 0 655-139 871-412 202-260 304-597 304-1003 0-409-102-747-304-1006-213-276-506-416-871-416zm0 2092c-140 0-240-61-316-191 0-1-1-1-1-2-74-121-111-279-111-470 0-199 36-363 106-487 76-135 179-197 322-197s246 62 324 198c70 123 106 287 106 486 0 191-37 351-111 474-78 129-179 189-319 189z"/>
      <path class="fil0" d="M14962 12060c-115 0-222-80-320-236l-410-665-407 660c-101 162-202 241-310 241-71 0-137-32-195-94-57-61-86-131-86-210 0-90 40-196 122-322l526-819-391-656c-82-136-122-239-122-315 0-93 29-170 85-229 57-60 128-90 212-90 111 0 212 82 308 252l266 462 280-470c95-162 202-244 317-244 74 0 139 32 194 93 54 60 81 132 81 213 0 83-40 191-123 329l-394 657 527 821c84 128 125 234 125 322 0 81-29 151-85 210-57 59-124 90-200 90z"/>
      <path class="fil1" d="M14837 9377c59 0 111 25 156 76 45 50 67 109 67 178 0 73-38 174-115 303l-411 684 545 848c77 119 116 217 116 294 0 67-23 126-70 175s-102 73-163 73c-96 0-188-70-276-211l-454-736-451 731c-89 144-178 216-266 216-57 0-109-26-157-77s-72-110-72-175c0-79 38-177 113-294l543-846-407-684c-76-126-114-222-114-288 0-80 23-144 70-193 47-50 105-74 175-74 90 0 178 75 263 225l310 539 325-546c86-145 177-218 273-218zm0-103c-135 0-256 90-362 269l-234 394-222-386c-107-187-222-277-353-277-97 0-183 36-249 105s-99 158-99 265c0 87 41 195 129 342l374 628-508 792c-88 135-130 250-130 350 0 92 33 175 100 245 67 73 146 110 232 110 127 0 243-86 354-264l363-590 366 594c108 173 231 260 364 260 89 0 171-36 237-105s99-152 99-246c0-99-43-213-133-351l-510-793 378-629c88-147 130-264 130-356 0-94-31-177-93-247-64-72-145-110-233-110z"/>
      <path class="fil0" d="M17255 12060c-139 0-305-82-305-468v-603h-835v603c0 386-167 468-306 468-140 0-306-81-306-467V9792c0-386 166-467 306-467 139 0 306 81 306 467v555h835v-555c0-386 166-467 305-467 140 0 306 81 306 467v1801c0 386-166 467-306 467z"/>
      <path class="fil1" d="M17255 9377c170 0 255 138 255 415v1801c0 277-85 415-255 415-169 0-254-138-254-416v-655h-938v655c0 278-85 416-254 416-170 0-255-138-255-415V9792c0-277 85-415 255-415 169 0 254 138 254 415v606h938v-606c0-277 85-415 254-415zm0-103c-133 0-357 67-357 518v503h-732v-503c0-451-224-518-357-518-134 0-358 67-358 518v1801c0 451 224 518 358 518 133 0 357-67 357-519v-552h732v552c0 452 224 519 357 519 134 0 358-67 358-518V9792c0-451-224-518-358-518z"/>
      <path class="fil0" d="M19637 12060c-154 0-261-106-319-315l-72-263h-713l-81 285c-56 194-156 293-295 293-87 0-158-32-213-93-54-60-81-139-81-233 0-66 9-128 27-185l583-1812c89-275 236-415 438-415 206 0 349 126 426 374l564 1847c26 85 39 150 39 198 0 93-30 171-89 230s-131 89-214 89zm-557-1199l-182-669-189 669h371z"/>
      <path class="fil1" d="M18911 9373c182 0 307 113 377 338l564 1847c24 80 37 141 37 183 0 79-25 144-74 193s-108 74-178 74c-129 0-218-92-270-277l-82-301h-791l-92 322c-49 171-131 256-245 256-72 0-130-25-175-76-45-50-67-116-67-198 0-61 8-118 24-169l583-1812c81-253 211-380 389-380zm-270 1540h506l-245-902h-7l-254 902zm270-1643c-156 0-367 79-487 452l-583 1811c-19 62-29 129-29 201 0 107 31 197 93 267 64 72 151 110 252 110 113 0 265-57 344-330l71-248h634l62 226c81 291 245 352 369 352 98 0 182-35 251-104s103-159 103-266c0-53-13-123-41-213l-564-1847c-105-340-316-411-475-411zm-134 1540l120-425 115 425h-235z"/>
      <path class="fil0" d="M20686 12060c-141 0-309-81-309-467v-1587c-212-2-276-12-305-19-159-39-244-144-244-304 0-149 72-326 413-326h886c342 0 413 177 413 326 0 160-84 265-245 304-28 7-91 17-303 19v1587c0 386-167 467-306 467z"/>
      <path class="fil1" d="M21127 9408c241 0 362 92 362 275 0 136-69 221-206 254-44 12-159 17-343 17v1639c0 277-85 415-254 415-172 0-258-138-258-415V9954c-184 0-298-5-343-17-137-33-205-118-205-254 0-183 120-275 361-275h886zm0-103h-886c-404 0-464 237-464 378 0 184 100 309 283 354 32 8 92 17 265 20v1536c0 451 226 518 361 518 133 0 357-67 357-518v-1536c173-3 233-12 265-20 183-45 284-170 284-354 0-141-61-378-465-378z"/>
      <path class="fil0" d="M23610 12060c-140 0-306-81-306-467v-1009l-828 1259c-96 144-209 217-338 217-128 0-281-70-281-400V9792c0-386 166-467 306-467 139 0 306 81 306 467v1033l846-1286c94-142 199-214 313-214 131 0 287 78 287 446v1822c0 386-166 467-305 467z"/>
      <path class="fil1" d="M23628 9377c157 0 236 131 236 394v1822c0 277-85 415-254 415-170 0-255-138-255-415v-1181l-922 1402c-86 129-184 194-295 194-153 0-229-116-229-348V9792c0-277 84-415 254-415s254 138 254 415v1205l941-1430c84-127 174-190 270-190zm0-103c-132 0-252 79-356 236l-752 1143v-861c0-451-224-518-357-518-134 0-357 67-357 518v1868c0 392 208 451 332 451 147 0 275-81 380-240l734-1115v837c0 451 224 518 358 518 133 0 357-67 357-518V9771c0-433-213-497-339-497z"/>
      <path class="fil0" d="M25823 12060c-140 0-306-81-306-466v-468l-501 722c-98 140-203 212-312 212-81 0-152-30-209-88-58-57-87-132-87-221 0-106 52-226 160-365l353-451c-139-41-253-118-340-228-103-131-155-298-155-497 0-249 79-456 234-614 155-159 380-239 669-239h396c152 0 256 35 317 108 58 70 87 186 87 355v1773c0 386-167 467-306 467zm-497-2061c-185 0-267 78-267 255 0 186 84 269 273 269h185v-524h-191z"/>
      <path class="fil1" d="M25725 9408c135 0 227 30 277 90s75 167 75 322v1773c0 277-85 415-254 415-170 0-255-138-255-414v-632l-594 857c-88 126-178 189-270 189-67 0-125-24-173-72s-72-110-72-185c0-94 50-205 150-334l402-514c-164-30-294-106-390-228s-144-277-144-465c0-236 73-429 219-578 147-149 358-224 633-224h396zm-393 1166h236v-627h-242c-212 0-318 102-318 307 0 214 108 320 324 320zm393-1269h-396c-303 0-540 86-706 255-165 168-249 387-249 650 0 211 56 389 167 528 78 101 177 175 295 222l-308 394c-116 149-172 279-172 397 0 103 34 190 102 258 67 67 152 102 246 102 127 0 246-79 354-234l408-586v303c0 450 223 517 357 517 133 0 357-67 357-518V9820c0-181-32-308-99-388-71-85-188-127-356-127zm-393 1166c-159 0-222-61-222-217 0-147 61-204 216-204h140v421h-134z"/>
      <path class="fil0" d="M4776 9576h-31c-29 0-53-23-53-52s24-53 53-53h100c17-29 31-59 44-90h-144c-29 0-53-24-53-53s24-52 53-52h178c16-65 25-133 25-203 0-274-134-527-355-674-17 37-39 90-55 130-72 178-108 267-191 267-9 0-18-1-27-4-30-9-78-14-130-14-51 0-100 5-129 14-9 3-18 4-27 4-77 0-118-74-211-258-23-44-53-103-75-141-222 148-357 401-357 676 0 70 8 138 25 203h210c29 0 52 23 52 52s-23 53-52 53h-176c13 31 27 61 43 90h133c29 0 52 24 52 53s-23 52-52 52h-63c143 183 361 301 606 301s464-118 607-301zm-1008-98c0-35 28-62 62-62s62 27 62 62c0 68 53 124 118 124 56 0 103-41 115-96-58-42-115-125-115-176 0-70 104-71 174-71 69 0 173 1 173 71 0 50-51 131-106 174v1c14 53 59 92 114 92 65 0 118-56 118-125 0-34 28-62 62-62s62 28 62 62c0 138-109 249-242 249-69 0-131-30-175-77-44 50-108 82-180 82-133 0-242-111-242-248z"/>
      <path class="fil2" d="M4042 8594c3 7 4 13 5 20 3 5 6 9 9 13 50-9 103-11 134-11 30 0 80 1 129 10 21-39 50-111 69-158 69-171 104-257 184-257 16 0 31 4 44 12 305 169 494 495 494 850 0 253-95 483-250 655-11 30-27 74-30 99-7 51-6 129 36 210 30 52 69 89 111 128 9 9 19 18 28 27 146 102 335 166 511 171 352 10 633-81 753-242 72-98 84-223 34-371-19-56-50-121-84-191-159-327-399-821 294-1304 33-24 72-31 108-20 83 25 126 129 175 250 21 51 55 134 78 159 51 11 189 13 221-10 89-206 81-406-22-563-86-131-230-212-376-212-300 0-495 225-589 333-38 44-57 66-84 77-23 10-51 7-72-8-1 0-133-86-372-74-174 8-268 40-331 61-62 21-139 47-197-34-234-326-534-370-583-365-172 20-299 81-377 182-107 137-102 315-89 409 8 56 22 111 39 154zm1098 1199c0 139 82 252 183 252s183-113 183-252v-161h-95c-66 0-119-53-119-119s53-119 119-119h324c66 0 120 53 120 119s-54 119-120 119h-95v161c0 139 82 252 183 252s183-113 183-252c0-36 30-66 67-66s67 30 67 66c0 213-142 385-317 385-101 0-192-58-250-149-58 91-148 149-250 149-174 0-316-172-316-385 0-36 29-66 66-66s67 30 67 66z"/>
      <path class="fil0" d="M4866 10284c-47-44-100-93-142-168-1-1-1-2-2-3-40-79-55-155-57-220-144 92-314 146-496 146-131 0-256-28-370-78-7 36-20 78-44 124-4 7-8 13-13 18-114 125-234 211-340 287-194 139-322 231-330 472-14 435 298 485 334 489 44 5 76 45 71 89-5 42-40 72-80 72h-9c-5-1-498-60-478-656 1-16 2-33 3-48-2-193 94-330 172-439 96-136 105-167 59-220-41-48-92-60-157-36-193 71-401 406-401 822 0 368 146 583 268 699 161 153 356 208 484 208h404c13 1 126 6 176-91-1-7-1-13-1-19v-849c0-44 36-81 81-81 44 0 81 37 81 81v852c1 3 2 5 2 8 13 36 69 99 104 99h74c38 0 102-77 106-111v-848c0-44 36-81 81-81s81 37 81 81v849c3 32 67 110 106 110h74c39 0 103-78 106-111v-862c0-25 12-49 32-64 5-4 139-114 135-321-2-96-46-137-114-200z"/>
      <path class="fil2" d="M7418 11150c-64-33-163-27-244 86-13 22-28 43-45 63-159 190-434 199-445 199h-2c-44 0-80-35-81-79-1-45 34-82 79-83 2 0 214-8 326-142 5-6 9-12 13-18 4-7 9-14 14-21 40-69 52-157 37-262-26-180-113-214-270-277-140-57-313-126-486-322-161 141-429 221-748 221h-54c-124-4-253-32-373-80 2 14 3 30 3 46 4 223-110 366-167 424v824c9 29 89 113 163 113h96c74 0 154-83 163-113v-846c0-44 37-81 81-81 45 0 81 37 81 81v846c9 30 90 113 163 113h97c73 0 154-83 163-113v-846c0-44 36-81 81-81 44 0 81 37 81 81v832c3 5 6 10 8 16 44 117 170 112 185 111 6-1 12 0 18 0 2 1 74 9 383 0 181-6 559-17 743-438 55-126 8-218-63-254z"/>
      <path class="fil1" d="M7491 11005c-72-37-163-47-253-16 1-38-2-78-8-120-40-271-200-336-370-404-135-54-287-116-440-297 58-100 99-253 27-466-22-65-55-135-91-209-159-327-339-698 228-1102 22 30 52 104 71 151 40 98 78 191 137 232 47 32 232 40 325 14 58-16 97-46 116-88 110-253 98-512-33-712-114-173-306-281-503-281-369 0-604 270-704 386-3 4-7 8-11 13-72-33-211-81-410-71-194 9-305 47-371 69-11 4-24 8-33 11-278-378-641-426-716-417-214 24-376 105-480 239-80 103-113 220-123 323-27-31-53-46-87-46-15 0-31 4-44 12-302 169-490 494-490 847 0 69 8 137 21 203h-215c-29 0-52 23-52 52s23 53 52 53h244c10 31 21 61 35 90h-279c-29 0-52 24-52 53s23 52 52 52h333c69 116 161 216 270 293 0 0-2-1-4-3 11 12 21 56-18 136-94 100-191 173-286 241 11-63-2-130-61-200-86-100-209-130-337-82-249 92-507 482-507 974 0 425 173 679 318 817 166 157 389 252 596 252h415c68 0 170-22 246-95 49 54 115 95 186 95h74c71 0 138-42 187-97 49 55 116 97 187 97h74c75 0 145-46 195-106 62 60 149 106 236 106h96c91 0 182-49 244-113 63 64 154 113 244 113h97c90 0 181-49 243-113 84 95 208 117 280 113 18 2 60 4 150 4 60 0 141-1 250-4 199-6 662-20 888-535 92-211 0-393-139-464zM4092 8031c78-101 205-162 377-182 49-5 349 39 583 365 58 81 135 55 197 34 63-21 157-53 331-61 239-12 371 74 372 74 21 15 49 18 72 8 27-11 46-33 84-77 94-108 289-333 589-333 146 0 290 81 376 212 103 157 111 357 22 563-32 23-170 21-221 10-23-25-57-108-78-159-49-121-92-225-175-250-36-11-75-4-108 20-693 483-453 977-294 1304 34 70 65 135 84 191 50 148 38 273-34 371-120 161-401 252-753 242-176-5-365-69-511-171-9-9-19-18-28-27-42-39-81-76-111-128-42-81-43-159-36-210 3-25 19-69 30-99 155-172 250-402 250-655 0-355-189-681-494-850-13-8-28-12-44-12-80 0-115 86-184 257-19 47-48 119-69 158-49-9-99-10-129-10-31 0-84 2-134 11-3-4-6-8-9-13-1-7-2-13-5-20-17-43-31-98-39-154-13-94-18-272 89-409zm-529 1545h63c29 0 52-23 52-52s-23-53-52-53h-133c-16-29-30-59-43-90h176c29 0 52-24 52-53s-23-52-52-52h-210c-17-65-25-133-25-203 0-275 135-528 357-676 22 38 52 97 75 141 93 184 134 258 211 258 9 0 18-1 27-4 29-9 78-14 129-14 52 0 100 5 130 14 9 3 18 4 27 4 83 0 119-89 191-267 16-40 38-93 55-130 221 147 355 400 355 674 0 70-9 138-25 203h-178c-29 0-53 23-53 52s24 53 53 53h144c-13 31-27 61-44 90h-100c-29 0-53 24-53 53s24 52 53 52h31c-143 183-362 301-607 301s-463-118-606-301zm1282 1229c-20 15-32 39-32 64v862c-3 33-67 111-106 111h-74c-39 0-103-78-106-110v-849c0-44-36-81-81-81s-81 37-81 81v848c-4 34-68 111-106 111h-74c-35 0-91-63-104-99 0-3-1-5-2-8v-852c0-44-37-81-81-81-45 0-81 37-81 81v849c0 6 0 12 1 19-50 97-163 92-176 91h-404c-128 0-323-55-484-208-122-116-268-331-268-699 0-416 208-751 401-822 65-24 116-12 157 36 46 53 37 84-59 220-78 109-174 246-172 439-1 15-2 32-3 48-20 596 473 655 478 656h9c40 0 75-30 80-72 5-44-27-84-71-89-36-4-348-54-334-489 8-241 136-333 330-472 106-76 226-162 340-287 5-5 9-11 13-18 24-46 37-88 44-124 114 50 239 78 370 78 182 0 352-54 496-146 2 65 17 141 57 220 1 1 1 2 2 3 42 75 95 124 142 168 68 63 112 104 114 200 4 207-130 317-135 321zm2636 599c-184 421-562 432-743 438-309 9-381 1-383 0-6 0-12-1-18 0-15 1-141 6-185-111-2-6-5-11-8-16v-832c0-44-37-81-81-81-45 0-81 37-81 81v846c-9 30-90 113-163 113h-97c-73 0-154-83-163-113v-846c0-44-36-81-81-81-44 0-81 37-81 81v846c-9 30-89 113-163 113h-96c-74 0-154-84-163-113v-824c57-58 171-201 167-424 0-16-1-32-3-46 120 48 249 76 373 80h54c319 0 587-80 748-221 173 196 346 265 486 322 157 63 244 97 270 277 15 105 3 193-37 262-5 7-10 14-14 21-4 6-8 12-13 18-112 134-324 142-326 142-45 1-80 38-79 83 1 44 37 79 81 79h2c11 0 286-9 445-199 17-20 32-41 45-63 81-113 180-119 244-86 71 36 118 128 63 254z"/>
      <path class="fil1" d="M4190 9644c44 47 106 77 175 77 133 0 242-111 242-249 0-34-28-62-62-62s-62 28-62 62c0 69-53 125-118 125-55 0-100-39-114-92v-1c55-43 106-124 106-174 0-70-104-71-173-71-70 0-174 1-174 71 0 51 57 134 115 176-12 55-59 96-115 96-65 0-118-56-118-124 0-35-28-62-62-62s-62 27-62 62c0 137 109 248 242 248 72 0 136-32 180-82zm817 149c0 213 142 385 316 385 102 0 192-58 250-149 58 91 149 149 250 149 175 0 317-172 317-385 0-36-30-66-67-66s-67 30-67 66c0 139-82 252-183 252s-183-113-183-252v-161h95c66 0 120-53 120-119s-54-119-120-119h-324c-66 0-119 53-119 119s53 119 119 119h95v161c0 139-82 252-183 252s-183-113-183-252c0-36-30-66-67-66s-66 30-66 66zm-347-741c0 84-68 152-152 152s-153-68-153-152c0-85 69-153 153-153s152 68 152 153z"/>
      <path class="fil3" d="M4637 9029c0 36-30 65-66 65s-65-29-65-65 29-65 65-65 66 29 66 65z"/>
      <path class="fil1" d="M4050 9052c0 84-68 152-153 152-84 0-152-68-152-152 0-85 68-153 152-153 85 0 153 68 153 153z"/>
      <path class="fil3" d="M4026 9029c0 36-29 65-65 65s-65-29-65-65 29-65 65-65 65 29 65 65z"/>
      <path class="fil1" d="M5176 9052c0-85 68-153 152-153s153 68 153 153c0 84-69 152-153 152s-152-68-152-152z"/>
      <path class="fil3" d="M5199 9074c0-36 30-65 66-65s65 29 65 65-29 65-65 65-66-29-66-65z"/>
      <path class="fil1" d="M5662 9052c0-85 68-153 153-153 84 0 152 68 152 153 0 84-68 152-152 152-85 0-153-68-153-152z"/>
      <path class="fil3" d="M5686 9074c0-36 29-65 65-65s65 29 65 65-29 65-65 65-65-29-65-65z"/>
      <path class="fil2" d="M8420 8871c-168 0-302-56-402-168-96-107-144-246-144-416 0-167 49-306 148-417 102-115 236-173 401-173 60 0 116 8 169 25 66 20 114 49 142 87 16 21 25 43 25 66 0 29-11 56-32 79-22 22-47 34-77 34-28 0-61-8-100-23-38-15-80-23-125-23-92 0-162 37-211 110-43 64-65 144-65 241 0 95 23 172 69 232 50 68 122 101 215 101 40 0 86-9 136-27 50-19 83-28 101-28 28 0 53 12 73 35 19 23 29 48 29 77 0 25-8 48-24 70-57 79-166 118-328 118zm700-585c0-167 47-304 141-408 97-111 228-166 393-166 167 0 298 55 395 164 94 105 141 242 141 410 0 167-47 303-141 408-98 108-229 162-395 162-165 0-296-54-393-164-94-104-141-239-141-406zm269 3c0 91 21 167 63 227 47 71 115 106 202 106 88 0 156-35 204-104 42-61 63-138 63-229 0-95-20-173-60-234-48-72-117-108-207-108s-158 36-205 108c-40 61-60 139-60 234zm1493-205h172c121 0 216 33 285 99s104 160 104 281-39 215-115 283c-74 65-172 97-294 97h-230c-66 0-112-13-138-40-25-27-38-73-38-139v-760c0-66 13-112 38-139 26-27 72-40 138-40h398c122 0 182 40 182 120 0 78-60 117-182 117h-320v121zm0 232v294h110c117 0 175-49 175-146 0-99-58-148-175-148h-110zm1317-605c91 0 154 49 188 147l282 802c12 35 18 62 18 80 0 35-12 63-36 84-25 21-55 32-89 32-65 0-109-40-135-120l-41-131h-395l-46 140c-25 74-66 111-123 111-35 0-65-11-87-33s-34-50-34-86c0-27 4-51 13-74l290-787c41-110 106-165 195-165zm-8 277l-127 392h253l-123-392h-3zm1221 253h128v-350c0-119 42-179 127-179s127 60 127 179v785c0 120-42 180-127 180s-127-60-127-180v-209h-171c-120 0-211-32-274-97-62-65-94-157-94-278v-201c0-119 43-179 127-179 85 0 127 60 127 179v201c0 59 11 99 33 119s63 30 124 30zm1140-157h172c121 0 216 33 285 99s104 160 104 281-39 215-115 283c-74 65-172 97-294 97h-230c-66 0-112-13-138-40-25-27-38-73-38-139v-772c0-120 42-181 127-181s127 61 127 181v191zm0 232v294h110c117 0 175-49 175-146 0-99-58-148-175-148h-110zm1808-411v771c0 120-42 180-127 180s-127-60-127-180v-275l-297 373c-44 55-89 82-135 82-33 0-62-10-86-31s-36-48-36-81c0-40 25-89 75-145l201-223c-82-13-147-46-195-99s-72-121-72-202c0-103 37-187 110-252 73-64 178-97 316-97h197c68 0 114 13 139 39s37 73 37 140zm-254 328v-273h-121c-106 0-159 45-159 134 0 92 54 139 162 139h118zm2314 611h-650v99c0 35-10 63-30 83-21 20-49 31-84 31s-62-11-82-31-30-48-30-83v-203c0-73 33-109 99-109 20 0 35-16 45-47 11-32 17-87 17-164v-411c0-86 24-155 73-206s117-77 204-77h390c54 0 92 18 115 52 17 28 26 71 26 129v724c89 0 133 36 133 109v203c0 76-38 114-113 114-35 0-62-11-83-31-20-20-30-48-30-83v-99zm-523-213h360v-680h-269c-38 0-57 21-57 61v408c0 77-11 148-34 211zm1643-905c121 0 181 40 181 120 0 78-60 117-181 117h-208v199h179c121 0 181 40 181 118s-60 117-181 117h-179v213h216c120 0 181 39 181 117s-61 117-181 117h-297c-64 0-109-11-135-33-25-22-38-65-38-128v-778c0-66 13-112 38-139 26-27 72-40 138-40h286zm764 1130c-84 0-127-60-127-180v-771c0-66 13-113 38-139 26-27 72-40 138-40h230c123 0 221 32 294 97 76 67 115 161 115 283 0 120-35 214-104 280-70 66-165 100-285 100h-172v190c0 120-42 180-127 180zm127-602h111c116 0 174-49 174-148 0-97-58-146-174-146h-111v294zm1467-528c121 0 181 40 181 120 0 78-60 117-181 117h-208v199h179c120 0 181 40 181 118s-61 117-181 117h-179v213h216c120 0 180 39 180 117s-60 117-180 117h-297c-65 0-109-11-135-33s-38-65-38-128v-778c0-66 12-112 38-139s71-40 138-40h286zm810 1118c-64 0-109-11-135-33-25-22-38-65-38-128v-778c0-66 13-112 38-139 26-27 72-40 138-40h208c101 0 187 21 257 63 86 50 129 122 129 216 0 121-44 203-132 246v5c66 20 113 50 141 89 29 40 43 94 43 162 0 113-39 200-118 259-69 52-163 78-280 78h-251zm81-900v218h110c50 0 86-6 106-18 29-16 43-47 43-92 0-72-50-108-149-108h-110zm0 418v263h127c54 0 95-7 121-22 35-19 52-54 52-104 0-58-17-97-50-116-25-14-67-21-127-21h-123zm1274 29v284c0 121-42 181-127 181s-127-60-127-180v-783c0-121 42-181 127-181s127 61 127 181v263h468v-263c0-120 43-181 128-181 84 0 127 60 127 181v783c0 120-43 180-127 180-85 0-128-60-128-181v-284h-468zm2032-486v771c0 120-43 180-127 180-85 0-127-60-127-180v-275l-297 373c-44 55-89 82-135 82-34 0-63-10-87-31s-36-48-36-81c0-40 25-89 75-145l201-223c-82-13-147-46-195-99s-72-121-72-202c0-103 37-187 110-252 73-64 178-97 316-97h198c67 0 113 13 138 39s38 73 38 140zm-254 328v-273h-121c-107 0-160 45-160 134 0 92 54 139 163 139h118z"/>
    </g>
  </g>
</svg>
