<svg xmlns="http://www.w3.org/2000/svg" viewBox="0 0 25300 10500" shape-rendering="geometricPrecision" text-rendering="geometricPrecision" image-rendering="optimizeQuality" fill-rule="evenodd" clip-rule="evenodd">
  <defs>
    <style>
<![CDATA[
    .str0 {stroke:#FEFEFE;stroke-width:105.83;stroke-linecap:round;stroke-linejoin:round}
    .fil9 {fill:#00A0E3}
    .fil4 {fill:#61241F}
    .fil10 {fill:#944592}
    .fil1 {fill:#FEFEFE}
    .fil6 {fill:#00A0E3;fill-rule:nonzero}
    .fil7 {fill:#944592;fill-rule:nonzero}
    .fil2 {fill:#95C12B;fill-rule:nonzero}
    .fil3 {fill:#96C22B;fill-rule:nonzero}
    .fil8 {fill:#E31E24;fill-rule:nonzero}
    .fil5 {fill:#F8B002;fill-rule:nonzero}
    .fil0 {fill:#FEFEFE;fill-rule:nonzero}
   ]]>
    </style>
  </defs>
  <g id="Слой_x0020_1">
    <g id="_754493968">
      <path class="fil0" d="M17331 906l-3627-640c-267-47-522 131-569 398l-640 3628c-47 267 131 522 399 569l3627 640c170 30 334-31 444-148-100-184-115-411-20-615l336-721 449-2542c47-268-131-522-399-569z"/>
      <path class="fil0" d="M17320 969h-1l-3626-640c-117-20-230 8-320 71-89 62-155 159-175 275l-640 3628c-20 116 8 230 71 319 62 90 159 155 275 176h1l3627 639c73 13 144 7 209-14 53-18 103-47 145-83-41-91-65-190-68-291-4-113 18-229 69-338l333-713 446-2533 1-2c20-116-8-230-71-319-62-89-159-154-275-175m-3606-766l3627 639h1c150 27 276 112 358 229 81 116 118 263 92 414v1l-448 2541c-1 6-3 12-5 17l-336 721h-1c-42 91-60 186-57 280 3 97 29 192 75 277 13 24 10 54-10 75-63 67-142 117-230 147-85 28-177 36-271 20l-3627-640h-1c-150-27-276-112-358-228-81-117-119-264-92-415l640-3628c26-151 112-276 228-358 117-82 264-119 415-92zm3952 1261v-1 1zM7551 8988c0 201-35 378-96 531-67 166-165 304-284 413-112 103-242 181-382 233-145 55-300 82-455 82-156 0-311-27-456-82-139-52-269-130-381-233-119-109-217-247-284-413-62-153-97-330-97-531s35-378 97-531c67-165 165-303 284-412 112-103 242-180 381-232 145-55 301-82 456-82s310 27 455 82c139 52 270 129 382 232 119 109 217 247 284 412 61 153 96 330 96 531zm-1741-267c-29 77-46 166-46 267 0 102 17 191 46 269 31 83 77 153 133 208 52 51 113 90 179 116 68 28 140 42 213 42s146-14 214-42c65-26 126-65 179-116 55-55 101-125 133-208 29-78 45-167 45-269 0-101-16-190-45-267-32-83-78-151-133-206-53-51-114-90-179-116-68-27-141-41-214-41s-145 14-213 41c-66 26-127 65-179 116-56 54-102 123-133 206z"/>
      <path class="fil0" d="M7615 8988c0 102-9 199-25 290-17 95-43 183-76 265-35 86-77 165-127 236-51 75-109 142-173 200-58 54-121 101-188 142-68 42-140 76-214 104-76 29-154 50-234 65-82 14-164 22-244 22-81 0-163-8-244-22-80-15-159-36-234-65-75-28-147-62-215-104-66-41-130-88-188-142-64-58-122-125-173-200-50-71-92-150-127-236-33-82-58-170-76-266-16-90-25-187-25-289s9-199 25-289c18-95 43-184 76-265 35-86 77-165 127-236 51-75 109-141 173-200 59-53 122-100 188-141 68-42 140-76 215-104 75-29 154-50 234-64 81-15 163-22 244-22 80 0 162 7 244 22 80 14 158 35 234 64 1 0 2 1 3 1 73 28 144 62 211 103s130 88 188 141c64 59 122 125 174 200 49 71 91 150 126 236 33 81 59 170 76 265 16 90 25 187 25 289zm-128 0c0-95-8-184-23-267-15-85-39-165-69-240-31-76-69-147-113-211-45-66-97-125-155-178-52-47-108-90-168-126-60-37-124-68-190-92l-3-2c-68-25-139-45-211-58s-146-19-221-19c-76 0-150 6-222 19s-142 33-211 58c-67 26-132 57-193 94-60 37-116 79-168 126-57 53-109 112-155 179-44 63-82 134-113 210-30 75-53 155-69 240-15 84-23 173-23 267s8 184 23 267c16 86 39 166 69 241 31 76 69 147 113 211 46 66 98 126 155 178 52 48 108 90 168 127 61 37 126 68 193 94 69 25 139 45 211 58s146 19 222 19c75 0 149-6 221-19s143-33 212-58c67-26 131-57 192-94 60-37 116-79 168-127 58-52 110-112 155-178 44-64 82-135 113-212 30-74 54-154 69-240 15-83 23-172 23-267zm-1617-244c-14 35-24 73-31 114s-11 84-11 130 4 89 11 130c7 42 17 81 31 116 13 37 30 70 50 101s43 59 68 84c22 22 47 42 73 59 27 18 56 32 85 44s61 21 92 27c32 6 64 9 97 9s66-3 97-9c32-6 63-15 93-27 29-12 57-26 84-44 26-17 51-37 74-59 25-25 48-53 68-84 19-31 36-64 50-101 13-35 24-74 31-115 7-42 10-85 10-131 0-45-3-89-10-129l-1-3c-7-40-17-78-30-112-14-36-31-70-50-100-20-31-43-59-68-83-23-23-48-42-74-59s-54-32-84-44l-3-1c-29-11-59-20-90-26h-2c-31-6-62-9-95-9s-65 3-97 9-63 15-93 27h1c-30 12-58 27-85 44-26 17-51 36-73 59h-1c-25 24-47 52-67 83-20 30-37 64-50 100zm-157 93c8-49 21-95 37-138 17-45 38-87 62-124 25-39 54-74 86-106 29-28 60-53 93-74 34-22 70-41 107-55 38-16 77-27 116-34 41-8 81-12 121-12s79 4 119 11l2 1c38 7 76 18 113 32 1 1 3 1 4 2 36 14 72 33 106 55 33 21 64 46 93 74h1c31 32 60 67 86 106 24 37 45 79 62 124 16 42 28 87 37 136v2c8 47 12 97 12 151s-4 105-12 152c-8 49-21 96-37 139-18 46-38 87-62 125-26 39-55 75-87 106-29 29-60 54-93 75-33 22-69 41-106 56-38 15-77 26-117 34s-80 12-121 12c-40 0-81-4-121-12-39-8-78-19-116-34-37-15-73-34-107-56-33-21-64-46-93-75-32-31-61-67-86-106-24-38-45-79-62-125-16-43-29-90-37-139-8-47-13-98-13-152s5-104 13-151zm-2091 1344v16h-642V7772h642v906h27c134-1 235-24 311-64 75-40 127-98 163-167 36-70 56-154 66-245 11-91 13-190 12-291v-139h649v96c0 114-1 227-9 336s-24 214-53 314c-29 101-73 196-137 285-62 85-142 164-247 234l630 1043v117h-692l-515-925c-71 12-138 12-205 12v897z"/>
      <path class="fil0" d="M3686 10181v16c0 35-29 64-64 64h-642c-36 0-64-29-64-64V7772c0-36 28-64 64-64h642c35 0 64 28 64 64v841c47-2 89-7 127-15 45-9 84-23 117-40 31-17 58-37 80-61 22-23 41-50 56-80l2-3c14-29 26-62 36-98 9-38 17-78 22-121 5-45 8-91 10-137 1-49 2-98 2-147l-1-61v-78c0-36 29-64 64-64h649c35 0 64 28 64 64v96c0 51 0 105-2 171-1 59-3 116-7 169-4 56-10 111-19 166s-21 109-37 162c-15 54-35 106-59 156-24 52-53 101-87 148-33 46-71 90-115 132-30 28-63 56-99 83l600 992c6 11 9 22 9 33v117c0 35-29 64-64 64h-692c-26 0-49-15-59-38l-490-882c-23 3-45 4-67 5-13 1-27 2-40 2v833zm-642-48h513v-849h1c0-35 28-63 64-63 32 0 64-1 98-2 32-2 63-4 95-9 27-5 54 7 68 31l496 892h591v-35l-621-1028c-18-29-9-67 19-86 49-33 93-68 132-105 37-36 70-74 99-114 30-41 55-83 76-127 21-45 38-91 52-137 14-48 24-97 32-147s14-102 18-155c4-55 6-109 7-162 1-46 2-106 2-169v-32h-521v75c0 52 0 103-2 151-2 52-5 101-10 147-6 49-14 95-26 140-11 43-26 85-46 123 0 2-1 3-1 4-21 40-46 77-78 110-31 33-68 61-113 85-43 23-92 40-150 52-55 12-118 18-190 18v1h-27c-36 0-65-29-65-64v-842h-513v2297zM1692 8434c-95-70-213-109-346-109-63 0-120 6-173 20-52 14-100 35-142 63s-79 64-110 107c-32 44-59 95-79 156l-4 11H210l2-19c22-157 70-293 137-409 73-125 169-227 278-306 102-74 215-128 333-164 126-39 257-57 386-58 156 0 312 28 459 83 141 52 273 130 387 233 120 109 220 247 289 413 63 153 99 329 100 529v1c-1 199-37 375-99 527-68 166-168 303-288 412-113 103-244 180-384 233-146 55-301 82-457 82h-7c-133 0-268-18-396-58-119-36-233-91-334-166-110-82-206-187-278-318-67-121-115-263-136-430l-2-18h629l3 12c31 124 93 217 179 280 90 66 205 100 335 100 127-2 239-41 330-108 90-65 159-157 203-265h-764v-556h775c-40-117-108-212-198-278z"/>
      <path class="fil0" d="M1654 8485c-42-31-90-55-142-72-51-16-107-25-166-25v1c-29 0-57 1-83 4s-51 8-74 14c-22 6-44 14-65 23-20 9-40 19-57 31-18 12-35 26-51 41-15 15-30 32-44 51-1 1-2 2-3 4-12 17-24 37-35 59-12 23-22 48-32 76l-1 3-1 4c-8 27-33 47-62 47H210c-36 0-64-29-64-64 0-5 0-9 1-14l2-14c11-81 29-156 53-227 25-74 56-142 92-205 38-65 82-124 130-178 51-56 107-106 166-148 52-38 108-71 166-100 59-29 121-54 185-73 66-21 132-36 199-45 68-10 137-15 206-15v-1c81 0 163 8 245 22 80 14 159 36 236 65 76 28 149 63 217 104 67 40 131 88 190 142 65 58 125 125 177 200 50 71 94 150 129 235 34 82 60 171 78 265 17 91 27 187 27 289v1c0 102-10 198-27 287-17 95-44 183-77 265-35 85-79 163-128 235-52 74-111 141-175 199-59 53-122 100-190 141-69 42-141 77-216 105-76 28-154 50-234 64-82 15-164 22-245 22h-7c-70 0-141-5-212-15-68-10-136-25-203-46-64-20-127-44-186-74-58-29-114-63-167-102-60-44-116-95-167-153-48-55-92-117-130-185l-1-3c-36-65-66-135-90-211l-1-3c-22-72-39-151-50-236l-3-18v-8c0-35 28-64 64-64h629c31 0 57 23 63 52l2 9c13 54 33 101 59 141 27 41 59 75 96 102 38 29 83 50 132 65 50 15 106 23 164 23 55-1 108-10 157-25 50-17 96-40 137-70 39-29 74-64 105-103 11-15 22-31 32-47h-661c-35 0-64-29-64-64v-556c0-36 29-65 64-65h678c-11-19-22-38-35-55-29-42-65-78-104-107zm-104-194c66 21 126 52 180 91 50 38 95 83 132 136 37 50 66 108 88 170 3 7 4 15 4 24 0 35-28 64-64 64h-710v428h699c8 0 16 1 24 4 32 14 48 51 35 84-24 59-55 115-93 164-37 49-81 93-131 129-52 38-110 68-173 88-60 20-125 31-195 32-72 0-140-10-202-28-63-19-120-47-171-85-50-37-93-82-127-136-28-43-50-90-66-143H273c10 56 23 109 39 160l1 3c21 68 48 131 79 187 1 1 1 2 2 3 33 60 71 115 114 163 44 51 93 95 146 134 46 34 96 64 148 90 54 27 110 50 167 67 59 18 121 32 183 41 64 9 129 14 194 14h7c75 0 150-7 222-20s144-32 213-58c67-25 132-57 194-94 59-36 116-78 169-127 58-52 111-111 157-177 44-64 83-134 114-211 31-74 55-153 71-239 15-83 24-171 24-264v-1c0-93-9-182-24-265-17-86-41-166-71-240-32-77-71-147-116-211-46-67-99-126-157-179-53-47-110-89-171-126-63-38-128-69-195-94-69-26-141-45-214-59-73-13-148-19-223-19v-1c-62 0-124 5-188 14-61 9-121 23-180 41-56 17-112 39-166 66-51 25-100 54-147 89-53 38-102 81-146 130-42 46-81 99-114 156-32 56-60 116-82 182-16 47-29 97-38 150h508c8-21 17-41 27-60 13-27 29-52 46-76 1-1 2-3 3-4 18-25 37-48 59-68 21-21 43-39 68-55 24-16 50-31 77-42 26-12 54-22 84-30 29-8 60-13 91-17 32-4 64-6 98-6v1c73 0 141 10 204 30z"/>
      <path class="fil1" d="M8414 10092v89h669l402-704h311v704h599V7788H9368c-921 4-1088 1135-496 1545l-458 759zm954-1166c-325 0-342-587 0-591 140-3 288 0 428 0v591h-428zm2136 1255v-612h432c1121 0 1121-1777 0-1781h-1031v2393h599zm428-1162h-428v-684c137 0 288-3 428 0 348 4 328 684 0 684zm2344-199l-917-1039h-221v2400h612V9114l496 533h66l499-533v1067h613V7781h-215l-933 1039zm3232 1361h586v-89l-1057-2335h-258l-1054 2335v89h585l138-301h923l137 301zm-331-824h-535l264-629 271 629zm1824 824v-612h432c1121 0 1121-1777 0-1781h-1031v2393h599zm428-1162h-428v-684c137 0 288-3 428 0 348 4 328 684 0 684zm1736 1162v-913c77 0 150 0 231-14l515 927h666v-96l-636-1053c465-304 452-755 452-1244h-616c0 448 30 906-569 906h-43v-906h-609v2393h609zm3350 0h585v-89l-1057-2335h-258l-1054 2335v89h586l137-301h923l138 301zm-332-824h-535l264-629 271 629z"/>
      <path class="fil0" d="M8478 10110v7h568l383-672c12-21 34-32 56-32v-1h311c36 0 64 29 64 65v640h471V7852h-963c-216 1-386 68-511 173-116 98-195 229-235 372-41 145-43 301-6 447 43 173 141 331 293 436 28 20 36 57 18 86l-449 744zm-128 71v-89c0-11 3-23 9-33l429-710c-152-122-251-291-297-474-42-167-39-346 8-512 47-167 139-321 275-436 147-123 345-202 594-203h1027c36 0 64 29 64 64v2393c0 35-28 64-64 64h-599c-35 0-64-29-64-64v-640h-210l-381 667c-10 22-32 37-58 37h-669c-35 0-64-29-64-64zm1018-1191c-149 0-246-95-290-218-15-45-24-93-24-142s7-98 23-143c41-120 136-214 289-216 95-2 192-1 289-1 32 1 65 1 141 1 36 0 64 29 64 64v591c0 36-28 64-64 64h-428zm-169-260c26 74 83 132 169 132h364v-463l-78-1c-95-1-191-1-285 1h-1c-89 1-145 57-170 129-11 32-16 67-16 101 0 35 6 69 17 101zm2241 1387v-548c0-35 28-64 64-64h432c371 0 609-211 714-482 41-108 62-225 62-342 1-117-20-234-61-342-105-273-343-486-715-487h-967v2265h471zm128-484v548c0 35-29 64-64 64h-599c-36 0-64-29-64-64V7788c0-35 28-64 64-64h1031c434 2 713 251 834 569 47 122 70 255 70 388s-24 266-71 388c-122 317-400 564-833 564h-368zm364-550h-428c-36 0-64-29-64-64v-684c0-35 28-64 64-64 77 0 107 0 138-1 97 0 197-1 292 1h1c155 3 252 108 293 244 15 50 22 105 22 160-1 54-9 109-24 160-44 139-142 248-294 248zm-364-128h364c86 0 144-70 171-158 12-39 19-81 19-123 0-41-5-83-17-122-26-85-83-152-173-153h-1c-94-2-192-2-288-1l-75 1v556zm2657-96l-895-1013h-128v2271h484V9114c0-35 29-64 64-64 20 0 38 9 50 24l473 509h12l479-512c25-26 65-27 91-3 13 12 20 29 20 46v1003h484V7846h-121l-915 1017c-23 26-64 29-90 5-3-3-6-6-8-9zm-818-1120l869 985 883-983c12-14 30-24 50-24h215c35 0 64 29 64 64v2400c0 35-29 64-64 64h-613c-35 0-64-29-64-64v-905l-383 410c-12 16-31 26-51 26h-67v-1c-18 0-35-6-47-20l-385-414v904c0 35-28 64-64 64h-612c-36 0-64-29-64-64V7781c0-35 28-64 64-64h221v1c17 0 35 7 48 21zm4142 2378h481v-12l-1035-2283h-175l-1031 2283v12h480l121-264c10-23 33-37 58-37h923c28 0 52 18 61 43l117 258zm545 128h-586c-24 0-47-14-58-38l-120-263h-841l-118 258c-9 25-33 43-61 43h-585c-36 0-64-29-64-64v-89c0-9 1-18 5-26l1053-2331c9-25 32-42 60-42h258c24 0 47 14 58 38l1056 2331c5 9 7 19 7 30v89c0 35-28 64-64 64zm-917-824h-535c-36 0-65-29-65-64 0-11 3-21 8-30l262-624c14-32 51-47 84-34 16 7 27 19 34 34l271 629c14 32-1 70-34 84-8 3-16 5-25 5zm-439-128h342l-173-402-169 402zm2199 824v-548c0-35 29-64 64-64h432c371 0 610-211 714-482 42-108 62-225 63-342 0-117-21-234-62-342-105-273-343-486-715-487h-967v2265h471zm128-484v548c0 35-29 64-64 64h-599c-35 0-64-29-64-64V7788c0-35 29-64 64-64h1031c434 2 713 251 834 569 47 122 70 255 70 388s-24 266-71 388c-122 317-400 564-833 564h-368zm364-550h-428c-35 0-64-29-64-64v-684c0-35 29-64 64-64 77 0 107 0 138-1 97 0 197-1 292 1h1c156 3 252 108 293 244 15 50 22 105 22 160-1 54-9 109-24 160-43 139-142 248-294 248zm-364-128h364c86 0 144-70 171-158 12-39 19-81 19-123 0-41-5-83-17-122-26-85-83-152-173-153h-1c-94-2-192-2-288-1l-75 1v556zm2036 1162v-849c0-35 28-64 64-64 74 0 146 0 220-13 29-5 57 11 69 36l495 890h564v-14l-627-1038c-18-29-9-68 20-86 416-272 423-681 423-1127h-488c2 459 2 906-633 906h-43c-36 0-64-29-64-64v-842h-481v2265h481zm128-785v849c0 35-29 64-64 64h-609c-36 0-64-29-64-64V7788c0-35 28-64 64-64h609c35 0 64 29 64 64v841c487-10 486-390 484-780v-61c0-35 29-64 64-64h616c35 0 64 29 64 64v40c0 474 1 910-430 1223l603 998c7 10 11 23 11 36v96c0 35-29 64-64 64h-666c-22 0-44-12-56-33l-494-888c-45 6-89 7-132 8zm3327 785h480v-12l-1034-2283h-176l-1031 2283v12h481l120-264c10-23 34-37 58-37h923c28 0 52 18 61 43l118 258zm544 128h-585c-25 0-48-14-59-38l-120-263h-841l-118 258c-9 25-32 43-60 43h-586c-35 0-64-29-64-64v-89c0-9 2-18 6-26l1052-2331c9-25 33-42 60-42h258c24 0 48 14 58 38l1056 2331c5 9 7 19 7 30v89c0 35-28 64-64 64zm-917-824h-535c-35 0-64-29-64-64 0-11 3-21 7-30l262-624c14-32 52-47 84-34 16 7 28 19 34 34l271 629c14 32-1 70-33 84-9 3-17 5-26 5zm-439-128h342l-173-402-169 402z"/>
      <path class="fil1" d="M8414 10092h-16v105h695l401-704h286v704h631V7772H9368c-285 1-501 109-644 270-143 162-215 376-215 591 0 274 118 550 354 713l9-13-13-8-461 762v5h16l14 8 466-772-12-8c-227-157-340-422-340-687 0-207 69-414 207-569 137-155 342-258 619-260h1027v-16h-16v2393h16v-17h-599v17h16v-721h-336l-402 704h-644v-72h-16l14 8-14-8zm954-1166v-16c-77 0-134-34-174-87-39-53-60-125-60-197 0-69 20-138 59-189 38-51 95-85 175-86 47-1 94-1 142-1 96 0 192 1 286 1v-16h-16v591h16v-16h-428v33h444v-624h-16c-93 0-190-2-286-2-48 0-96 1-143 2l1 16v-16c-89 0-157 40-201 98s-65 134-65 209c0 78 22 156 66 216s112 101 200 101v-17zm2136 1255h16v-596h416c284 0 500-113 643-283 143-171 214-396 214-622s-71-452-214-623c-143-170-359-284-643-285h-1047v2425h631v-16h-16v-17h-599v17h16V7788h-16v16h1031c275 1 480 111 618 274 137 164 206 383 206 602s-69 437-206 601c-138 163-343 272-618 272h-448v628h16v-17 17zm428-1162v-17h-428v17h16v-684h-16v16c91 0 189-1 285-1 48 0 96 0 143 1 80 1 138 39 178 98 39 60 60 140 59 222 1 83-21 168-61 230-41 62-99 101-176 101v33c89 0 158-48 203-117s67-158 67-247c0-87-21-173-65-240-44-66-114-112-205-112v16l1-16c-47-1-95-2-144-2-96 0-194 2-285 2h-16v716h444v-16zm2344-199l12-10-922-1045h-244v2432h645V9156l472 508h81l475-509v1042h645V7765h-238l-938 1045 12 10 12-10-12 10 12 11 929-1033h190v2383h17v-17h-613v17h16V9073l-522 558h-52l-519-558v1108h16v-17h-612v17h16V7798h197l925 1047 12-14-12-11zm3232 1361v16h602v-109l-1063-2347h-279l-1059 2347v109h612l137-301h903l137 301h10v-16l15-7-141-310h-945l-137 300h-559v-69l1048-2321h237l1052 2321v69h-570v17l15-7-15 7zm-331-824v-16h-511l240-571 256 593 15-6v-16 16l15-6-286-664-289 686h585l-10-22-15 6zm1824 824h16v-596h416c284 0 500-113 643-283 143-171 214-396 214-622s-71-452-214-623c-143-170-359-284-643-285h-1047v2425h631v-16h-16v-17h-599v17h16V7788h-16v16h1031c276 1 480 111 618 274 137 164 206 383 206 602s-69 437-206 601c-138 163-342 272-618 272h-448v628h16v-17 17zm428-1162v-17h-428v17h16v-684h-16v16c92 0 189-1 285-1 48 0 96 0 143 1 80 1 138 39 178 98 40 60 60 140 60 222 0 83-22 168-62 230-41 62-98 101-176 101v33c90 0 159-48 203-117 45-69 67-158 67-247 0-87-21-173-65-240-44-66-113-112-205-112v16l1-16c-47-1-95-2-144-2-96 0-194 2-285 2h-16v716h444v-16zm1736 1162h16v-913h-16v16c77 0 152 0 234-14l-3-16-14 8 520 935h691v-117l-638-1056-14 8 9 14c223-146 339-327 398-528 58-201 61-421 61-650v-96h-648v139c0 202-6 396-78 536-72 139-206 230-475 231h-27v-906h-641v2425h641v-16h-16v-17h-609v17h16V7788h-16v16h609v-16h-16v922h59c276 1 427-97 503-248 77-151 83-348 83-551v-123h-17v16h616v-16h-16v80c0 229-3 446-60 641-58 195-168 368-385 510l-13 8 642 1062v75h-640l-517-927-11 1c-79 14-151 14-228 14h-16v929h16v-17 17zm3350 0v16h602v-109l-1064-2347h-278l-1060 2347v109h612l137-301h903l137 301h11v-16l14-7-141-310h-945l-137 300h-559v-69l1049-2321h236l1052 2321v69h-569v17l14-7-14 7zm-332-824v-16h-511l241-571 255 593 15-6v-16 16l15-6-286-664-289 686h585l-10-22-15 6z"/>
      <path class="fil0" d="M11610 260L7974 901c-268 47-447 303-400 571l443 2512 354 758c97 207 80 438-23 624 110 112 271 170 438 141l3636-641c18-3 35-8 52-13-144-152-218-368-179-591l260-1475-375-2128c-47-267-302-446-570-399z"/>
      <path class="fil0" d="M11620 323L7985 964c-117 21-214 87-277 176-62 90-91 204-71 320l442 2504 350 751c52 111 74 228 70 343-4 102-29 202-72 294 42 34 90 61 143 78 63 21 134 26 205 14l3583-632c-46-65-82-138-105-215-33-109-42-227-21-346l258-1464-373-2117c-21-116-86-213-176-276s-203-91-320-71h-1zM7963 838l3634-641h4c150-26 297 11 413 92 117 82 202 207 229 357v2l1 2 374 2125c2 7 2 15 0 23l-260 1475c-17 99-10 197 17 287 28 93 79 179 146 249 7 8 12 16 15 27 10 34-10 69-44 79-11 3-21 6-29 8l-30 6-3636 641c-92 16-183 9-267-18-86-28-165-77-228-142-19-19-24-50-10-75 48-86 75-183 79-281 3-95-15-192-58-284l-354-759c-2-5-4-11-5-16l-443-2512c-26-151 11-299 93-416 81-117 208-202 359-229z"/>
      <path class="fil0" d="M5982 1239L2636 2800c-246 115-353 408-238 654l1560 3346c115 247 408 353 655 238l3346-1560c246-115 353-408 238-654L6637 1478c-115-247-408-354-655-239z"/>
      <path class="fil0" d="M6009 1298L2663 2858c-107 50-184 138-221 241-38 103-36 221 14 328l1560 3346c1 2 2 3 2 5 51 105 138 180 240 217 103 37 220 35 328-15l3346-1560c1-1 3-1 4-2 105-50 180-138 217-240 38-103 36-220-14-327L6578 1505c0-2-1-3-1-5-51-105-138-180-240-217-103-37-220-36-328 14v1zM2609 2742l3346-1561v1c140-65 292-68 426-19 132 48 246 146 311 282 1 2 2 4 3 5l1560 3347c65 139 67 291 18 425-48 132-145 246-282 311-2 1-3 2-5 3L4640 7096c-139 65-292 68-426 19-132-48-246-146-311-283-1-1-2-3-3-5L2340 3481c-65-139-67-291-19-425 49-134 149-250 288-314zM17332 901l-3636-641c-268-47-523 132-570 399l-641 3636c-48 268 131 524 399 571l3636 641c170 30 335-31 444-148-100-184-114-412-19-617l337-722 449-2548c48-268-131-524-399-571z"/>
      <path class="fil0" d="M22680 2800l-3346-1561c-247-115-539-8-654 239l-1561 3346c-115 246-8 539 239 654l3346 1560c246 115 539 9 654-238l1560-3346c115-246 9-539-238-654z"/>
      <path class="fil0" d="M22653 2858l-3346-1560v-1c-108-49-225-51-328-14-102 37-191 114-241 221v1l-1561 3346c-50 107-51 224-14 327s114 192 222 242l3346 1560c107 50 224 52 327 15 103-38 192-115 242-222l1560-3346c50-108 52-225 15-328-38-103-115-191-222-241zm-3292-1677l3346 1561c140 65 239 180 288 314 48 133 46 286-19 425l-1560 3346c-65 140-180 239-314 288s-286 46-425-19l-3347-1560c-139-65-238-180-287-314s-47-286 18-425l1561-3347v1-1c65-139 180-239 314-287 133-49 286-47 425 18zm0 0z"/>
      <path class="fil1 str0" d="M4300 4843c211 1485 2106 1276 2477 407 599-1166-840-1921-900-2497-24-221 110-233 169-355-371-250-1025 483-1672 357-70-14-430-289-729-10-271 253-146 852 36 1176 131 233 338 378 438 711 51 168 15 190 181 211zm37-659c764-1064-581-1831-648-1029-23 271 181 602 344 790 192 222 209 135 304 239z"/>
      <path class="fil1 str0" d="M4558 4464c386 197 1631-88 1813-422 158-291-372-609-557-1169-105-314 33-273 74-445-312 18-480 299-938 410-491 118-327 64-256 474 80 466-187 751-136 1152z"/>
      <path class="fil1 str0" d="M4699 4431c-4-229 338-335 712-429 446-93 749-69 863 112 99-86 91-174-28-229-211-98-652-43-814-14-179 31-666 142-825 357-68 94-33 203 92 203zm5606-1550c-106-82-271-592-525-901-177 5-508 124-609 224 8 251 134 484 100 807-77-42-153-323-305-562-42-67-39-78-120-47-188 71-385 347-461 515-140 309-93 603 123 783 395 330 1315 167 1843 90 582-84 1292-194 1605-546 406-458-199-1052-550-1167-78-25-155-54-156 41-1 145 50 463 49 598-99-51-47-45-142-246-74-157-182-371-284-501-81-102-158-88-311-94-451-15-436-41-340 314 47 176 122 509 83 692zm4831-764c-324-189-597-193-820-110-589 217-732 1251-288 1999 327 554 628 435 808 435 124 1 185 190 584 76 166-48 293-138 392-236 206-206 390-463 508-811 179-526 126-1128-428-1311-250-83-396-37-568-14 190-310 702-520 675-553-28-57-254-218-303-203-184 58-446 632-560 728z"/>
      <path class="fil1 str0" d="M14687 1086c-133 107-14 482 54 572 55 74 101 110 203 163 73 38 221 107 295 71 155-75 10-499-51-557-52-102-357-314-501-249zm140 1053c-419 21-597 233-669 474-12 38-21 77-27 117-16 94-21 190-19 284 2 195 57 352 29 402-4 7-5 14-10 18-11 3-22 5-33 4-193-18-278-1493 729-1299zm5210 2198c-164-78-317-45-400-195 156-24 403 95 482 9 50-53 157-283 175-408 115-787-1145-1635-1943-470-378 553-414 1294 208 1596 841 407 1159 16 1478-532zm-964-1406c-347 136-614 484-723 855-133 454-6 1065 563 823 893-380 1056-2030 160-1678zm2459 1939c-205 216-429-41-590-104-40 104-173 260-244 343l-297 309c121 121 406 135 576 39 168-96 304-270 454-325l149 187c52 57 5 23 74 62 33-124 68-192-8-306 116-10 231-4 312-57-33-72-109-128-183-158 61-124 109-95 127-294l-258 102c-35-182 45-374-9-556-47-160-210-286-402-263-66 99-40 212-63 337-22 117-73 216-103 326-112 321 353 362 465 358z"/>
      <path class="fil1 str0" d="M20194 4321c230 299 661 584 829-94 200-804-360-1001-626-855 2 187 139 269 32 543-66 168-168 231-235 406z"/>
      <path class="fil1 str0" d="M19546 5129c476 601 1016 87 1249-377-109-63-213-27-357-123-83-55-184-170-283-199-78 71-75 104-132 172l-167 169c-90 89-259 236-310 358zm-428-2099c45 43 41 141-9 218-49 78-126 106-171 62-45-43-42-141 8-218 50-78 126-105 172-62zm73 732c31 20 32 83 0 140-31 58-82 88-113 68-32-19-32-82-1-139 32-58 82-88 114-69zm-388-454c45 15 58 85 29 156s-89 116-134 101-58-85-29-155c29-71 88-117 134-102zm-19 491c71 23 92 132 46 243-45 111-138 182-209 158-70-23-91-132-46-243s139-182 209-158z"/>
      <path class="fil2" d="M7551 8988c0 201-35 378-96 531-67 166-165 304-284 413-112 103-242 181-382 233-145 55-300 82-455 82-156 0-311-27-456-82-139-52-269-130-381-233-119-109-217-247-284-413-62-153-97-330-97-531s35-378 97-531c67-165 165-303 284-412 112-103 242-180 381-232 145-55 301-82 456-82s310 27 455 82c139 52 270 129 382 232 119 109 217 247 284 412 61 153 96 330 96 531zm-1741-267c-29 77-46 166-46 267 0 102 17 191 46 269 31 83 77 153 133 208 52 51 113 90 179 116 68 28 140 42 213 42s146-14 214-42c65-26 126-65 179-116 55-55 101-125 133-208 29-78 45-167 45-269 0-101-16-190-45-267-32-83-78-151-133-206-53-51-114-90-179-116-68-27-141-41-214-41s-145 14-213 41c-66 26-127 65-179 116-56 54-102 123-133 206z"/>
      <path class="fil3" d="M3622 10181v16h-642V7772h642v906h27c134-1 235-24 311-64 75-40 127-98 163-167 36-70 56-154 66-245 11-91 13-190 12-291v-139h649v96c0 114-1 227-9 336s-24 214-53 314c-29 101-73 196-137 285-62 85-142 164-247 234l630 1043v117h-692l-515-925c-71 12-138 12-205 12v897z"/>
      <path class="fil2" d="M1692 8434c-95-70-213-109-346-109-63 0-120 6-173 20-52 14-100 35-142 63s-79 64-110 107c-32 44-59 95-79 156l-4 11H210l2-19c22-157 70-293 137-409 73-125 169-227 278-306 102-74 215-128 333-164 126-39 257-57 386-58 156 0 312 28 459 83 141 52 273 130 387 233 120 109 220 247 289 413 63 153 99 329 100 529v1c-1 199-37 375-99 527-68 166-168 303-288 412-113 103-244 180-384 233-146 55-301 82-457 82h-7c-133 0-268-18-396-58-119-36-233-91-334-166-110-82-206-187-278-318-67-121-115-263-136-430l-2-18h629l3 12c31 124 93 217 179 280 90 66 205 100 335 100 127-2 239-41 330-108 90-65 159-157 203-265h-764v-556h775c-40-117-108-212-198-278z"/>
      <path class="fil4" d="M8414 10092v89h669l402-704h311v704h599V7788H9368c-921 4-1088 1135-496 1545l-458 759zm954-1166c-325 0-342-587 0-591 140-3 288 0 428 0v591h-428zm2136 1255v-612h432c1121 0 1121-1777 0-1781h-1031v2393h599zm428-1162h-428v-684c137 0 288-3 428 0 348 4 328 684 0 684zm2344-199l-917-1039h-221v2400h612V9114l496 533h66l499-533v1067h613V7781h-215l-933 1039zm3232 1361h586v-89l-1057-2335h-258l-1054 2335v89h585l138-301h923l137 301zm-331-824h-535l264-629 271 629zm1824 824v-612h432c1121 0 1121-1777 0-1781h-1031v2393h599zm428-1162h-428v-684c137 0 288-3 428 0 348 4 328 684 0 684zm1736 1162v-913c77 0 150 0 231-14l515 927h666v-96l-636-1053c465-304 452-755 452-1244h-616c0 448 30 906-569 906h-43v-906h-609v2393h609zm3350 0h585v-89l-1057-2335h-258l-1054 2335v89h586l137-301h923l138 301zm-332-824h-535l264-629 271 629z"/>
      <path class="fil4" d="M8414 10092h-16v105h695l401-704h286v704h631V7772H9368c-285 1-501 109-644 270-143 162-215 376-215 591 0 274 118 550 354 713l9-13-13-8-461 762v5h16l14 8 466-772-12-8c-227-157-340-422-340-687 0-207 69-414 207-569 137-155 342-258 619-260h1027v-16h-16v2393h16v-17h-599v17h16v-721h-336l-402 704h-644v-72h-16l14 8-14-8zm954-1166v-16c-77 0-134-34-174-87-39-53-60-125-60-197 0-69 20-138 59-189 38-51 95-85 175-86 47-1 94-1 142-1 96 0 192 1 286 1v-16h-16v591h16v-16h-428v33h444v-624h-16c-93 0-190-2-286-2-48 0-96 1-143 2l1 16v-16c-89 0-157 40-201 98s-65 134-65 209c0 78 22 156 66 216s112 101 200 101v-17zm2136 1255h16v-596h416c284 0 500-113 643-283 143-171 214-396 214-622s-71-452-214-623c-143-170-359-284-643-285h-1047v2425h631v-16h-16v-17h-599v17h16V7788h-16v16h1031c275 1 480 111 618 274 137 164 206 383 206 602s-69 437-206 601c-138 163-343 272-618 272h-448v628h16v-17 17zm428-1162v-17h-428v17h16v-684h-16v16c91 0 189-1 285-1 48 0 96 0 143 1 80 1 138 39 178 98 39 60 60 140 59 222 1 83-21 168-61 230-41 62-99 101-176 101v33c89 0 158-48 203-117s67-158 67-247c0-87-21-173-65-240-44-66-114-112-205-112v16l1-16c-47-1-95-2-144-2-96 0-194 2-285 2h-16v716h444v-16zm2344-199l12-10-922-1045h-244v2432h645V9156l472 508h81l475-509v1042h645V7765h-238l-938 1045 12 10 12-10-12 10 12 11 929-1033h190v2383h17v-17h-613v17h16V9073l-522 558h-52l-519-558v1108h16v-17h-612v17h16V7798h197l925 1047 12-14-12-11zm3232 1361v16h602v-109l-1063-2347h-279l-1059 2347v109h612l137-301h903l137 301h10v-16l15-7-141-310h-945l-137 300h-559v-69l1048-2321h237l1052 2321v69h-570v17l15-7-15 7zm-331-824v-16h-511l240-571 256 593 15-6v-16 16l15-6-286-664-289 686h585l-10-22-15 6zm1824 824h16v-596h416c284 0 500-113 643-283 143-171 214-396 214-622s-71-452-214-623c-143-170-359-284-643-285h-1047v2425h631v-16h-16v-17h-599v17h16V7788h-16v16h1031c276 1 480 111 618 274 137 164 206 383 206 602s-69 437-206 601c-138 163-342 272-618 272h-448v628h16v-17 17zm428-1162v-17h-428v17h16v-684h-16v16c92 0 189-1 285-1 48 0 96 0 143 1 80 1 138 39 178 98 40 60 60 140 60 222 0 83-22 168-62 230-41 62-98 101-176 101v33c90 0 159-48 203-117 45-69 67-158 67-247 0-87-21-173-65-240-44-66-113-112-205-112v16l1-16c-47-1-95-2-144-2-96 0-194 2-285 2h-16v716h444v-16zm1736 1162h16v-913h-16v16c77 0 152 0 234-14l-3-16-14 8 520 935h691v-117l-638-1056-14 8 9 14c223-146 339-327 398-528 58-201 61-421 61-650v-96h-648v139c0 202-6 396-78 536-72 139-206 230-475 231h-27v-906h-641v2425h641v-16h-16v-17h-609v17h16V7788h-16v16h609v-16h-16v922h59c276 1 427-97 503-248 77-151 83-348 83-551v-123h-17v16h616v-16h-16v80c0 229-3 446-60 641-58 195-168 368-385 510l-13 8 642 1062v75h-640l-517-927-11 1c-79 14-151 14-228 14h-16v929h16v-17 17zm3350 0v16h602v-109l-1064-2347h-278l-1060 2347v109h612l137-301h903l137 301h11v-16l14-7-141-310h-945l-137 300h-559v-69l1049-2321h236l1052 2321v69h-569v17l14-7-14 7zm-332-824v-16h-511l241-571 255 593 15-6v-16 16l15-6-286-664-289 686h585l-10-22-15 6z"/>
      <path class="fil5" d="M11610 260L7974 901c-268 47-447 303-400 571l443 2512 354 758c97 207 80 438-23 624 110 112 271 170 438 141l3636-641c18-3 35-8 52-13-144-152-218-368-179-591l260-1475-375-2128c-47-267-302-446-570-399z"/>
      <path class="fil6" d="M5982 1239L2636 2800c-246 115-353 408-238 654l1560 3346c115 247 408 353 655 238l3346-1560c246-115 353-408 238-654L6637 1478c-115-247-408-354-655-239z"/>
      <path class="fil7" d="M17332 901l-3636-641c-268-47-523 132-570 399l-641 3636c-48 268 131 524 399 571l3636 641c170 30 335-31 444-148-100-184-114-412-19-617l337-722 449-2548c48-268-131-524-399-571z"/>
      <path class="fil0" d="M17331 906l-3636-641c-132-24-262 9-364 80-102 72-177 183-201 315l-641 3636c-23 133 9 262 81 365 71 102 182 177 315 200l3636 641c82 15 164 8 238-17 76-25 145-69 200-127-50-94-79-199-82-306-4-104 17-211 64-311l337-722 449-2548c23-133-9-263-81-365s-182-177-315-200zm-3634-650l3636 641c135 23 248 100 321 204 72 104 106 236 82 371l-449 2549h-1v1l-337 722c-46 100-66 205-63 308 3 107 32 211 83 305l1 3-2 2c-57 60-128 106-206 132-76 25-159 32-243 17l-3636-641c-135-24-248-100-321-204s-106-236-82-371l641-3636c24-135 100-248 205-321 104-73 236-106 371-82z"/>
      <path class="fil8" d="M22680 2800l-3346-1561c-247-115-539-8-654 239l-1561 3346c-115 246-8 539 239 654l3346 1560c246 115 539 9 654-238l1560-3346c115-246 9-539-238-654z"/>
      <path class="fil1" d="M4300 4843c211 1485 2106 1276 2477 407 599-1166-840-1921-900-2497-24-221 110-233 169-355-371-250-1025 483-1672 357-70-14-430-289-729-10-271 253-146 852 36 1176 131 233 338 378 438 711 51 168 15 190 181 211zm37-659c764-1064-581-1831-648-1029-23 271 181 602 344 790 192 222 209 135 304 239z"/>
      <path class="fil9" d="M4558 4464c386 197 1631-88 1813-422 158-291-372-609-557-1169-105-314 33-273 74-445-312 18-480 299-938 410-491 118-327 64-256 474 80 466-187 751-136 1152z"/>
      <path class="fil1" d="M4699 4431c-4-229 338-335 712-429 446-93 749-69 863 112 99-86 91-174-28-229-211-98-652-43-814-14-179 31-666 142-825 357-68 94-33 203 92 203zm5606-1550c-106-82-271-592-525-901-177 5-508 124-609 224 8 251 134 484 100 807-77-42-153-323-305-562-42-67-39-78-120-47-188 71-385 347-461 515-140 309-93 603 123 783 395 330 1315 167 1843 90 582-84 1292-194 1605-546 406-458-199-1052-550-1167-78-25-155-54-156 41-1 145 50 463 49 598-99-51-47-45-142-246-74-157-182-371-284-501-81-102-158-88-311-94-451-15-436-41-340 314 47 176 122 509 83 692zm4831-764c-324-189-597-193-820-110-589 217-732 1251-288 1999 327 554 628 435 808 435 124 1 185 190 584 76 166-48 293-138 392-236 206-206 390-463 508-811 179-526 126-1128-428-1311-250-83-396-37-568-14 190-310 702-520 675-553-28-57-254-218-303-203-184 58-446 632-560 728z"/>
      <path class="fil1" d="M14687 1086c-133 107-14 482 54 572 55 74 101 110 203 163 73 38 221 107 295 71 155-75 10-499-51-557-52-102-357-314-501-249z"/>
      <path class="fil10" d="M14827 2139c-419 21-597 233-669 474-12 38-21 77-27 117-16 94-21 190-19 284 2 195 57 352 29 402-4 7-5 14-10 18-11 3-22 5-33 4-193-18-278-1493 729-1299z"/>
      <path class="fil1" d="M20037 4337c-164-78-317-45-400-195 156-24 403 95 482 9 50-53 157-283 175-408 115-787-1145-1635-1943-470-378 553-414 1294 208 1596 841 407 1159 16 1478-532zm-964-1406c-347 136-614 484-723 855-133 454-6 1065 563 823 893-380 1056-2030 160-1678zm2459 1939c-205 216-429-41-590-104-40 104-173 260-244 343l-297 309c121 121 406 135 576 39 168-96 304-270 454-325l149 187c52 57 5 23 74 62 33-124 68-192-8-306 116-10 231-4 312-57-33-72-109-128-183-158 61-124 109-95 127-294l-258 102c-35-182 45-374-9-556-47-160-210-286-402-263-66 99-40 212-63 337-22 117-73 216-103 326-112 321 353 362 465 358z"/>
      <path class="fil1" d="M20194 4321c230 299 661 584 829-94 200-804-360-1001-626-855 2 187 139 269 32 543-66 168-168 231-235 406z"/>
      <path class="fil1" d="M19546 5129c476 601 1016 87 1249-377-109-63-213-27-357-123-83-55-184-170-283-199-78 71-75 104-132 172l-167 169c-90 89-259 236-310 358zm-428-2099c45 43 41 141-9 218-49 78-126 106-171 62-45-43-42-141 8-218 50-78 126-105 172-62zm73 732c31 20 32 83 0 140-31 58-82 88-113 68-32-19-32-82-1-139 32-58 82-88 114-69zm-388-454c45 15 58 85 29 156s-89 116-134 101-58-85-29-155c29-71 88-117 134-102zm-19 491c71 23 92 132 46 243-45 111-138 182-209 158-70-23-91-132-46-243s139-182 209-158z"/>
    </g>
  </g>
</svg>
